<?xml version="1.0" encoding="UTF-8"?>
<svg id="Layer_2" data-name="Layer 2" xmlns="http://www.w3.org/2000/svg" viewBox="0 0 126.36 86.24">
  <defs>
    <style>
      .cls-1 {
        fill: #bc5c50;
      }

      .cls-1, .cls-2 {
        stroke: #720000;
        stroke-linecap: round;
        stroke-linejoin: round;
        stroke-width: 4px;
      }

      .cls-2 {
        fill: #a52920;
      }
    </style>
  </defs>
  <g id="Layer_1-2" data-name="Layer 1">
    <g>
      <path class="cls-2" d="M124.12,51.69c.23-1.38.29-2.78.18-4.17.13-4.61.02-9.09-.27-13.47l-6.24-.24c-6.8-9.15-15.95-17.14-23.44-19.46-4.61-1.15-13.39-2.48-14.88,5.55v13.12L2.97,41.11c-2.85,12.09,1.51,21.52,1.51,21.52h0c3.51,9.55,11.97,19.05,18.51,15.59,23.84-23.4,56.49-20.23,56.49-20.23v19.83c1.49,8.03,10.26,6.71,14.88,5.55,9.17-2.85,20.84-14.19,27.63-25.76,1.08-1.84,1.78-3.82,2.12-5.86h0s0-.05,0-.07Z"/>
      <path class="cls-1" d="M79.48,28.95V8.42c1.49-8.03,10.26-6.71,14.88-5.55,9.17,2.85,20.84,14.19,27.63,25.76,3.17,5.4,3.17,12.1,0,17.5-6.78,11.57-18.46,22.92-27.63,25.76-4.61,1.15-13.39,2.48-14.88-5.55v-14.1s0-5.74,0-5.74c0,0-32.65-3.17-56.49,20.23-11.06,5.86-27.56-25.28-16.5-31.14,0,0,31.34-18.1,72.99-6.64Z"/>
    </g>
  </g>
</svg>