<?xml version="1.0" encoding="UTF-8"?>
<svg id="Layer_2" data-name="Layer 2" xmlns="http://www.w3.org/2000/svg" xmlns:xlink="http://www.w3.org/1999/xlink" viewBox="0 0 1012.58 402.15">
  <defs>
    <style>
      .cls-1 {
        fill: #ffa799;
      }

      .cls-1, .cls-2, .cls-3, .cls-4, .cls-5, .cls-6, .cls-7, .cls-8, .cls-9, .cls-10, .cls-11, .cls-12, .cls-13, .cls-14, .cls-15 {
        stroke-width: 0px;
      }

      .cls-16 {
        stroke-width: 5.04px;
      }

      .cls-16, .cls-17, .cls-18, .cls-19 {
        stroke: #720000;
      }

      .cls-16, .cls-17, .cls-18, .cls-19, .cls-20 {
        fill: none;
        stroke-linecap: round;
        stroke-linejoin: round;
      }

      .cls-16, .cls-21, .cls-22 {
        font-family: Kanit-Bold, Kanit;
        font-size: 112.72px;
        font-weight: 700;
        letter-spacing: -.04em;
      }

      .cls-2 {
        fill: #ff9810;
      }

      .cls-3 {
        fill: url(#linear-gradient);
      }

      .cls-17, .cls-20 {
        stroke-width: 4.03px;
      }

      .cls-4 {
        opacity: .6;
      }

      .cls-4, .cls-6, .cls-10, .cls-13 {
        fill: #fff;
      }

      .cls-5 {
        fill: #ffd1b8;
      }

      .cls-18 {
        stroke-width: 4.28px;
      }

      .cls-6 {
        opacity: .3;
      }

      .cls-23 {
        letter-spacing: -.04em;
      }

      .cls-19 {
        stroke-width: 4.97px;
      }

      .cls-19, .cls-24, .cls-25 {
        font-family: Kanit-Black, Kanit;
        font-size: 120.18px;
        font-weight: 800;
      }

      .cls-7 {
        fill: #f9a7ce;
      }

      .cls-8 {
        fill: #ffc033;
      }

      .cls-21 {
        fill: #fc85ff;
      }

      .cls-20 {
        stroke: #fff;
      }

      .cls-26, .cls-10 {
        opacity: .4;
      }

      .cls-22, .cls-12, .cls-25 {
        fill: #720000;
      }

      .cls-9 {
        fill: #76beff;
        opacity: .58;
      }

      .cls-11 {
        fill: #ffc4d6;
      }

      .cls-14 {
        fill: #c3e9fc;
      }

      .cls-27 {
        letter-spacing: -.17em;
      }

      .cls-15 {
        fill: #417ef7;
        opacity: .57;
      }

      .cls-24 {
        fill: #ffce00;
      }
    </style>
    <linearGradient id="linear-gradient" x1="544.18" y1="367.29" x2="565.39" y2="52.93" gradientUnits="userSpaceOnUse">
      <stop offset="0" stop-color="#ed7eb6"/>
      <stop offset="1" stop-color="#ffaec9"/>
    </linearGradient>
  </defs>
  <g id="Layer_1-2" data-name="Layer 1">
    <g>
      <polyline class="cls-3" points="848.73 391.53 1012.58 237.51 1012.58 56.45 472.39 56.45 89.51 293.65"/>
      <g>
        <polygon class="cls-8" points="956.54 265.26 109.95 265.26 2.14 367.38 848.73 367.38 956.54 265.26"/>
        <ellipse class="cls-2" cx="258.53" cy="310.76" rx="167.67" ry="42.6"/>
        <polygon class="cls-2" points="2.14 391.53 2.14 367.38 848.73 367.38 956.54 265.26 956.54 289.41 848.73 391.53 2.14 391.53"/>
        <polygon class="cls-18" points="956.54 265.26 109.95 265.26 2.14 367.38 848.73 367.38 956.54 265.26"/>
        <polygon class="cls-18" points="2.14 391.53 2.14 367.38 848.73 367.38 956.54 265.26 956.54 289.41 848.73 391.53 2.14 391.53"/>
        <g>
          <g>
            <g>
              <path class="cls-12" d="M226.64,40.38s5.96,2.47,11.22,1.79c8.77-1.15,10.51-11.79,3.17-15.53-9.19-4.68-15.17,1.76-15.17,1.76-4.59-4.21-4.07-14.13,6.68-19.9,11.41-6.13,26.48,1.55,26.48,1.55-15.54-17.72-40.13-9.37-45.63,4.93-5.5,14.3,5.02,21.35,5.02,21.35-11.74,20.49-3.25,34.48-3.25,34.48l10.81-3.92c-7.76-11.97.67-26.5.67-26.5ZM236.02,31.39c3.39.21,2.77,3.43.38,3.46-2.62.03-4.89-1.7-4.89-1.7,0,0,1.25-1.97,4.51-1.76Z"/>
              <path class="cls-13" d="M229.17,4.03c-3.37.51-6.55,2.16-8.9,4.62s-3.86,5.71-4.22,9.1c1.24-3.96,4.35-7.45,8.16-9.1-2.53,2.69-3.82,6.44-3.84,10.12,1.63-5.75,6.54-10.57,12.27-12.28-2.14-.44-4.46-.36-6.53.35.78-1.49,1.48-2.24,3.07-2.81Z"/>
              <path class="cls-13" d="M220.3,40.94c-1.86,1.63-3.27,4.02-3.94,6.7-.67,2.68-.6,5.62.19,8.23-.44-3.36.38-7.07,2.16-9.7-.71,2.91-.36,6.13.73,8.84-.74-4.82.75-10.17,3.66-13.57-1.41.48-2.77,1.4-3.8,2.69.02-1.39.22-2.19,1-3.2Z"/>
            </g>
            <path class="cls-12" d="M259.89,40.29c-1.2.41-2.28-.84-1.7-1.97,1.97-3.81,6.36-10.06,14.61-11.83,10.41-2.24,17.39,1.97,20.13,5.82.66.92-.04,2.21-1.18,2.19-4.67-.09-16.07.4-31.87,5.8Z"/>
            <path class="cls-12" d="M185.55,44.85c1.01.12,1.65-1.04,1-1.83-2.18-2.66-6.68-6.83-13.45-6.83-8.54,0-13.3,4.46-14.81,7.94-.36.84.4,1.72,1.29,1.52,3.65-.85,12.67-2.38,25.97-.8Z"/>
            <path class="cls-5" d="M331.62,323.45c-67.65,26.16-112.11-7.22-112.11-7.22-25.76,30.68-128.68,33.29-149.05-49.65-14.21-57.84,15.57-93.64,37.73-111.41,0,0,.01,0,.02-.02,11.6-9.31,21.11-13.67,21.11-13.67l4.03-11.75c-.19-2.14-.27-4.19-.24-6.16.32-27.98,20.74-39.46,20.74-39.46h0c.08-.18,1.14-2.45,3.19-5.64h0s.05-.09.11-.18c.19-.28.37-.56.56-.85.09-.13.19-.28.29-.43,4.9-7.22,14.07-17.73,27.21-20.48,19.78-4.15,34.79,12.3,34.79,12.3,0,0,11.87-21.65,38.03-21.92,28.79-.31,46.06,27.19,54.8,47.18,0,.01,0,.02.02.03,1.8,4.13,3.24,7.94,4.34,11.11,1.94,5.57,2.83,9.2,2.83,9.2,10.99,4.3,21.93,10.14,32.11,17.88,5.88,4.48,11.52,9.6,16.76,15.44,2.67,2.97,5.24,6.13,7.69,9.49,1.32,1.81,2.6,3.67,3.85,5.59,1.5,2.3,2.93,4.68,4.31,7.15,1.81,3.23,3.52,6.62,5.12,10.16,1.18,2.6,2.29,5.27,3.34,8.04,16.32,42.93,5.97,109.15-61.59,135.28Z"/>
            <g>
              <path class="cls-11" d="M224.37,264.52c-5.47,3.88-10.26,7.29-15.2,9.28-9.96,4-20.57,2.23-38.7-13-18.43-15.49-21.57-38.85-17.82-49.01.99-2.69,2.46-4.45,4.25-4.9l2.35-5.2c.22-.26.42-.51.63-.76.18-.23.36-.45.55-.68,3.19-3.91,6.41-7.66,17.71-10.85,11.97-3.38,17.28,3.29,27.41.14,10.13-3.15,22.84-3.27,37.1,12.66,14.26,15.93-1.82,50.62-18.29,62.32Z"/>
              <path class="cls-7" d="M243.93,229.58c-7.28-3.52-27.25-2.06-33.5-2.65-.26-.02-.51-.05-.75-.08-4.49-.58-6.08-6.27-2.6-9.16,7.93-6.58,16.93-7.78,16.93-7.78-7.52-1.69-14.88,1.38-19.21,3.8-1.58.89-3.45-.59-2.92-2.33,2.62-8.58,9.1-15.41,9.1-15.41-11.56,2.61-15.51,17.41-18.85,17.74-3.34.33-3.03-10.23-3.03-10.23-2.46,5.66-.1,15.1-.1,15.1-7.22,6.84-15.86-19.74-15.86-19.74,1.28,15.1,8.03,22.95,8.03,22.95-20.46,4.24-20.58-18.98-20.73-21.55,0-.14,0-.22,0-.22,0,0-.22.32-.54.89-1.24,2.2-4.04,8.1-1.76,13.17,2.87,6.39,12.54,12.16,12.54,12.16-16.13.31-18.96-11.12-17.86-14.57,0,0-.05.03-.16.11-3.74,10.15-.61,33.51,17.82,49.01,18.13,15.23,28.74,17,38.7,13,2.9-2.81,4.94-5.18,4.94-5.18,3.83-7.53.24-18.64-3.06-23.93-3.3-5.3-12.07-10.52-12.07-10.52,0,0,6.68-2.88,14.36.81,7.67,3.7,12.91,15.15,12.91,15.15.59-3.91-.37-12.06-7.52-18.19,16.14-.08,25.2-2.35,25.2-2.35ZM185.69,259.15c-3.87.06-5.9-8.72-3.53-13.87,2.37-5.15,7.97-8.31,7.97-8.31-4.13-.31-3.46-.71-13.2,2.59-12.45,4.22-14.58-4.1-10.92-6.91,2.07-1.6,7.32-3.44,12.81-2.3,5.49,1.14,10.16,3.22,10.16,3.22l1.15,3.41,2.87,1.1c-8.65,6.56-3.44,21.03-7.31,21.09ZM200.82,260.88c-3.6,1.23-7.63.26-9.17-7.54-1.54-7.8,2.61-16.76,2.61-16.76,13.49,10.91,10.16,23.07,6.56,24.3Z"/>
              <g>
                <g class="cls-26">
                  <path class="cls-13" d="M234.31,201.04c.51,1.5-7.14.74-15.32,3.51-8.18,2.76-13.8,8.01-14.31,6.51-.51-1.5,4.29-9.19,12.47-11.95,8.18-2.76,16.66.44,17.16,1.94Z"/>
                  <path class="cls-13" d="M183.92,193.48c.97.02-1.05,4.27-1.15,9.56s1.77,9.62.79,9.6-4.41-4.37-4.31-9.67c.1-5.29,3.7-9.52,4.67-9.5Z"/>
                  <path class="cls-13" d="M200.44,195.29c.53.29-1.81,2.05-3.38,4.92s-1.8,5.79-2.32,5.5-1.17-3.67.41-6.55c1.58-2.88,4.77-4.17,5.3-3.88Z"/>
                  <path class="cls-13" d="M164.72,204.92c.82-.53,1.5,4.14,4.36,8.59,2.86,4.45,6.81,7.02,5.99,7.54s-6.1-1.18-8.96-5.64-2.21-9.97-1.4-10.49Z"/>
                  <path class="cls-13" d="M156.18,216.47c.28-.29,1,1.51,2.57,3.02,1.57,1.51,3.4,2.15,3.13,2.44s-2.55.11-4.13-1.39-1.85-3.78-1.57-4.06Z"/>
                  <path class="cls-13" d="M241.37,225.23c-1.19,1.55-6.55-.78-14.59-1.43-8.05-.64-14.7,1.04-14.55-.9.15-1.94,5.12-7.74,15.28-7.81,12.68-.08,14.99,8.64,13.85,10.13Z"/>
                  <path class="cls-13" d="M218.16,249.19c-.88-.05-2.05-2.88-4.67-6.34-2.62-3.45-5.46-5.68-4.82-6.17s4.12-.1,7.69,4.01c4.46,5.13,2.64,8.53,1.8,8.49Z"/>
                  <path class="cls-13" d="M185.33,250.88c.45-.22.43-1.98,1.02-4.39.6-2.41,1.58-4.23,1.13-4.34s-2.19.88-3.14,3.86c-1.18,3.71.55,5.09.98,4.87Z"/>
                  <path class="cls-13" d="M181.42,235.31c-.44.55-2.85-.01-6.34.08-3.49.09-6.28.9-6.29.25s1.87-2.74,6.24-3.14c5.45-.5,6.82,2.28,6.39,2.81Z"/>
                  <path class="cls-13" d="M195.2,253.53c.31.58.71,1.13,1.27,1.49s1.28.5,1.88.25c.58-.24.98-.81,1.17-1.42s.2-1.25.21-1.88c.02-1.46.04-2.96-.53-4.3-1.01-2.4-3.23-3.04-4.29-.45-.82,2-.74,4.4.28,6.31Z"/>
                </g>
                <g>
                  <path class="cls-12" d="M150.86,217.95c-.3-4.61,1.4-9.43,5.33-12.17l-.58.84c2.72-10.99,13.13-16.96,23.34-19.44,5.18-1.24,10.71-.79,15.78.69,1.39.45,2.83.94,4.33.87,2.9-.07,6.16-1.07,9.54-1.66,3.38-.62,6.99-.8,10.44-.14,3.45.63,6.68,2.03,9.55,3.83.27.17.35.52.18.78-.15.24-.46.33-.71.22-6.01-2.68-12.48-3.3-18.81-1.57-3.16.71-6.28,1.99-10.08,2.22-1.8.15-3.73-.31-5.48-.83-4.56-1.25-9.29-1.57-13.91-.55-8.81,2.05-18.51,7-21.61,16.1-.07.35-.28.67-.58.84-1.67.96-3.01,2.41-3.92,4.13-.95,1.76-1.54,3.84-1.7,5.83-.03.67-1.1.7-1.13,0h0Z"/>
                  <path class="cls-12" d="M238.01,196.86c7.16,2.54,11.4,10.73,10.88,18.06-.04.56-.84.73-1.11.24-1.79-2.93-3.2-6.03-4.89-8.97-1.67-2.9-3.45-5.64-5.47-8.36-.41-.41.03-1.16.58-.97h0Z"/>
                  <path class="cls-12" d="M169.13,258.36c5.69,5.59,12.41,10.79,20.3,12.52,3.25,1.76,7.09,2.55,10.78,2.46,3.76-.09,7.44-1.2,10.77-2.96,7.83-2.58,14.86-7.47,20.49-13.49,5.67-6.07,9.84-13.41,12.69-21.22.11-.3.43-.45.73-.34.28.1.43.4.36.68-2.23,8.26-6.13,16.15-11.73,22.7-5.1,6.33-14.49,12.94-20.78,14.83-7.48,4.64-17.52,5.21-25.16.62,0,0,.61.25.61.25-2.18-.53-4.26-1.33-6.16-2.39-5.6-3.11-10.25-7.66-13.8-12.95-.36-.57.42-1.21.9-.7h0Z"/>
                  <path class="cls-12" d="M187.93,273.58c-3.33-2.78-5.1-6.76-6.01-10.88-.04-.2.08-.4.28-.44.18-.04.37.06.43.23.35.93.72,1.84,1.18,2.71,1.26,2.45,3.15,4.94,5.48,6.36,1.47.89.03,3.05-1.36,2.02h0Z"/>
                  <path class="cls-12" d="M211.07,271.32c1.51-1.53,2.42-3.7,2.78-5.84.01-.09.09-.15.18-.13.07.01.13.07.13.14.15,1.78-.08,3.65-.7,5.35-.35.85-.93,2.83-2.25,2.09-.56-.34-.63-1.17-.14-1.61h0Z"/>
                  <path class="cls-12" d="M208.73,231.72c.76,8.17-5.25,15.42-13.42,16.18-8.17.76-15.42-5.25-16.18-13.42-.76-8.17,3.34-12.84,13.52-13.19,10.99-.38,15.31,2.26,16.07,10.44Z"/>
                  <path class="cls-12" d="M158.9,207.06c-.45,3.17.19,6.72,1.94,9.46.32.55.14,1.25-.4,1.58-.49.29-1.11.17-1.47-.25-.64-.76-1.25-1.56-1.73-2.43-1.51-2.7-2.27-5.57-2.32-8.71,0-1.11.9-2.01,2.01-2,1.24-.01,2.2,1.15,1.97,2.36h0Z"/>
                  <path class="cls-12" d="M189.41,227.49c-8.74-1.79-13.19-10.88-15.04-18.81-.12-.47.59-.66.71-.18,1.98,7.35,6.31,15.92,14.46,17.47,1.06.06.93,1.65-.13,1.52h0Z"/>
                  <path class="cls-12" d="M192.35,226.26c-5.78-7.14-7.04-18.64-1.76-26.36.31-.39.89.08.57.47-4.73,7.42-3.28,18.26,2.29,24.84.76.72-.4,1.85-1.1,1.06h0Z"/>
                  <path class="cls-12" d="M196.04,219.28c.37-10.26,6.74-20.42,16.32-24.42.63-.27,1.26-.53,1.89-.77.11-.04.24.01.28.12.04.11,0,.22-.11.27-9.57,4.88-16.05,14.33-17.95,24.82-.02.26-.45.25-.43-.03h0Z"/>
                  <path class="cls-12" d="M199.19,226.65c3.64-7.32,10.11-13.71,18.28-15.44,0,0,1.61-.32,1.61-.32.2-.04.39.09.43.29.04.21-.11.41-.32.44-6.31,1.09-11.73,5.09-15.43,10.22-1.24,1.71-2.36,3.57-3.19,5.45-.41.91-1.82.28-1.38-.64h0Z"/>
                  <path class="cls-12" d="M200.36,232.95c7.28-1.1,15.83.75,20,7.28,0,0,.8,1.26.8,1.26.25.39-.35.79-.61.4-.3-.42-.94-1.4-1.23-1.81-4.32-5.52-12.08-6.86-18.66-5.65-1.01.23-1.34-1.3-.3-1.49h0Z"/>
                  <path class="cls-12" d="M184.78,233.05c-4.16-2.63-9.58-2.76-14.29-1.73-.45.09-.6-.62-.15-.72,3.76-1.03,7.77-1.32,11.57-.32.85.31,4.79,1.19,4,2.56-.24.4-.78.48-1.13.2h0Z"/>
                  <path class="cls-12" d="M188.29,239.22c-4.39,2.32-6.75,7.41-7.14,12.22-.05.46-.78.38-.73-.08.18-5.29,2.48-10.73,7.21-13.52.93-.51,1.64.96.66,1.37h0Z"/>
                  <path class="cls-12" d="M194.25,240.29c-3.92,6.38-3.16,14.84,1,20.93.29.4-.33.84-.61.41-3.38-4.76-5.02-10.83-3.73-16.61.41-1.93,1.04-3.77,2.06-5.56.21-.37.67-.49,1.04-.28.4.22.5.75.24,1.12h0Z"/>
                  <path class="cls-12" d="M205.13,242.91c4.9,4.42,8.11,10.84,8.58,17.43.02.2-.3.26-.34.05-1.67-6.25-4.56-12.09-8.48-17.24-.14-.15.09-.39.24-.24h0Z"/>
                  <path class="cls-12" d="M230.43,209.17c5.17-1.29,11.35-.82,15.55,2.74.15.13-.02.39-.2.28-4.73-2.39-10.08-2.75-15.3-2.68-.2.02-.26-.29-.06-.34h0Z"/>
                  <path class="cls-12" d="M156.62,242.76c-2.49-2.38-2.95-6.94-.28-9.34.14-.13.37.06.26.22-1.39,2.89-.94,6.09.3,8.93.08.17-.16.33-.29.19h0Z"/>
                </g>
              </g>
            </g>
            <path class="cls-4" d="M389.86,180.13c-25.2-44.6-67.83-56.75-67.83-56.75l-4.85-18.16c1.94,5.57,2.83,9.2,2.83,9.2,10.99,4.3,21.93,10.14,32.11,17.88,14.96,11.38,28.28,26.91,37.74,47.84Z"/>
            <path class="cls-10" d="M331.29,204.62c-5.38,3.72-12.43,5.04-17.73,2.78-3.61-1.54-6.17-4.51-8.63-7.4-8.03-9.47-16.07-18.94-24.1-28.4-3.68-4.34-7.55-9.27-6.8-15.35.78-6.4,6.85-12.18,13.4-14.44s13.38-1.56,19.45.19c19.78,5.69,54.24,42,24.42,62.62Z"/>
            <path class="cls-10" d="M102.13,221.72c5.07,2.6,11.55,2.56,16.27-.62,3.22-2.17,5.41-5.52,7.51-8.78,6.88-10.67,13.76-21.35,20.64-32.02,3.15-4.89,6.44-10.39,5.49-16.14-1.01-6.06-6.79-10.52-12.86-11.48-6.06-.96-12.25.99-17.7,3.82-17.74,9.21-47.45,50.83-19.36,65.22Z"/>
            <path class="cls-1" d="M210.92,124.35s-39.19-10.19-77.82-.78c.32-27.98,20.74-39.46,20.74-39.46h0c9.79-14.28,24.44-17.48,36.12-15.02,11.68,2.46,24.78,10.55,24.78,10.55,0,0-8.08,14.3-3.82,44.71Z"/>
            <path class="cls-1" d="M211.07,106.78c1.65-16.9,13.13-41.57,40.01-44.14,26.88-2.58,44.14,27.51,45.11,50.87,0,0-44.9-9.23-85.82,8.01,0,0-.74.01.7-14.74Z"/>
            <path class="cls-4" d="M312.82,94.08c-12.17-22.35-31.28-39.94-54.03-41.09-22.76-1.15-40.68,19.02-40.68,19.02-35.37-25.25-55.61-1.37-60.12,4.99,4.9-7.22,14.07-17.73,27.21-20.48,19.78-4.15,34.79,12.3,34.79,12.3,0,0,11.87-21.65,38.03-21.92,28.79-.31,46.06,27.19,54.8,47.18Z"/>
            <path class="cls-1" d="M139.81,127.71s22.33,29.85,76.89,5.27c0,0,53.34,11.84,76.96-14.16,0,0-46.35,17.18-82.74,5.53,0,0-31.96,19.57-71.12,3.36Z"/>
            <path class="cls-1" d="M387.55,259.86c-6.56,18.4-22.02,43.29-58.35,57.35-12.01,4.64-24.07,7.62-35.87,8.86-42.64,4.51-78.86-15.06-78.86-15.06,0,0-12.25,14.3-39.97,17.62-20.31,2.44-41.56-1.87-58.22-11.04-20.24-11.12-33.46-28.82-39.3-52.61-5.92-24.14-4.31-46.46,4.81-66.35.81-1.76-9.62,47.66,16.31,80.82,30.49,38.99,85.34,32.66,108.05,13.65,0,0,70.65,35.89,127.6-1.09,44.1-28.62,46.37-96.6,35.5-131.64.39-.16.79-.33,1.17-.49,8.38,12.39,14.9,26.36,16.52,30.65,8.19,21.55,8.43,47.45.61,69.31Z"/>
            <path class="cls-18" d="M331.62,323.45c-67.65,26.16-112.11-7.22-112.11-7.22-25.76,30.68-128.68,33.29-149.05-49.65-21.65-88.16,58.86-125.1,58.86-125.1l4.03-11.75c-.19-2.14-.27-4.19-.24-6.16.32-27.98,20.74-39.46,20.74-39.46h0c.24-.58,11.06-23.34,31.36-27.59,19.78-4.14,34.79,12.3,34.79,12.3,0,0,11.87-21.65,38.03-21.92,45.19-.47,61.99,67.52,61.99,67.52,29.15,11.42,57.91,33.55,73.19,73.75,16.32,42.93,5.97,109.15-61.59,135.28Z"/>
            <path class="cls-12" d="M221.75,70.05c-3.03,4.92-5.13,10.51-6.67,16.08-3.59,12.99-3.79,26.8-1.61,40.08,2.66,6.71,18.96,9.92,25.76,10.74,17.59,2.05,36.72-.11,51.51-10.54.31-.22.75-.15.97.16.22.3.16.72-.13.95-4.81,3.87-10.37,6.76-16.17,8.85-17.36,5.92-37.4,6.18-54.79.05-4.36-1.78-10.45-4.48-11.43-9.9-2.38-13.76-2.34-28.09,1.5-41.61,1.73-6.08,4.06-11.99,7.58-17.31,1.66-2.28,5.1.11,3.5,2.47h0Z"/>
            <g>
              <path class="cls-13" d="M296.07,108.92c-6.65,8.95-21.2,14.21-37.1,15.94-10.5,1.15-21.59.75-31.37-1.15-6.5-1.26-12.42-3.17-17.24-5.74-.66-8.01,2.44-45.09,40.7-47.36,37.71-2.25,45.01,38.31,45.01,38.31Z"/>
              <path class="cls-12" d="M259.31,121.65c0,1.1-.11,2.17-.34,3.21-10.5,1.15-21.59.75-31.37-1.15-.1-.67-.15-1.36-.15-2.06,0-8.79,7.14-15.92,15.94-15.92s15.92,7.14,15.92,15.92Z"/>
              <circle class="cls-13" cx="247.84" cy="116.93" r="6.49"/>
              <path class="cls-6" d="M241.75,124.84c0,.09,0,.18,0,.27-3.93.03-7.69.18-11.23.4-.03-.21-.04-.44-.04-.66,0-3.11,2.52-5.64,5.64-5.64s5.64,2.53,5.64,5.64Z"/>
              <path class="cls-18" d="M296.07,108.92c-13.95,18.79-62.7,21.32-85.71,9.06-.66-8.02,2.44-45.09,40.7-47.37,37.71-2.25,45.01,38.31,45.01,38.31Z"/>
            </g>
            <g>
              <path class="cls-13" d="M210.93,124.35c-.72,1.19-6.3,2.49-14.55,3.35-3.14.33-6.67.59-10.46.76-2.21.1-4.51.18-6.89.2-1.5.02-3.04.04-4.59.01-13.55-.09-28.7-1.45-41.34-5.1-.53-24.42,18.14-37.9,20.74-39.46,14.55-8.79,38.14-11.8,58.07,3.55-2.36,9.24-3.69,21.64-.99,36.69Z"/>
              <g>
                <path class="cls-12" d="M205.4,126.25c-2.65.34-5.67.8-9.02,1.45-3.14.33-6.67.59-10.46.76-2.21.1-4.51.18-6.89.2-1.5.02-3.04.04-4.59.01-2.1-7.56,1.71-15.69,9.15-18.8,8.06-3.37,17.32.44,20.7,8.49,1.07,2.59,1.42,5.29,1.11,7.89Z"/>
                <circle class="cls-13" cx="193.04" cy="120.35" r="6.49"/>
                <path class="cls-6" d="M188.34,127.86c-.8.19-1.6.4-2.42.6-2.21.1-4.51.18-6.89.2-.24-2.02.87-4.05,2.84-4.87,2.39-.99,5.12.14,6.12,2.51.21.51.33,1.04.35,1.56Z"/>
              </g>
              <path class="cls-18" d="M210.92,124.35c-2.15,3.51-47.29,8.03-77.82-.78-.53-24.42,18.13-37.9,20.74-39.46,14.54-8.78,38.13-11.8,58.07,3.55-2.37,9.23-3.68,21.64-.99,36.69Z"/>
            </g>
            <path class="cls-12" d="M156.24,143.86c13.62,2.76,27.98,3.38,41.34-.89,1.33-.5,2.79-1.04,4.14-1.5.44-.16.75.5.34.73-1.21.75-2.62,1.56-3.87,2.26-9.5,4.58-20.51,5.33-30.79,3.51-3.92-.71-7.77-1.73-11.42-3.35-.44-.19-.21-.9.27-.76h0Z"/>
            <path class="cls-12" d="M135.21,128.67c2.21,4.52,5.56,8.93,10.14,11.28.33.15.47.55.3.87-.14.27-.46.4-.74.31-2.74-.79-5.26-2.27-7.47-4.06-2.27-1.87-4.19-3.85-5.94-6.28-.69-.97-.46-2.31.51-3,1.09-.79,2.68-.35,3.21.88h0Z"/>
            <path class="cls-12" d="M322.09,113.89c1.14,6.1,2.05,12.16,2.68,18.32.06.61-.39,1.16-1,1.22-.57.06-1.09-.33-1.2-.88-1.28-5.92-2.86-11.85-4.63-17.63-.79-2.87,3.5-3.95,4.15-1.03h0Z"/>
            <path class="cls-12" d="M218.32,318c-9.82-8.53-13.06-22.37-13.57-34.86-.03-.44.66-.54.73-.08,0,0,.73,4.58.72,4.58,1.45,7.37,4.05,14.74,8.53,20.8,1.7,2.25,3.64,4.44,5.97,6.01,2.52,1.59.07,5.29-2.38,3.56h0Z"/>
          </g>
          <g>
            <path class="cls-12" d="M297.99,100.26c3.18-10.63,32.98-6.18,32.98-6.18l.67-5.09-45.25-8.87c7.56,4.51,11.7,11.06,11.59,20.14Z"/>
            <path class="cls-17" d="M286.4,80.11l45.25,8.87-.67,5.09s-29.81-4.45-32.98,6.18"/>
            <g>
              <path class="cls-9" d="M278.92,159.38c-18.19,1.86-36.09,1.89-53.67-.09-8.84-1-16.18-7.37-18.11-16.06-3.79-17.09-3.74-33.42-.3-49.06,1.93-8.77,9.39-15.3,18.33-16.1,17.46-1.57,35.23-1.66,53.34-.2,10.14.82,18.18,8.76,19.17,18.88,1.4,14.38,1.36,29.08-.16,44.09-.99,9.8-8.8,17.53-18.6,18.53Z"/>
              <path class="cls-15" d="M293.69,115.27c.09,8.27-.29,16.66-1.14,25.07-.75,7.39-6.69,13.3-14.14,14.06-8.89.9-17.76,1.36-26.35,1.36s-17.7-.49-26.25-1.45c-6.8-.77-12.34-5.66-13.79-12.17-1.19-5.39-1.99-10.74-2.39-16.06,9.84,7.67,22.71,12.32,36.82,12.32,19.89,0,37.34-9.24,47.22-23.14Z"/>
              <path class="cls-20" d="M278.92,159.38c-18.19,1.86-36.09,1.89-53.67-.09-8.84-1-16.18-7.37-18.11-16.06-3.79-17.09-3.74-33.42-.3-49.06,1.93-8.77,9.39-15.3,18.33-16.1,17.46-1.57,35.23-1.66,53.34-.2,10.14.82,18.18,8.76,19.17,18.88,1.4,14.38,1.36,29.08-.16,44.09-.99,9.8-8.8,17.53-18.6,18.53Z"/>
              <path class="cls-10" d="M249.01,82.36c-27.99-1-39.91,7.5-40.18,34.57,38.3-3.07,64.6-32.9,40.18-34.57Z"/>
            </g>
            <g>
              <path class="cls-9" d="M179.64,159.38c-18.19,1.86-36.09,1.89-53.67-.09-8.84-1-16.18-7.37-18.11-16.06-3.79-17.09-3.74-33.42-.3-49.06,1.93-8.77,9.39-15.3,18.33-16.1,17.46-1.57,35.23-1.66,53.34-.2,10.14.82,18.18,8.76,19.17,18.88,1.4,14.38,1.36,29.08-.16,44.09-.99,9.8-8.8,17.53-18.6,18.53Z"/>
              <path class="cls-15" d="M194.4,115.27c.09,8.27-.29,16.66-1.14,25.07-.75,7.39-6.69,13.3-14.14,14.06-8.89.9-17.76,1.36-26.35,1.36s-17.7-.49-26.25-1.45c-6.8-.77-12.34-5.66-13.79-12.17-1.19-5.39-1.99-10.74-2.39-16.06,9.84,7.67,22.71,12.32,36.82,12.32,19.89,0,37.34-9.24,47.22-23.14Z"/>
              <path class="cls-20" d="M179.64,159.38c-18.19,1.86-36.09,1.89-53.67-.09-8.84-1-16.18-7.37-18.11-16.06-3.79-17.09-3.74-33.42-.3-49.06,1.93-8.77,9.39-15.3,18.33-16.1,17.46-1.57,35.23-1.66,53.34-.2,10.14.82,18.18,8.76,19.17,18.88,1.4,14.38,1.36,29.08-.16,44.09-.99,9.8-8.8,17.53-18.6,18.53Z"/>
              <path class="cls-10" d="M149.73,82.36c-27.99-1-39.91,7.5-40.18,34.57,38.3-3.07,64.6-32.9,40.18-34.57Z"/>
            </g>
          </g>
        </g>
        <g>
          <path class="cls-13" d="M259.25,372.38c-25.52-33.49-42.85-73.56-52.54-119.72l-27.72-29.07H52.82c7.95,58.57,26.79,108.46,57.54,148.8h148.9Z"/>
          <path class="cls-14" d="M249.4,367.38H112.84c-6.99-9.36-13.37-19.32-19.14-29.85,67.02,25.02,111.45-.74,129.94-15.71,7.31,16.34,15.91,31.55,25.76,45.56Z"/>
          <path class="cls-18" d="M259.25,372.38c-25.52-33.49-42.85-73.56-52.54-119.72l-27.72-29.07H52.82c7.95,58.57,26.79,108.46,57.54,148.8h148.9Z"/>
        </g>
        <g>
          <g>
            <path class="cls-5" d="M312.82,236.84s-8.84,28.91-16.64,44.92c-2.56,5.25-5.01,9.11-7,10.11-6.32,3.17-37.15,1.35-49.95.42,4.16,27.05-8.85,34.57-26.24,37.14-18.66,4.41-20.9-1.53-19.69-9.65-15.99-1.09-18.37-6.77-14.71-14.49-4.76-4.29-4.82-8.86-1.5-13.65,8.6-7.85,28.77-7.64,34.74-15.89l-1.3-5.32-2.4-10.54s7.66-10.75,26.94,7.99c17.85,2.32,35.09,2.31,44.87,0l10.49-29.91,5.75-16.41,16.64,15.27Z"/>
            <path class="cls-5" d="M312.82,236.84s-8.84,28.91-16.64,44.92c-2.56,5.25-5.01,9.11-7,10.11-6.32,3.17-37.15,1.35-49.95.42,4.16,27.05-8.85,34.57-26.24,37.14-18.66,4.41-20.9-1.53-19.69-9.65-15.99-1.09-18.37-6.77-14.71-14.49-4.76-4.29-4.82-8.86-1.5-13.65,8.6-7.85,28.77-7.64,34.74-15.89l-1.3-5.32-2.4-10.54s7.66-10.75,26.94,7.99c17.85,2.32,35.09,2.31,44.87,0l10.49-29.91,5.75-16.41,16.64,15.27Z"/>
          </g>
          <path class="cls-12" d="M179.79,226.06l-6.63,29.33-1.69-2.57c4.9,1.02,10.19,1.47,15.26,1.68,5.19.18,10.39.02,15.57-.42.47-.05.89.31.93.78.03.44-.28.83-.71.9-2.6.42-5.22.81-7.85,1.09-8.01.84-15.94,1.12-24,.17-1.19-.21-1.97-1.4-1.69-2.57,0,0,6.63-29.33,6.63-29.33.69-2.72,4.72-1.84,4.17.94h0Z"/>
          <path class="cls-18" d="M233.65,291.88s47.51,4.02,55.54,0c8.04-4.02,23.63-55.04,23.63-55.04"/>
          <path class="cls-5" d="M237.87,285.3c7.62,32.8-6.07,41.37-24.87,44.14-18.67,4.42-20.91-1.52-19.69-9.64-15.99-1.1-18.38-6.78-14.72-14.49-4.76-4.29-4.82-8.87-1.5-13.65,8.6-7.85,28.77-7.64,34.74-15.88l-1.3-5.33-2.4-10.53s9.67-9.41,26.93,7.99"/>
          <path class="cls-1" d="M234.35,269.08s-11.65-8.04-14.16-6.53c-2.51,1.51.9,18.08.9,18.08,8.69,26.28,1.91,39.85-15.98,44.3,0,0,12.87-.8,24.82-7.73,11.95-6.93,7.43-34.45,7.94-35.76s-3.52-12.35-3.52-12.35Z"/>
          <path class="cls-12" d="M239.14,285c6.67,24.79,1.76,43.03-25.65,46.52-4.77,1.01-9.93,2.12-14.8,1.22-6.98-1.21-8.57-7.08-7.5-13.26,0,0,1.97,2.45,1.97,2.45-2.24-.19-4.49-.4-6.77-.89-9.28-1.65-14.25-7.53-9.74-16.66,0,0,.5,2.51.5,2.51-5.24-4.49-5.91-10.93-1.81-16.47,5.25-4.98,12.27-6.42,18.78-8.41,5.46-1.71,12.41-3.08,15.97-7.49,0,0-.35,1.76-.35,1.76-1.17-4.65-2.65-11.24-3.72-15.96-.31-1.09.65-2.09,1.31-2.68.9-.83,1.95-1.49,3.07-1.96,8.48-3.28,17.02,2.73,23.17,7.98,0,0,2.96,2.71,2.96,2.71l-1.21-.59c11.04,1.39,22.21,2.13,33.31,1.48,3.67-.24,7.32-.65,10.8-1.44l-1.53,1.37,16.23-46.32c.39-1.12,1.61-1.7,2.73-1.31,1.11.39,1.7,1.61,1.31,2.73,0,.01-16.24,46.33-16.24,46.34-.25.71-.84,1.2-1.52,1.36-3.86.87-7.69,1.29-11.51,1.55-11.41.67-22.83-.08-34.13-1.51-.45-.06-.85-.25-1.16-.54-3.13-2.9-6.59-6-10.37-8.01-4.04-2.31-9.86-3.98-13.38-.31,0,0,.34-1.72.34-1.72l1.8,7.93c.58,2.65,1.25,5.27,1.89,7.9.16.63.01,1.28-.35,1.76-7.86,9.77-25.74,8.2-35.03,16.21,0,0,.31-.36.31-.36-1.29,1.86-2.12,3.89-1.89,5.72.18,1.83,1.39,3.61,3.06,5.12.72.64.9,1.68.5,2.51-.85,1.78-1.38,3.64-1.25,5.16.73,5.3,9.83,5.81,14.18,6.28,1.19.09,2.09,1.14,1.98,2.33-.34,2.99-.74,5.92,1.6,7.64.47.34,1.18.56,1.76.77,4.37.98,9.47-.14,13.88-1.08,16.43-2.32,25.92-9.65,25.55-27.16-.03-4.88-.73-9.78-1.65-14.59-.29-1.64,2.12-2.17,2.55-.57h0Z"/>
          <path class="cls-12" d="M178.69,303.17c5.88.29,11.78-.72,17.58-1.73,1.09-.21,1.51,1.41.45,1.75-5.93,1.89-11.96,3.78-18.22,4.25-3.14.06-2.94-4.61.18-4.27h0Z"/>
          <path class="cls-12" d="M192.88,317.7l10.06-.66c1.09-.08,1.35,1.53.31,1.81,0,0-9.49,3.04-9.49,3.04l-.08.03c-3.09.84-3.98-3.86-.8-4.21h0Z"/>
        </g>
        <g>
          <path class="cls-5" d="M80.56,328.64c12.27-1.96,12.76-14.09,1.59-16.26,12.73-4.6,11.62-18.13-4.08-15.41,10.63-.87,8.42-15.52-13.31-14.02l-2.19-9.31c-17.4,14.24-2.58,57.21,17.98,54.99Z"/>
          <path class="cls-18" d="M80.56,328.64c12.27-1.96,12.76-14.09,1.59-16.26,12.73-4.6,11.62-18.13-4.08-15.41,10.63-.87,8.42-15.52-13.31-14.02l-2.19-9.31c-17.4,14.24-2.58,57.21,17.98,54.99Z"/>
          <path class="cls-12" d="M78.2,299.11c-3.27-.34-6.48-.71-9.69-1.42-.36-.08-.58-.43-.5-.79.07-.29.32-.49.6-.51,3.12-.29,6.28-.91,9.35-1.55,1.17-.25,2.32.49,2.57,1.66.33,1.41-.9,2.77-2.33,2.61h0Z"/>
          <path class="cls-12" d="M82.49,314.5c-2.58.18-5.09.21-7.67.05-.85-.05-1.5-.79-1.45-1.64.05-.77.66-1.38,1.41-1.44,1.18-.12,2.37-.28,3.55-.48,2.04-.15,5.23-2,6.08.86.33,1.27-.61,2.57-1.92,2.66h0Z"/>
        </g>
      </g>
      <g>
        <text class="cls-25" transform="translate(410.87 273.23) scale(.86 1)"><tspan class="cls-27" x="0" y="0">AV</tspan><tspan class="cls-23" x="144.69" y="0">AILABLE</tspan></text>
        <text class="cls-19" transform="translate(409.79 273.23) scale(.86 1)"><tspan class="cls-27" x="0" y="0">AV</tspan><tspan class="cls-23" x="144.69" y="0">AILABLE</tspan></text>
        <text class="cls-24" transform="translate(397.9 273.23) scale(.86 1)"><tspan class="cls-27" x="0" y="0">AV</tspan><tspan class="cls-23" x="144.69" y="0">AILABLE</tspan></text>
        <text class="cls-19" transform="translate(397.9 273.23) scale(.86 1)"><tspan class="cls-27" x="0" y="0">AV</tspan><tspan class="cls-23" x="144.69" y="0">AILABLE</tspan></text>
      </g>
      <g>
        <text class="cls-22" transform="translate(437.34 357.25) rotate(-8.32)"><tspan x="0" y="0">ON</tspan></text>
        <text class="cls-16" transform="translate(436.24 357.25) rotate(-8.32)"><tspan x="0" y="0">ON</tspan></text>
        <text class="cls-21" transform="translate(424.2 357.25) rotate(-8.32)"><tspan x="0" y="0">ON</tspan></text>
        <text class="cls-16" transform="translate(424.2 357.25) rotate(-8.32)"><tspan x="0" y="0">ON</tspan></text>
      </g>
    </g>
  </g>
</svg>