<?xml version="1.0" encoding="UTF-8"?>
<svg id="Layer_2" data-name="Layer 2" xmlns="http://www.w3.org/2000/svg" xmlns:xlink="http://www.w3.org/1999/xlink" viewBox="0 0 845.68 376.95">
  <defs>
    <style>
      .cls-1 {
        fill: url(#linear-gradient);
      }

      .cls-1, .cls-2, .cls-3, .cls-4, .cls-5, .cls-6, .cls-7, .cls-8, .cls-9, .cls-10, .cls-11 {
        stroke-width: 0px;
      }

      .cls-2 {
        fill: #193650;
      }

      .cls-2, .cls-9 {
        fill-rule: evenodd;
      }

      .cls-3 {
        fill: url(#Adsız_degrade_5-3);
      }

      .cls-4 {
        fill: #ffc033;
      }

      .cls-12 {
        fill: #ff9810;
      }

      .cls-12, .cls-13 {
        stroke: #720000;
        stroke-linecap: round;
        stroke-linejoin: round;
        stroke-width: 5px;
      }

      .cls-5 {
        fill: url(#Adsız_degrade_5-4);
      }

      .cls-6 {
        fill: url(#Adsız_degrade_5);
      }

      .cls-7 {
        fill: url(#linear-gradient-2);
      }

      .cls-8 {
        fill: #1d1d1b;
      }

      .cls-9 {
        fill: #05a3c9;
      }

      .cls-13 {
        fill: none;
      }

      .cls-10 {
        fill: #fff;
      }

      .cls-11 {
        fill: url(#Adsız_degrade_5-2);
      }
    </style>
    <linearGradient id="Adsız_degrade_5" data-name="Adsız degrade 5" x1="-123.08" y1="1218.88" x2="-194.6" y2="1190.43" gradientTransform="translate(242.34 1337.75) scale(1 -1)" gradientUnits="userSpaceOnUse">
      <stop offset="0" stop-color="#c200fb"/>
      <stop offset=".49" stop-color="#3772ff"/>
      <stop offset=".49" stop-color="#3773fe"/>
      <stop offset="1" stop-color="#5ac4be"/>
    </linearGradient>
    <linearGradient id="Adsız_degrade_5-2" data-name="Adsız degrade 5" x1="-124.44" y1="1222.31" x2="-195.97" y2="1193.86" xlink:href="#Adsız_degrade_5"/>
    <linearGradient id="Adsız_degrade_5-3" data-name="Adsız degrade 5" x1="-117.32" y1="1204.41" x2="-188.85" y2="1175.95" xlink:href="#Adsız_degrade_5"/>
    <linearGradient id="Adsız_degrade_5-4" data-name="Adsız degrade 5" x1="-124.98" y1="1223.65" x2="-196.51" y2="1195.2" xlink:href="#Adsız_degrade_5"/>
    <linearGradient id="linear-gradient" x1="199.1" y1="362.2" x2="297.46" y2="82.55" gradientUnits="userSpaceOnUse">
      <stop offset="0" stop-color="#ed7eb6"/>
      <stop offset="1" stop-color="#ffaec9"/>
    </linearGradient>
    <linearGradient id="linear-gradient-2" x1="669.47" y1="317.62" x2="858.47" y2="90.04" xlink:href="#linear-gradient"/>
  </defs>
  <g id="Layer_1-2" data-name="Layer 1">
    <g>
      <g>
        <path class="cls-10" d="M120.98-31.42h145.38c20.18,0,36.57,16.39,36.57,36.57v261.21c0,20.18-16.39,36.57-36.57,36.57H120.98c-20.18,0-36.57-16.39-36.57-36.57V5.15c0-20.18,16.39-36.57,36.57-36.57Z" transform="translate(329.43 -57.92) rotate(90)"/>
        <g>
          <rect class="cls-12" x="13.41" y="13.85" width="382.34" height="266.51" rx="75.34" ry="75.34"/>
          <rect class="cls-4" x="2.5" y="2.5" width="382.34" height="266.51" rx="65.57" ry="65.57"/>
          <path class="cls-10" d="M120.98-31.42h145.38c20.18,0,36.57,16.39,36.57,36.57v261.21c0,20.18-16.39,36.57-36.57,36.57H120.98c-20.18,0-36.57-16.39-36.57-36.57V5.15c0-20.18,16.39-36.57,36.57-36.57Z" transform="translate(329.43 -57.92) rotate(90)"/>
          <rect class="cls-13" x="2.5" y="2.5" width="382.34" height="266.51" rx="65.57" ry="65.57"/>
        </g>
        <rect class="cls-13" x="2.5" y="2.5" width="382.34" height="266.51" rx="65.57" ry="65.57"/>
        <path class="cls-13" d="M120.98-31.42h145.38c20.18,0,36.57,16.39,36.57,36.57v261.21c0,20.18-16.39,36.57-36.57,36.57H120.98c-20.18,0-36.57-16.39-36.57-36.57V5.15c0-20.18,16.39-36.57,36.57-36.57Z" transform="translate(329.43 -57.92) rotate(90)"/>
      </g>
      <g>
        <path class="cls-10" d="M568.41-31.42h145.38c20.18,0,36.57,16.39,36.57,36.57v261.21c0,20.18-16.39,36.57-36.57,36.57h-145.38c-20.18,0-36.57-16.39-36.57-36.57V5.15c0-20.18,16.39-36.57,36.57-36.57Z" transform="translate(776.86 -505.34) rotate(90)"/>
        <g>
          <rect class="cls-12" x="460.84" y="13.85" width="382.34" height="266.51" rx="75.34" ry="75.34"/>
          <rect class="cls-4" x="449.93" y="2.5" width="382.34" height="266.51" rx="65.57" ry="65.57"/>
          <path class="cls-10" d="M568.41-31.42h145.38c20.18,0,36.57,16.39,36.57,36.57v261.21c0,20.18-16.39,36.57-36.57,36.57h-145.38c-20.18,0-36.57-16.39-36.57-36.57V5.15c0-20.18,16.39-36.57,36.57-36.57Z" transform="translate(776.86 -505.34) rotate(90)"/>
          <rect class="cls-13" x="449.93" y="2.5" width="382.34" height="266.51" rx="65.57" ry="65.57"/>
        </g>
        <rect class="cls-13" x="449.93" y="2.5" width="382.34" height="266.51" rx="65.57" ry="65.57"/>
        <path class="cls-13" d="M568.41-31.42h145.38c20.18,0,36.57,16.39,36.57,36.57v261.21c0,20.18-16.39,36.57-36.57,36.57h-145.38c-20.18,0-36.57-16.39-36.57-36.57V5.15c0-20.18,16.39-36.57,36.57-36.57Z" transform="translate(776.86 -505.34) rotate(90)"/>
      </g>
      <g>
        <path class="cls-2" d="M147.88,142.24l-3.52-6.11h-5.15v6.11h-3.03v-18.33h9.12c1.11,0,2.2.29,3.16.86.95.57,1.73,1.4,2.26,2.38.52.99.76,2.1.7,3.22-.06,1.12-.43,2.19-1.06,3.11-.66.98-1.59,1.73-2.67,2.18l3.75,6.58h-3.55ZM145.31,127.01h-6.09v6.09h6.09c.4,0,.79-.08,1.16-.24.36-.16.69-.39.96-.69.42-.43.7-.97.82-1.56.11-.59.05-1.2-.17-1.76-.23-.56-.61-1.03-1.11-1.37-.49-.34-1.08-.52-1.67-.53l.02.05ZM177.73,123.9l-9.14,18.33h3.4l5.74-11.48,5.72,11.48h3.4l-9.12-18.33ZM216.22,123.9h-3.87l-5.2,6.77-5.18-6.77h-3.89l7.62,9.78v8.56h3.03v-8.71l7.49-9.62ZM231.73,123.9h6.07c2.41.02,4.72.99,6.43,2.7,1.71,1.72,2.67,4.04,2.69,6.46-.01,2.43-.98,4.75-2.69,6.47-1.71,1.72-4.02,2.69-6.43,2.7h-6.07v-18.33ZM237.8,139.13c1.61,0,3.15-.65,4.29-1.79,1.14-1.14,1.78-2.69,1.78-4.31-.02-1.61-.66-3.16-1.8-4.3-1.14-1.14-2.67-1.79-4.27-1.81h-3.06v12.21h3.06ZM267.16,123.9h-3.03v18.33h3.03v-18.33ZM299.56,134.58c.02,1.01-.17,2.01-.56,2.94-.38.93-.95,1.77-1.68,2.47-1.06,1.07-2.42,1.8-3.89,2.09-1.48.29-3,.14-4.39-.44-1.39-.58-2.57-1.56-3.4-2.82-.83-1.26-1.28-2.74-1.27-4.25v-10.67h3.03v10.67c0,1.22.48,2.38,1.34,3.24.85.86,2.01,1.34,3.22,1.34s2.37-.48,3.22-1.34c.85-.86,1.33-2.03,1.33-3.24v-10.67h3.05v10.67ZM319.8,142.24v-10.96l6.11,6.12,6.08-6.12v10.96h3.08v-18.33l-9.15,9.17-9.12-9.17v18.33h3.01Z"/>
        <path class="cls-6" d="M113.7,123.33v27.26l-30.17,17.51-30.18-17.51v-35.03l30.18-17.52,23.18,13.46,3.5-2.03-26.68-15.49-33.68,19.55v39.09l33.68,19.55,33.68-19.55v-31.32l-3.52,2.03Z"/>
        <path class="cls-11" d="M75.08,150.61h-5.05v-17.02h16.82c1.59-.02,3.11-.66,4.23-1.8,1.12-1.14,1.75-2.67,1.76-4.27,0-.79-.14-1.58-.45-2.31-.3-.73-.75-1.39-1.32-1.94-.55-.57-1.21-1.02-1.93-1.32-.73-.31-1.51-.46-2.29-.45h-16.82v-5.18h16.84c2.95.02,5.77,1.2,7.86,3.3,2.08,2.1,3.26,4.93,3.28,7.9.02,2.27-.67,4.49-1.97,6.34-1.19,1.78-2.88,3.16-4.85,3.99-1.95.62-3.98.93-6.02.91h-10.09v11.84Z"/>
        <path class="cls-3" d="M97.9,150.19h-5.89l-4.54-7.97c1.8-.11,3.57-.48,5.27-1.08l5.17,9.05Z"/>
        <path class="cls-5" d="M110.18,117.66l3.48,1.95,3.48-1.95v-4.11l-3.48-2.03-3.48,2.03v4.11Z"/>
      </g>
      <g>
        <path class="cls-8" d="M696.87,124.89c-5.12.64-8.89,3.54-10.28,7.87-.95,2.95-.84,5.75.36,8.59,1.42,3.37,4.46,5.76,8.51,6.67,1.16.27,4.2.29,5.4.05,4.69-.92,7.98-3.84,9.33-8.26.32-1.06.36-1.38.36-3.25s-.04-2.19-.36-3.25c-1.34-4.36-4.5-7.23-9.03-8.19-.92-.19-3.49-.33-4.29-.24ZM699.75,130.62c1.7.44,3.29,1.55,4.03,2.83,1.14,1.94,1.1,4.49-.08,6.35-2.12,3.34-6.98,3.89-9.89,1.11-2.43-2.31-2.51-5.97-.2-8.47,1.53-1.66,3.97-2.37,6.14-1.82Z"/>
        <path class="cls-8" d="M721.86,124.89c-5.12.64-8.89,3.54-10.28,7.87-.95,2.95-.84,5.75.36,8.59,1.42,3.37,4.46,5.76,8.51,6.67,1.16.27,4.2.29,5.4.05,4.69-.92,7.98-3.84,9.33-8.26.32-1.06.36-1.38.36-3.25s-.04-2.19-.36-3.25c-1.34-4.36-4.5-7.23-9.03-8.19-.92-.19-3.49-.33-4.29-.24ZM724.74,130.62c1.7.44,3.29,1.55,4.04,2.83,1.14,1.94,1.1,4.49-.08,6.35-2.12,3.34-6.98,3.89-9.89,1.11-2.43-2.31-2.51-5.97-.2-8.47,1.52-1.66,3.97-2.37,6.13-1.82Z"/>
        <path class="cls-8" d="M755.53,124.96c-2.98.43-5.21,2.34-5.93,5.08-.7,2.58-.2,5.23,1.19,6.51.83.76,1.81,1.22,4.5,2.08,2.62.84,3.21,1.2,3.47,2.08.31,1.02-.45,2.22-1.59,2.54-.63.17-1.79.17-2.57-.01-.86-.2-2.38-.95-3.03-1.51-.29-.27-.61-.48-.68-.48s-.39.49-.71,1.1c-.44.86-.59,1.04-.63.8l-.04-.29h-6.94v-17.51h-5.75v22.45h12.7v-.6c0-.33.03-.6.05-.6s.55.24,1.16.52c1.89.88,3.08,1.14,5.4,1.14s3.34-.2,4.74-.88c1.11-.53,2.62-2.02,3.13-3.06,1-2.08,1.14-4.88.31-6.66-.15-.33-.64-.98-1.1-1.43-.98-.99-2.03-1.51-4.74-2.38-1.07-.33-2.14-.74-2.38-.88-.87-.53-1.04-1.71-.36-2.45,1.19-1.27,3.29-1.15,5.49.31l.43.28,1.16-2.23c.63-1.22,1.14-2.23,1.11-2.26-.13-.13-1.76-.78-2.69-1.07-1.98-.63-4.03-.84-5.72-.59Z"/>
        <path class="cls-8" d="M594.03,133.39v14.79h5.23c2.87,0,5.88-.08,6.66-.17,6.45-.8,11.23-4.7,12.75-10.46.51-1.9.63-5.26.25-7.25-.73-3.87-2.75-7-5.84-9.1-1.39-.95-2.63-1.48-4.62-2.02-1.56-.42-1.8-.42-8.02-.51l-6.42-.07v14.79ZM605.44,124.65c4.06.87,6.76,4.26,6.76,8.51-.02,2.82-.88,5.25-2.5,6.84-1.6,1.61-3.99,2.39-7.3,2.41h-1.58v-18h1.75c.95,0,2.24.12,2.87.24Z"/>
        <path class="cls-8" d="M621.37,133.41v14.77l12.45-.02h12.43l3.21-4.5c1.78-2.46,3.26-4.48,3.31-4.48.07,0,1.56,2.02,3.33,4.5l3.23,4.5h4.04c2.21,0,4.02-.05,4.02-.1s-2.38-3.38-5.26-7.39l-5.26-7.29,5.03-7.01c2.77-3.84,5.18-7.15,5.35-7.34.32-.32.32-.27.32,2.68v3.01h6.11v23.44h7.3v-23.44l3.57-.03,3.55-.05-1.9-3.01-1.9-3.01-12.48-.02h-12.5l-3.21,4.5c-1.78,2.46-3.26,4.48-3.31,4.5-.05,0-1.55-2.02-3.31-4.5l-3.23-4.5h-24.88v14.77ZM643.34,126.01c2.85,3.96,5.2,7.29,5.2,7.39s-2.34,3.45-5.21,7.44l-5.23,7.25-.05-2.84-.03-2.84h-9.85v-6.62h7.98v-5.6h-7.98v-5.77h9.85v-2.8c0-1.55.03-2.8.07-2.8.05,0,2.41,3.24,5.26,7.2Z"/>
        <path class="cls-9" d="M542.46,99.02c-4.63,2.41-8.41,4.45-8.41,4.53,0,.21,11.11,5.84,11.5,5.82.18,0,1.48-.6,2.89-1.33l2.56-1.32,2.8,1.44,2.8,1.44,4.59-2.06c6.91-3.11,7.63-3.45,7.52-3.56-.15-.15-2.63-1.48-9.35-5.02-3.25-1.71-6.41-3.39-7.01-3.73-.61-.34-1.18-.61-1.28-.61s-3.97,1.98-8.6,4.39ZM522.16,109.53l-4.82,2.49v10.92c0,6.01.06,10.92.14,10.92s2.45-1.03,5.27-2.28l5.13-2.28v-11.51l2.51,1.36c1.93,1.05,3.86,2.1,5.79,3.15l3.29,1.78,1.46-.66c.92-.42,1.83-.84,2.75-1.26.71-.33,2.44-1.11,3.85-1.74,1.41-.63,2.72-1.26,2.91-1.4.25-.19-2.76-1.85-11.11-6.14-6.3-3.23-11.65-5.87-11.9-5.86s-2.62,1.14-5.27,2.51ZM569.57,110.23c-3.28,1.48-5.97,2.75-5.97,2.82,0,.07,1.79,1.14,3.97,2.36,2.19,1.23,3.98,2.3,3.98,2.38s-1.94,1.02-4.3,2.09c-2.37,1.07-8.35,3.77-13.3,6l-16.57,7.49c-4.17,1.88-7.93,3.58-8.35,3.78-8.52,3.85-10.86,4.92-11.18,5.11-.32.18-.4,1.26-.45,6.65l-.07,6.43,4.31,2.2,4.31,2.2,5.97-2.7c3.29-1.48,5.97-2.77,5.97-2.87s-.61-.49-1.35-.88c-.74-.39-2.27-1.25-3.4-1.91-1.13-.66-2.26-1.27-2.51-1.35-.25-.08-.45-.22-.44-.31,0-.09,2.63-1.34,5.85-2.78,6.24-2.79,11.01-4.94,21.25-9.57,4.58-2.07,9.16-4.14,13.75-6.21,4.03-1.82,8.71-3.94,10.41-4.72l3.08-1.41.07-6.5.07-6.5-4.37-2.24c-2.4-1.23-4.46-2.24-4.57-2.24-.11,0-2.88,1.22-6.16,2.7ZM583.36,133.68c-.64.31-1.92.9-2.83,1.31s-2.64,1.18-3.84,1.73l-2.18,1-.05,5.71c-.03,3.14-.14,5.69-.26,5.68-.26-.04-4.35-2.14-8.47-4.34-2.97-1.59-3.16-1.65-3.85-1.31-.4.2-2.81,1.28-5.36,2.4-2.54,1.12-4.71,2.11-4.81,2.2-.1.09,5.02,2.86,11.38,6.17l11.56,6,4.94-2.55c2.72-1.41,5.03-2.69,5.13-2.85.24-.36.22-21.77-.02-21.74-.09.01-.7.28-1.34.59ZM556.01,158.81c-.86.37-1.71.74-2.57,1.11-2.59,1.12-2.08,1.16-5.16-.38-2.05-1.02-2.93-1.33-3.32-1.18-.29.11-2.76,1.23-5.5,2.47-2.74,1.25-5.07,2.27-5.19,2.27-1.15,0,.76,1.14,8.13,4.86l8.64,4.36,3.64-1.79c2-.99,6.03-2.96,8.96-4.39,2.93-1.43,5.29-2.64,5.25-2.68-.04-.05-2.5-1.31-5.46-2.8l-5.37-2.72-2.06.88Z"/>
      </g>
      <ellipse class="cls-1" cx="201.6" cy="355.09" rx="165.86" ry="21.86"/>
      <ellipse class="cls-7" cx="638.35" cy="355.09" rx="165.86" ry="21.86"/>
    </g>
  </g>
</svg>