<?xml version="1.0" encoding="UTF-8"?>
<svg id="Layer_2" data-name="Layer 2" xmlns="http://www.w3.org/2000/svg" viewBox="0 0 882.86 300.72">
  <defs>
    <style>
      .cls-1 {
        fill: #fff;
        stroke-width: 0px;
      }
    </style>
  </defs>
  <g id="Layer_1-2" data-name="Layer 1">
    <g>
      <path class="cls-1" d="M175.35,155.77c-2.99,0-5.89.37-8.67,1.06-6.3-17.49-23.04-29.99-42.7-29.99-13.58,0-25.77,5.97-34.09,15.42-2.47-1.09-5.17-1.69-7.99-1.69-11.8,0-21.37,10.42-21.37,23.26,0,.46.01.91.04,1.36-.79-.18-1.61-.27-2.45-.27-5.64,0-10.29,4.21-10.99,9.65-5.38-5.93-13.15-9.65-21.79-9.65-10.78,0-20.21,5.8-25.33,14.46h208.93c-4.94-13.77-18.11-23.62-33.58-23.62Z"/>
      <path class="cls-1" d="M853.08,219.23c-6.19,0-11.95,1.88-16.72,5.1.45-2.99.67-6.04.67-9.15,0-34.27-27.79-62.06-62.06-62.06-27.12,0-50.18,17.39-58.62,41.64-1.13-.09-2.29-.14-3.45-.14-22.75,0-41.2,18.44-41.2,41.2,0,1.14.05,2.27.14,3.4-2.85-1.16-5.98-1.8-9.24-1.8-7.46,0-14.15,3.32-18.65,8.56h238.91c-1.6-15.05-14.32-26.75-29.79-26.75Z"/>
      <path class="cls-1" d="M57.1,293.73c-1.62,0-3.12.49-4.37,1.33.12-.78.18-1.58.18-2.39,0-8.96-7.27-16.23-16.23-16.23-7.09,0-13.12,4.55-15.32,10.89-.3-.02-.6-.04-.9-.04-5.95,0-10.77,4.82-10.77,10.77,0,.3.01.59.04.89-.75-.3-1.56-.47-2.42-.47-1.95,0-3.7.87-4.88,2.24h62.46c-.42-3.93-3.74-6.99-7.79-6.99Z"/>
      <path class="cls-1" d="M487.15,54.38c5.09,0,9.83,1.55,13.75,4.2-.37-2.46-.55-4.97-.55-7.52,0-28.19,22.86-51.05,51.05-51.05,22.31,0,41.28,14.31,48.22,34.25.93-.08,1.88-.12,2.83-.12,18.72,0,33.89,15.17,33.89,33.89,0,.94-.04,1.87-.12,2.79,2.35-.95,4.92-1.48,7.6-1.48,6.13,0,11.64,2.73,15.34,7.04h-23.87s-6.82,0-6.82,0h-32.75s-26.13,0-26.13,0h-57.95s-4.59,0-4.59,0h-44.42c1.31-12.38,11.78-22,24.5-22Z"/>
    </g>
  </g>
</svg>