<?xml version="1.0" encoding="UTF-8"?>
<svg id="Layer_2" data-name="Layer 2" xmlns="http://www.w3.org/2000/svg" viewBox="0 0 265.64 59.64">
  <defs>
    <style>
      .cls-1 {
        fill: #18d167;
      }

      .cls-1, .cls-2, .cls-3, .cls-4 {
        stroke-width: 0px;
      }

      .cls-5 {
        fill: none;
        stroke: #005bb5;
        stroke-linecap: round;
        stroke-linejoin: round;
        stroke-width: 3.5px;
      }

      .cls-2 {
        fill: #005bb5;
      }

      .cls-3 {
        fill: #74f943;
      }

      .cls-4 {
        fill: #c4ff66;
      }
    </style>
  </defs>
  <g id="Layer_1-2" data-name="Layer 1">
    <g>
      <path class="cls-2" d="M10.87,57.05L28.83,2.6h18.17l17.96,54.45h-18.25l-3.33-10.15h-10.93l-3.33,10.15H10.87ZM34.33,32.95h7.1l-3.55-10.4-3.55,10.4Z"/>
      <path class="cls-2" d="M69.23,57.05V2.6h22.16c4.92,0,9.2.92,12.82,2.75,3.62,1.83,6.42,4.76,8.4,8.79,1.98,4.03,2.97,9.37,2.97,16.02s-.98,11.44-2.93,15.39c-1.95,3.95-4.73,6.85-8.33,8.71-3.6,1.86-7.9,2.79-12.92,2.79h-22.16ZM86.75,41.49h2.61c1.74,0,3.23-.28,4.49-.85,1.25-.56,2.22-1.66,2.9-3.3.68-1.63,1.01-4.03,1.01-7.19s-.31-5.51-.94-7.06c-.63-1.55-1.56-2.56-2.79-3.04-1.23-.48-2.79-.72-4.67-.72h-2.61v22.15Z"/>
      <path class="cls-2" d="M143.01,57.89c-5.26,0-9.75-.92-13.47-2.75-3.72-1.83-6.57-4.8-8.54-8.92-1.98-4.11-2.97-9.58-2.97-16.4s.99-12.36,2.97-16.45c1.98-4.09,4.83-7.05,8.54-8.88,3.72-1.83,8.21-2.75,13.47-2.75s9.75.92,13.47,2.75c3.72,1.83,6.56,4.79,8.54,8.88,1.98,4.09,2.97,9.57,2.97,16.45s-.99,12.29-2.97,16.4c-1.98,4.12-4.83,7.09-8.54,8.92-3.72,1.83-8.21,2.75-13.47,2.75ZM143.01,40.56c2.56,0,4.38-.8,5.47-2.41,1.09-1.61,1.63-4.38,1.63-8.33s-.54-6.72-1.63-8.33c-1.09-1.61-2.91-2.41-5.47-2.41s-4.38.8-5.47,2.41-1.63,4.38-1.63,8.33.54,6.72,1.63,8.33c1.09,1.61,2.91,2.41,5.47,2.41Z"/>
      <path class="cls-2" d="M172.26,57.05V2.6h17.52v38.9h19.04v15.56h-36.57Z"/>
      <path class="cls-2" d="M210.56,57.05L228.52,2.6h18.17l17.96,54.45h-18.25l-3.33-10.15h-10.93l-3.33,10.15h-18.25ZM234.02,32.95h7.1l-3.55-10.4-3.55,10.4Z"/>
      <g>
        <path class="cls-5" d="M10.11,57.05L28.07,2.6h18.17l17.96,54.45h-18.25l-3.33-10.15h-10.93l-3.33,10.15H10.11ZM33.57,32.95h7.1l-3.55-10.4-3.55,10.4Z"/>
        <path class="cls-5" d="M68.47,57.05V2.6h22.16c4.92,0,9.2.92,12.82,2.75,3.62,1.83,6.42,4.76,8.4,8.79,1.98,4.03,2.97,9.37,2.97,16.02s-.98,11.44-2.93,15.39c-1.95,3.95-4.73,6.85-8.33,8.71-3.6,1.86-7.9,2.79-12.92,2.79h-22.16ZM85.99,41.49h2.61c1.74,0,3.23-.28,4.49-.85,1.25-.56,2.22-1.66,2.9-3.3.68-1.63,1.01-4.03,1.01-7.19s-.31-5.51-.94-7.06c-.63-1.55-1.56-2.56-2.79-3.04-1.23-.48-2.79-.72-4.67-.72h-2.61v22.15Z"/>
        <path class="cls-5" d="M142.25,57.89c-5.26,0-9.75-.92-13.47-2.75-3.72-1.83-6.57-4.8-8.54-8.92-1.98-4.11-2.97-9.58-2.97-16.4s.99-12.36,2.97-16.45c1.98-4.09,4.83-7.05,8.54-8.88,3.72-1.83,8.21-2.75,13.47-2.75s9.75.92,13.47,2.75c3.72,1.83,6.56,4.79,8.54,8.88,1.98,4.09,2.97,9.57,2.97,16.45s-.99,12.29-2.97,16.4c-1.98,4.12-4.83,7.09-8.54,8.92-3.72,1.83-8.21,2.75-13.47,2.75ZM142.25,40.56c2.56,0,4.38-.8,5.47-2.41,1.09-1.61,1.63-4.38,1.63-8.33s-.54-6.72-1.63-8.33c-1.09-1.61-2.91-2.41-5.47-2.41s-4.38.8-5.47,2.41c-1.09,1.61-1.63,4.38-1.63,8.33s.54,6.72,1.63,8.33c1.09,1.61,2.91,2.41,5.47,2.41Z"/>
        <path class="cls-5" d="M171.5,57.05V2.6h17.52v38.9h19.04v15.56h-36.57Z"/>
        <path class="cls-5" d="M209.81,57.05L227.76,2.6h18.17l17.96,54.45h-18.25l-3.33-10.15h-10.93l-3.33,10.15h-18.25ZM233.26,32.95h7.1l-3.55-10.4-3.55,10.4Z"/>
      </g>
      <g>
        <path class="cls-3" d="M49.58,38.07L37.88,2.6h-18.17l-11.27,34.18L1.75,57.05h18.24l3.33-10.15h10.93l3.33,10.15h18.24l-6.25-18.98ZM25.21,32.95l1.06-3.12,2.48-7.27,2.65,7.74.91,2.66h-7.1Z"/>
        <path class="cls-4" d="M45.57,37.15l-10.24-31.03h-13.08l-9.29,28.18-6.35,19.24h10.84l3.33-10.15h16.03l3.33,10.15h10.84l-5.4-16.38ZM20.3,36.47l2.15-6.33.49-1.46,3.66-10.71c.7-2.06,3.61-2.06,4.31,0l4.68,13.71,1.63,4.78h-16.93Z"/>
        <path class="cls-1" d="M50.97,53.53h-10.84l-3.33-10.15h-16.03l-3.33,10.15H6.61l6.35-19.24c2.67-1.7,5.25-3.46,9.49-4.15l-2.15,6.33h16.93l-1.63-4.78c3.56,1.67,5.98,4.07,9.98,5.46l5.4,16.38Z"/>
        <path class="cls-3" d="M103.48,14.13c-1.98-4.02-4.78-6.96-8.4-8.79-3.62-1.83-7.89-2.74-12.82-2.74h-22.16v54.45h22.16c5.02,0,9.33-.93,12.92-2.79,3.6-1.86,6.37-4.76,8.33-8.71,1.04-2.1,1.8-4.53,2.29-7.29.43-2.44.65-5.14.65-8.1,0-6.66-.99-12-2.97-16.03ZM87.62,37.35c-.68,1.64-1.64,2.74-2.9,3.3-1.25.56-2.75.84-4.49.84h-2.6v-22.16h2.6c1.89,0,3.44.25,4.67.72,1.23.49,2.16,1.5,2.79,3.05.63,1.55.94,3.9.94,7.06,0,.59-.01,1.15-.04,1.7h0c-.11,2.34-.43,4.17-.98,5.49Z"/>
        <path class="cls-4" d="M100.33,15.69c-1.66-3.36-3.9-5.72-6.83-7.21-3.11-1.57-6.9-2.36-11.24-2.36h-18.64v47.41h18.64c4.43,0,8.23-.8,11.31-2.39,2.95-1.53,5.17-3.87,6.8-7.15.83-1.67,1.47-3.66,1.9-5.91.03-.14.05-.29.08-.43.39-2.24.59-4.76.59-7.49,0-6.08-.88-10.95-2.6-14.47ZM90.87,38.68c-1.03,2.5-2.61,4.24-4.71,5.17-1.7.77-3.7,1.15-5.93,1.15h-6.12V15.82h6.12c2.29,0,4.28.32,5.96.96,1.48.58,3.52,1.93,4.76,5,.8,2.01,1.2,4.74,1.2,8.38,0,.61-.01,1.2-.04,1.77v.1c-.03.64-.07,1.25-.13,1.82-.2,1.93-.56,3.53-1.11,4.84Z"/>
        <path class="cls-1" d="M102.26,38.08c-.43,2.25-1.07,4.24-1.9,5.91-1.63,3.28-3.85,5.62-6.8,7.15-3.07,1.59-6.87,2.39-11.31,2.39h-18.64v-18.03c3.26-1.87,5.85-4.19,10.49-5.18v14.68h6.12c2.23,0,4.23-.39,5.93-1.15,2.1-.94,3.68-2.67,4.71-5.17.55-1.31.91-2.91,1.11-4.84,2.82,1.8,5.56,3.65,10.28,4.24Z"/>
        <path class="cls-3" d="M155.9,13.38c-1.98-4.09-4.83-7.04-8.54-8.88-3.71-1.83-8.2-2.74-13.47-2.74s-9.75.91-13.47,2.74c-3.72,1.84-6.56,4.79-8.55,8.88-1.98,4.09-2.96,9.57-2.96,16.45,0,2.97.19,5.68.56,8.14.49,3.18,1.29,5.94,2.41,8.26,1.98,4.12,4.83,7.09,8.55,8.92,3.71,1.83,8.2,2.75,13.47,2.75s9.75-.92,13.47-2.75c3.71-1.83,6.56-4.81,8.54-8.92,1.08-2.25,1.87-4.9,2.36-7.96.4-2.54.61-5.35.61-8.44,0-6.88-.98-12.36-2.97-16.45ZM139.36,38.15c-1.08,1.61-2.91,2.41-5.47,2.41s-4.38-.8-5.47-2.41c-1.03-1.53-1.58-4.15-1.63-7.83,0-.16,0-.32,0-.49,0-3.95.55-6.73,1.63-8.33,1.08-1.61,2.91-2.41,5.47-2.41s4.38.8,5.47,2.41c1.08,1.6,1.63,4.38,1.63,8.33,0,.66-.01,1.29-.05,1.89-.15,2.96-.68,5.1-1.58,6.44Z"/>
        <path class="cls-4" d="M152.73,14.91c-1.64-3.39-3.9-5.76-6.93-7.25-3.21-1.58-7.22-2.39-11.91-2.39s-8.7.8-11.91,2.38c-3.02,1.49-5.29,3.87-6.94,7.26-1.73,3.58-2.61,8.6-2.61,14.92,0,2.61.16,5.06.46,7.26.01.12.04.23.05.34.44,2.85,1.15,5.29,2.1,7.27,1.65,3.43,3.92,5.81,6.94,7.29,3.22,1.59,7.23,2.39,11.91,2.39s8.7-.8,11.91-2.39c3.02-1.48,5.28-3.87,6.93-7.29.89-1.85,1.56-4.09,1.99-6.64.03-.11.04-.23.06-.34.37-2.36.56-5.02.56-7.89,0-6.32-.88-11.33-2.62-14.92ZM142.28,40.11c-1.22,1.81-3.66,3.97-8.39,3.97s-7.17-2.16-8.38-3.96c-1.33-1.97-2.05-4.83-2.2-8.7-.01-.33-.02-.67-.03-1.01,0-.19,0-.39,0-.58,0-4.71.73-8.07,2.23-10.29,1.22-1.81,3.66-3.97,8.39-3.97s7.17,2.16,8.38,3.96c1.5,2.22,2.23,5.59,2.23,10.3,0,.77-.02,1.46-.06,2.06-.03.61-.08,1.19-.13,1.74-.3,2.77-.96,4.9-2.03,6.48Z"/>
        <path class="cls-1" d="M154.72,38.06c-.43,2.55-1.1,4.79-1.99,6.64-1.65,3.42-3.91,5.8-6.93,7.29-3.22,1.59-7.23,2.39-11.91,2.39s-8.7-.8-11.91-2.39c-3.02-1.48-5.28-3.86-6.94-7.29-.95-1.98-1.65-4.42-2.1-7.27-.01-.11-.04-.23-.05-.34,4.12-1.47,6.57-4.02,10.41-5.66.15,3.87.87,6.73,2.2,8.7,1.21,1.8,3.65,3.96,8.38,3.96s7.17-2.16,8.39-3.97c1.07-1.58,1.74-3.71,2.03-6.48,2.9,1.84,5.63,3.79,10.41,4.43Z"/>
        <path class="cls-3" d="M180.66,41.49V2.6h-17.53v54.45h36.56v-15.56h-19.04Z"/>
        <polygon class="cls-4" points="196.18 45.01 196.18 53.53 166.65 53.53 166.65 6.11 177.14 6.11 177.14 45.01 196.18 45.01"/>
        <path class="cls-1" d="M196.18,45.01v8.52h-29.53v-16.88c3.86-1.67,6.31-4.23,10.49-5.69v14.05h19.04Z"/>
        <path class="cls-3" d="M247.37,32.31l-9.79-29.71h-18.18l-11.71,35.5-6.25,18.95h18.25l3.33-10.15h10.93l3.33,10.15h18.25l-8.16-24.74ZM224.9,32.95l3.55-10.4,2.72,7.98.82,2.42h-7.09Z"/>
        <path class="cls-4" d="M244.03,33.41l-.94-2.86-8.06-24.44h-13.09l-10.6,32.15-.31.94-4.73,14.33h10.84l3.33-10.15h16.03l3.33,10.15h10.84l-6.63-20.12ZM219.99,36.47l.06-.16,6.53-19.14c.61-1.79,3.15-1.79,3.76,0l4.17,12.23.18.53,2.22,6.54h-16.92Z"/>
        <path class="cls-1" d="M250.66,53.53h-10.84l-3.33-10.15h-16.03l-3.33,10.15h-10.84l4.73-14.33.31-.94c3.8-.07,6.47-.87,8.7-1.96l-.06.16h16.92l-2.22-6.54c.75-.06,1.55-.1,2.4-.1,2.38,0,4.33.27,6,.73l.94,2.86,6.63,20.12Z"/>
      </g>
      <g>
        <path class="cls-5" d="M1.75,57.05L19.71,2.6h18.17l17.96,54.45h-18.25l-3.33-10.15h-10.93l-3.33,10.15H1.75ZM25.21,32.95h7.1l-3.55-10.4-3.55,10.4Z"/>
        <path class="cls-5" d="M60.11,57.05V2.6h22.16c4.92,0,9.2.92,12.82,2.75,3.62,1.83,6.42,4.76,8.4,8.79,1.98,4.03,2.97,9.37,2.97,16.02s-.98,11.44-2.93,15.39c-1.95,3.95-4.73,6.85-8.33,8.71-3.6,1.86-7.9,2.79-12.92,2.79h-22.16ZM77.63,41.49h2.61c1.74,0,3.23-.28,4.49-.85,1.25-.56,2.22-1.66,2.9-3.3.68-1.63,1.01-4.03,1.01-7.19s-.31-5.51-.94-7.06c-.63-1.55-1.56-2.56-2.79-3.04-1.23-.48-2.79-.72-4.67-.72h-2.61v22.15Z"/>
        <path class="cls-5" d="M133.89,57.89c-5.26,0-9.75-.92-13.47-2.75-3.72-1.83-6.57-4.8-8.54-8.92-1.98-4.11-2.97-9.58-2.97-16.4s.99-12.36,2.97-16.45c1.98-4.09,4.83-7.05,8.54-8.88,3.72-1.83,8.21-2.75,13.47-2.75s9.75.92,13.47,2.75c3.72,1.83,6.56,4.79,8.54,8.88,1.98,4.09,2.97,9.57,2.97,16.45s-.99,12.29-2.97,16.4c-1.98,4.12-4.83,7.09-8.54,8.92-3.72,1.83-8.21,2.75-13.47,2.75ZM133.89,40.56c2.56,0,4.38-.8,5.47-2.41,1.09-1.61,1.63-4.38,1.63-8.33s-.54-6.72-1.63-8.33c-1.09-1.61-2.91-2.41-5.47-2.41s-4.38.8-5.47,2.41-1.63,4.38-1.63,8.33.54,6.72,1.63,8.33c1.09,1.61,2.91,2.41,5.47,2.41Z"/>
        <path class="cls-5" d="M163.14,57.05V2.6h17.52v38.9h19.04v15.56h-36.57Z"/>
        <path class="cls-5" d="M201.44,57.05L219.4,2.6h18.17l17.96,54.45h-18.25l-3.33-10.15h-10.93l-3.33,10.15h-18.25ZM224.9,32.95h7.1l-3.55-10.4-3.55,10.4Z"/>
      </g>
    </g>
  </g>
</svg>