<?xml version="1.0" encoding="UTF-8"?>
<svg id="Layer_2" data-name="Layer 2" xmlns="http://www.w3.org/2000/svg" xmlns:xlink="http://www.w3.org/1999/xlink" viewBox="0 0 810.44 530.55">
  <defs>
    <style>
      .cls-1 {
        fill: #ffa799;
      }

      .cls-1, .cls-2, .cls-3, .cls-4, .cls-5, .cls-6, .cls-7, .cls-8, .cls-9, .cls-10, .cls-11, .cls-12, .cls-13, .cls-14, .cls-15, .cls-16, .cls-17 {
        stroke-width: 0px;
      }

      .cls-18 {
        stroke-width: 4.42px;
      }

      .cls-18, .cls-19, .cls-20, .cls-21, .cls-22, .cls-23, .cls-24 {
        fill: none;
        stroke: #720000;
        stroke-linecap: round;
        stroke-linejoin: round;
      }

      .cls-19 {
        stroke-width: 4.73px;
      }

      .cls-2 {
        fill: url(#linear-gradient);
      }

      .cls-20 {
        stroke-width: 3.75px;
      }

      .cls-3 {
        opacity: .6;
      }

      .cls-3, .cls-5, .cls-8, .cls-13 {
        fill: #fff;
      }

      .cls-4 {
        fill: #ffd1b8;
      }

      .cls-5 {
        opacity: .3;
      }

      .cls-21 {
        stroke-width: 3.14px;
      }

      .cls-6 {
        fill: #f9a7ce;
      }

      .cls-22 {
        stroke-width: 2.5px;
      }

      .cls-7 {
        fill: #b9dff9;
      }

      .cls-8 {
        opacity: .4;
      }

      .cls-9 {
        fill: url(#linear-gradient-2);
        opacity: .42;
      }

      .cls-23 {
        stroke-width: 5px;
      }

      .cls-10 {
        fill: #86addb;
      }

      .cls-11 {
        fill: #ffc4d6;
      }

      .cls-12 {
        fill: #720000;
      }

      .cls-14 {
        fill: #a53535;
      }

      .cls-24 {
        stroke-width: 4.49px;
      }

      .cls-15 {
        fill: #b2c9ea;
      }

      .cls-16 {
        fill: #90a6bf;
      }

      .cls-17 {
        fill: #587389;
      }
    </style>
    <linearGradient id="linear-gradient" x1="405.24" y1="466.93" x2="827.59" y2="187.29" gradientUnits="userSpaceOnUse">
      <stop offset="0" stop-color="#ed7eb6"/>
      <stop offset="1" stop-color="#ffaec9"/>
    </linearGradient>
    <linearGradient id="linear-gradient-2" x1="238.01" y1="538.5" x2="423.68" y2="173.2" gradientUnits="userSpaceOnUse">
      <stop offset="0" stop-color="#fff"/>
      <stop offset="1" stop-color="#fff" stop-opacity="0"/>
    </linearGradient>
  </defs>
  <g id="Layer_1-2" data-name="Layer 1">
    <g>
      <polyline class="cls-2" points="273.66 523.05 810.44 397.28 810.44 0 44.38 528.05"/>
      <g>
        <g>
          <g>
            <g>
              <path class="cls-13" d="M132.2,179.09h24.61c8.58,0,15.54,6.96,15.54,15.54v25.82c0,8.58-6.96,15.54-15.54,15.54h-28.23l3.62-56.89Z"/>
              <path class="cls-18" d="M132.2,179.09h24.61c8.58,0,15.54,6.96,15.54,15.54v25.82c0,8.58-6.96,15.54-15.54,15.54h-28.23l3.62-56.89Z"/>
            </g>
            <path class="cls-4" d="M174.63,187.59c-12.59-6.73-15.61-27.03-5.35-32.4,2.79-1.46,6.17-.86,8.48,1.28,8.04,7.44,13.89,18.82,27.55,24.6,21.4,8.82,11.48,31.94-6.95,54.92,0,0-6.79,34.89-7.5,39.13s50.1,3.06,50.1,3.06l-14.41,20.91s-45.87,6.71-53.1-5.84c-7.23-12.55,7.23-48.55,7.23-48.55-22.24,6.67-32.14-14.97-32.14-14.97"/>
            <path class="cls-1" d="M171.72,184.19s-8.27-15.2-3.65-21.03c4.62-5.83,13.36,12.46,20.39,16.88,7.03,4.42-4.01,21.5-4.01,21.5,0,0,3.31-10.45-3.12-12.86-6.43-2.41-9.61-4.49-9.61-4.49Z"/>
            <path class="cls-1" d="M182.71,207.58s4.26,12.5,12.04,15.25c7.78,2.75-9.45,23.02-32.18,13.15,0,0,6.47,1.36,5.77-4.06-.71-5.42-3.8-8.8-3.8-8.8,10.13-1.02,17.76-4.59,18.17-15.55Z"/>
            <path class="cls-19" d="M174.63,187.59c-12.59-6.73-15.61-27.03-5.35-32.4,2.79-1.46,6.17-.86,8.48,1.28,8.04,7.44,13.89,18.82,27.55,24.6,21.4,8.82,11.48,31.94-6.95,54.92,0,0-6.79,34.89-7.5,39.13s50.1,3.06,50.1,3.06l-14.41,20.91s-45.87,6.71-53.1-5.84c-7.23-12.55,7.23-48.55,7.23-48.55-22.24,6.67-32.14-14.97-32.14-14.97"/>
            <path class="cls-12" d="M186.56,198.94c-1.74,3.21-2.55,7.16-1.81,10.78.37,1.83,1.11,3.63,2.3,5.16,1.11,1.65,2.69,2.91,4.25,4.14.36.31.41.85.11,1.21-.25.3-.66.38-1,.24-1.02-.43-2.06-.87-3.04-1.45-2.01-1.22-3.78-2.9-5.1-4.87-3.42-5.3-3.45-12.68.39-17.79,1.79-2.38,5.38,0,3.91,2.57h0Z"/>
            <g>
              <path class="cls-13" d="M103.72,241.48c-.54.02-1.08.05-1.63.06-37.11-1.13-48.59-18.6-48.59-44.43,0-2.35.1-4.76.27-7.24,0-8.98,21.63-16.25,48.32-16.25,20,0,37.15,4.09,44.5,9.91,2.46,1.95,3.82,4.09,3.82,6.34,2.11,29.37-7.56,49.89-46.69,51.61Z"/>
              <path class="cls-7" d="M103.72,241.48c22.57-11.39,17.66-36.58,17.66-36.58,36.42-4.4,24.62-20.79,24.62-20.79l.59-.58c2.46,1.95,3.82,4.09,3.82,6.34,2.11,29.37-7.56,49.89-46.69,51.61Z"/>
              <ellipse class="cls-7" cx="102.09" cy="190.18" rx="40.48" ry="11.94"/>
              <path class="cls-14" d="M69.6,197.3c5.15-4.16,17.76-7.11,32.49-7.11s27.35,2.95,32.49,7.11c-13.37,4.83-49.03,6.58-64.98,0Z"/>
              <path class="cls-12" d="M121.33,178.81c5.97.71,11.96,1.79,17.62,4.71,1.39.77,2.78,1.73,3.93,3.18,2.87,3.62.47,7.68-2.79,9.73-6.61,4.18-14.44,5.47-22.02,6.51-12.02,1.33-24.15,1.26-36.11-.61-6.49-1.01-26.36-5.39-20.83-15.2,5.05-6.49,18.19-7.91,25.85-8.6.32-.02.6.22.62.54.02.3-.19.57-.48.62-2.92.51-5.84,1.05-8.69,1.8-25.64,6.86-15.25,14.09,4.09,17.4,11.55,1.89,23.49,2.05,35.1.58,12.46-1.49,37.97-8.24,11.96-16.76-2.79-.89-5.65-1.58-8.55-2.2-1.05-.22-.77-1.81.28-1.68h0Z"/>
              <path class="cls-21" d="M69.6,197.3c5.15-4.16,17.76-7.11,32.49-7.11s27.35,2.95,32.49,7.11"/>
              <path class="cls-18" d="M150.42,189.87c0-8.98-21.64-16.26-48.32-16.26s-48.32,7.28-48.32,16.26c0,0,0,0,0,0-2.15,29.76,7.84,50.45,48.32,51.68,40.48-1.23,50.47-21.91,48.32-51.68Z"/>
            </g>
            <g>
              <g>
                <path class="cls-4" d="M174.19,204.12c9.5,5.1,10.93,16.35-12.27,18.42,0,0,9.11,3.25,6.35,9.55-2.25,5.14-14.33,5.96-19.67-2.24-.01-.03-.02-.05-.04-.08-1.2-1.84-2.04-4.14-2.36-6.94-9.85-4.34-4.73-15.58,1.48-18.03-8.53-.19-9.35-18.03,3.65-18.03l23.29.81c13.4,0,12.95,16.53-.44,16.53Z"/>
                <path class="cls-4" d="M174.19,204.12c9.5,5.1,10.93,16.35-12.27,18.42,0,0,9.11,3.25,6.35,9.55-2.25,5.14-14.33,5.96-19.67-2.24-.01-.03-.02-.05-.04-.08-1.2-1.84-2.04-4.14-2.36-6.94-9.85-4.34-4.73-15.58,1.48-18.03-8.53-.19-9.35-18.03,3.65-18.03l23.29.81c13.4,0,12.95,16.53-.44,16.53Z"/>
              </g>
              <g>
                <path class="cls-19" d="M147.69,204.8c-8.53-.18-9.36-18.03,3.64-18.03l23.3.81c13.4,0,12.95,16.52-.44,16.52,9.51,5.11,10.93,16.35-12.26,18.42,0,0,9.11,3.25,6.35,9.55-2.76,6.3-20.29,6.11-22.06-9.26-9.85-4.33-4.72-15.57,1.48-18.03Z"/>
                <path class="cls-12" d="M147.62,202.44l16.9,1.15c.87.05.91,1.36.04,1.46,0,0-16.8,2.11-16.8,2.11-3.43.28-3.58-4.81-.13-4.73h0Z"/>
                <path class="cls-12" d="M146.21,220.47l10.63,1.63c.83.12.82,1.35,0,1.46,0,0-10.63,1.63-10.63,1.63-3.63.36-3.64-5.09,0-4.73h0Z"/>
              </g>
            </g>
          </g>
          <g>
            <g>
              <path class="cls-12" d="M403.71,150.79s6.23,3.47,12.09,3.39c9.77-.14,13.04-11.6,5.46-16.64-9.49-6.31-16.88,0-16.88,0-4.51-5.21-2.67-16.02,9.86-21,13.31-5.27,28.86,5.07,28.86,5.07-14.8-21.43-42.85-15.4-50.71-.4-7.85,14.99,2.79,24.07,2.79,24.07-15.5,21-7.96,37.43-7.96,37.43l12.37-2.93c-6.99-14.13,4.11-29,4.11-29ZM415.14,142.12c3.69.66,2.6,4.12-.03,3.85-2.88-.3-5.15-2.49-5.15-2.49,0,0,1.63-2,5.18-1.36Z"/>
              <path class="cls-13" d="M411.11,111.22c-3.76.13-7.46,1.54-10.36,3.94-2.9,2.4-4.97,5.78-5.79,9.45,1.86-4.19,5.73-7.62,10.12-8.95-3.12,2.63-5.01,6.58-5.51,10.62,2.53-6.11,8.53-10.76,15.03-11.92-2.3-.76-4.85-.96-7.21-.45,1.05-1.54,1.91-2.27,3.73-2.69Z"/>
              <path class="cls-13" d="M396.67,150.6c-2.25,1.55-4.1,4-5.18,6.85-1.08,2.85-1.38,6.09-.84,9.06-.06-3.74,1.32-7.72,3.61-10.37-1.15,3.1-1.18,6.69-.33,9.8-.2-5.38,2.12-11.07,5.75-14.42-1.61.34-3.22,1.19-4.51,2.47.2-1.52.52-2.38,1.5-3.39Z"/>
            </g>
            <path class="cls-12" d="M443.08,150.9c-1.39.12-2.22-1.51-1.3-2.56,3.12-3.56,9.51-9.09,18.83-8.78,11.76.38,18.11,6.76,20.03,11.61.46,1.17-.63,2.36-1.85,2.03-4.98-1.34-17.34-3.86-35.72-2.3Z"/>
            <path class="cls-12" d="M348.78,143.35c1.05.4,2.05-.68,1.56-1.69-1.63-3.43-5.34-9.1-12.59-10.92-9.16-2.29-15.46,1.23-18,4.55-.61.8-.03,1.96.98,1.97,4.14.06,14.22.83,28.05,6.08Z"/>
            <path class="cls-4" d="M442.62,480.62c-79.51,9.98-118.27-37.69-118.27-37.69-35.82,26.01-146.86,1.32-146.55-93.04.22-65.81,41.71-96.24,70.21-109.38,0,0,.02,0,.02-.01,14.92-6.88,26.29-9.01,26.29-9.01l7.46-11.52c.36-2.34.83-4.56,1.39-6.67,7.81-29.91,32.77-36.77,32.77-36.77h0c.13-.18,1.88-2.32,4.92-5.2h0s.08-.08.16-.16c.27-.25.55-.5.83-.77.13-.12.27-.25.43-.38,7.18-6.44,19.82-15.25,34.65-14.7,22.31.84,34.01,22.48,34.01,22.48,0,0,18.51-20.05,46.63-13.35,30.95,7.36,42.12,41.45,46.15,65.22,0,.02,0,.02,0,.04.83,4.91,1.36,9.38,1.69,13.07.59,6.49.58,10.62.58,10.62,10.64,7.55,20.8,16.73,29.65,27.75,5.11,6.37,9.79,13.37,13.85,21.03,2.07,3.9,3.98,7.97,5.72,12.23.93,2.29,1.81,4.63,2.63,7.02.99,2.87,1.9,5.81,2.71,8.82,1.08,3.95,2.01,8.04,2.78,12.26.57,3.1,1.05,6.26,1.44,9.51,6.03,50.39-22.75,118.62-102.16,128.59Z"/>
            <path class="cls-3" d="M543.35,342.52c-15.11-54.55-57.57-78.97-57.57-78.97l-.35-20.77c.59,6.49.58,10.62.58,10.62,10.64,7.55,20.8,16.73,29.65,27.75,13,16.2,23.14,36.41,27.69,61.37Z"/>
            <path class="cls-8" d="M474.01,353.12c-6.76,2.55-14.67,2.08-19.75-1.76-3.46-2.62-5.41-6.48-7.27-10.24-6.09-12.3-12.17-24.59-18.26-36.89-2.79-5.64-5.62-11.96-3.2-18.27,2.55-6.65,10.6-11.23,18.22-11.9,7.62-.67,14.76,1.9,20.8,5.39,19.69,11.39,46.94,59.52,9.46,73.66Z"/>
            <path class="cls-8" d="M223.74,310.25c4.74,4.14,11.7,5.83,17.61,3.68,4.03-1.46,7.27-4.47,10.4-7.41,10.23-9.61,20.45-19.21,30.68-28.82,4.69-4.4,9.69-9.42,10.2-15.84.54-6.76-4.47-13.1-10.72-15.74-6.24-2.65-13.4-2.21-19.99-.64-21.49,5.14-64.45,41.82-38.18,64.76Z"/>
            <path class="cls-1" d="M366.39,234.92s-39.29-21.39-83.23-21.62c7.81-29.91,32.77-36.77,32.77-36.77h0c14.31-12.69,30.87-12.21,42.73-6.45,11.86,5.76,23.75,17.93,23.75,17.93,0,0-12.48,13.17-16.04,46.92Z"/>
            <path class="cls-1" d="M371.24,216.11c6.29-17.68,25.18-41.06,54.69-36.64s39.98,41.28,34.78,66.59c0,0-45.68-21.89-94.15-14.33,0,0-.8-.19,4.69-15.62Z"/>
            <path class="cls-3" d="M483.74,229.67c-7.08-27.22-22.87-51.18-46.95-58.48-24.09-7.31-48.7,9.53-48.7,9.53-31.17-36.52-59.25-16.32-65.79-10.71,7.18-6.44,19.82-15.25,34.65-14.7,22.31.84,34.01,22.48,34.01,22.48,0,0,18.51-20.05,46.63-13.35,30.95,7.36,42.12,41.45,46.15,65.22Z"/>
            <path class="cls-1" d="M289.25,219.52s15.96,37.97,81.04,26.19c0,0,54.02,26.94,86.3,5.37,0,0-54.29,6.03-90.19-16.17,0,0-39.49,12.45-77.15-15.4Z"/>
            <path class="cls-1" d="M537.43,352.91c-.91-7.59-2.36-14.92-4.36-21.97,2.44-.14,4.95-.36,7.5-.68-.82-3.02-1.73-5.95-2.71-8.82-.82-2.39-1.7-4.73-2.63-7.02-.87.18-1.78.35-2.72.5-10.23,1.59-20.45,3.06-26.51,5.2-3.33,1.17-5.39,2.53-5.52,4.22-.06.7.42,1.42,1.36,2.1,20.75,15.15,19.72,45.9,11.29,68.57-6.97,18.73-23,41.09-59.83,52.49-71.67,22.19-137.1-32.91-137.1-32.91-29.43,14.32-89.92,6.45-112.2-43.5-18.95-42.48,5.44-92.69,4.09-91.01-15.09,18.89-22.78,42.39-22.88,69.85-.09,27.06,9.36,49.57,28.09,66.91,15.41,14.27,37.05,24.57,59.48,27.38,30.62,3.84,47.56-8.22,47.56-8.22,0,0,33.62,30.66,80.53,37.21,12.99,1.82,26.73,1.84,40.84.07,42.7-5.37,65.92-27.92,77.88-45.9,14.21-21.35,20.88-49.19,17.86-74.47Z"/>
            <path class="cls-19" d="M442.62,480.62c-79.51,9.98-118.27-37.69-118.27-37.69-35.82,26.01-146.86,1.32-146.55-93.04.34-100.3,96.52-118.4,96.52-118.4l7.46-11.52c.36-2.34.83-4.56,1.39-6.67,7.81-29.91,32.77-36.77,32.77-36.77h0c.41-.56,18.08-22.07,40.99-21.2s34.01,22.48,34.01,22.48c0,0,18.51-20.04,46.63-13.35,48.58,11.56,48.43,88.95,48.43,88.95,28.21,20.03,53.13,51.44,58.77,98.63,6.03,50.39-22.75,118.62-102.16,128.59Z"/>
            <path class="cls-12" d="M392.5,179.59c-4.56,4.47-8.31,9.9-11.45,15.45-7.3,12.92-11.17,27.62-12.43,42.38.63,7.82,17.85,15.97,24.74,18.56,18.3,6.88,39.42,9.72,58.04,2.45.39-.16.84.03,1,.42.15.38-.02.82-.39.99-6.2,2.84-12.92,4.47-19.71,5.16-20.2,1.73-41.75-3.37-58.76-14.58-4.2-3.07-10.01-7.6-9.61-13.67,1.12-15.39,5-30.74,12.73-44.21,3.45-6.03,7.59-11.82,12.75-16.54,2.39-1.99,5.43,1.49,3.09,3.58h0Z"/>
            <g>
              <g>
                <path class="cls-13" d="M460.87,244.91c-9.55-3.75-19.17-6.52-28.44-8.54-6.49-1.42-12.8-2.48-18.78-3.25-4.3-.56-8.44-.98-12.34-1.28-.72-.06-1.44-.11-2.15-.16-19.31-1.33-32.59.05-32.59.05,1.44-8.77,14.65-47.69,56.29-39.92,41.04,7.66,38.02,53.1,38.02,53.1Z"/>
                <path class="cls-19" d="M460.87,244.91c-9.55-3.75-19.17-6.52-28.44-8.54-6.49-1.42-12.8-2.48-18.78-3.25-4.3-.56-8.44-.98-12.34-1.28-.72-.06-1.44-.11-2.15-.16-19.31-1.33-32.59.05-32.59.05,1.44-8.77,14.65-47.69,56.29-39.92,41.04,7.66,38.02,53.1,38.02,53.1Z"/>
                <g>
                  <path class="cls-12" d="M452.52,236.72c-.5,1.77-1.25,3.4-2.19,4.85-6.24-2.28-12.35-4.17-18.18-5.75-4.19-1.14-8.23-2.1-12.06-2.93-.71-.15-1.41-.3-2.11-.45-.05-1.73.16-3.49.65-5.24,2.63-9.35,12.34-14.82,21.7-12.19,9.36,2.63,14.82,12.35,12.19,21.7Z"/>
                  <circle class="cls-13" cx="441.72" cy="228.28" r="7.17"/>
                  <path class="cls-5" d="M432.23,235.54c-.03.09-.05.19-.09.28-4.19-1.14-8.23-2.1-12.06-2.93.04-.24.09-.48.16-.72.93-3.31,4.36-5.24,7.68-4.31,3.31.93,5.24,4.37,4.31,7.68Z"/>
                </g>
              </g>
              <g>
                <path class="cls-13" d="M366.4,234.92c-.15-.1-4.48-2.85-12.58-6.37-4.64-2.02-10.52-4.29-17.56-6.45-3.03-.93-6.28-1.84-9.73-2.71-1.34-.34-2.71-.66-4.12-.99-11.17-2.54-24.31-4.53-39.24-5.11,5.96-26.32,29.56-35.79,32.77-36.77,17.94-5.53,44.03-2.47,61.31,19.32-5,9.27-9.73,22.22-10.86,39.07Z"/>
                <g>
                  <path class="cls-12" d="M362.91,222.71c-.69,3.02-2.11,5.67-4.06,7.81-4.45-2.41-10.11-5.17-16.94-7.92-2.93-1.19-6.1-2.37-9.46-3.53-1.3-.45-2.64-.89-4.02-1.33.05-.93.19-1.86.4-2.8,2.15-9.41,11.52-15.3,20.93-13.15,9.41,2.15,15.3,11.52,13.15,20.93Z"/>
                  <circle class="cls-13" cx="351.53" cy="217.27" r="7.17"/>
                  <path class="cls-5" d="M342.59,220.97c-.14.6-.37,1.15-.68,1.63-2.93-1.19-6.1-2.37-9.46-3.53.02-.13.04-.26.07-.4.63-2.78,3.41-4.52,6.19-3.89,2.79.64,4.52,3.41,3.89,6.19Z"/>
                </g>
                <path class="cls-19" d="M366.4,234.92c-.15-.1-4.48-2.85-12.58-6.37-4.64-2.02-10.52-4.29-17.56-6.45-3.03-.93-6.28-1.84-9.73-2.71-1.34-.34-2.71-.66-4.12-.99-11.17-2.54-24.31-4.53-39.24-5.11,5.96-26.32,29.56-35.79,32.77-36.77,17.94-5.53,44.03-2.47,61.31,19.32-5,9.27-9.73,22.22-10.86,39.07Z"/>
              </g>
            </g>
            <path class="cls-12" d="M302.56,241.23c13.87,6.59,29.1,11.1,44.56,10.09,1.56-.19,3.27-.37,4.84-.5.51-.06.67.73.17.87-1.49.48-3.22.97-4.75,1.38-11.41,2.37-23.42.24-33.95-4.46-4.01-1.8-7.86-3.93-11.35-6.64-.42-.32.02-1.02.49-.75h0Z"/>
            <path class="cls-12" d="M284.06,219.33c1.16,5.44,3.59,11.09,7.88,14.83.29.26.32.7.06.99-.23.26-.6.31-.88.14-2.72-1.58-5.03-3.84-6.92-6.35-1.93-2.61-3.46-5.25-4.69-8.32-.48-1.22.12-2.6,1.35-3.08,1.37-.56,2.96.34,3.21,1.8h0Z"/>
            <path class="cls-12" d="M488.38,253.39c-.4,6.84-1.05,13.59-2.02,20.36-.24,1.51-2.49,1.31-2.44-.22.21-6.69.1-13.47-.26-20.14-.08-3.29,4.81-3.3,4.73,0h0Z"/>
            <path class="cls-12" d="M322.6,444.52c-8.24-11.7-8.03-27.54-5.24-41,.09-.48.84-.41.8.11,0-.01-.44,5.1-.45,5.1-.41,8.29.4,16.88,3.59,24.58,1.22,2.87,2.71,5.74,4.79,8.04,2.28,2.38-1.34,5.69-3.5,3.18h0Z"/>
          </g>
          <g>
            <path class="cls-4" d="M529.37,349.22s-4.29,56-12.04,64.78c-1.9,2.14-6.31,3.31-11.9,3.84-17.33,1.68-45.98-2.7-45.98-2.7-2.58,10.31-12.69,15.45-23.8,17.43-11.96,2.14-25.09.6-31.22-2.09-2.48-1.53-4.23-3.33-5.29-5.38-1.65-3.19-1.65-7.01-.14-11.39-6.9-4.11-8.55-12.92-1.31-20.55-3.54-11.41,2.56-19.47,28.59-18.35-8.13-31.86,17.59-37.93,17.27-19.35-.34,18.58,6.74,26.84,6.74,26.84,0,0,7.23,4.85,9.86,11.85l47.01,2.56,3.19-35.13,2.4-26.51,16.63,14.15Z"/>
            <path class="cls-1" d="M529.37,349.22s-4.29,56-12.04,64.78c-1.9,2.14-6.31,3.31-11.9,3.84-3.35-.55-6.81-.86-10.35-.7-18.33.84-40.32-4.01-40.32-4.01-1.08,8.38-9.39,15.3-19.12,19.44-11.96,2.14-25.09.6-31.22-2.09-2.48-1.53-4.23-3.33-5.29-5.38-.53-2.81-.14-5.01-.14-5.01,0,0,12.3,12.37,34.87,2.01,22.25-10.23,13.87-35.88,13.64-36.6,11.74,6.73,10.94,23.39,10.94,23.39,58.47,11.86,60.75-14.8,60.75-29.13s-8.59-18.07-8.85-18.19l2.4-26.51,16.63,14.15Z"/>
            <path class="cls-19" d="M512.74,335.07l-5.59,61.64-47.01-2.56c-2.63-7-9.86-11.85-9.86-11.85,0,0-7.07-8.27-6.74-26.84.33-18.57-25.4-12.51-17.26,19.35-26.04-1.11-32.13,6.94-28.6,18.36-7.24,7.63-5.59,16.44,1.31,20.55-2.48,7.19-.89,12.87,5.42,16.77,11.83,5.18,49.67,6.09,55.03-15.34,0,0,50.12,7.65,57.88-1.13,7.76-8.78,12.05-64.78,12.05-64.78"/>
            <path class="cls-12" d="M397.22,390.84c4.99-.44,9.97-.22,14.77.64.4.07.67.46.59.86-.06.34-.36.59-.69.6-4.74.23-9.37,1.11-13.75,2.53-3.4.93-4.42-4.2-.92-4.64h0Z"/>
            <path class="cls-12" d="M399.25,411.36c3.58.89,7.33,1.5,11.04,1.62.41,0,.74.35.73.76,0,.34-.24.61-.55.69-2.85.75-5.79,1.17-8.73,1.44-1,.09-1.97.16-3.03.19-3.62-.08-3.01-5.44.54-4.7h0Z"/>
          </g>
          <g>
            <g>
              <path class="cls-15" d="M61.48,518.06l110.96-65.43c5.73-3.38,12.26-5.16,18.92-5.16h192.76c4.92,0,6.69,6.49,2.45,8.99l-112.92,66.58c-3.55,2.09-7.59,3.2-11.71,3.2H63.72c-4.48,0-6.09-5.91-2.23-8.18Z"/>
              <g>
                <polygon class="cls-16" points="312.49 454.31 305.46 458.45 298.44 462.6 291.41 466.74 232.21 466.74 239.23 462.6 246.25 458.45 253.28 454.31 312.49 454.31"/>
                <polygon class="cls-17" points="175.61 464.37 336.75 464.37 279.55 498.69 113.85 498.69 175.61 464.37"/>
              </g>
              <path class="cls-23" d="M61.48,518.06l110.96-65.43c5.73-3.38,12.26-5.16,18.92-5.16h192.76c4.92,0,6.69,6.49,2.45,8.99l-112.92,66.58c-3.55,2.09-7.59,3.2-11.71,3.2H63.72c-4.48,0-6.09-5.91-2.23-8.18Z"/>
              <path class="cls-20" d="M65.05,515.96h196.89c4.13,0,8.16-1.1,11.71-3.19l110.7-65.28"/>
              <g>
                <polyline class="cls-22" points="279.55 498.69 298.94 487.25 318.35 475.81 337.75 464.37"/>
                <polyline class="cls-22" points="246.86 498.69 266.25 487.25 285.65 475.81 305.06 464.37"/>
                <polyline class="cls-22" points="214.15 498.69 233.54 487.25 252.95 475.81 272.35 464.37"/>
                <polyline class="cls-22" points="181.46 498.69 200.85 487.25 220.25 475.81 239.66 464.37"/>
                <polyline class="cls-22" points="148.75 498.69 168.14 487.25 187.54 475.81 206.95 464.37"/>
                <polyline class="cls-22" points="116.06 498.69 135.45 487.25 154.85 475.81 174.25 464.37"/>
                <polyline class="cls-22" points="337.75 464.37 305.06 464.37 272.35 464.37 239.66 464.37 206.95 464.37 174.25 464.37"/>
                <polyline class="cls-22" points="318.35 475.81 285.65 475.81 252.95 475.81 220.25 475.81 187.54 475.81 154.85 475.81"/>
                <polyline class="cls-22" points="298.94 487.25 266.25 487.25 233.54 487.25 200.85 487.25 168.14 487.25 135.45 487.25"/>
                <polyline class="cls-22" points="279.55 498.69 246.86 498.69 214.15 498.69 181.46 498.69 148.75 498.69 116.06 498.69"/>
              </g>
            </g>
            <polygon class="cls-9" points="12.78 384.32 308.65 0 647 0 647 331.14 266.39 513.5 12.78 384.32"/>
            <g>
              <path class="cls-15" d="M254.68,528.05H43.46c-5.64,0-10.51-3.91-11.71-9.43l-.7-3.23L2.78,386.14c-1.63-7.48,4.06-14.55,11.71-14.55h211.22c2.69,0,5.2.9,7.23,2.43,2.23,1.68,3.86,4.13,4.49,7l28.96,132.49c1.64,7.48-4.05,14.54-11.7,14.54Z"/>
              <path class="cls-10" d="M254.68,528.05H43.46c-5.64,0-10.51-3.91-11.71-9.43l-.7-3.23c133.9,7.13,232.91,8.25,181.52-134.83h10.06l10.3-6.55c2.23,1.68,3.86,4.13,4.49,7l28.96,132.49c1.64,7.48-4.05,14.54-11.7,14.54Z"/>
              <path class="cls-23" d="M254.67,528.05H43.46c-5.64,0-10.51-3.92-11.71-9.43L2.78,386.14c-1.63-7.48,4.06-14.55,11.71-14.55h211.21c5.64,0,10.51,3.92,11.71,9.43l28.96,132.48c1.63,7.48-4.06,14.55-11.71,14.55Z"/>
              <path class="cls-24" d="M246.27,528.05H44.38c-5.39,0-10.05-3.7-11.2-8.89l-27.68-124.88c-1.56-7.05,3.88-13.72,11.2-13.72h201.89c5.39,0,10.05,3.7,11.2,8.89l27.68,124.88c1.56,7.05-3.88,13.72-11.2,13.72Z"/>
              <path class="cls-13" d="M138.53,457.43c2.89,10.76-1.07,19.49-8.84,19.49s-16.4-8.73-19.29-19.49c-2.89-10.76,1.07-19.49,8.84-19.49s16.4,8.73,19.29,19.49Z"/>
              <path class="cls-8" d="M35.2,498.76l-22.32-100.81c-.56-2.53,1.36-4.92,3.95-4.92h15.82c1.9,0,3.54,1.32,3.95,3.17l22.32,100.81c.56,2.53-1.36,4.92-3.95,4.92h-15.82c-1.9,0-3.54-1.32-3.95-3.17Z"/>
            </g>
          </g>
          <path class="cls-13" d="M134.58,304.82c0-1.24-4.38-2.33-10.96-2.95-5.23-.49-9.39-5.38-9.81-11.51-.52-7.72-1.45-12.86-2.51-12.86s-1.99,5.14-2.51,12.86c-.42,6.13-4.58,11.03-9.81,11.51-6.58.61-10.96,1.7-10.96,2.95s4.38,2.33,10.96,2.95c5.23.49,9.39,5.38,9.81,11.51.52,7.72,1.45,12.86,2.51,12.86s1.99-5.14,2.51-12.86c.42-6.13,4.58-11.03,9.81-11.51,6.58-.61,10.96-1.7,10.96-2.95Z"/>
          <path class="cls-13" d="M296.3,166.19c0-1.09-3.83-2.04-9.58-2.58-4.57-.43-8.21-4.7-8.57-10.06-.46-6.75-1.27-11.24-2.19-11.24s-1.74,4.49-2.19,11.24c-.36,5.36-4,9.64-8.57,10.06-5.75.54-9.58,1.49-9.58,2.58s3.83,2.04,9.58,2.58c4.57.43,8.21,4.7,8.57,10.06.46,6.75,1.27,11.24,2.19,11.24s1.74-4.49,2.19-11.24c.36-5.36,4-9.64,8.57-10.06,5.75-.54,9.58-1.49,9.58-2.58Z"/>
          <path class="cls-13" d="M194.75,331.61c0-.59-2.08-1.11-5.2-1.4-2.48-.23-4.46-2.55-4.65-5.46-.25-3.66-.69-6.1-1.19-6.1s-.94,2.44-1.19,6.1c-.2,2.91-2.17,5.23-4.65,5.46-3.12.29-5.2.81-5.2,1.4s2.08,1.11,5.2,1.4c2.48.23,4.46,2.55,4.65,5.46.25,3.66.69,6.1,1.19,6.1s.94-2.44,1.19-6.1c.2-2.91,2.17-5.23,4.65-5.46,3.12-.29,5.2-.81,5.2-1.4Z"/>
          <path class="cls-13" d="M352.08,466.74c0-.9-3.17-1.69-7.94-2.14-3.79-.35-6.81-3.9-7.11-8.34-.38-5.6-1.05-9.32-1.82-9.32s-1.44,3.72-1.82,9.32c-.3,4.45-3.32,7.99-7.11,8.34-4.77.44-7.94,1.23-7.94,2.14s3.17,1.69,7.94,2.14c3.79.35,6.81,3.9,7.11,8.34.38,5.6,1.05,9.32,1.82,9.32s1.44-3.72,1.82-9.32c.3-4.45,3.32-7.99,7.11-8.34,4.77-.44,7.94-1.23,7.94-2.14Z"/>
          <path class="cls-13" d="M385.31,384.32c0-.59-2.08-1.11-5.2-1.4-2.48-.23-4.46-2.55-4.65-5.46-.25-3.66-.69-6.1-1.19-6.1s-.94,2.44-1.19,6.1c-.2,2.91-2.17,5.23-4.65,5.46-3.12.29-5.2.81-5.2,1.4s2.08,1.11,5.2,1.4c2.48.23,4.46,2.55,4.65,5.46.25,3.66.69,6.1,1.19,6.1s.94-2.44,1.19-6.1c.2-2.91,2.17-5.23,4.65-5.46,3.12-.29,5.2-.81,5.2-1.4Z"/>
          <path class="cls-13" d="M529.38,227.34c0-.59-2.08-1.11-5.2-1.4-2.48-.23-4.46-2.55-4.65-5.46-.25-3.66-.69-6.1-1.19-6.1s-.94,2.44-1.19,6.1c-.2,2.91-2.17,5.23-4.65,5.46-3.12.29-5.2.81-5.2,1.4s2.08,1.11,5.2,1.4c2.48.23,4.46,2.55,4.65,5.46.25,3.66.69,6.1,1.19,6.1s.94-2.44,1.19-6.1c.2-2.91,2.17-5.23,4.65-5.46,3.12-.29,5.2-.81,5.2-1.4Z"/>
        </g>
        <g>
          <path class="cls-11" d="M287.24,320.58s1.44-24.18,15.06-30.66c13.62-6.48,34.77,7.82,34.77,7.82,0,0,29.89-4.56,41.54,3.18s-3.42,41.24-5.93,46.34-19.59,27.1-40.39,26.7c-20.8-.4-31.92-7.68-37.91-16.05-5.99-8.36-7.82-29.04-7.48-33.18"/>
          <path class="cls-6" d="M355.14,334.39c4.17-4.63,19.69-5.54,19.69-5.54,0,0-8.47-.45-12.88-5.65-4.42-5.21,5.76-15.57,5.76-15.57,0,0-9.93,4.42-17.59,5.68-7.65,1.26-15.67-7.71-15.67-7.71,0,0-8.14,6.99-12.74,4.77-4.46-2.16-9.4-9.8-9.71-10.28.09.63,1.81,12.04-.67,11.22,0,0-11.89-7.73-11.32-16.87l.18-2.72c-1.87,1.23-3.55,2.83-5.03,4.81,0,.01-.01.01-.02.02-1.31,2.04,5.27,7.82,5.49,8.06.22.22,6.67,7.41,4.24,11.71-2.21,3.93-13.91,2.23-17.39,2.49-.13.87-.29,2.2-.42,3.86h0c-.11,1.4-.2,3.03-.23,4.83-.21,14.29,3.41,39.58,30.79,45.66-1.5-.85-3.14-1.67-4.87-2.44-6.81-3.02-8.25-7.43-8.08-10.95.5,1.41,6.99-7.91,10.12-8.15,3.5-.28.53,14.82,4.84,20.27.52.65.99,1.29,1.44,1.92.93.14,1.89.27,2.88.37,1.57.15,3.11.25,4.62.26,2.68-7.3,5.47-18.16,11.55-18.9,6.22-.77,5.02,10.93,5.02,10.93,0,0,5.45-14.95,1.11-21.65,0,0,11.46,7.44,11.12,18.15,0,0,3.08-9.51-2.78-16.86,0,0-3.57-7.09.6-11.74ZM289.65,331.19c.49-3.81,6.77-4.36,7.49-4.41,2.65.18,5.1.77,6.65,2.11,3.59,3.08-1.02,3.86-4.66,4.35l-.74-.3s-9.27,2.27-8.75-1.76ZM293.49,340.27c1.36-5.53,9.04-5.59,9.19-5.59.49.1.89.22,1.12.39.71.51-.12,2.54-1.31,4.68h0c-2.9,3.55-10.38,6.1-9,.52ZM304.73,358.8c.37-2.72,1.57-4.7,1.57-4.7,0,0-10.04,3.84-9.38-2.16.67-5.99,8.54-7.18,8.54-7.18h0c1.11-.12,2.12-.14,2.84.06,2.82.78-2.4,9.28-3.56,13.98Z"/>
          <path class="cls-12" d="M331.5,317.43s-14.89-13.89-21.04-1.66c-6.15,12.23.67,41.63,20.32,36.17,19.65-5.46,42.11-43.96.72-34.52Z"/>
          <path class="cls-12" d="M288.82,343.77c5.05,17.04,16.57,26.94,34.15,29.21,6.23.96,12.61.78,18.82-.6.19-.04.37.07.41.26.04.17-.06.34-.22.4-5.42,1.95-11.31,2.64-17.11,2.28-11.56-.59-23.6-5.49-30.28-15.36-1.66-2.41-3.08-4.98-4.12-7.69-1.02-2.72-1.84-5.49-2.33-8.33-.06-.4.53-.58.67-.16h0Z"/>
          <path class="cls-12" d="M381.16,306.82c-3.72-12.53-33.5-9.11-43.97-8.4-.16.03-.34,0-.47-.09-1.52-.98-3.06-1.93-4.57-2.96-.17-.1-.22-.33-.11-.49.1-.14.28-.19.43-.12,1.67.75,3.31,1.57,4.97,2.36l-.47-.09c11.64-2.25,32.54-4.31,41.94,4.05,1.54,1.49,2.7,3.47,2.93,5.58.04.41-.55.54-.68.14h0Z"/>
          <path class="cls-12" d="M290.83,305.68c-1.23,7.25-2.34,14.75-3.68,21.99-1.15,1.8-1.09-5.17-1.08-5.71.01-1.88.27-3.82.56-5.68.65-3.75,1.65-7.5,3.55-10.83.18-.33.72-.14.65.23h0Z"/>
          <path class="cls-12" d="M330.33,320.81c-.08-6.82,1.21-14.32,6.4-19.14.17-.16.44-.14.59.03.15.16.14.41,0,.57-4.04,4.99-4.24,12.07-3.26,18.12.4,2.63-3.53,3.08-3.73.42h0Z"/>
          <path class="cls-12" d="M350.59,320.76c4.66-6.49,10.99-12.11,18.82-14.17.51-.14.75.63.25.8-3.52,1.4-6.63,3.61-9.26,6.31-2.57,2.63-4.91,5.78-6.59,8.99-1.28,2.3-4.64.29-3.22-1.93h0Z"/>
          <path class="cls-12" d="M315.55,313.54c-.24-5.62-2.02-11.8-6.54-15.53-.18-.15-.2-.42-.05-.59.14-.16.36-.19.54-.09,1.34.81,2.61,1.79,3.68,2.97,1.06,1.18,2.01,2.48,2.8,3.87,1.58,2.86,2.67,5.77,3.3,9.04.19,1.02-.49,2-1.51,2.19-1.14.22-2.24-.7-2.22-1.86h0Z"/>
          <path class="cls-12" d="M326.24,351.25c-2.43,3.85-4.03,8.55-4.33,13.14-.14,1.59,0,3.19.19,4.79.07.5-.7.65-.82.16-.44-1.6-.83-3.25-.93-4.93-.4-5.17.54-10.25,2.64-15.03.43-.95,1.55-1.36,2.49-.93,1.06.47,1.43,1.85.76,2.79h0Z"/>
          <path class="cls-12" d="M312.5,340.56c-5.47-.21-10.93,2.41-14.47,6.58-.16.17-.42.18-.59.03-.15-.14-.18-.37-.07-.54.8-1.25,1.67-2.5,2.74-3.58,1.03-1.12,2.23-2.09,3.52-2.94,2.68-1.75,5.63-2.92,8.86-3.3,1.04-.1,1.95.66,2.05,1.7.12,1.16-.88,2.17-2.04,2.06h0Z"/>
          <path class="cls-12" d="M308.61,325.94c-3.91-1.98-8.5-2.84-12.93-2.76-.49.02-.59-.74-.1-.83,2.3-.54,4.69-.82,7.11-.81,2.54.03,4.85.24,7.37.95,1,.29,1.57,1.34,1.28,2.34-.32,1.15-1.7,1.71-2.73,1.12h0Z"/>
          <path class="cls-12" d="M360.95,361.15c-1.43-5.81-4.01-11.21-7.61-15.98-.16-.19.11-.47.31-.31,4.86,3.82,7.8,10.08,7.74,16.26,0,.25-.39.28-.43.03h0Z"/>
          <path class="cls-12" d="M342.01,342.59c3.29,3.73,4.94,8.97,3.77,13.83-.05.23-.27.37-.5.33-.21-.04-.35-.24-.34-.44.12-4.24-2.07-8.4-5.42-10.9-2.28-1.67.52-4.87,2.48-2.82h0Z"/>
          <path class="cls-12" d="M351.18,327.95c4.14-2.21,8.86-2.79,13.46-2.45,1.49.11,2.95.37,4.39.67.49.1.8.58.7,1.07-.09.45-.52.76-.97.72-5.27-.55-11.02.15-15.48,3.11-2.14,1.56-4.35-1.71-2.1-3.11h0Z"/>
          <path class="cls-12" d="M292.51,300.67c4.59-.03,9.63,2.43,11.44,6.82.1.22-.22.41-.37.23-3.03-3.3-6.94-5.13-11.13-6.62-.23-.06-.19-.43.05-.43h0Z"/>
          <path class="cls-12" d="M290.07,336.84c2.91-3.18,7.38-5.03,11.69-4.77.24.01.27.37.05.43-3.92,1.23-7.78,2.79-11.46,4.67-.2.12-.44-.16-.28-.33h0Z"/>
          <path class="cls-12" d="M310.66,351.2c-3.28,2.54-4.87,6.47-6.35,10.22-.05.12-.18.17-.3.12-.57-4.07,2.31-9.56,6.49-10.74.24-.06.37.28.16.4h0Z"/>
          <path class="cls-8" d="M321.76,305.79c-1.06.67-2.23-2.79-4.39-6.21-2.17-3.42-4.52-5.5-3.46-6.17,1.06-.67,5.31,2.14,7.47,5.56s1.44,6.16.38,6.83Z"/>
          <path class="cls-8" d="M331.66,303.3c-.52.03-1.06-1.11-1.16-2.77-.1-1.66.28-3.21.79-3.24s1.49,1.82,1.59,3.48c.1,1.66-.7,2.5-1.22,2.53Z"/>
          <path class="cls-8" d="M365.14,305.58c.52,1.15-4.21,2.5-7.91,4.17-3.69,1.66-6.83,3.02-7.34,1.88s2.86-4.95,6.56-6.61c3.69-1.66,8.18-.57,8.69.57Z"/>
          <ellipse class="cls-8" cx="370.47" cy="318.39" rx="2.89" ry="5.32" transform="translate(-.74 635.91) rotate(-81.22)"/>
          <path class="cls-8" d="M370.28,343.19c-1.25,1.77-3.79.01-7.06-2.28-3.26-2.29-6.01-4.26-4.77-6.03,1.25-1.77,4.9-1.35,8.17.95s4.9,5.59,3.66,7.36Z"/>
          <path class="cls-8" d="M340.27,365.8c-.4,2.6-1.45,4.4-2.84,4.19s-2.2-2.5-1.8-5.11c.4-2.6,1.86-4.54,3.25-4.33s1.79,2.64,1.38,5.25Z"/>
          <path class="cls-8" d="M353.27,357.61c.01,2.9-.9,5.25-2.03,5.26-1.13,0-.82-1.07-.83-3.97s-.34-6.53.79-6.53c1.13,0,2.06,2.34,2.07,5.24Z"/>
          <path class="cls-8" d="M312.49,362.68c-.36,2.36-.5,3.38-1.51,3.22s-1.54-2.2-1.18-4.55c.36-2.36,1.48-4.14,2.5-3.99s.56,2.96.2,5.32Z"/>
          <path class="cls-8" d="M302.29,312.23c-.24,1.58-2.49,1.83-5.61,1.35s-5.93-1.51-5.68-3.09c.24-1.58,2.97-2.46,6.09-1.98s5.45,2.15,5.2,3.73Z"/>
          <path class="cls-12" d="M297.41,293.51c3.45-6.67,12.65-7.92,19.06-5.18.18.07.26.28.19.46-.05.13-.17.21-.3.22-.88.06-1.73.03-2.57.02-5.6,0-11.47,1.01-15.79,4.86-.25.3-.76-.02-.58-.37h0Z"/>
          <path class="cls-12" d="M381.84,317.95c-.12,16.5-7.14,33.45-20.1,43.95-1.35.95-2.85,2.04-4.21,2.94-.33.23-.74-.26-.43-.54,1.58-1.56,3.43-2.97,4.88-4.65,7.76-7.95,13.01-18.07,16.23-28.66.52-1.86,1.31-4.59,1.7-6.47.54-2.18.91-4.41,1.24-6.62.05-.4.7-.37.69.05h0Z"/>
        </g>
      </g>
    </g>
  </g>
</svg>