<?xml version="1.0" encoding="UTF-8"?>
<svg id="Layer_2" data-name="Layer 2" xmlns="http://www.w3.org/2000/svg" viewBox="0 0 398.25 332.65">
  <defs>
    <style>
      .cls-1 {
        fill: #ffa799;
      }

      .cls-1, .cls-2, .cls-3, .cls-4, .cls-5, .cls-6, .cls-7, .cls-8, .cls-9, .cls-10, .cls-11, .cls-12, .cls-13 {
        stroke-width: 0px;
      }

      .cls-2 {
        fill: #ffc931;
      }

      .cls-14 {
        fill: #ff7b39;
      }

      .cls-14, .cls-15, .cls-16 {
        stroke: #720000;
        stroke-linecap: round;
        stroke-linejoin: round;
      }

      .cls-14, .cls-16 {
        stroke-width: 5px;
      }

      .cls-3 {
        fill: #ff742e;
      }

      .cls-4 {
        opacity: .6;
      }

      .cls-4, .cls-6, .cls-9, .cls-12 {
        fill: #fff;
      }

      .cls-5 {
        fill: #ffd1b8;
      }

      .cls-6 {
        opacity: .3;
      }

      .cls-7 {
        fill: #d84a65;
      }

      .cls-15 {
        stroke-width: 2.43px;
      }

      .cls-15, .cls-16 {
        fill: none;
      }

      .cls-8 {
        fill: #f9a7ce;
      }

      .cls-9 {
        opacity: .4;
      }

      .cls-10 {
        fill: #ffc4d6;
      }

      .cls-11 {
        fill: #720000;
      }

      .cls-13 {
        fill: #ef7070;
      }
    </style>
  </defs>
  <g id="Layer_1-2" data-name="Layer 1">
    <g>
      <g>
        <path class="cls-12" d="M120.98,18.37h145.38c20.18,0,36.57,16.39,36.57,36.57v261.21c0,20.18-16.39,36.57-36.57,36.57H120.98c-20.18,0-36.57-16.39-36.57-36.57V54.94c0-20.18,16.39-36.57,36.57-36.57Z" transform="translate(379.22 -8.13) rotate(90)"/>
        <g>
          <rect class="cls-14" x="13.41" y="63.64" width="382.34" height="266.51" rx="75.34" ry="75.34"/>
          <rect class="cls-12" x="2.5" y="52.29" width="382.34" height="266.51" rx="65.57" ry="65.57"/>
          <path class="cls-13" d="M360.85,112.85v64.98c0,9.72-3.78,18.54-9.96,25.09-6.67,7.07-16.13,11.48-26.61,11.48H63.06c-8.57,0-16.47-2.95-22.71-7.9-8.44-6.7-13.86-17.05-13.86-28.67v-64.98c0-20.19,16.38-36.57,36.58-36.57h261.21c20.2,0,36.57,16.38,36.57,36.57Z"/>
          <path class="cls-7" d="M350.89,202.92c-6.67,7.07-16.13,11.48-26.61,11.48H63.06c-8.57,0-16.47-2.95-22.71-7.9,29.81-26.45,89.11-44.47,157.41-44.47s122.16,16.41,153.13,40.89Z"/>
          <rect class="cls-16" x="2.5" y="52.29" width="382.34" height="266.51" rx="65.57" ry="65.57"/>
        </g>
        <rect class="cls-16" x="2.5" y="52.29" width="382.34" height="266.51" rx="65.57" ry="65.57"/>
        <path class="cls-16" d="M161.18-21.84h64.98c20.18,0,36.57,16.39,36.57,36.57v261.21c0,20.18-16.39,36.57-36.57,36.57h-64.98c-20.18,0-36.57-16.39-36.57-36.57V14.73c0-20.18,16.39-36.57,36.57-36.57Z" transform="translate(339.01 -48.33) rotate(90)"/>
      </g>
      <g>
        <g>
          <path class="cls-3" d="M137.69,23.37c6.53-3.81,1.33-8,1.33-8-2.2,4.32-4.15,5.36-5.22,4.24-.52-.54-.6-1.39-.27-2.07,3.94-8.3.12-10.7-6.66-10.56,1.9,1.49,3.66,3.03,2.94,5.66-.94,2.78-10.69.52-5.45-11.43-9.33,3.77-6.71,8.91-5.35,13.94s-9.96,7.34-7.86,5.03c2.1-2.31,2.41-7.55-1.05-9.54-3.46-1.99-4.32-5.77-4.32-5.77-3.17,3.14-.64,7.16-.64,7.16,1.68,4.96-.17,7.79-2.77,8.93-3.02,1.32-5.93-1.96-4.57-4.96,3.42-7.52-2.45-16.49-10.9-13.75,4.33,1.89,6.29,7.76,3.01,9.22-2.94,1.05-5.45-1.05-3.49-5.8-5.71,2.16-4.55,6.23-2.6,10.88,1.33,3.19-1.49,6.74-4.83,5.84-.03,0-.07-.02-.1-.03-1.25-.37-2.01-1.62-1.89-2.91.78-7.84-7.63-12.69-10.85-18.25-2,3.03,1.58,7.27,2.43,11.52.8,4.02-5.12,5.7-6.36,1.79-.52-1.66-.31-3.94.71-6.61-8.28,7.65-13.52,16.88-6.85,22.96,0,0,60.17,5,81.63-7.51Z"/>
          <path class="cls-2" d="M73.61,28.37c4.04-2.62-1.94-5.56-2.25-11.32-1.33,6.64-9.85,8.07-10.74,1.05-4.03,6.98-3.19,10.47,1.35,11.31l11.65-1.03Z"/>
          <path class="cls-2" d="M84.25,27.74s4.4-1.29,5.45-4.37c1.05-3.07-3.51-5.85-3.35-8.68,0,0,1.94,2.99,4.25,2.62s3.46-5.14,3.46-5.14c0,0,1.52,3.83,0,6.5-1.52,2.67,1.73,8.81,7.18,7.81s6.45-6.08,6.45-6.08c0,0-.68,6.08,7.86,5.19s7.55-7.7,7.02-9.54c1.57,2.53,3.13,5.12,6.97,0-1.3,5.77.51,8.29,6.13,6.81,0,0-4.09,3.25-18.87,4.53s-32.55.34-32.55.34Z"/>
          <path class="cls-12" d="M137.69,23.37c-13.98,6.43-49.76,3.98-81.63,6.43v98.53c31.87-2.45,67.65,0,81.63-6.43V23.37Z"/>
          <path class="cls-15" d="M137.69,23.37c-13.98,6.43-49.76,3.98-81.63,6.43v98.53c31.87-2.45,67.65,0,81.63-6.43V23.37Z"/>
          <path class="cls-15" d="M56.07,30.88c-6.67-6.08-1.43-15.3,6.85-22.96-1.03,2.67-1.24,4.95-.71,6.61,1.23,3.91,7.16,2.23,6.36-1.79-.85-4.25-4.43-8.49-2.43-11.52,3.21,5.56,11.63,10.41,10.85,18.25-.13,1.29.64,2.54,1.89,2.91.03.01.07.02.1.03,3.34.9,6.16-2.66,4.83-5.84-1.95-4.65-3.1-8.72,2.6-10.88-1.96,4.75.56,6.85,3.49,5.8,3.28-1.47,1.33-7.34-3.01-9.22,8.46-2.74,14.32,6.24,10.9,13.75-1.36,3,1.55,6.28,4.57,4.96,2.59-1.14,4.45-3.97,2.77-8.93,0,0-2.53-4.02.64-7.16,0,0,.86,3.77,4.32,5.77,3.46,1.99,3.14,7.23,1.05,9.54-2.1,2.31,9.22,0,7.86-5.03s-3.98-10.17,5.35-13.94c-5.24,11.95,4.51,14.2,5.45,11.43.73-2.63-1.03-4.17-2.94-5.66,6.78-.13,10.61,2.27,6.66,10.56-.32.68-.25,1.52.27,2.07,1.07,1.11,3.02.07,5.22-4.24,0,0,4.68,3.42-1.33,8"/>
          <path class="cls-5" d="M190.94,106.25l-10.76,6.57s-28.77-3.93-31.15-8.53c-2.37-4.59-1.92-39.67-1.92-39.67-3.5,3.56-9.42,1.65-9.42,1.65v-23.96c-6.2,4.49-11.85.05-9.82-4.04.48-.98,1.4-1.65,2.43-1.98,3.27-1.04,7.39-5.41,7.39-5.41,0,0,2.06-1.36,5.73,1.25,3.67,2.62,12.78,7.74,12.16,16.61l.84,44.15,34.52,13.36Z"/>
          <path class="cls-1" d="M139.07,44.88s-.73-4.66,2.73-5.92,10.27,4.82,10.17,12.11-6.85,10.63-8.64,10.77c-1.79.14-2.94-4.11-2.94-4.11l-.84-4.19"/>
          <path class="cls-1" d="M138.46,47.41s.7,4.93,4.58,5.24,6.85,10.34-4.96,9.96"/>
          <path class="cls-15" d="M137.69,42.31v23.97s5.92,1.91,9.42-1.65c0,0-.45,35.08,1.92,39.67,2.38,4.59,31.15,8.53,31.15,8.53l10.76-6.57-34.52-13.36-.84-44.15c.63-8.87-8.49-13.99-12.16-16.61-3.67-2.62-5.73-1.26-5.73-1.26,0,0-4.12,4.37-7.39,5.41-1.04.33-1.95,1-2.43,1.97-2.13,4.31,4.23,9,10.8,3.27,0,0-1.43,11.04,6.55,11.04"/>
          <g>
            <g>
              <path class="cls-11" d="M262.76,61.47s2.62,2.57,5.54,3.31c4.87,1.25,8.04-4,4.95-7.52-3.86-4.41-8.38-2.28-8.38-2.28-1.53-3.19.84-8.31,7.73-9.09,7.32-.82,13.64,6.41,13.64,6.41-4.45-12.63-19.19-13.43-25.11-7.04-5.92,6.38-1.86,12.32-1.86,12.32-10.53,8.33-9,17.5-9,17.5l6.53.22c-1.56-7.95,5.95-13.84,5.95-13.84ZM269.6,58.71c1.74.83.73,2.4-.53,1.91-1.39-.54-2.22-1.93-2.22-1.93,0,0,1.08-.77,2.75.02Z"/>
              <path class="cls-12" d="M271.78,42.83c-1.88-.44-3.91-.24-5.67.56-1.76.8-3.25,2.2-4.15,3.91,1.49-1.83,3.87-3.01,6.23-3.08-1.9.88-3.37,2.59-4.17,4.53,2.08-2.69,5.68-4.19,9.07-3.89-1.04-.69-2.28-1.13-3.52-1.2.73-.62,1.26-.87,2.21-.83Z"/>
              <path class="cls-12" d="M259.3,60.43c-1.32.47-2.57,1.43-3.49,2.7-.92,1.27-1.51,2.84-1.64,4.38.48-1.87,1.69-3.65,3.19-4.66-.99,1.38-1.49,3.16-1.49,4.82.63-2.7,2.55-5.21,4.8-6.38-.85-.05-1.76.15-2.57.62.3-.73.58-1.11,1.2-1.48Z"/>
            </g>
            <path class="cls-11" d="M281.45,62.03c-.72.06-1.14-.77-.67-1.32,1.6-1.83,4.88-4.69,9.67-4.54,6.05.18,9.32,3.46,10.32,5.95.24.6-.32,1.21-.95,1.05-2.56-.68-8.92-1.97-18.37-1.14Z"/>
            <path class="cls-11" d="M232.94,58.25c.54.2,1.05-.35.8-.87-.84-1.76-2.75-4.68-6.49-5.6-4.71-1.17-7.95.65-9.25,2.36-.31.41-.01,1.01.5,1.01,2.13.03,7.32.41,14.44,3.1Z"/>
            <path class="cls-5" d="M281.58,231.62c-40.89,5.22-60.88-19.25-60.88-19.25-18.39,13.42-75.54.84-75.48-47.69.04-33.85,21.34-49.55,35.99-56.34,0,0,0,0,.01,0,7.67-3.56,13.51-4.67,13.51-4.67l3.82-5.93c.18-1.2.42-2.35.71-3.43,3.99-15.4,16.82-18.95,16.82-18.95h0c.07-.09.96-1.2,2.52-2.68h0s.04-.04.08-.08c.14-.13.28-.26.43-.39.07-.06.14-.13.22-.2,3.69-3.32,10.18-7.87,17.8-7.6,11.48.41,17.52,11.53,17.52,11.53,0,0,9.5-10.33,23.97-6.92,15.93,3.75,21.71,21.28,23.81,33.49,0,0,0,.01,0,.02.43,2.52.71,4.82.88,6.72.31,3.34.31,5.46.31,5.46,5.48,3.87,10.72,8.58,15.28,14.24,2.64,3.27,5.05,6.87,7.15,10.8,1.07,2,2.06,4.1,2.95,6.28.48,1.18.94,2.38,1.36,3.61.51,1.47.98,2.98,1.41,4.53.56,2.03,1.04,4.13,1.44,6.3.3,1.59.55,3.22.75,4.89,3.16,25.91-11.57,61.04-52.4,66.25Z"/>
            <path class="cls-4" d="M333.24,160.48c-7.83-28.04-29.7-40.55-29.7-40.55l-.2-10.68c.31,3.34.31,5.46.31,5.46,5.48,3.87,10.72,8.58,15.28,14.24,6.71,8.32,11.94,18.7,14.31,31.53Z"/>
            <path class="cls-9" d="M297.59,166.01c-3.47,1.32-7.54,1.09-10.16-.88-1.78-1.34-2.79-3.33-3.75-5.26-3.14-6.32-6.29-12.64-9.43-18.95-1.44-2.9-2.9-6.15-1.66-9.39,1.3-3.43,5.44-5.79,9.36-6.14,3.92-.35,7.59.96,10.71,2.75,10.14,5.84,24.21,30.56,4.95,37.88Z"/>
            <path class="cls-9" d="M168.81,144.24c2.44,2.12,6.02,2.98,9.06,1.87,2.07-.76,3.74-2.31,5.34-3.82,5.25-4.95,10.5-9.9,15.75-14.86,2.41-2.27,4.97-4.86,5.23-8.16.27-3.48-2.32-6.73-5.53-8.09-3.21-1.36-6.89-1.12-10.28-.3-11.05,2.67-33.1,21.58-19.56,33.35Z"/>
            <path class="cls-1" d="M242.1,105.33s-20.23-10.96-42.83-11.03c3.99-15.4,16.82-18.95,16.82-18.95h0c7.35-6.54,15.87-6.31,21.97-3.37,6.11,2.95,12.23,9.2,12.23,9.2,0,0-6.4,6.79-8.2,24.15Z"/>
            <path class="cls-1" d="M244.57,95.66c3.21-9.1,12.91-21.15,28.09-18.91,15.18,2.24,20.61,21.19,17.96,34.21,0,0-23.52-11.21-48.44-7.27,0,0-.41-.1,2.39-8.04Z"/>
            <path class="cls-4" d="M302.45,102.5c-3.67-13.99-11.82-26.3-24.22-30.03-12.4-3.73-25.04,4.96-25.04,4.96-16.08-18.75-30.5-8.33-33.85-5.43,3.69-3.32,10.18-7.87,17.8-7.6,11.48.41,17.52,11.53,17.52,11.53,0,0,9.5-10.33,23.97-6.92,15.93,3.75,21.71,21.28,23.81,33.49Z"/>
            <path class="cls-1" d="M202.4,97.5s8.25,19.51,41.71,13.38c0,0,27.82,13.8,44.39,2.67,0,0-27.92,3.16-46.4-8.22,0,0-20.3,6.45-39.7-7.83Z"/>
            <path class="cls-1" d="M321.1,204.16c-6.13,9.26-18.05,20.88-40,23.69-7.26.93-14.33.93-21,0-24.14-3.32-41.47-19.05-41.47-19.05,0,0-8.7,6.22-24.45,4.28-11.55-1.42-22.68-6.7-30.63-14.02-9.65-8.89-14.54-20.47-14.52-34.38.02-14.12,3.95-26.22,11.69-35.96.69-.86-11.8,24.99-2,46.82,11.51,25.66,42.63,29.64,57.76,22.24,0,0,33.72,28.28,70.55,16.78,35.45-11.06,40.13-53.94,39.4-66.31,1.95,4.62,3.42,14.73,3.77,17.56,1.58,13-1.82,27.33-9.1,38.33Z"/>
            <path class="cls-15" d="M281.58,231.62c-40.89,5.22-60.88-19.25-60.88-19.25-18.39,13.42-75.54.84-75.48-47.69.06-51.59,49.51-61.01,49.51-61.01l3.82-5.93c.18-1.2.42-2.35.71-3.43,3.99-15.4,16.82-18.95,16.82-18.95h0c.21-.29,9.28-11.37,21.06-10.95,11.48.41,17.52,11.53,17.52,11.53,0,0,9.5-10.33,23.97-6.92,25,5.89,25.01,45.7,25.01,45.7,14.53,10.27,27.38,26.4,30.34,50.66,3.16,25.91-11.57,61.04-52.4,66.25Z"/>
            <path class="cls-11" d="M255.47,76.85c-7.61,7.81-11.27,18.89-12.2,29.61-.07.61.16,1.19.5,1.71,6.13,7.94,22.42,11.96,32.17,11.29,3.39-.17,6.75-.87,9.92-2.13.43-.2.8.51.31.72-9.7,4.35-21.01,3.33-30.85-.06-4.68-1.76-13.36-5.37-14.45-10.85.26-8.2,2.45-16.44,6.48-23.62,1.8-3.15,3.83-5.99,6.54-8.52.49-.45,1.26-.42,1.72.08.47.51.41,1.32-.12,1.76h0Z"/>
            <g>
              <g>
                <path class="cls-12" d="M290.7,110.37c-4.91-1.92-9.87-3.33-14.64-4.36-3.34-.72-6.59-1.26-9.66-1.65-2.21-.29-4.34-.49-6.35-.65-.37-.03-.74-.06-1.11-.08-9.93-.66-16.76.06-16.76.06.73-4.51,7.48-24.55,28.91-20.59,21.11,3.89,19.62,27.27,19.62,27.27Z"/>
                <path class="cls-15" d="M290.7,110.37c-4.91-1.92-9.87-3.33-14.64-4.36-3.34-.72-6.59-1.26-9.66-1.65-2.21-.29-4.34-.49-6.35-.65-.37-.03-.74-.06-1.11-.08-9.93-.66-16.76.06-16.76.06.73-4.51,7.48-24.55,28.91-20.59,21.11,3.89,19.62,27.27,19.62,27.27Z"/>
              </g>
              <g>
                <path class="cls-12" d="M242.1,105.33c-.08-.05-2.31-1.46-6.48-3.26-2.39-1.03-5.42-2.19-9.04-3.3-1.56-.48-3.23-.94-5.01-1.38-.69-.17-1.4-.34-2.12-.5-5.75-1.29-12.51-2.3-20.19-2.59,3.04-13.55,15.17-18.44,16.82-18.95,9.22-2.86,22.65-1.32,31.56,9.87-2.56,4.77-4.98,11.44-5.54,20.11Z"/>
                <path class="cls-15" d="M242.1,105.33c-.08-.05-2.31-1.46-6.48-3.26-2.39-1.03-5.42-2.19-9.04-3.3-1.56-.48-3.23-.94-5.01-1.38-.69-.17-1.4-.34-2.12-.5-5.75-1.29-12.51-2.3-20.19-2.59,3.04-13.55,15.17-18.44,16.82-18.95,9.22-2.86,22.65-1.32,31.56,9.87-2.56,4.77-4.98,11.44-5.54,20.11Z"/>
              </g>
              <g>
                <ellipse class="cls-11" cx="260.67" cy="91.93" rx="9.12" ry="9.45"/>
                <circle class="cls-12" cx="263.52" cy="89.72" r="3.69"/>
                <circle class="cls-6" cx="257.01" cy="94.65" r="2.2"/>
              </g>
              <g>
                <ellipse class="cls-11" cx="223.46" cy="83.45" rx="9.12" ry="9.45"/>
                <circle class="cls-12" cx="226.31" cy="81.24" r="3.69"/>
                <circle class="cls-6" cx="219.8" cy="86.17" r="2.2"/>
              </g>
            </g>
            <path class="cls-11" d="M209.27,108.65c7.87,3.75,16.67,6.12,25.39,4.88.13-.02.27.08.27.22-7.95,3.54-19.09.36-25.92-4.71-.22-.16,0-.53.25-.39h0Z"/>
            <path class="cls-11" d="M199.73,97.41c.61,2.8,1.85,5.69,4.06,7.61.33.27-.05.81-.41.59-2.11-1.22-3.7-3.2-4.9-5.29-.49-1.07-2.08-3.03-.4-3.83.71-.29,1.53.17,1.65.92h0Z"/>
            <path class="cls-11" d="M304.86,114.7c-.2,3.52-.52,7-1.02,10.47-.05.35-.37.59-.71.54-.32-.05-.55-.33-.54-.65.1-3.45.03-6.93-.16-10.36-.05-1.69,2.49-1.69,2.43,0h0Z"/>
            <path class="cls-11" d="M219.81,213.19c-4.28-6.11-4.15-14.08-2.74-21.08.04-.26.45-.2.41.07-.56,5.09-.33,10.49,1.65,15.25.61,1.45,1.49,3.08,2.52,4.18,1.13,1.24-.78,2.9-1.85,1.59h0Z"/>
          </g>
          <g>
            <path class="cls-5" d="M310.88,146.78s41.99-8.39,41.93-1.05c-.05,6.17-21.18,39.67-21.18,39.67,6.1,6.88,5.38,13.93,2.6,21.04-.72,1.84-1.66,3.59-2.86,5.16-2.23,2.91-4.03,3.59-5.32,1.62-3.82,2.71-5.4,1.14-5.25-3.75-.25,1.34-1.44,2.77-1.44,2.77-4.12,1.14-4.33-5.49-3.3-13.53-4.13,4.86-7.71,3.27-7.69.43.03-3.45,6.92-6.29,10.26-10.96l18.39-34.48-25.86,4.05"/>
            <path class="cls-15" d="M310.88,146.78s41.99-8.39,41.93-1.05c-.05,6.17-21.18,39.67-21.18,39.67,6.1,6.88,5.38,13.93,2.6,21.04-.72,1.84-1.66,3.59-2.86,5.16-2.23,2.91-4.03,3.59-5.32,1.62-3.82,2.71-5.4,1.14-5.25-3.75-.25,1.34-1.44,2.77-1.44,2.77-4.12,1.14-4.33-5.49-3.3-13.53-4.13,4.86-7.71,3.27-7.69.43.03-3.45,6.92-6.29,10.26-10.96l18.39-34.48-25.86,4.05"/>
            <path class="cls-11" d="M319.63,209.11c.96-2.26,2.01-4.59,2.7-6.93.04-.16.21-.25.36-.21.13.04.22.16.22.29-.11,2.57-.56,5.02-.95,7.55-.38,1.78-2.99,1-2.33-.7h0Z"/>
            <path class="cls-11" d="M324.96,212.67c1.6-2.68,2.92-5.62,3.56-8.69.06-.34.6-.29.58.06-.05,3.33-.83,6.58-1.96,9.72-.24.63-.94.95-1.58.71-.72-.26-1.01-1.15-.6-1.79h0Z"/>
          </g>
        </g>
        <g>
          <path class="cls-10" d="M204.41,150.66s.63-13.52,8.2-17.24c7.57-3.72,19.49,4.12,19.49,4.12,0,0,16.67-2.76,23.24,1.48s-1.61,23.08-2.98,25.94c-1.37,2.87-10.75,15.29-22.38,15.21-11.63-.07-17.9-4.06-21.3-8.7-3.41-4.63-4.58-16.17-4.42-18.49"/>
          <path class="cls-8" d="M242.45,157.89c2.3-2.62,10.97-3.24,10.97-3.24,0,0-4.74-.19-7.24-3.06-2.51-2.88,3.11-8.74,3.11-8.74,0,0-5.52,2.54-9.79,3.3-4.26.76-8.82-4.2-8.82-4.2,0,0-4.5,3.97-7.09,2.76-2.51-1.17-5.33-5.41-5.5-5.68.06.35,1.1,6.72-.29,6.28,0,0-6.7-4.24-6.45-9.35l.08-1.52c-1.04.7-1.96,1.61-2.78,2.73,0,0,0,0,0,.01-.72,1.15,3,4.33,3.12,4.46.12.12,3.78,4.09,2.45,6.51-1.21,2.21-7.76,1.35-9.7,1.52-.07.49-.15,1.23-.21,2.16h0c-.05.78-.09,1.69-.09,2.7-.01,7.99,2.19,22.1,17.54,25.29-.84-.47-1.77-.91-2.74-1.33-3.83-1.64-4.67-4.09-4.6-6.06.29.78,3.85-4.47,5.6-4.63,1.95-.18.4,8.28,2.85,11.29.3.36.56.71.82,1.06.52.07,1.06.14,1.61.19.88.07,1.74.12,2.58.11,1.45-4.1,2.93-10.19,6.32-10.65,3.47-.48,2.88,6.07,2.88,6.07,0,0,2.94-8.39.46-12.11,0,0,6.46,4.07,6.35,10.06,0,0,1.65-5.34-1.68-9.4,0,0-2.05-3.94.25-6.56ZM205.83,156.58c.25-2.13,3.75-2.48,4.15-2.52,1.48.08,2.86.39,3.73,1.13,2.03,1.7-.54,2.17-2.57,2.46l-.42-.16s-5.16,1.34-4.9-.92ZM208.04,161.63c.72-3.1,5.01-3.19,5.09-3.19.27.05.5.12.63.21.4.28-.05,1.42-.7,2.63h0c-1.6,2-5.76,3.48-5.03.35ZM214.45,171.9c.19-1.52.84-2.64.84-2.64,0,0-5.59,2.22-5.26-1.14.33-3.35,4.72-4.08,4.72-4.08h0c.62-.07,1.19-.09,1.59.01,1.58.41-1.27,5.2-1.89,7.84Z"/>
          <path class="cls-11" d="M229.11,148.59s-8.42-7.65-11.77-.77c-3.35,6.88.67,23.26,11.62,20.07,10.95-3.19,23.22-24.87.15-19.3Z"/>
          <path class="cls-11" d="M205.45,163.62c1.83,5.97,5.64,11.43,11.47,13.95,5.66,2.54,12.28,3.04,18.35,1.65.22-.06.34.29.11.37-9.03,3.19-20.76,1.12-26.57-6.98-1.9-2.65-3.12-5.73-3.73-8.9-.04-.23.3-.32.37-.09h0Z"/>
          <path class="cls-11" d="M256.79,142.3c-2.35-7.06-18.67-4.83-24.67-4.37-.99-.38-1.87-1.13-2.81-1.67-.19-.12-.03-.44.18-.34.94.41,1.86.85,2.79,1.29,5-1.47,23.29-3.41,24.89,5.02.03.23-.31.31-.38.08h0Z"/>
          <path class="cls-11" d="M206.3,142.31c-.31,2.04-1.09,7.25-1.4,9.22-.15,1.02-.29,2.05-.5,3.1-.02.11-.12.18-.23.16-.08-.02-.14-.08-.16-.16-.39-2.09-.31-4.28.01-6.36.33-2.09.87-4.19,1.91-6.08.1-.19.4-.09.37.12h0Z"/>
          <path class="cls-11" d="M228.49,150.48c-.09-3.81.58-8.01,3.44-10.74.09-.09.24-.08.33.01.08.09.08.23,0,.32-2.22,2.82-2.28,6.78-1.69,10.15.26,1.46-1.97,1.74-2.08.26h0Z"/>
          <path class="cls-11" d="M239.81,150.31c2.56-3.66,6.05-6.85,10.41-8.06.12-.04.25.04.29.16.03.12-.03.24-.15.29-1.96.81-3.68,2.07-5.13,3.59-1.42,1.49-2.7,3.27-3.62,5.07-.69,1.29-2.6.19-1.81-1.06h0Z"/>
          <path class="cls-11" d="M220.17,146.52c-.18-3.14-1.21-6.58-3.76-8.63-.22-.17.03-.53.27-.38,2.34,1.32,3.88,3.71,4.82,6.18.25,1.08,1.64,3.35-.07,3.85-.64.13-1.25-.37-1.26-1.02h0Z"/>
          <path class="cls-11" d="M226.42,167.52c-1.79,2.94-2.73,6.59-2.19,10.04.06.28-.38.4-.46.11-.86-2.71-.79-5.64-.12-8.39.4-1.03.62-3.92,2.31-3.31.6.26.81,1.02.45,1.56h0Z"/>
          <path class="cls-11" d="M218.66,161.65c-3.02-.09-6.11,1.43-8.04,3.78-.18.21-.53-.05-.38-.28,1.3-2.21,3.35-3.97,5.75-4.91,1.02-.29,3.42-1.53,3.8.23.09.66-.48,1.24-1.14,1.18h0Z"/>
          <path class="cls-11" d="M216.38,153.51c-2.2-1.08-4.77-1.52-7.24-1.45-.28.02-.34-.4-.07-.47,2.65-.64,5.42-.72,8.1-.03,1.47.46.6,2.63-.79,1.94h0Z"/>
          <path class="cls-11" d="M245.89,172.81c-.86-3.26-2.3-6.2-4.37-8.88-.04-.05-.03-.13.02-.17,2.88,1.79,4.55,5.65,4.59,9.03,0,.14-.22.16-.24.02h0Z"/>
          <path class="cls-11" d="M235.17,162.57c1.88,2.09,2.82,4.96,2.21,7.7-.02.13-.15.21-.28.19-.12-.02-.2-.13-.19-.24.04-2.36-1.24-4.71-3.11-6.06-1.25-.91.28-2.69,1.37-1.59h0Z"/>
          <path class="cls-11" d="M240.19,154.32c3.08-1.67,6.61-1.8,9.96-1.12.27.05.45.32.4.59-.05.25-.28.43-.53.41-.78-.06-1.56-.1-2.34-.06-2.17.09-4.58.69-6.33,1.94-1.19.85-2.41-.99-1.15-1.75h0Z"/>
          <path class="cls-11" d="M207.2,139.5c2.56-.05,5.4,1.29,6.44,3.73.03.06,0,.13-.06.16-.05.02-.11,0-.14-.03-1.71-1.82-3.92-2.81-6.27-3.62-.13-.03-.11-.24.03-.24h0Z"/>
          <path class="cls-11" d="M206.1,159.73c1.61-1.8,4.08-2.87,6.5-2.75.13,0,.16.2.03.24-2.25.74-4.29,1.6-6.38,2.7-.11.06-.24-.09-.15-.19h0Z"/>
          <path class="cls-11" d="M217.72,167.61c-1.79,1.42-2.69,3.68-3.48,5.76-.02.06-.09.1-.16.07-.28-1.16.24-2.57.78-3.65.61-1.07,1.52-2.06,2.76-2.41.13-.04.21.16.09.22h0Z"/>
          <path class="cls-9" d="M223.59,142.15c-.59.38-1.26-1.55-2.5-3.44-1.24-1.9-2.57-3.04-1.98-3.43s2.98,1.16,4.22,3.05c1.24,1.9.85,3.43.26,3.82Z"/>
          <path class="cls-9" d="M229.11,140.69c-.29.02-.6-.61-.67-1.54-.07-.93.13-1.8.42-1.82s.84,1.01.91,1.93-.37,1.4-.66,1.42Z"/>
          <path class="cls-9" d="M247.83,141.72c.3.64-2.34,1.43-4.39,2.39s-3.79,1.74-4.09,1.1,1.56-2.79,3.62-3.74c2.05-.96,4.57-.38,4.86.26Z"/>
          <ellipse class="cls-9" cx="250.9" cy="148.84" rx="1.61" ry="2.98" transform="translate(68.42 376.45) rotate(-81.96)"/>
          <path class="cls-9" d="M250.98,162.71c-.68,1-2.12.03-3.96-1.22-1.84-1.26-3.39-2.34-2.71-3.33.68-1,2.73-.79,4.57.47,1.84,1.26,2.78,3.09,2.1,4.09Z"/>
          <path class="cls-9" d="M234.37,175.56c-.21,1.46-.78,2.47-1.56,2.36s-1.25-1.38-1.04-2.84,1.01-2.55,1.79-2.44,1.02,1.46.81,2.92Z"/>
          <path class="cls-9" d="M241.57,170.89c.03,1.62-.46,2.94-1.09,2.95s-.47-.59-.49-2.21c-.03-1.62-.24-3.65.39-3.66s1.17,1.29,1.19,2.91Z"/>
          <path class="cls-9" d="M218.82,174.01c-.19,1.32-.26,1.89-.82,1.81s-.88-1.22-.69-2.54c.19-1.32.8-2.33,1.37-2.25s.33,1.65.15,2.97Z"/>
          <path class="cls-9" d="M212.75,145.89c-.12.88-1.38,1.04-3.12.79-1.75-.25-3.32-.8-3.2-1.69s1.64-1.4,3.39-1.15,3.06,1.16,2.94,2.05Z"/>
          <path class="cls-11" d="M209.89,135.46c1.88-3.76,7.01-4.52,10.61-3.03.1.04.15.15.11.25-.03.08-.1.12-.18.12-3.61,0-7.4.28-10.21,2.86-.14.17-.42,0-.33-.2h0Z"/>
          <path class="cls-11" d="M257.26,148.51c.04,7.65-2.56,15.45-7.51,21.32-1.61,2.01-3.64,3.64-5.74,5.06-.09.06-.21.04-.27-.05-.06-.09-.04-.2.04-.26.65-.63,1.39-1.31,2.06-1.93,5.46-5.55,8.83-12.88,10.4-20.46.29-1.22.47-2.47.64-3.71.02-.22.39-.21.38.02h0Z"/>
        </g>
      </g>
    </g>
  </g>
</svg>