<?xml version="1.0" encoding="UTF-8"?>
<svg id="Layer_2" data-name="Layer 2" xmlns="http://www.w3.org/2000/svg" viewBox="0 0 398.25 342.31">
  <defs>
    <style>
      .cls-1 {
        fill: #ffa799;
      }

      .cls-1, .cls-2, .cls-3, .cls-4, .cls-5, .cls-6, .cls-7, .cls-8, .cls-9, .cls-10, .cls-11, .cls-12, .cls-13, .cls-14, .cls-15 {
        stroke-width: 0px;
      }

      .cls-2 {
        fill: #ffc931;
      }

      .cls-3 {
        opacity: .6;
      }

      .cls-3, .cls-5, .cls-11, .cls-15 {
        fill: #fff;
      }

      .cls-4 {
        fill: #ffd1b8;
      }

      .cls-5 {
        opacity: .3;
      }

      .cls-16 {
        fill: #ac8aff;
      }

      .cls-16, .cls-17, .cls-18 {
        stroke: #720000;
        stroke-linecap: round;
        stroke-linejoin: round;
      }

      .cls-16, .cls-18 {
        stroke-width: 5px;
      }

      .cls-6 {
        fill: #f9a7ce;
      }

      .cls-7 {
        fill: #ffc494;
      }

      .cls-8 {
        fill: #78afff;
      }

      .cls-9 {
        fill: #f7932f;
      }

      .cls-10 {
        fill: #8dd6ff;
      }

      .cls-11 {
        opacity: .4;
      }

      .cls-12 {
        fill: #f99c80;
      }

      .cls-17 {
        stroke-width: 2.53px;
      }

      .cls-17, .cls-18 {
        fill: none;
      }

      .cls-13 {
        fill: #ffc4d6;
      }

      .cls-14 {
        fill: #720000;
      }
    </style>
  </defs>
  <g id="Layer_1-2" data-name="Layer 1">
    <g>
      <g>
        <path class="cls-15" d="M120.98,28.03h145.38c20.18,0,36.57,16.39,36.57,36.57v261.21c0,20.18-16.39,36.57-36.57,36.57H120.98c-20.18,0-36.57-16.39-36.57-36.57V64.6c0-20.18,16.39-36.57,36.57-36.57Z" transform="translate(388.88 1.54) rotate(90)"/>
        <g>
          <rect class="cls-16" x="13.41" y="73.3" width="382.34" height="266.51" rx="75.34" ry="75.34"/>
          <rect class="cls-15" x="2.5" y="61.95" width="382.34" height="266.51" rx="65.57" ry="65.57"/>
          <path class="cls-10" d="M360.85,122.51v64.98c0,9.72-3.78,18.54-9.96,25.09-6.67,7.07-16.13,11.48-26.61,11.48H63.06c-8.57,0-16.47-2.95-22.71-7.9-8.44-6.7-13.86-17.05-13.86-28.67v-64.98c0-20.19,16.38-36.57,36.58-36.57h261.21c20.2,0,36.57,16.38,36.57,36.57Z"/>
          <path class="cls-8" d="M350.89,212.58c-6.67,7.07-16.13,11.48-26.61,11.48H63.06c-8.57,0-16.47-2.95-22.71-7.9,29.81-26.45,89.11-44.47,157.41-44.47s122.16,16.41,153.13,40.89Z"/>
          <rect class="cls-18" x="2.5" y="61.95" width="382.34" height="266.51" rx="65.57" ry="65.57"/>
        </g>
        <rect class="cls-18" x="2.5" y="61.95" width="382.34" height="266.51" rx="65.57" ry="65.57"/>
        <path class="cls-18" d="M161.18-12.18h64.98c20.18,0,36.57,16.39,36.57,36.57v261.21c0,20.18-16.39,36.57-36.57,36.57h-64.98c-20.18,0-36.57-16.39-36.57-36.57V24.4c0-20.18,16.39-36.57,36.57-36.57Z" transform="translate(348.67 -38.67) rotate(90)"/>
      </g>
      <g>
        <g>
          <g>
            <polygon class="cls-7" points="297.01 156.2 275.71 142.63 320.84 142.63 342.14 156.2 297.01 156.2"/>
            <polygon class="cls-7" points="275.71 170.88 275.71 142.63 297.01 156.2 342.14 156.2 342.14 184.45 297.01 184.45 275.71 170.88"/>
            <polygon class="cls-12" points="275.71 142.63 296.81 156.74 296.81 183.53 275.98 170.55 275.71 142.63"/>
            <polygon class="cls-17" points="297.01 156.2 275.71 142.63 320.84 142.63 342.14 156.2 297.01 156.2"/>
            <polygon class="cls-17" points="275.71 170.88 275.71 142.63 297.01 156.2 342.14 156.2 342.14 184.45 297.01 184.45 275.71 170.88"/>
            <line class="cls-17" x1="297.01" y1="184.45" x2="297.01" y2="156.2"/>
            <polygon class="cls-2" points="326.82 168.02 326.82 156.2 305.52 142.63 294.87 142.63 316.17 156.2 316.17 168.02 326.82 168.02"/>
            <rect class="cls-9" x="316.14" y="155.75" width="10.68" height="12.28"/>
            <polygon class="cls-17" points="326.82 168.02 326.82 156.2 305.52 142.63 294.87 142.63 316.17 156.2 316.17 168.02 326.82 168.02"/>
          </g>
          <g>
            <polygon class="cls-7" points="297.01 127.95 275.71 114.38 320.84 114.38 342.14 127.95 297.01 127.95"/>
            <polygon class="cls-7" points="275.71 142.63 275.71 114.38 297.01 127.95 342.14 127.95 342.14 156.2 297.01 156.2 275.71 142.63"/>
            <polygon class="cls-12" points="275.71 114.38 296.81 128.49 296.81 155.28 275.98 142.3 275.71 114.38"/>
            <polygon class="cls-17" points="297.01 127.95 275.71 114.38 320.84 114.38 342.14 127.95 297.01 127.95"/>
            <polygon class="cls-17" points="275.71 142.63 275.71 114.38 297.01 127.95 342.14 127.95 342.14 156.2 297.01 156.2 275.71 142.63"/>
            <line class="cls-17" x1="297.01" y1="156.2" x2="297.01" y2="127.95"/>
            <polygon class="cls-2" points="326.82 139.77 326.82 127.95 305.52 114.38 294.87 114.38 316.17 127.95 316.17 139.77 326.82 139.77"/>
            <rect class="cls-9" x="316.14" y="127.5" width="10.68" height="12.28"/>
            <polygon class="cls-17" points="326.82 139.77 326.82 127.95 305.52 114.38 294.87 114.38 316.17 127.95 316.17 139.77 326.82 139.77"/>
          </g>
          <g>
            <polygon class="cls-7" points="297.01 99.7 275.71 86.13 320.84 86.13 342.14 99.7 297.01 99.7"/>
            <polygon class="cls-7" points="275.71 114.38 275.71 86.13 297.01 99.7 342.14 99.7 342.14 127.95 297.01 127.95 275.71 114.38"/>
            <polygon class="cls-12" points="275.71 86.13 296.81 100.24 296.81 127.03 275.98 114.05 275.71 86.13"/>
            <polygon class="cls-17" points="297.01 99.7 275.71 86.13 320.84 86.13 342.14 99.7 297.01 99.7"/>
            <polygon class="cls-17" points="275.71 114.38 275.71 86.13 297.01 99.7 342.14 99.7 342.14 127.95 297.01 127.95 275.71 114.38"/>
            <line class="cls-17" x1="297.01" y1="127.95" x2="297.01" y2="99.7"/>
            <polygon class="cls-2" points="326.82 111.52 326.82 99.7 305.52 86.13 294.87 86.13 316.17 99.7 316.17 111.52 326.82 111.52"/>
            <rect class="cls-9" x="316.14" y="99.25" width="10.68" height="12.28"/>
            <polygon class="cls-17" points="326.82 111.52 326.82 99.7 305.52 86.13 294.87 86.13 316.17 99.7 316.17 111.52 326.82 111.52"/>
          </g>
          <g>
            <path class="cls-4" d="M303.81,105.14s-2.98,3.57-5.88,5.8c-2.9,2.23-7.26,2.44-6.61,5.42.65,2.98,11.11,1.02,11.11,1.02,0,0-1.6,12.2.94,14.16s4.36-2.4,4.36-2.4c0,0,1.67,4.57,4.28,2.9,2.61-1.67,3.34-8.06,3.34-8.06,0,0-.73,6.53.44,7.26s3.85.07,4.72-6.61c.55-4.25.79-9.59.73-13.8-.04-3.35-.71-6.65-1.95-9.76-2.97-7.43-9.4-22.53-13.03-23.62-4.84-1.45-61.24,0-61.24,0v9.44h54.81c2.95,6.61,6.05,12.85,3.99,18.26Z"/>
            <path class="cls-1" d="M300.4,86.58s-5.01-3.34-2.9-7.04l-38.33.58,7.91,6.76,33.32-.3Z"/>
            <path class="cls-17" d="M303.81,105.14s-2.98,3.57-5.88,5.8c-2.9,2.23-7.26,2.44-6.61,5.42.65,2.98,11.11,1.02,11.11,1.02,0,0-1.6,12.2.94,14.16s4.36-2.4,4.36-2.4c0,0,1.67,4.57,4.28,2.9,2.61-1.67,3.34-8.06,3.34-8.06,0,0-.73,6.53.44,7.26s3.85.07,4.72-6.61c.55-4.25.79-9.59.73-13.8-.04-3.35-.71-6.65-1.95-9.76-2.97-7.43-9.4-22.53-13.03-23.62-4.84-1.45-61.24,0-61.24,0v9.44h54.81c2.95,6.61,6.05,12.85,3.99,18.26Z"/>
            <path class="cls-14" d="M306.47,129l1.16-7.02c.08-.8,1.28-.75,1.29.05,0,0,.07,7.21.07,7.21-.06,1.85-2.81,1.59-2.51-.25h0Z"/>
          </g>
          <g>
            <g>
              <g>
                <path class="cls-14" d="M175.86,36.28l6.78.25s2.25-9.39-8.05-18.79c0,0,4.64-5.86-1.03-12.91-5.67-7.05-21-7.3-26.54,5.46,0,0,7.08-7.03,14.6-5.65,7.08,1.31,9.17,6.79,7.34,9.98,0,0-4.53-2.54-8.85,1.75-3.45,3.42-.55,9.09,4.58,8.16,3.08-.56,5.99-3.03,5.99-3.03,0,0,7.36,6.65,5.16,14.77ZM166.67,18.32s-.96,1.38-2.44,1.84c-1.35.41-2.28-1.29-.41-2.01,1.8-.7,2.86.18,2.86.18Z"/>
                <path class="cls-15" d="M162.72,1.53c1.98-.32,4.07.03,5.84.99,1.77.96,3.2,2.51,4.02,4.35-1.41-2-3.79-3.4-6.23-3.64,1.91,1.05,3.31,2.93,3.99,5-1.96-2.94-5.58-4.76-9.11-4.69,1.13-.63,2.44-1.01,3.74-.98-.71-.7-1.24-.99-2.23-1.02Z"/>
                <path class="cls-15" d="M174.37,20.67c1.34.58,2.56,1.67,3.42,3.06.86,1.38,1.35,3.05,1.38,4.66-.36-1.97-1.49-3.91-2.96-5.06.92,1.51,1.31,3.38,1.19,5.1-.45-2.84-2.26-5.58-4.51-6.96.88.01,1.81.29,2.62.83-.26-.78-.52-1.19-1.14-1.62Z"/>
              </g>
              <path class="cls-14" d="M151.29,20.72c.74.12,1.24-.72.79-1.31-1.53-2.02-4.71-5.21-9.69-5.41-6.28-.25-9.91,2.9-11.13,5.41-.29.6.25,1.28.9,1.15,2.71-.52,9.39-1.39,19.12.16Z"/>
              <path class="cls-14" d="M201.84,20.35c-.57.17-1.06-.44-.77-.96,1-1.77,3.2-4.64,7.13-5.33,4.97-.86,8.19,1.26,9.42,3.12.3.45-.06,1.04-.6,1.01-2.21-.13-7.61-.11-15.18,2.15Z"/>
              <path class="cls-4" d="M138.75,196.44c41.98,8.4,64.49-15.5,64.49-15.5,18.08,15.25,78.21,6.4,81.7-43.89,2.44-35.08-18.49-52.9-33.17-61.01,0,0,0,0-.01,0-7.68-4.24-13.66-5.82-13.66-5.82l-3.53-6.43c-.1-1.26-.27-2.46-.48-3.61-3-16.24-16.04-20.87-16.04-20.87h0c-.06-.1-.91-1.31-2.42-2.96h0s-.04-.05-.08-.09c-.14-.14-.27-.29-.41-.44-.06-.07-.14-.14-.21-.22-3.58-3.71-9.97-8.89-17.89-9.17-11.92-.42-19,10.66-19,10.66,0,0-9.09-11.4-24.33-8.92-16.78,2.72-24.05,20.46-27.12,32.96,0,0,0,.01,0,.02-.63,2.58-1.09,4.95-1.41,6.9-.57,3.44-.72,5.63-.72,5.63-5.96,3.61-11.73,8.11-16.88,13.64-2.97,3.2-5.73,6.74-8.19,10.67-1.26,2-2.43,4.09-3.52,6.3-.58,1.18-1.15,2.4-1.67,3.64-.64,1.49-1.24,3.02-1.79,4.6-.73,2.06-1.38,4.21-1.96,6.43-.42,1.63-.8,3.3-1.13,5.01-5.17,26.62,7.52,64.09,49.45,72.49Z"/>
              <path class="cls-3" d="M90.43,118.94c10.17-28.49,33.74-39.85,33.74-39.85l.99-11.05c-.57,3.44-.72,5.63-.72,5.63-5.96,3.61-11.73,8.11-16.88,13.64-7.56,8.13-13.74,18.5-17.13,31.63Z"/>
              <path class="cls-11" d="M126.97,127.28c3.5,1.62,7.74,1.68,10.6-.17,1.95-1.26,3.14-3.24,4.27-5.17,3.72-6.32,7.44-12.63,11.16-18.95,1.71-2.9,3.46-6.16,2.41-9.61-1.1-3.65-5.21-6.4-9.25-7.05s-7.94.44-11.29,2.07c-10.93,5.3-27.32,29.9-7.9,38.89Z"/>
              <path class="cls-11" d="M261.99,114.14c-2.69,2.02-6.46,2.65-9.53,1.28-2.09-.94-3.7-2.67-5.25-4.35-5.08-5.52-10.15-11.03-15.23-16.55-2.33-2.53-4.8-5.4-4.82-8.83-.02-3.62,2.89-6.81,6.32-7.97,3.43-1.17,7.22-.66,10.68.44,11.25,3.57,32.72,24.79,17.83,35.99Z"/>
              <path class="cls-1" d="M188.9,68.46s21.77-9.87,45.19-8.29c-3-16.24-16.04-20.87-16.04-20.87h0c-7.13-7.32-15.98-7.7-22.52-5.1-6.54,2.61-13.35,8.63-13.35,8.63,0,0,6.14,7.5,6.73,25.62Z"/>
              <path class="cls-1" d="M187.04,58.26c-2.66-9.67-11.83-22.86-27.72-21.65s-22.91,20.45-21.11,34.14c0,0,25.19-9.89,50.73-3.98,0,0,.43-.07-1.89-8.51Z"/>
              <path class="cls-3" d="M126.57,61.12c4.83-14.23,14.17-26.38,27.29-29.34,13.12-2.96,25.58,6.97,25.58,6.97,18.03-18.25,32.21-6.4,35.47-3.15-3.58-3.71-9.97-8.89-17.89-9.17-11.92-.42-19,10.66-19,10.66,0,0-9.09-11.4-24.33-8.92-16.78,2.72-24.05,20.46-27.12,32.96Z"/>
              <path class="cls-1" d="M230.6,63.25s-9.98,19.61-44.2,10.81c0,0-29.83,12.26-46.19-.48,0,0,28.69,5.32,48.69-5.12,0,0,20.56,8.17,41.71-5.21Z"/>
              <path class="cls-1" d="M99.8,165.08c5.67,10.04,17.18,22.96,39.72,27.48,7.45,1.49,14.78,2.01,21.76,1.54,25.25-1.67,44.36-16.7,44.36-16.7,0,0,8.56,7.08,25.02,6.22,12.07-.63,23.99-5.28,32.76-12.28,10.65-8.51,16.56-20.14,17.56-34.56,1.02-14.64-2.17-27.46-9.48-38.11-.66-.94,10.39,26.76-1.36,48.66-13.81,25.75-46.35,27.6-61.48,18.82,0,0-37.01,26.83-74.34,12.22-19.18-7.51-26.86-20.04-29.85-30.29-2.55-8.74-7.79-28.54-6.13-41.3-2.36,4.65-4.63,15.01-5.2,17.92-2.59,13.35-.12,28.45,6.63,40.38Z"/>
              <path class="cls-17" d="M138.75,196.44c41.98,8.4,64.49-15.5,64.49-15.5,18.08,15.25,78.21,6.4,81.7-43.89,3.71-53.46-46.84-66.84-46.84-66.84l-3.53-6.43c-.1-1.26-.27-2.46-.48-3.61-3-16.24-16.04-20.87-16.04-20.87h0c-.2-.32-8.78-12.46-21.02-12.89-11.92-.42-19,10.66-19,10.66,0,0-9.08-11.4-24.33-8.92-26.33,4.28-29.26,45.52-29.26,45.52-15.81,9.58-30.31,25.35-35.14,50.28-5.17,26.62,7.52,64.09,49.45,72.49Z"/>
              <path class="cls-14" d="M178.92,36.18c8.16,9.07,11.22,21.59,11.22,33.53-.05.83-.3,1.67-.74,2.36-1.2,1.97-3.15,3.3-4.92,4.38-3.22,1.91-6.68,3.18-10.2,4.17-10.45,2.79-22.24,3.02-31.97-2.2-.2-.11-.27-.36-.16-.56.11-.19.35-.27.54-.17,6.4,3.09,13.68,3.72,20.68,3.03,7.39-.85,19.36-3.71,23.89-9.9.24-.41.37-.83.35-1.29-.11-7.86-1.61-15.78-4.98-22.9-1.46-3.08-3.3-6.26-5.56-8.75-1.09-1.21.7-2.9,1.85-1.72h0Z"/>
              <g>
                <g>
                  <path class="cls-15" d="M138.17,70.13c5.23-1.63,10.47-2.73,15.49-3.45,3.51-.51,6.92-.82,10.14-1.01,2.31-.13,4.54-.19,6.63-.21.39,0,.77,0,1.15,0,10.34.04,17.37,1.29,17.37,1.29-.42-4.73-5.96-25.98-28.45-23.46-22.16,2.49-22.32,26.82-22.32,26.82Z"/>
                  <path class="cls-17" d="M138.17,70.13c5.23-1.63,10.47-2.73,15.49-3.45,3.51-.51,6.92-.82,10.14-1.01,2.31-.13,4.54-.19,6.63-.21.39,0,.77,0,1.15,0,10.34.04,17.37,1.29,17.37,1.29-.42-4.73-5.96-25.98-28.45-23.46-22.16,2.49-22.32,26.82-22.32,26.82Z"/>
                  <g>
                    <path class="cls-14" d="M153.04,63.9c.06.98.28,1.91.61,2.78,3.51-.51,6.92-.82,10.14-1.01,2.31-.13,4.54-.19,6.63-.21.39,0,.77,0,1.15,0,.22-.9.3-1.84.24-2.81-.34-5.18-4.82-9.11-10.01-8.76-5.18.34-9.11,4.83-8.76,10.01Z"/>
                    <circle class="cls-15" cx="159.62" cy="60.68" r="3.83"/>
                    <path class="cls-5" d="M163.77,65.52c0,.05,0,.11.01.16,2.31-.13,4.54-.19,6.63-.21,0-.13,0-.26,0-.39-.12-1.83-1.7-3.22-3.54-3.1s-3.22,1.71-3.1,3.54Z"/>
                  </g>
                </g>
                <g>
                  <path class="cls-15" d="M188.9,68.46c.08-.05,2.5-1.34,6.95-2.91,2.55-.89,5.77-1.88,9.61-2.75,1.65-.38,3.42-.74,5.29-1.06.73-.13,1.47-.25,2.23-.37,6.05-.92,13.13-1.47,21.11-1.2-2.15-14.26-14.37-20.22-16.04-20.87-9.35-3.64-23.37-3.02-33.42,7.92,2.31,5.13,4.32,12.22,4.27,21.24Z"/>
                  <g>
                    <path class="cls-14" d="M194.36,61.1c.11,1.65.64,3.17,1.49,4.46,2.55-.89,5.77-1.88,9.61-2.75,1.65-.38,3.42-.74,5.29-1.06.73-.13,1.47-.25,2.23-.37.05-.5.06-1,.02-1.51-.34-5.14-4.79-9.04-9.94-8.7-5.14.34-9.04,4.79-8.7,9.93Z"/>
                    <circle class="cls-15" cx="200.82" cy="59.18" r="3.83"/>
                    <path class="cls-5" d="M205.23,61.89c.02.33.1.64.22.92,1.65-.38,3.42-.74,5.29-1.06,0-.07,0-.14,0-.22-.1-1.52-1.42-2.67-2.94-2.57s-2.67,1.42-2.57,2.94Z"/>
                  </g>
                  <path class="cls-17" d="M188.9,68.46c.08-.05,2.5-1.34,6.95-2.91,2.55-.89,5.77-1.88,9.61-2.75,1.65-.38,3.42-.74,5.29-1.06.73-.13,1.47-.25,2.23-.37,6.05-.92,13.13-1.47,21.11-1.2-2.15-14.26-14.37-20.22-16.04-20.87-9.35-3.64-23.37-3.02-33.42,7.92,2.31,5.13,4.32,12.22,4.27,21.24Z"/>
                </g>
              </g>
              <path class="cls-14" d="M222.9,74.72c-7.87,4.93-18.3,6.92-27.05,3.23-.27-.11-.13-.53.15-.45,6.68,1.42,13.61.82,20.17-1.03,2.19-.62,4.38-1.32,6.5-2.17.25-.13.48.27.23.42h0Z"/>
              <path class="cls-14" d="M235.75,64.21c-1.53,3.02-3.7,5.83-6.76,7.37-.19.09-.41.01-.5-.17-.08-.17-.03-.37.12-.47,2.43-1.83,3.93-4.74,4.76-7.59.51-1.75,3.11-.8,2.37.87h0Z"/>
              <path class="cls-14" d="M125.7,73.77c-.45,3.53-.77,7.13-.92,10.71-.03.81-1.25.84-1.31.02-.26-3.65-.34-7.26-.29-10.93.01-.7.59-1.26,1.29-1.24.75,0,1.34.69,1.23,1.44h0Z"/>
              <path class="cls-14" d="M202.36,180.03c4.26-4.44,5.56-11.06,5.73-17.05,0,0-.04-2.72-.04-2.72-.03-.27.41-.32.43-.04.74,5.51.61,11.28-1.43,16.53-.6,1.33-2.78,6.92-4.74,5.21-.58-.51-.55-1.44.05-1.93h0Z"/>
            </g>
            <g>
              <path class="cls-4" d="M115.98,121.48v25.2s23.23,23.9,23.23,23.9c8.11-11.89,16.75-7.57,20.97-19.42.75-2.1,2.72-3.62,4.94-3.55,5.12.17,7.71,9.35.88,18.58,12.74,4.39,16.23,9.15,11.22,14.74,1.89,4.31.7,7.81-3.48,10.52.54,4.14-1.48,7.55-5.39,7.57-5.44.74-26.08-.8-28.15-8.44l-3.35-6.86s-32.62-24.83-35.09-34.56c-2.47-9.73,2.47-25.46,2.47-25.46"/>
              <path class="cls-17" d="M115.98,121.48v25.2s23.23,23.9,23.23,23.9c8.11-11.89,16.75-7.57,20.97-19.42.75-2.1,2.72-3.62,4.94-3.55,5.12.17,7.71,9.35.88,18.58,12.74,4.39,16.23,9.15,11.22,14.74,1.89,4.31.7,7.81-3.48,10.52.54,4.14-1.48,7.55-5.39,7.57-5.44.74-26.08-.8-28.15-8.44l-3.35-6.86s-32.62-24.83-35.09-34.56c-2.47-9.73,2.47-25.46,2.47-25.46"/>
              <path class="cls-1" d="M154.96,161.95s-11.25,3.19-14.23,11.32c0,0,2.98,1.96-1.16,8.49l2.4,6.68s2.11,5.33,8.57,5.82c6.46.5-11.83-14.82,4.43-32.32Z"/>
            </g>
          </g>
          <g>
            <polygon class="cls-7" points="249.17 180.94 214.32 198.58 253.5 210.64 288.35 193 249.17 180.94"/>
            <polygon class="cls-7" points="288.35 193 288.35 229.14 253.5 246.79 252.26 246.41 214.32 234.72 214.32 198.58 253.04 210.5 253.5 210.65 288.35 193"/>
            <path class="cls-12" d="M288.35,193v36.14l-34.85,17.64-1.24-.38c-.13-10.45.37-25.73.78-35.9l.46.14,34.85-17.64Z"/>
            <polygon class="cls-17" points="249.17 180.94 214.32 198.58 253.5 210.64 288.35 193 249.17 180.94"/>
            <polygon class="cls-17" points="214.32 234.72 214.32 198.58 253.5 210.64 288.35 193 288.35 229.15 253.5 246.79 214.32 234.72"/>
            <line class="cls-17" x1="253.5" y1="210.64" x2="253.5" y2="246.79"/>
            <polygon class="cls-2" points="272.27 188.06 237.43 205.69 237.43 219.85 228.15 217 228.15 202.84 262.99 185.2 272.27 188.06"/>
            <polygon class="cls-17" points="272.27 188.06 237.43 205.69 237.43 219.85 228.15 217 228.15 202.84 262.99 185.2 272.27 188.06"/>
          </g>
          <g>
            <polygon class="cls-7" points="96.34 169.6 131.18 187.24 92.01 199.31 57.16 181.67 96.34 169.6"/>
            <polygon class="cls-7" points="57.16 181.66 57.16 217.8 92.01 235.45 93.25 235.07 131.18 223.38 131.18 187.24 92.47 199.17 92.01 199.31 57.16 181.66"/>
            <path class="cls-12" d="M57.16,181.66v36.14s34.85,17.64,34.85,17.64l1.24-.38c.13-10.45-.37-25.73-.78-35.9l-.46.14-34.85-17.64Z"/>
            <line class="cls-7" x1="92.01" y1="199.31" x2="92.01" y2="235.45"/>
            <polygon class="cls-17" points="96.34 169.6 131.18 187.24 92.01 199.31 57.16 181.67 96.34 169.6"/>
            <polygon class="cls-17" points="131.18 223.38 131.18 187.24 92.01 199.31 57.16 181.67 57.16 217.81 92.01 235.45 131.18 223.38"/>
            <line class="cls-17" x1="92.01" y1="199.31" x2="92.01" y2="235.45"/>
            <polygon class="cls-2" points="73.23 176.72 108.08 194.35 108.08 208.52 117.35 205.66 117.35 191.5 82.51 173.86 73.23 176.72"/>
            <polygon class="cls-17" points="73.23 176.72 108.08 194.35 108.08 208.52 117.35 205.66 117.35 191.5 82.51 173.86 73.23 176.72"/>
          </g>
        </g>
        <g>
          <path class="cls-13" d="M231.62,117.95s.41-14.06-7.13-18.51-20.51,2.73-20.51,2.73c0,0-17.05-4.18-24.19-.3-7.14,3.87-.15,24.03,1.04,27.11,1.19,3.08,9.93,16.68,21.98,17.52,12.05.84,18.86-2.8,22.75-7.33,3.9-4.53,6.02-16.39,6.04-18.81"/>
          <path class="cls-6" d="M191.39,129.26c-3.77,3.95-2.48,9.61-2.48,9.61.36-6.21,7.37-9.92,7.37-9.92-2.86,3.65-.48,12.58-.48,12.58,0,0-.09-6.83,3.46-6.06,3.47.74,4.53,7.16,5.7,11.53.87.07,1.77.1,2.68.09.57,0,1.14-.03,1.68-.06.29-.34.6-.69.93-1.03,2.77-2.93,1.84-11.82,3.84-11.47,1.8.3,5.07,6.02,5.43,5.24-.08,2.05-1.15,4.52-5.24,5.92-1.04.35-2.03.74-2.94,1.16,16.14-2.1,19.54-16.54,20.16-24.82.08-1.05.11-1.99.12-2.81h0c0-.96-.02-1.74-.05-2.25-2-.33-8.85.05-9.93-2.34-1.19-2.62,2.92-6.44,3.05-6.55.14-.13,4.24-3.13,3.59-4.38,0,0,0,0,0-.01-.76-1.22-1.64-2.24-2.66-3.04l-.04,1.58c-.15,5.31-7.42,9.17-7.42,9.17-1.48.35.11-6.16.19-6.52-.2.26-3.45,4.43-6.15,5.44-2.78,1.04-7.12-3.42-7.12-3.42,0,0-5.1,4.77-9.46,3.65-4.36-1.12-9.88-4.19-9.88-4.19,0,0,5.35,6.51,2.53,9.3-2.82,2.78-7.74,2.6-7.74,2.6,0,0,8.93,1.32,11.1,4.22,2.17,2.9-.26,6.82-.26,6.82ZM224.53,124.53l-.44.14c-2.08-.47-4.7-1.16-2.47-2.76.97-.7,2.41-.91,3.96-.88.41.07,4.02.7,4.11,2.93.09,2.36-5.15.56-5.15.56ZM221.82,128.26h0c-.57-1.3-.95-2.52-.51-2.77.14-.08.38-.13.67-.17.08,0,4.53.44,5.02,3.7.51,3.3-3.68,1.44-5.18-.76ZM218.2,130.89c.42-.08,1.01-.01,1.64.11h0s4.49,1.09,4.57,4.59c.07,3.5-5.54.76-5.54.76,0,0,.59,1.21.67,2.8-.43-2.78-3.01-7.97-1.34-8.27Z"/>
          <path class="cls-14" d="M206.19,113.85s9.33-7.26,12.25.13c2.93,7.39-2.53,24.04-13.62,19.87-11.09-4.17-22.08-27.6,1.36-20Z"/>
          <path class="cls-14" d="M229.89,131.41c-1.68,6.57-6.37,12.45-12.87,14.74-6.36,2.24-13.62,2.07-19.77-.68-.22-.1-.09-.45.15-.37,9.09,2.75,20.34,1.74,27.05-5.53,2.2-2.36,3.81-5.24,5.06-8.28.08-.22.45-.11.38.13h0Z"/>
          <path class="cls-14" d="M177.63,105.04c2.26-8.58,21.14-5.16,26.17-3.23,1-.37,1.99-.76,2.99-1.11.1-.04.22.02.25.12.03.09,0,.19-.09.24-.93.52-1.87.99-2.81,1.48-4.65-.65-9.39-1.55-14.12-1.65-3.37-.02-6.99-.04-9.92,1.75-.94.59-1.68,1.45-2.1,2.51-.08.23-.44.12-.38-.12h0Z"/>
          <path class="cls-14" d="M230.7,109.05c1.15,2.56,1.49,5.33,1.57,8.1.05.46-.24,6.1-.97,4.91-.13-1.1-.2-2.17-.27-3.25-.16-2.04-.56-7.55-.72-9.66-.02-.22.3-.3.39-.1h0Z"/>
          <path class="cls-14" d="M204.56,115.41c.87-3.45,1.12-7.55-.97-10.64-.08-1.49,1.88,1.7,2.03,2.19,1.19,2.81,1.4,5.87,1.07,8.9-.08.6-.62,1.02-1.22.95-.67-.08-1.11-.76-.91-1.4h0Z"/>
          <path class="cls-14" d="M193,115.71c-1.7-3.91-4.48-7.68-8.38-9.64-.26-.13-.08-.56.2-.45,3.29,1.15,6.02,3.53,8.16,6.24.72.93,1.38,1.85,1.99,2.93.3.52.11,1.19-.41,1.49-.58.33-1.33.05-1.56-.57h0Z"/>
          <path class="cls-14" d="M213.47,112.04c1.06-3.53,3.07-7.04,6.48-8.68.27-.14.5.27.24.43-2.8,1.93-4.14,5.41-4.57,8.66-.21,1.54-2.51,1.1-2.14-.41h0Z"/>
          <path class="cls-14" d="M209.46,132.77c1.26,3.77,1.42,7.92-.04,11.63-.05.13-.19.19-.31.14-.11-.04-.18-.16-.15-.28.19-.92.36-1.83.36-2.76.06-2.69-.62-5.5-1.84-7.86-.69-1.38,1.44-2.32,2-.88h0Z"/>
          <path class="cls-14" d="M216.19,126.04c3.6.77,6.64,3.2,8.24,6.46.06.12.02.27-.1.33-.11.06-.25.02-.32-.08-1.82-2.59-4.91-4.4-8.06-4.54-1.56-.08-1.31-2.43.24-2.17h0Z"/>
          <path class="cls-14" d="M218.33,117.88c2.83-.5,5.69-.2,8.38.67.13.04.2.18.16.31-.04.11-.15.18-.26.17-2.56-.27-5.26-.01-7.62.93-1.48.59-2.21-1.72-.65-2.08h0Z"/>
          <path class="cls-14" d="M186.65,137.58c.19-2.7,1.43-5.29,3.25-7.27.6-.68,1.32-1.24,2.06-1.73.06-.04.14-.02.18.04.03.05.03.11-.01.16-2.35,2.61-4.08,5.54-5.23,8.85-.03.14-.26.11-.25-.04h0Z"/>
          <path class="cls-14" d="M200.1,129.62c-2.05,1.26-3.56,3.6-3.7,6.05-.02.28-.46.28-.49,0-.41-2.89.78-5.79,2.9-7.8,1.22-1.06,2.66.91,1.29,1.76h0Z"/>
          <path class="cls-14" d="M192.89,120.61c-2.38-1.92-5.73-2.64-8.77-2.59-.3.01-.55-.23-.55-.52,0-.27.2-.49.46-.52,1.71-.22,3.45-.22,5.17.06,1.27.25,6.58,1.42,5.35,3.41-.37.56-1.18.64-1.66.17h0Z"/>
          <path class="cls-14" d="M229.61,106.42c-2.5.65-4.86,1.5-6.78,3.26-.05.05-.14.05-.19,0,.96-2.56,4.36-3.74,6.95-3.5.14.01.15.23,0,.25h0Z"/>
          <path class="cls-14" d="M228.97,127.39c-2.08-1.3-4.12-2.35-6.39-3.29-.07-.03-.1-.1-.07-.17,2.46-.23,5.12,1.35,6.63,3.28.08.11-.07.26-.18.18h0Z"/>
          <path class="cls-14" d="M216.61,134.23c2.46,1,3.52,3.96,3.28,6.44-.01.14-.22.15-.25.02-.65-2.22-1.4-4.63-3.15-6.24-.12-.08-.02-.28.11-.22h0Z"/>
          <path class="cls-11" d="M212.42,107.62c.58.44,1.43-1.5,2.86-3.37s2.9-2.95,2.32-3.39-3.18.96-4.61,2.83c-1.43,1.87-1.15,3.49-.57,3.93Z"/>
          <path class="cls-11" d="M206.82,105.67c.3.04.67-.59.81-1.54.14-.95,0-1.87-.29-1.92s-.95.98-1.1,1.93.28,1.48.57,1.53Z"/>
          <path class="cls-11" d="M187.34,105.26c-.36.64,2.31,1.66,4.36,2.82s3.79,2.1,4.15,1.46c.36-.64-1.4-3.01-3.45-4.16-2.05-1.15-4.7-.75-5.06-.12Z"/>
          <ellipse class="cls-11" cx="183.6" cy="112.4" rx="3.09" ry="1.68" transform="translate(-6.85 12.04) rotate(-3.69)"/>
          <path class="cls-11" d="M182.43,126.75c.63,1.09,2.19.2,4.2-.96,2.01-1.16,3.7-2.15,3.07-3.24-.63-1.09-2.77-1.03-4.77.13-2.01,1.16-3.12,2.98-2.49,4.07Z"/>
          <path class="cls-11" d="M198.62,141.37c.1,1.53.61,2.62,1.43,2.57s1.4-1.33,1.3-2.86-.84-2.72-1.66-2.67-1.17,1.44-1.07,2.96Z"/>
          <path class="cls-11" d="M191.53,135.97c-.16,1.68.25,3.08.9,3.15s.53-.57.69-2.25c.16-1.68.53-3.76-.12-3.82s-1.31,1.25-1.47,2.92Z"/>
          <path class="cls-11" d="M214.85,141c.09,1.38.11,1.98.71,1.94s1-1.19.92-2.57-.64-2.47-1.24-2.43-.48,1.68-.39,3.06Z"/>
          <path class="cls-11" d="M223.35,112.35c.06.92,1.34,1.18,3.17,1.07s3.51-.57,3.45-1.49c-.06-.92-1.59-1.58-3.42-1.46s-3.26.96-3.2,1.89Z"/>
          <path class="cls-14" d="M226.78,101.96c-2.71-2.89-6.61-3.47-10.35-3.76-.12,0-.21-.12-.19-.23,3.64-1.66,9.29-.17,10.89,3.81.08.21-.22.37-.36.19h0Z"/>
          <path class="cls-14" d="M177.45,111.58c.54,9.3,3.46,18.7,9.53,25.89.64.69,1.35,1.45,1.98,2.16.08.08.08.22,0,.3-.07.07-.18.07-.26,0-2.06-1.64-4.04-3.49-5.55-5.69-3.16-4.3-5.03-9.5-5.83-14.74-.38-2.63-.54-5.29-.26-7.94.02-.24.4-.23.4.02h0Z"/>
        </g>
      </g>
    </g>
  </g>
</svg>