<?xml version="1.0" encoding="UTF-8"?>
<svg id="Layer_2" data-name="Layer 2" xmlns="http://www.w3.org/2000/svg" viewBox="0 0 398.25 354.94">
  <defs>
    <style>
      .cls-1 {
        fill: #ffa799;
      }

      .cls-1, .cls-2, .cls-3, .cls-4, .cls-5, .cls-6, .cls-7, .cls-8, .cls-9, .cls-10, .cls-11 {
        stroke-width: 0px;
      }

      .cls-2 {
        fill: #ffd180;
      }

      .cls-3 {
        opacity: .6;
      }

      .cls-3, .cls-6, .cls-12, .cls-8, .cls-11 {
        fill: #fff;
      }

      .cls-4 {
        fill: #f9a66e;
      }

      .cls-5 {
        fill: #ffd1b8;
      }

      .cls-6 {
        opacity: .3;
      }

      .cls-7 {
        fill: #f9a7ce;
      }

      .cls-13, .cls-12 {
        stroke-width: 2.99px;
      }

      .cls-13, .cls-12, .cls-14, .cls-15 {
        stroke: #720000;
        stroke-linecap: round;
        stroke-linejoin: round;
      }

      .cls-13, .cls-14 {
        fill: none;
      }

      .cls-16, .cls-8 {
        opacity: .4;
      }

      .cls-14, .cls-15 {
        stroke-width: 5px;
      }

      .cls-9 {
        fill: #ffc4d6;
      }

      .cls-10 {
        fill: #720000;
      }

      .cls-15 {
        fill: #ff8392;
      }
    </style>
  </defs>
  <g id="Layer_1-2" data-name="Layer 1">
    <g>
      <g>
        <path class="cls-11" d="M120.98,40.66h145.38c20.18,0,36.57,16.39,36.57,36.57v261.21c0,20.18-16.39,36.57-36.57,36.57H120.98c-20.18,0-36.57-16.39-36.57-36.57V77.23c0-20.18,16.39-36.57,36.57-36.57Z" transform="translate(401.51 14.17) rotate(90)"/>
        <g>
          <rect class="cls-15" x="13.41" y="85.93" width="382.34" height="266.51" rx="75.34" ry="75.34"/>
          <rect class="cls-11" x="2.5" y="74.59" width="382.34" height="266.51" rx="65.57" ry="65.57"/>
          <path class="cls-2" d="M360.85,135.15v64.98c0,9.72-3.78,18.54-9.96,25.09-6.67,7.07-16.13,11.48-26.61,11.48H63.06c-8.57,0-16.47-2.95-22.71-7.9-8.44-6.7-13.86-17.05-13.86-28.67v-64.98c0-20.19,16.38-36.57,36.58-36.57h261.21c20.2,0,36.57,16.38,36.57,36.57Z"/>
          <path class="cls-4" d="M350.89,225.22c-6.67,7.07-16.13,11.48-26.61,11.48H63.06c-8.57,0-16.47-2.95-22.71-7.9,29.81-26.45,89.11-44.47,157.41-44.47s122.16,16.41,153.13,40.89Z"/>
          <rect class="cls-14" x="2.5" y="74.59" width="382.34" height="266.51" rx="65.57" ry="65.57"/>
        </g>
        <rect class="cls-14" x="2.5" y="74.59" width="382.34" height="266.51" rx="65.57" ry="65.57"/>
        <path class="cls-14" d="M161.18.46h64.98c20.18,0,36.57,16.39,36.57,36.57v261.21c0,20.18-16.39,36.57-36.57,36.57h-64.98c-20.18,0-36.57-16.39-36.57-36.57V37.03C124.61,16.85,141,.46,161.18.46Z" transform="translate(361.31 -26.03) rotate(90)"/>
      </g>
      <g>
        <g>
          <g>
            <g>
              <path class="cls-10" d="M191.57,45.1l7.88,1.54s4.35-10.56-5.95-23.43c0,0,6.49-5.99,1.17-15.26-5.33-9.28-23.19-12.39-32,1.5,0,0,9.57-6.92,18.1-3.91,8.03,2.83,9.46,9.61,6.74,13.01,0,0-4.82-3.8-10.65.42-4.66,3.36-2.31,10.52,3.85,10.37,3.7-.09,7.55-2.44,7.55-2.44,0,0,7.37,9.11,3.31,18.2ZM184.14,22.44s-1.38,1.44-3.19,1.7c-1.65.24-2.43-1.92-.11-2.43,2.23-.49,3.3.73,3.3.73Z"/>
              <path class="cls-11" d="M182.62,2.1c2.38-.01,4.75.79,6.64,2.23,1.89,1.44,3.28,3.52,3.89,5.82-1.28-2.6-3.8-4.67-6.61-5.4,2.03,1.58,3.32,4.03,3.74,6.57-1.74-3.79-5.65-6.59-9.78-7.15,1.43-.53,3.04-.73,4.54-.46-.7-.95-1.26-1.39-2.42-1.61Z"/>
              <path class="cls-11" d="M192.7,26.6c1.46.92,2.69,2.42,3.44,4.2.75,1.77,1.02,3.81.75,5.7-.06-2.37-1.02-4.84-2.53-6.46.8,1.93.91,4.19.45,6.18,0-3.4-1.61-6.94-3.99-8.96,1.03.18,2.06.67,2.91,1.45-.16-.95-.38-1.49-1.03-2.1Z"/>
            </g>
            <path class="cls-10" d="M165.32,30.41c.87.15,1.48-.82.96-1.54-1.77-2.42-5.47-6.26-11.35-6.59-7.42-.42-11.78,3.23-13.26,6.18-.36.71.27,1.52,1.05,1.38,3.21-.56,11.13-1.45,22.6.57Z"/>
            <path class="cls-10" d="M217.09,25.57c-.68.19-1.25-.54-.89-1.15,1.22-2.07,3.87-5.43,8.54-6.16,5.89-.92,9.66,1.65,11.07,3.88.34.54-.09,1.23-.73,1.19-2.61-.2-9-.28-18,2.24Z"/>
            <path class="cls-5" d="M146.28,233.42c49.47,10.77,76.55-17.03,76.55-17.03,21.07,18.39,92.33,9.13,97.47-50.26,3.58-41.42-20.8-62.91-38-72.79,0,0,0,0-.01,0-9-5.17-16.03-7.16-16.03-7.16l-4.04-7.67c-.1-1.49-.27-2.92-.5-4.28-3.23-19.26-18.54-24.99-18.54-24.99h0c-.07-.12-1.05-1.57-2.8-3.55h0s-.04-.05-.09-.11c-.16-.17-.32-.35-.48-.53-.07-.08-.16-.17-.25-.26-4.15-4.46-11.61-10.72-20.97-11.2-14.09-.73-22.67,12.22-22.67,12.22,0,0-10.51-13.66-28.59-11.04-19.89,2.88-28.85,23.7-32.73,38.43,0,0,0,.01,0,.02-.8,3.04-1.38,5.82-1.8,8.13-.74,4.05-.96,6.65-.96,6.65-7.12,4.15-14.04,9.35-20.22,15.78-3.58,3.72-6.91,7.86-9.9,12.45-1.52,2.34-2.96,4.79-4.29,7.37-.71,1.39-1.4,2.81-2.05,4.27-.78,1.75-1.52,3.55-2.21,5.4-.9,2.42-1.72,4.95-2.44,7.56-.53,1.92-1.01,3.88-1.44,5.9-6.64,31.36,7.61,75.93,57.02,86.69Z"/>
            <path class="cls-3" d="M90.71,140.83c12.59-33.47,40.68-46.43,40.68-46.43l1.39-13.05c-.74,4.05-.96,6.65-.96,6.65-7.12,4.15-14.04,9.35-20.22,15.78-9.1,9.46-16.62,21.6-20.89,37.05Z"/>
            <path class="cls-8" d="M133.73,151.42c4.11,1.99,9.12,2.14,12.53.01,2.33-1.45,3.77-3.77,5.15-6.03,4.52-7.39,9.05-14.79,13.57-22.18,2.07-3.39,4.21-7.21,3.04-11.32-1.23-4.33-6.03-7.67-10.79-8.52s-9.39.36-13.39,2.22c-13.03,6.05-32.9,34.8-10.12,45.82Z"/>
            <path class="cls-8" d="M293.63,138.59c-3.22,2.34-7.69,3-11.29,1.32-2.45-1.15-4.32-3.23-6.12-5.25-5.89-6.62-11.78-13.24-17.68-19.87-2.7-3.04-5.56-6.48-5.52-10.54.04-4.28,3.56-7.99,7.63-9.3,4.08-1.31,8.55-.64,12.62.73,13.23,4.45,38.19,29.96,20.36,42.91Z"/>
            <path class="cls-1" d="M208.13,83.13s25.93-11.24,53.59-8.9c-3.23-19.26-18.54-24.99-18.54-24.99h0c-8.29-8.79-18.74-9.43-26.53-6.48-7.79,2.95-15.95,9.94-15.95,9.94,0,0,7.11,8.99,7.44,30.43Z"/>
            <path class="cls-1" d="M206.14,71.02c-2.96-11.48-13.52-27.26-32.34-26.15-18.82,1.11-27.49,23.72-25.65,39.94,0,0,29.98-11.19,60.05-3.7,0,0,.51-.07-2.07-10.09Z"/>
            <path class="cls-3" d="M134.59,73.19c5.99-16.73,17.29-30.91,32.85-34.15,15.57-3.24,30.1,8.75,30.1,8.75,21.68-21.21,38.21-6.92,42-3.02-4.15-4.46-11.61-10.72-20.97-11.2-14.09-.73-22.67,12.22-22.67,12.22,0,0-10.51-13.66-28.59-11.04-19.89,2.88-28.85,23.7-32.73,38.43Z"/>
            <path class="cls-1" d="M257.54,77.8s-12.19,22.99-52.47,11.9c0,0-35.52,13.9-54.6-1.5,0,0,33.82,6.86,57.66-5.08,0,0,24.15,10.07,49.41-5.33Z"/>
            <path class="cls-1" d="M100.87,195.57c6.5,11.99,19.84,27.49,46.41,33.29,8.78,1.91,17.42,2.67,25.7,2.26,29.89-1.47,52.77-18.86,52.77-18.86,0,0,9.99,8.55,29.47,7.86,14.27-.5,28.47-5.76,38.97-13.87,12.76-9.85,19.98-23.48,21.45-40.51,1.49-17.28-2.02-32.51-10.45-45.25-.75-1.13,11.76,31.84-2.57,57.5-16.84,30.17-55.35,31.7-73.06,21.03,0,0-44.87,32.34-88.13,12.96-33.49-15-42.37-61.64-38.63-86.98-.28-.07-.58-.14-.86-.21-4.45,9.45-7.44,19.78-8.1,22.92-3.33,15.74-.71,33.63,7.03,47.87Z"/>
            <path class="cls-13" d="M146.28,233.42c49.47,10.77,76.55-17.03,76.55-17.03,21.07,18.39,92.33,9.13,97.47-50.26,5.46-63.13-54.04-79.96-54.04-79.96l-4.04-7.67c-.1-1.49-.27-2.92-.5-4.28-3.23-19.26-18.54-24.99-18.54-24.99h0c-.22-.38-10.13-14.91-24.59-15.66-14.09-.73-22.67,12.22-22.67,12.22,0,0-10.51-13.66-28.59-11.04-31.22,4.53-35.5,53.23-35.5,53.23-18.88,11.01-36.34,29.36-42.56,58.74-6.64,31.36,7.61,75.93,57.02,86.69Z"/>
            <path class="cls-10" d="M196.98,44.76c9.42,10.83,12.81,25.61,12.6,39.66,0,1.38-.61,2.72-1.46,3.76-8.85,9.74-30.75,12.7-43.15,10.14-4.24-.79-8.36-2.25-12.11-4.35-.23-.13-.32-.43-.19-.66.13-.23.42-.31.65-.19,7.5,3.78,16.1,4.67,24.39,4,8.94-.89,21.99-3.84,28.09-10.7.47-.61.81-1.29.79-2.04.03-9.29-1.59-18.68-5.43-27.17-1.66-3.67-3.78-7.47-6.4-10.45-1.26-1.45.88-3.42,2.22-1.99h0Z"/>
            <g>
              <path class="cls-12" d="M207.83,78.67c-14.55,10.93-48.45,14.42-60.09,2.97,0,0,.43-18.2,13.81-26.9,12.12-7.36,26.77,4.96,41.06,9.01,3.73,6.08,5.03,12.43,5.22,14.92Z"/>
              <path class="cls-10" d="M174.46,86.46c.12.76.31,1.49.58,2.18,7.37-.34,14.97-1.8,21.52-4.16,0-.48-.04-.96-.12-1.44-.94-6.06-6.63-10.22-12.7-9.27-6.07.95-10.22,6.63-9.27,12.7Z"/>
              <circle class="cls-11" cx="181.87" cy="81.97" r="4.53"/>
              <path class="cls-6" d="M187,86.45c.02.06.04.12.06.18,2.63-.77,5.17-1.44,7.58-2.01-.03-.15-.06-.3-.11-.45-.63-2.08-2.82-3.26-4.91-2.62-2.08.63-3.25,2.83-2.62,4.91Z"/>
            </g>
            <g>
              <path class="cls-12" d="M261.72,74.23c-20.11,9.35-51.73,11.09-53.59,8.9.17-7.63-.92-14.1-2.52-19.41,9.89-7.53,19.58-16.34,25.88-17.03h.02c.79.04,1.56.1,2.33.19,3.37.38,6.54,1.2,9.34,2.36,1.97.8,16.28,8.09,18.55,24.99Z"/>
              <g>
                <path class="cls-10" d="M212.14,83.84c1.86-.05,4-.06,6.38.03,2.2-.11,4.67-.31,7.3-.6,1.54-.17,3.13-.36,4.77-.6,1.04-.14,2.1-.3,3.17-.48.64-5.44-2.87-10.64-8.33-11.98-5.92-1.46-11.9,2.16-13.37,8.08-.46,1.9-.41,3.8.08,5.56Z"/>
                <circle class="cls-11" cx="220.03" cy="78.44" r="4.53"/>
                <path class="cls-6" d="M224.09,82.32c.57.04,4.87-.21,6.51-.45-.05-1.42-1.04-2.7-2.48-3.06-1.75-.42-3.52.65-3.95,2.39-.09.38-.11.75-.07,1.12Z"/>
              </g>
            </g>
            <path class="cls-10" d="M248.21,91.2c-9.4,5.67-21.79,7.81-32.05,3.28-.31-.13-.15-.63.19-.53,10.62,2.45,21.48.51,31.6-3.25.3-.14.56.32.27.5h0Z"/>
            <path class="cls-10" d="M263.61,79.03c-1.87,3.54-4.49,6.82-8.14,8.58-.22.1-.49,0-.59-.22-.09-.2-.02-.44.15-.55,2.91-2.12,4.74-5.53,5.78-8.88.66-2.06,3.68-.9,2.79,1.08h0Z"/>
            <path class="cls-10" d="M133.3,88.14c-.6,4.17-1.06,8.42-1.3,12.64-.02.43-.39.76-.82.73-.4-.02-.71-.34-.73-.73-.23-4.31-.26-8.6-.12-12.92.03-.83.72-1.47,1.54-1.45.89.02,1.57.85,1.43,1.72h0Z"/>
            <path class="cls-10" d="M221.82,215.29c5.14-5.2,6.79-12.94,7.12-20.05,0,0,0-3.22,0-3.22-.03-.32.49-.37.51-.04.77,6.53.49,13.35-2.02,19.52-.92,2.17-1.97,4.2-3.59,5.99-1.48,1.47-3.62-.83-2.02-2.2h0Z"/>
          </g>
          <g>
            <path class="cls-9" d="M209.79,166.77c4.04,2.36,7.58,4.44,11.14,5.51,7.17,2.17,14.44.28,26.11-11.43,11.86-11.91,12.6-28.35,9.37-35.18-.85-1.81-1.98-2.94-3.26-3.14l-1.96-3.47c-.17-.16-.33-.33-.49-.49-.14-.15-.28-.29-.42-.44-2.46-2.52-4.93-4.93-12.99-6.45-8.53-1.61-11.81,3.36-19.05,1.79-7.23-1.56-16.08-.86-25.01,11.09-8.93,11.96,4.39,35.08,16.56,42.2Z"/>
            <path class="cls-7" d="M211.7,143.77c-4.59,4.71-4.76,10.43-4.11,13.12,0,0,2.93-8.29,8.04-11.33,5.11-3.04,9.94-1.45,9.94-1.45,0,0-5.78,4.17-7.75,8.06-1.97,3.89-3.78,11.83-.65,16.83,0,0,1.57,1.52,3.76,3.3,7.17,2.17,14.44.28,26.11-11.43,11.86-11.91,12.6-28.35,9.37-35.18-.08-.04-.12-.06-.12-.06.98,2.33-.29,10.45-11.52,11.24,0,0,6.37-4.61,7.97-9.23,1.27-3.67-1.04-7.6-2.04-9.05-.26-.38-.43-.59-.43-.59,0,0,0,.05,0,.15.06,1.8,1.41,17.95-13.08,16.26,0,0,4.21-5.87,4.17-16.45,0,0-4.37,19.02-9.81,14.7,0,0,1.06-6.71-1-10.49,0,0,.87,7.32-1.48,7.3-2.35-.02-6.01-10.07-14.2-11.17,0,0,4.93,4.35,7.28,10.15.48,1.18-.73,2.32-1.89,1.8-3.16-1.42-8.47-3.1-13.59-1.46,0,0,6.33.28,12.25,4.36,2.6,1.79,1.84,5.85-1.24,6.53-.17.04-.34.07-.51.1-4.31.79-18.29,1.02-23.13,3.91,0,0,6.44,1.02,17.67.07ZM229.98,146.44l1.93-.94.59-2.44s3.11-1.73,6.86-2.86c3.75-1.13,7.51-.17,9.05.81,2.72,1.73,1.76,7.65-7.16,5.48-6.97-1.69-6.48-1.46-9.34-.99,0,0,4.09,1.85,6.06,5.29,1.97,3.44,1.1,9.67-1.6,9.86-2.7.2.04-10.18-6.38-14.21ZM229.01,145.49s3.44,5.98,2.85,11.5c-.59,5.51-3.33,6.44-5.91,5.81-2.58-.64-5.65-8.88,3.06-17.3Z"/>
            <g>
              <g class="cls-16">
                <path class="cls-11" d="M198.97,123.25c-.26,1.08,5.01.07,10.87,1.49,5.86,1.42,10.09,4.72,10.35,3.64s-3.55-6.12-9.41-7.54-11.55,1.33-11.81,2.41Z"/>
                <path class="cls-11" d="M233.53,114.88c-.68.07.99,2.91,1.39,6.58.4,3.67-.63,6.8.04,6.72s2.8-3.31,2.4-6.99c-.4-3.67-3.16-6.39-3.83-6.32Z"/>
                <path class="cls-11" d="M222.16,117.16c-.35.23,1.38,1.31,2.65,3.22s1.61,3.92,1.96,3.68.58-2.62-.69-4.53-3.57-2.6-3.92-2.37Z"/>
                <path class="cls-11" d="M247.59,121.65c-.6-.31-.79,2.97-2.5,6.24-1.71,3.27-4.3,5.3-3.7,5.61s4.17-1.2,5.88-4.47c1.71-3.27.92-7.07.32-7.38Z"/>
                <path class="cls-11" d="M254.24,129.16c-.21-.18-.6,1.11-1.6,2.26s-2.23,1.71-2.02,1.89,1.78-.08,2.78-1.22c1-1.14,1.05-2.74.84-2.92Z"/>
                <path class="cls-11" d="M195.55,140.51c.92,1,4.5-.95,10.06-1.89,5.56-.94,10.29-.18,10.06-1.52-.23-1.34-4.04-5.07-11.11-4.48-8.82.73-9.89,6.94-9.01,7.9Z"/>
                <path class="cls-11" d="M213.17,155.73c.61-.09,1.25-2.13,2.86-4.69,1.61-2.56,3.44-4.29,2.97-4.59s-2.87.18-5.1,3.27c-2.78,3.85-1.31,6.1-.73,6.01Z"/>
                <path class="cls-11" d="M236.1,154.88c-.33-.13-.42-1.35-.98-2.99s-1.36-2.84-1.06-2.95,1.58.48,2.42,2.49c1.05,2.51-.07,3.57-.38,3.45Z"/>
                <path class="cls-11" d="M237.86,143.82c.34.36,1.98-.18,4.41-.34s4.42.23,4.39-.21-1.47-1.79-4.53-1.8c-3.82-.01-4.6,2.01-4.27,2.35Z"/>
                <path class="cls-11" d="M229.4,157.34c-.18.42-.43.83-.79,1.11s-.86.43-1.29.29c-.42-.13-.73-.5-.9-.91s-.22-.85-.26-1.29c-.11-1.01-.21-2.06.1-3.02.55-1.73,2.06-2.31,2.96-.58.69,1.34.79,3.01.19,4.4Z"/>
              </g>
              <g>
                <path class="cls-10" d="M257.39,129.89c-.32-2.1-1.22-4.23-2.79-5.69-.53-.66-1.65-.92-1.99-1.51-3.78-8.97-17.62-12.61-26.19-9.01-3.31,1.69-7.35.54-10.66.04-4.56-.76-9.15.18-13.12,2.57-.11.07-.26.03-.33-.09-.06-.11-.03-.25.07-.32,1.92-1.36,4.07-2.45,6.4-3.06,4.54-1.37,9.51.25,13.96.2,2.27-.2,4.28-1.55,6.56-1.94,2.35-.56,4.84-.68,7.23-.35,7.06,1.03,14.55,4.47,17.15,11.64,0,0-.27-.33-.27-.33,1.38.78,2.53,1.98,3.25,3.39.73,1.38,1.14,2.89,1.22,4.44,0,.13-.1.25-.23.25-.13,0-.24-.1-.25-.22h0Z"/>
                <path class="cls-10" d="M196.51,121.09c-3.1,3.76-4.71,8.26-6.2,12.81-.09.24-.47.18-.47-.08-.16-2.54.4-5.08,1.44-7.39,1.11-2.29,2.66-4.48,4.95-5.73.24-.13.48.2.28.39h0Z"/>
                <path class="cls-10" d="M248.36,159.43c-2.68,4.74-8.36,10.19-12.7,11.36-2.51,1.76-5.38,2.67-8.4,2.85-2.97.18-5.94-.52-8.62-1.76,0,0,.29.07.29.07-3.78-.6-6.97-2.85-9.88-5.18-.69-.58-2.06-1.82-2.69-2.47-.21-.2.08-.55.31-.36.96.73,1.92,1.46,2.9,2.15,2.93,1.95,6.13,3.94,9.66,4.39,4.91,2.19,10.99,2.07,15.51-.97,5.44-1.77,9.74-5.88,13.22-10.32.16-.24.57,0,.41.26h0Z"/>
                <path class="cls-10" d="M234.66,169.48c2.08-1.58,3.36-4.19,4.04-6.69.04-.14.18-.22.32-.18.13.04.2.16.19.28-.09.7-.21,1.41-.38,2.1-.18,1.22-2.68,7.33-4.33,5.79-.37-.38-.28-1.03.17-1.31h0Z"/>
                <path class="cls-10" d="M218.46,171.67c-1.03-1.42-1.49-3.14-1.51-4.85,0-.13.19-.15.22-.03.39,1.47,1.15,2.92,2.29,3.89.82.68-.33,1.82-1,.99h0Z"/>
                <circle class="cls-10" cx="229.02" cy="143.05" r="7.05"/>
                <path class="cls-10" d="M253.67,122.44c.29,2.64-.23,5.36-1.7,7.58-.09.14-.28.19-.42.09-.14-.09-.18-.26-.1-.4.62-1.07,1.03-2.24,1.2-3.46.18-1.19.18-2.48-.03-3.64-.13-.7.96-.87,1.05-.16h0Z"/>
                <path class="cls-10" d="M231.63,137.82c5.55-1.56,8.07-7.82,8.98-13.04.04-.33.57-.26.51.08-.81,5.65-3.3,12.19-9.3,14.01-.73.17-.93-.95-.19-1.05h0Z"/>
                <path class="cls-10" d="M228.87,137.53c3.47-4.91,3.81-12.55.06-17.41-.25-.23.13-.62.36-.36,4.16,5.12,3.99,13.04.4,18.44-.44.59-1.31-.11-.83-.67h0Z"/>
                <path class="cls-10" d="M226.4,133.62c-1.96-7.17-7.06-13.35-14.01-16.15-.17-.06-.09-.35.09-.29,5.64,1.38,10.35,5.59,12.66,10.89.77,1.76,1.35,3.59,1.56,5.5.02.18-.26.23-.3.05h0Z"/>
                <path class="cls-10" d="M224.03,139.4c-2.87-5.05-7.95-9.24-13.9-9.72-.34,0-.31-.55.03-.51,3.06.19,6.05,1.25,8.55,3.03,2.53,1.78,4.64,4.03,6.25,6.7.15.25.07.58-.18.73-.27.16-.62.05-.75-.23h0Z"/>
                <path class="cls-10" d="M224.42,144.4c-5.14-.52-11.08,1.37-13.35,6.38-.13.32-.62.1-.47-.21,1.65-3.95,5.62-6.39,9.75-7,1.38-.22,2.75-.32,4.18-.23.29.02.51.27.49.57-.02.31-.31.54-.61.49h0Z"/>
                <path class="cls-10" d="M234.69,141.64c3.08-2.14,6.99-2.41,10.58-1.78.14.02.23.16.21.29-.02.14-.15.23-.29.21-3.34-.43-7.09,0-9.81,2.08-.54.51-1.28-.36-.69-.81h0Z"/>
                <path class="cls-10" d="M233.7,145.96c3.46,1.64,5.4,5.29,5.85,8.95.02.14-.08.27-.22.29-.14.02-.27-.08-.29-.21-.57-3.32-2.53-6.7-5.72-8.03-.71-.22-.31-1.29.37-1h0Z"/>
                <path class="cls-10" d="M230.08,147.41c3.2,4.6,3.04,10.81.21,15.52-.06.13-.22.18-.34.11-.14-.07-.18-.24-.1-.36,2.51-4.49,2.52-10.43-.6-14.61-.48-.55.41-1.26.84-.66h0Z"/>
                <path class="cls-10" d="M222.02,150.72c-2.42,3.84-4.06,8.06-4.83,12.52-.02.14-.24.12-.24-.02-.08-4.61,1.76-9.27,4.89-12.65.1-.1.27.04.18.15h0Z"/>
                <path class="cls-10" d="M202.14,128.91c-3.66.28-7.32.85-10.47,2.81-.06.04-.14.02-.17-.04,2.39-2.93,7.05-3.55,10.66-3.01.14.02.12.24-.02.24h0Z"/>
                <path class="cls-10" d="M255.35,147.35c.69-2.08.81-4.26-.34-6.23-.04-.06-.03-.14.04-.18,2.19,1.23,2.08,4.76.51,6.52-.08.11-.26,0-.21-.12h0Z"/>
              </g>
            </g>
          </g>
        </g>
        <g>
          <path class="cls-11" d="M310.42,134.72c-5.9,41.24-12.98,80.33-20.94,117.84h-108.9l4.86-132.11c18.41,1.13,38.6,3.11,57.28,5.24l3.7,10.93-12.76-4.9,14.41,24.54-10.48-4.62,15.43,34.87-4.95-23.23,14.14,6.73-11.73-24.4,15.57,3.65-10.8-13.46,9.96,3.23-1.94-10.85c27.05,3.42,47.14,6.54,47.14,6.54Z"/>
          <path class="cls-13" d="M310.42,134.72c-5.9,41.24-12.98,80.33-20.94,117.84h-108.9l4.86-132.11c18.41,1.13,38.6,3.11,57.28,5.24l3.7,10.93-12.76-4.9,14.41,24.54-10.48-4.62,15.43,34.87-4.95-23.23,14.14,6.73-11.73-24.4,15.57,3.65-10.8-13.46,9.96,3.23-1.94-10.85c27.05,3.42,47.14,6.54,47.14,6.54Z"/>
        </g>
        <g>
          <path class="cls-5" d="M119.52,127.29c5.45,14.84,11.18,28.4,17.39,39.92h35.25c4.67-9.35,5.62-16.5,12.33-20.67l-.6,14.02s22.76,2.98,25.69,5.6c2.82,1.96,2.87,6.26-.41,7.42,5.78,2.63,4.95,10.67-3.46,10.67,4.51,3.05,3.86,8.06-.02,9.61-2.43,1.12-15.12,1.72-21.48,1.12-5.71-1.12-9.69-4.74-12.06-10.66,0,0-38.19.84-45.06-3.23s-17.39-39.55-17.39-39.55"/>
          <path class="cls-13" d="M119.52,127.29c5.45,14.84,11.18,28.4,17.39,39.92h35.25c4.67-9.35,5.62-16.5,12.33-20.67l-.6,14.02s22.76,2.98,25.69,5.6c2.82,1.96,2.87,6.26-.41,7.42,5.78,2.63,4.95,10.67-3.46,10.67,4.51,3.05,3.86,8.06-.02,9.61-2.43,1.12-15.12,1.72-21.48,1.12-5.71-1.12-9.69-4.74-12.06-10.66,0,0-38.19.84-45.06-3.23s-17.39-39.55-17.39-39.55"/>
          <path class="cls-10" d="M209.09,175.07c-4.05-.6-8.07-1.19-12.08-2.02-.25-.05-.41-.3-.36-.55.05-.23.26-.38.48-.37,4.03.15,8.1.05,12.13-.04.83-.02,1.52.63,1.54,1.46.04.92-.8,1.66-1.71,1.53h0Z"/>
          <path class="cls-10" d="M205.66,185.74s-2.5-.34-5.06-.69l-5.37-.73c-.54-.06-.51-.91.04-.93,0,0,10.51-.63,10.51-.63,2.17-.05,2.05,3.19-.11,2.98h0Z"/>
        </g>
        <g>
          <path class="cls-5" d="M315.64,183.85c-7.69,14.68-18.68,14.12-18.68,14.12-8.88.28-12.62-13.7-4.3-10.37-9.25-4.77-6.38-12.46-.93-10.57-4.93-1.74-4.76-8.88.57-9.44,5.42-.38,10.84-1.96,13.52-2.51l2.18-13.97c3.83-.11,5.61,2.77,6.54,6.57,0,0,4.11-11.43,0-14.41l-1.67-18.89c23.77,10.74,10.45,44.8,2.77,59.47Z"/>
          <path class="cls-13" d="M315.64,165.73c-.59-6.79-1.3-14.82-7.64-14.63l-2.19,13.97c-2.68.55-8.1,2.14-13.52,2.51-5.33.56-5.49,7.7-.56,9.44-5.45-1.89-8.32,5.8.93,10.56-8.32-3.32-4.58,10.66,4.3,10.38,0,0,11,.56,18.68-14.12,7.68-14.68,21.01-48.74-2.76-59.47"/>
          <path class="cls-10" d="M313.13,157.17c1.36-3.5,4.17-10.47,1.18-13.59-.37-.29.06-.88.45-.62,3.35,2.56,2.45,7.73,2.01,11.37-.22,1.3-.47,2.54-.83,3.86-.22.8-1.04,1.27-1.84,1.05-.88-.23-1.36-1.24-.97-2.07h0Z"/>
        </g>
      </g>
    </g>
  </g>
</svg>