<?xml version="1.0" encoding="UTF-8"?>
<svg id="Layer_2" data-name="Layer 2" xmlns="http://www.w3.org/2000/svg" viewBox="0 0 553.76 520.45">
  <defs>
    <style>
      .cls-1 {
        fill: #ffa799;
      }

      .cls-1, .cls-2, .cls-3, .cls-4, .cls-5, .cls-6, .cls-7, .cls-8, .cls-9, .cls-10, .cls-11, .cls-12, .cls-13, .cls-14, .cls-15, .cls-16, .cls-17, .cls-18 {
        stroke-width: 0px;
      }

      .cls-2 {
        fill: #4aeaff;
      }

      .cls-3 {
        fill: #59a3fc;
        opacity: .63;
      }

      .cls-4 {
        opacity: .56;
      }

      .cls-4, .cls-5, .cls-7, .cls-8, .cls-10, .cls-12, .cls-18 {
        fill: #fff;
      }

      .cls-5 {
        opacity: .6;
      }

      .cls-6 {
        fill: #ffd1b8;
      }

      .cls-7 {
        opacity: .3;
      }

      .cls-8 {
        opacity: .67;
      }

      .cls-9 {
        fill: #f9a7ce;
      }

      .cls-19, .cls-12 {
        opacity: .4;
      }

      .cls-10 {
        opacity: .64;
      }

      .cls-11 {
        fill: #76beff;
        opacity: .58;
      }

      .cls-13 {
        fill: #74f943;
      }

      .cls-14 {
        fill: #40c9ff;
      }

      .cls-15 {
        fill: #2cafff;
      }

      .cls-16 {
        fill: #ffc4d6;
      }

      .cls-17 {
        fill: #720000;
      }

      .cls-20 {
        stroke: #1e7000;
      }

      .cls-20, .cls-21 {
        fill: none;
        stroke-linecap: round;
        stroke-linejoin: round;
        stroke-width: 4.87px;
      }

      .cls-21 {
        stroke: #720000;
      }
    </style>
  </defs>
  <g id="Layer_1-2" data-name="Layer 1">
    <g>
      <ellipse class="cls-15" cx="321.04" cy="402.78" rx="232.72" ry="45.3"/>
      <ellipse class="cls-15" cx="173.15" cy="481.04" rx="85.89" ry="27.83"/>
      <ellipse class="cls-15" cx="390.14" cy="493.06" rx="97.1" ry="23.43"/>
      <g>
        <g>
          <g>
            <path class="cls-6" d="M17.88,124.19c-12.6,0-10.05,13.02-1.48,15.67-9.96,0-11.11,13.44,0,20.15-9.43-1.4-11.11,10.78,0,16.09"/>
            <path class="cls-21" d="M17.88,124.19c-12.6,0-10.05,13.02-1.48,15.67-9.96,0-11.11,13.44,0,20.15-9.43-1.4-11.11,10.78,0,16.09"/>
          </g>
          <g>
            <g>
              <path class="cls-2" d="M92.27,93.25c0,2.66-1.08,5.08-2.82,6.82-1.74,1.75-4.15,2.83-6.82,2.83h-4.31v83.24c0,17.1-13.87,30.97-30.97,30.97s-30.96-13.87-30.96-30.97v-83.24h-4.32c-5.32,0-9.64-4.32-9.64-9.65,0-2.66,1.08-5.08,2.82-6.82,1.75-1.75,4.17-2.83,6.82-2.83h70.56c5.33,0,9.64,4.32,9.64,9.65Z"/>
              <path class="cls-14" d="M47.35,207.97c-12.03,0-21.81-9.79-21.81-21.82v-83.24c0-5.05-4.09-9.14-9.14-9.14h-4.32c-.27,0-.5-.23-.5-.51,0-.14.05-.26.14-.35.11-.11.23-.16.36-.16h70.56c.27,0,.5.23.5.51,0,.14-.05.26-.14.35-.15.16-.3.16-.35.16h-4.31c-5.05,0-9.14,4.09-9.14,9.14v83.24c0,12.03-9.79,21.82-21.83,21.82Z"/>
              <path class="cls-13" d="M69.18,126.14v60.01c0,12.03-9.8,21.83-21.83,21.83s-21.81-9.8-21.81-21.83v-60.01c15.01-2.09,27.91,12.19,43.64,0Z"/>
              <path class="cls-21" d="M92.27,93.25c0,2.66-1.08,5.08-2.82,6.82-1.74,1.75-4.15,2.83-6.82,2.83h-4.31v83.24c0,17.1-13.87,30.97-30.97,30.97s-30.96-13.87-30.96-30.97v-83.24h-4.32c-5.32,0-9.64-4.32-9.64-9.65,0-2.66,1.08-5.08,2.82-6.82,1.75-1.75,4.17-2.83,6.82-2.83h70.56c5.33,0,9.64,4.32,9.64,9.65Z"/>
              <path class="cls-20" d="M69.18,126.14v60.01c0,12.03-9.8,21.83-21.83,21.83s-21.81-9.8-21.81-21.83v-60.01c15.01-2.09,27.91,12.19,43.64,0Z"/>
              <rect class="cls-4" x="28.9" y="107.37" width="19.77" height="82.11" rx="9.88" ry="9.88"/>
            </g>
            <g>
              <circle class="cls-13" cx="28.9" cy="34.27" r="13.23"/>
              <circle class="cls-20" cx="28.9" cy="34.27" r="13.23"/>
              <ellipse class="cls-8" cx="26.13" cy="30.23" rx="5.85" ry="4.25" transform="translate(-12.1 18.6) rotate(-32.24)"/>
            </g>
            <g>
              <circle class="cls-13" cx="59.34" cy="12.34" r="9.9"/>
              <circle class="cls-20" cx="59.34" cy="12.34" r="9.9"/>
              <ellipse class="cls-8" cx="57.26" cy="9.31" rx="4.38" ry="3.18" transform="translate(3.86 31.98) rotate(-32.24)"/>
            </g>
          </g>
          <path class="cls-6" d="M185.46,270.6l-21.55,13.15s-57.62-7.88-62.37-17.07c-4.75-9.2-3.85-79.44-3.85-79.44-7,7.13-18.86,3.3-18.86,3.3v-47.99c-12.42,9-23.73.1-19.67-8.1.97-1.96,2.8-3.3,4.87-3.96,6.54-2.08,14.8-10.83,14.8-10.83,0,0,4.13-2.73,11.48,2.51,7.34,5.25,25.6,15.5,24.35,33.26l1.69,88.42,69.12,26.75Z"/>
          <path class="cls-1" d="M79.32,149.87s2.38,11.13,9.52,11.41c7.14.28,15.81,20.01-8.26,21.41"/>
          <path class="cls-21" d="M78.83,142.56v47.99s11.86,3.83,18.86-3.31c0,0-.91,70.24,3.85,79.44,4.76,9.2,62.38,17.07,62.38,17.07l21.55-13.16-69.13-26.75-1.68-88.41c1.26-17.75-17-28.01-24.35-33.26-7.35-5.25-11.48-2.52-11.48-2.52,0,0-8.26,8.76-14.81,10.83-2.08.66-3.91,2-4.87,3.95-4.26,8.64,8.48,18.03,21.64,6.56,0,0-2.86,22.11,13.13,22.11"/>
        </g>
        <g>
          <g>
            <path class="cls-17" d="M354.46,113.51s5.25,5.14,11.1,6.64c9.75,2.5,16.1-8.01,9.92-15.06-7.72-8.83-16.77-4.56-16.77-4.56-3.07-6.4,1.68-16.65,15.48-18.2,14.65-1.65,27.32,12.84,27.32,12.84-8.92-25.3-38.43-26.89-50.29-14.1-11.86,12.78-3.73,24.68-3.73,24.68-21.08,16.68-18.03,35.05-18.03,35.05l13.08.43c-3.13-15.93,11.92-27.71,11.92-27.71ZM368.16,107.99c3.49,1.65,1.47,4.8-1.07,3.82-2.78-1.08-4.45-3.86-4.45-3.86,0,0,2.16-1.55,5.51.05Z"/>
            <path class="cls-18" d="M372.51,76.19c-3.77-.89-7.83-.49-11.36,1.11-3.53,1.6-6.5,4.4-8.31,7.82,2.98-3.66,7.75-6.03,12.47-6.16-3.81,1.77-6.76,5.18-8.35,9.07,4.16-5.39,11.38-8.39,18.16-7.78-2.08-1.37-4.56-2.27-7.05-2.4,1.46-1.25,2.51-1.74,4.43-1.67Z"/>
            <path class="cls-18" d="M347.52,111.42c-2.65.93-5.15,2.87-7,5.41-1.84,2.54-3.02,5.68-3.28,8.78.95-3.74,3.39-7.31,6.39-9.34-1.98,2.77-2.98,6.33-2.98,9.65,1.26-5.4,5.1-10.43,9.61-12.78-1.69-.09-3.52.31-5.15,1.24.61-1.46,1.16-2.23,2.41-2.96Z"/>
          </g>
          <path class="cls-17" d="M391.89,114.64c-1.44.13-2.29-1.55-1.34-2.64,3.21-3.67,9.77-9.38,19.37-9.09,12.12.37,18.67,6.92,20.66,11.92.48,1.2-.65,2.43-1.9,2.09-5.14-1.37-17.87-3.94-36.79-2.29Z"/>
          <path class="cls-17" d="M294.74,107.07c1.08.41,2.11-.7,1.61-1.74-1.68-3.53-5.52-9.36-12.99-11.21-9.44-2.34-15.92,1.3-18.53,4.73-.63.82-.03,2.02,1.01,2.03,4.26.05,14.65.83,28.91,6.2Z"/>
          <path class="cls-6" d="M392.15,454.25c-81.88,10.46-121.91-38.56-121.91-38.56-36.83,26.87-151.26,1.69-151.15-95.5.08-67.79,42.74-99.22,72.07-112.81,0,0,.02,0,.02-.01,15.35-7.12,27.05-9.34,27.05-9.34l7.65-11.88c.37-2.41.85-4.7,1.42-6.87,7.98-30.83,33.68-37.95,33.68-37.95h0c.13-.18,1.93-2.4,5.06-5.36h0s.08-.08.17-.17c.28-.25.56-.52.86-.79.13-.12.28-.25.44-.39,7.38-6.65,20.38-15.75,35.65-15.21,22.98.81,35.08,23.08,35.08,23.08,0,0,19.02-20.69,48-13.85,31.89,7.51,43.47,42.6,47.68,67.07,0,.02,0,.02,0,.04.87,5.05,1.42,9.66,1.77,13.46.62,6.68.62,10.93.62,10.93,10.97,7.75,21.46,17.18,30.6,28.51,5.28,6.55,10.11,13.75,14.31,21.63,2.14,4.01,4.12,8.2,5.91,12.59.96,2.36,1.88,4.76,2.72,7.23,1.03,2.95,1.97,5.98,2.82,9.08,1.12,4.06,2.09,8.28,2.89,12.62.59,3.19,1.09,6.45,1.5,9.79,6.32,51.88-23.16,122.23-104.94,132.68Z"/>
          <path class="cls-5" d="M495.59,311.78c-15.68-56.16-59.47-81.2-59.47-81.2l-.41-21.39c.62,6.68.62,10.93.62,10.93,10.97,7.75,21.46,17.18,30.6,28.51,13.43,16.66,23.91,37.45,28.65,63.15Z"/>
          <path class="cls-12" d="M424.2,322.86c-6.96,2.64-15.11,2.18-20.35-1.76-3.57-2.69-5.59-6.66-7.51-10.53-6.3-12.65-12.59-25.3-18.89-37.96-2.89-5.8-5.81-12.31-3.33-18.81,2.61-6.86,10.89-11.59,18.74-12.3,7.85-.71,15.2,1.92,21.44,5.51,20.3,11.69,48.48,61.2,9.91,75.85Z"/>
          <path class="cls-12" d="M166.33,279.26c4.89,4.25,12.06,5.97,18.15,3.75,4.15-1.52,7.48-4.62,10.69-7.65,10.51-9.92,21.02-19.83,31.54-29.75,4.82-4.55,9.96-9.73,10.47-16.33.54-6.97-4.64-13.48-11.07-16.19-6.44-2.71-13.8-2.25-20.59-.61-22.12,5.34-66.29,43.22-39.18,66.79Z"/>
          <path class="cls-1" d="M313.08,201.35s-40.52-21.94-85.77-22.08c7.98-30.83,33.68-37.95,33.68-37.95h0c14.71-13.1,31.77-12.64,44-6.74,12.23,5.9,24.5,18.41,24.5,18.41,0,0-12.83,13.6-16.41,48.36Z"/>
          <path class="cls-1" d="M318.04,181.97c6.44-18.23,25.84-42.35,56.25-37.87,30.4,4.48,41.27,42.43,35.97,68.51,0,0-47.1-22.45-97.01-14.55,0,0-.83-.19,4.79-16.1Z"/>
          <path class="cls-5" d="M433.94,195.68c-7.36-28.02-23.68-52.66-48.49-60.13-24.83-7.47-50.14,9.93-50.14,9.93-32.19-37.54-61.07-16.68-67.79-10.88,7.38-6.65,20.38-15.75,35.65-15.21,22.98.81,35.08,23.08,35.08,23.08,0,0,19.02-20.69,48-13.85,31.89,7.51,43.47,42.6,47.68,67.07Z"/>
          <path class="cls-1" d="M233.59,185.66s16.53,39.07,83.52,26.8c0,0,55.7,27.63,88.9,5.34,0,0-55.9,6.34-92.93-16.45,0,0-40.65,12.91-79.49-15.69Z"/>
          <path class="cls-1" d="M471.29,399.24c-12.27,18.54-36.15,41.81-80.11,47.44-14.53,1.85-28.69,1.86-42.06.02-48.33-6.65-83.04-38.14-83.04-38.14,0,0-17.42,12.45-48.96,8.56-23.12-2.85-45.42-13.41-61.33-28.07-19.33-17.81-29.11-40.98-29.08-68.85.03-28.28,7.91-52.51,23.4-72,1.39-1.72-23.62,50.04-4,93.76,23.06,51.39,85.37,59.36,115.66,44.54,0,0,67.52,56.62,141.29,33.6,70.98-22.15,80.37-108.02,78.9-132.79,3.91,9.25,6.86,29.49,7.56,35.17,3.16,26.03-3.64,54.73-18.23,76.76Z"/>
          <path class="cls-21" d="M392.15,454.25c-81.88,10.46-121.91-38.56-121.91-38.56-36.83,26.87-151.26,1.69-151.15-95.5.12-103.31,99.15-122.17,99.15-122.17l7.65-11.88c.37-2.41.85-4.7,1.42-6.87,7.98-30.83,33.68-37.95,33.68-37.95h0c.42-.58,18.58-22.77,42.17-21.93,22.98.82,35.08,23.08,35.08,23.08,0,0,19.02-20.69,48-13.85,50.06,11.8,50.08,91.51,50.08,91.51,29.1,20.57,54.84,52.86,60.76,101.45,6.32,51.88-23.16,122.23-104.94,132.68Z"/>
          <path class="cls-17" d="M339.86,144.3c-4.69,4.61-8.53,10.22-11.76,15.94-7.49,13.33-11.44,28.47-12.71,43.67.63,8.02,18.45,16.43,25.53,19.07,18.87,7.05,40.62,9.93,59.78,2.4.4-.17.87.03,1.03.43.16.39-.02.84-.4,1.02-6.38,2.94-13.3,4.63-20.29,5.36-20.8,1.82-43.01-3.37-60.55-14.88-4.33-3.15-10.32-7.8-9.93-14.06,1.12-15.85,5.08-31.67,13.01-45.56,3.54-6.22,7.79-12.19,13.1-17.06,2.48-2.05,5.59,1.49,3.19,3.68h0Z"/>
          <g>
            <g>
              <path class="cls-18" d="M410.42,211.44c-9.85-3.84-19.76-6.67-29.31-8.74-6.69-1.45-13.19-2.52-19.36-3.3-4.44-.57-8.7-.99-12.72-1.29-.74-.05-1.49-.12-2.22-.16-19.88-1.33-33.57.12-33.57.12.76-4.69,4.77-17.72,14.42-28.1,6.28-6.75,14.96-12.37,26.7-13.81,5.02-.61,10.59-.47,16.77.67,42.28,7.8,39.29,54.61,39.29,54.61Z"/>
              <path class="cls-21" d="M410.42,211.43c-9.84-3.84-19.76-6.67-29.31-8.73-6.68-1.45-13.19-2.52-19.35-3.31-4.43-.57-8.69-.99-12.72-1.3-.75-.06-1.49-.11-2.22-.16-19.89-1.33-33.57.12-33.57.12,1.46-9.04,14.99-49.15,57.89-41.24,42.28,7.8,39.28,54.61,39.28,54.61Z"/>
            </g>
            <g>
              <path class="cls-18" d="M324.19,161.07c-5.13,9.56-9.98,22.91-11.1,40.28-.16-.1-4.61-2.93-12.97-6.54-4.78-2.06-10.84-4.39-18.09-6.6-3.12-.95-6.48-1.88-10.03-2.77-1.38-.34-2.8-.68-4.25-1.01-11.51-2.59-25.05-4.61-40.43-5.17,2.63-11.69,8.62-20.15,14.86-26.1,8.26-7.85,16.93-11.27,18.81-11.86,2.26-.71,4.66-1.27,7.14-1.69,17.79-3,40.4,1.79,56.05,21.45Z"/>
              <path class="cls-21" d="M313.09,201.35c-.16-.1-4.62-2.92-12.97-6.53-4.78-2.07-10.84-4.39-18.1-6.6-3.12-.95-6.47-1.88-10.03-2.77-1.38-.34-2.79-.68-4.24-1.01-11.51-2.59-25.05-4.61-40.43-5.18,6.08-27.13,30.37-36.93,33.68-37.95,18.47-5.74,45.35-2.64,63.19,19.76-5.13,9.56-9.97,22.9-11.1,40.27Z"/>
            </g>
            <g>
              <path class="cls-17" d="M357.26,173.76c1.94,10.27-4.51,20.1-14.44,21.98-9.91,1.88-19.52-4.92-21.46-15.19-.18-.95-.29-1.9-.33-2.85,4.92-7.8,12.39-14.94,23.66-18.53,6.23,2.06,11.22,7.5,12.56,14.58Z"/>
              <circle class="cls-18" cx="344.09" cy="171.74" r="7.38"/>
              <circle class="cls-7" cx="333.12" cy="183.88" r="4.41"/>
            </g>
            <g>
              <path class="cls-17" d="M273.2,157.64c2.01,10.25-4.39,20.15-14.28,22.08-9.9,1.94-19.55-4.81-21.56-15.06-.23-1.15-.35-2.31-.37-3.45,6.59-9.29,14.45-14.32,16.18-15.25,2.08-1.13,4.33-2.14,6.69-3.03,6.55,1.85,11.91,7.37,13.34,14.72Z"/>
              <circle class="cls-18" cx="260.03" cy="155.71" r="7.38"/>
              <circle class="cls-7" cx="249.14" cy="167.91" r="4.41"/>
            </g>
          </g>
          <path class="cls-17" d="M247.35,207.99c13.8,6.47,28.91,11.15,44.27,10.34,2.15,0,4.44-.42,6.58-.57.54-.1.78.72.23.89-1.61.51-3.25,1-4.89,1.44-11.74,2.47-24.12.3-34.98-4.52-4.13-1.85-8.11-4.03-11.71-6.81-.43-.33.01-1.05.5-.77h0Z"/>
          <path class="cls-17" d="M228.25,185.48c1.21,5.59,3.71,11.38,8.12,15.23.32.26.37.73.09,1.04-.23.26-.62.32-.91.14-2.81-1.62-5.19-3.94-7.14-6.53-1.99-2.69-3.58-5.4-4.85-8.56-1.15-3.36,3.9-4.8,4.69-1.32h0Z"/>
          <path class="cls-17" d="M438.77,220.11c-.4,7.05-1.05,14-2.04,20.97-.24,1.56-2.56,1.35-2.52-.22.2-6.89.07-13.87-.31-20.74-.09-3.39,4.94-3.41,4.87,0h0Z"/>
          <path class="cls-17" d="M268.45,417.33c-8.51-11.99-8.34-28.38-5.49-42.22.1-.51.9-.41.82.14,0,0-.45,5.23-.45,5.23-.41,8.54.45,17.39,3.76,25.31,1.26,2.95,2.81,5.9,4.95,8.27,2.35,2.44-1.36,5.86-3.6,3.28h0Z"/>
        </g>
        <g>
          <path class="cls-16" d="M295.13,354.25c-6.48,2.66-12.16,5-17.67,5.85-11.08,1.71-21.47-2.6-36.31-22.39-15.1-20.13-12.76-44.65-6.55-54.1,1.64-2.5,3.55-3.95,5.49-3.98l3.62-4.74c.28-.21.55-.42.83-.63.24-.19.48-.37.72-.56,4.17-3.22,8.34-6.28,20.6-6.86,12.99-.61,16.81,7.44,27.86,6.63,11.05-.81,24.02,2.07,34.76,21.67,10.74,19.59-13.83,51.09-33.36,59.1Z"/>
          <path class="cls-9" d="M323.3,323.32c-6.58-5.3-27.25-8.55-33.47-10.63-.26-.09-.5-.17-.74-.26-4.43-1.65-4.71-7.82-.48-9.93,9.63-4.82,19.08-3.91,19.08-3.91-7.25-3.5-15.47-2.12-20.45-.67-1.82.53-3.37-1.42-2.42-3.06,4.7-8.11,12.91-13.53,12.91-13.53-12.38-.08-19.9,14.05-23.39,13.59-3.48-.46-.67-11.13-.67-11.13-3.85,5.18-3.68,15.34-3.68,15.34-8.97,5.26-11.47-23.84-11.47-23.84-2.27,15.67,2.75,25.26,2.75,25.26-21.83-.52-16.46-24.19-16-26.84.03-.15.04-.22.04-.22,0,0-.3.28-.76.78-1.79,1.95-6.03,7.28-4.91,12.99,1.41,7.18,9.89,15.34,9.89,15.34-16.49-3.5-16.67-15.81-14.73-19.06,0,0-.06.02-.19.07-6.21,9.45-8.55,33.97,6.55,54.1,14.85,19.79,25.23,24.1,36.31,22.39,3.62-2.18,6.26-4.1,6.26-4.1,5.68-6.76,4.65-18.91,2.54-25.08-2.1-6.17-9.8-13.57-9.8-13.57,0,0,7.48-1.35,14.43,4.22,6.94,5.58,9.56,18.48,9.56,18.48,1.52-3.84,2.47-12.36-3.35-20.3,16.44,3.74,26.2,3.57,26.2,3.57ZM257.03,339.63c-3.96-.85-3.94-10.27-.31-14.96,3.63-4.69,10.08-6.57,10.08-6.57-4.13-1.29-3.36-1.54-14.05-.48-13.68,1.35-13.87-7.62-9.47-9.62,2.48-1.14,8.26-1.77,13.58.69,5.32,2.46,9.58,5.68,9.58,5.68l.36,3.74,2.66,1.8c-10.36,4.63-8.47,20.59-12.43,19.73ZM272.02,344.97c-3.95.4-7.82-1.54-7.55-9.84.28-8.3,6.62-16.45,6.62-16.45,11.15,14.3,4.88,25.88.93,26.29Z"/>
          <g>
            <g class="cls-19">
              <path class="cls-18" d="M320.26,291.99c.16,1.65-7.44-.94-16.43-.06s-15.94,4.89-16.1,3.24c-.16-1.65,6.54-8.34,15.52-9.21,8.98-.88,16.85,4.38,17.01,6.04Z"/>
              <path class="cls-18" d="M270.77,272.37c.99.25-2.08,4.1-3.43,9.46-1.35,5.36-.48,10.21-1.46,9.96-.99-.25-3.46-5.5-2.1-10.86,1.35-5.36,6.02-8.81,7-8.56Z"/>
              <path class="cls-18" d="M287.16,278.12c.47.42-2.32,1.65-4.61,4.21-2.28,2.56-3.2,5.47-3.67,5.05-.47-.42-.32-4.01,1.97-6.57,2.28-2.56,5.84-3.11,6.31-2.69Z"/>
              <path class="cls-18" d="M248.52,279.48c.96-.34.55,4.56,2.41,9.77s5.27,8.75,4.32,9.09-5.93-2.65-7.78-7.86c-1.86-5.21.1-10.67,1.06-11.01Z"/>
              <path class="cls-18" d="M237.1,289.21c.35-.23.66,1.77,1.91,3.68s2.95,2.99,2.6,3.22-2.63-.49-3.87-2.39-.99-4.28-.64-4.51Z"/>
              <path class="cls-18" d="M321.73,318.28c-1.57,1.29-6.48-2.35-14.51-4.9-8.04-2.56-15.21-2.42-14.59-4.36.62-1.94,7.04-6.67,17.4-4.33,12.93,2.92,13.21,12.35,11.7,13.59Z"/>
              <path class="cls-18" d="M292.43,337.17c-.88-.25-1.41-3.42-3.26-7.55s-4.21-7.08-3.44-7.42,4.22.87,6.88,5.91c3.33,6.28.67,9.31-.18,9.07Z"/>
              <path class="cls-18" d="M258.62,331.13c.51-.12.9-1.92,2.08-4.23,1.18-2.31,2.61-3.93,2.18-4.15s-2.44.38-4.1,3.18c-2.08,3.5-.65,5.31-.16,5.19Z"/>
              <path class="cls-18" d="M258.32,314.36c-.58.46-2.9-.69-6.47-1.42s-6.6-.57-6.47-1.23,2.55-2.35,7.09-1.72c5.67.78,6.4,3.94,5.84,4.38Z"/>
              <path class="cls-18" d="M268.04,336.17c.18.66.46,1.32.94,1.82s1.18.81,1.86.7c.65-.11,1.19-.6,1.53-1.16s.5-1.22.66-1.86c.37-1.48.74-3,.48-4.5-.46-2.68-2.57-3.86-4.26-1.47-1.31,1.84-1.8,4.3-1.21,6.49Z"/>
            </g>
            <g>
              <path class="cls-17" d="M231.56,289.51c.89-4.58,3.76-8.93,8.26-10.66,0,0-.48.44-.48.44,5.35-10.1,17.17-13.62,27.85-13.68,3.62.02,7.28.71,10.65,2.03,3.29,1.05,6,3.47,9.32,4.24,3.16.62,6.7.32,10.23.5,7.14.06,14.26,2.97,19.34,7.99.14.14.15.37.01.51-.13.14-.34.15-.49.03-2.74-2.11-5.69-3.93-8.91-5.02-3.21-1.1-6.58-1.56-10-1.53-3.42-.05-6.91.47-10.65-.19-3.55-.64-6.39-3.12-9.75-4.2-3.13-1.2-6.45-1.79-9.8-1.86-9.71.03-21.09,2.93-26.3,11.86-.09.21-.27.37-.48.44-.98.34-1.93.78-2.79,1.39-2.64,1.83-4.42,4.81-5.32,7.85-.07.44-.8.33-.71-.14h0Z"/>
              <path class="cls-17" d="M324.86,288.78c6.02,4.81,8.1,13.44,6.73,20.79-.07.39-.67.38-.72,0-1.24-7.02-2.73-14.1-6.51-20.26-.25-.32.18-.77.5-.52h0Z"/>
              <path class="cls-17" d="M240.15,335.01c4.24,7.3,9.77,14.29,17.44,18.05,2.91,2.61,6.83,4.48,10.71,5.23,4.01.84,8.17.47,12.12-.56,5.33.04,10.43-2.22,15.19-4.49,0,0,2.38-1.26,2.38-1.26l2.36-1.32c.17-.11.4-.05.5.13.09.16.04.36-.1.47-1.09.83-3.34,2.37-4.51,3.09-4.77,2.85-10.02,5.56-15.72,5.62,0,0,.44-.04.44-.04-1.07.26-2.12.59-3.21.79-5.44,1.08-11.27.39-16.24-2.13-2.01-1.01-3.84-2.18-5.55-3.83,0,0,.34.24.34.24-6-3.01-10.49-8.24-13.86-13.92-1.1-1.88-2.12-3.79-2.95-5.82-.14-.4.41-.72.65-.3h0Z"/>
              <path class="cls-17" d="M255.9,354.85c-2.74-3.62-3.6-8.08-3.55-12.49,0-.21.18-.39.39-.39.2,0,.36.16.38.35.47,3.85,1.84,7.98,4.59,10.75,1.37,1.23-.62,3.17-1.81,1.77h0Z"/>
              <path class="cls-17" d="M279.99,358.02c1.9-1.2,3.34-3.19,4.21-5.29.03-.08.13-.13.21-.09.07.03.11.1.1.18-.4,2.53-1.43,4.99-3.26,6.88-1.16,1.08-2.63-.84-1.27-1.68h0Z"/>
              <circle class="cls-17" cx="271.59" cy="315.06" r="10.56"/>
              <path class="cls-17" d="M240.86,279.87c-1.09,3.43-1.12,7.35.26,10.71.24.54-.58.93-.83.38-1.29-2.67-1.7-5.69-1.45-8.63.09-.99.23-1.94.51-2.96.11-.42.55-.68.98-.56.46.12.71.62.54,1.06h0Z"/>
              <path class="cls-17" d="M268.31,308.28c-8.47-3.89-10.85-14.19-10.86-22.7-.01-.5.76-.53.77-.01.28,7.95,2.65,17.7,10.59,21.2,1.06.31.55,1.9-.5,1.51h0Z"/>
              <path class="cls-17" d="M271.59,307.74c-4.19-8.64-2.76-20.64,4.44-27.25.4-.32.89.29.47.61-6.57,6.43-7.66,17.81-3.54,25.82.59.93-.82,1.79-1.37.82h0Z"/>
              <path class="cls-17" d="M277,301.5c2.81-10.36,11.69-19.19,22.39-20.99.7-.13,1.41-.24,2.11-.34.12-.02.24.07.26.19.02.12-.06.23-.18.25-10.89,2.71-19.72,10.78-24.14,21.02-.08.26-.51.14-.43-.13h0Z"/>
              <path class="cls-17" d="M278.46,309.75c5.44-6.59,13.53-11.57,22.26-11.39,0,0,1.71.06,1.71.06.48.01.48.77-.01.76,0,0-.04,0-.04,0,0,0-1.66,0-1.66,0-.94-.05-2.35.17-3.29.26,0,0-1.61.35-1.61.35-6.42,1.55-12.1,5.78-16.09,10.94-.63.83-1.92-.14-1.26-.98h0Z"/>
              <path class="cls-17" d="M278.16,316.44c7.67.6,15.93,4.51,18.64,12.14,0,0,.51,1.47.51,1.47.16.45-.55.72-.72.26-.2-.5-.63-1.65-.82-2.13-3.09-6.64-10.68-9.84-17.65-10.16-1.08,0-1.05-1.64.04-1.59h0Z"/>
              <path class="cls-17" d="M262.28,312.86c-3.61-3.66-9.09-5.08-14.13-5.14-.48-.01-.47-.77.02-.76,4.07-.16,8.22.5,11.86,2.41.79.5,4.61,2.36,3.46,3.55-.33.35-.9.31-1.2-.07h0Z"/>
              <path class="cls-17" d="M264.39,319.96c-5.01,1.32-8.61,5.92-10.15,10.72-.14.49-.89.27-.73-.22,1.44-5.34,5.07-10.34,10.54-12.05,1.08-.28,1.45,1.35.34,1.55h0Z"/>
              <path class="cls-17" d="M270.21,322.46c-5.5,5.56-6.72,14.35-3.94,21.54.2.47-.54.78-.71.28-2.32-5.65-2.54-12.21.14-17.79.87-1.87,1.95-3.59,3.41-5.17.3-.32.8-.34,1.12-.04.35.32.33.88-.02,1.19h0Z"/>
              <path class="cls-17" d="M280.66,327.7c3.94,5.66,5.69,12.95,4.61,19.77-.03.21-.36.19-.36-.03-.22-6.76-1.78-13.39-4.55-19.55-.1-.19.18-.37.31-.19h0Z"/>
              <path class="cls-17" d="M314.4,299.35c5.57-.09,11.75,1.86,15.18,6.47.13.17-.11.39-.27.24-4.25-3.56-9.61-5.18-14.94-6.35-.21-.03-.19-.36.02-.36h0Z"/>
              <path class="cls-17" d="M231.32,316.07c-1.97-3.01-1.36-7.76,1.93-9.58.18-.1.36.14.22.29-2.1,2.61-2.39,5.97-1.81,9.16.04.19-.24.3-.34.13h0Z"/>
            </g>
          </g>
        </g>
        <g>
          <path class="cls-2" d="M408.38,416.08l8.52,79.4c.91,8.48-5.23,16.09-13.71,17l-50.69,5.44c-8.48.91-16.09-5.23-17-13.71l-8.52-79.4,81.4-8.74Z"/>
          <path class="cls-14" d="M351.53,508.83c-3.45.37-6.57-2.14-6.94-5.59l-8.52-79.4,63.22-6.79,8.52,79.4c.37,3.45-2.14,6.57-5.59,6.94l-50.69,5.44Z"/>
          <path class="cls-13" d="M404.83,468.6l2.99,27.86c.37,3.45-2.13,6.56-5.59,6.93l-50.7,5.44c-3.45.37-6.56-2.13-6.93-5.59l-2.99-27.86c29.04.48,44.25-25.02,63.22-6.79Z"/>
          <path class="cls-20" d="M404.83,468.6l2.99,27.86c.37,3.45-2.13,6.56-5.59,6.93l-50.7,5.44c-3.45.37-6.56-2.13-6.93-5.59l-2.99-27.86c29.04.48,44.25-25.02,63.22-6.79Z"/>
          <path class="cls-21" d="M408.38,416.08l8.52,79.4c.91,8.48-5.23,16.09-13.71,17l-50.69,5.44c-8.48.91-16.09-5.23-17-13.71l-8.52-79.4,81.4-8.74Z"/>
          <path class="cls-10" d="M344.72,420.35h21.55v67.04c0,5.95-4.83,10.78-10.78,10.78h0c-5.95,0-10.78-4.83-10.78-10.78v-67.04h0Z" transform="translate(-46.99 40.57) rotate(-6.13)"/>
          <path class="cls-2" d="M416.05,406.49c.26,2.39-.48,4.66-1.89,6.4-1.38,1.71-3.42,2.92-5.78,3.18l-81.4,8.74c-4.77.47-9.02-2.99-9.53-7.74-.26-2.39.47-4.66,1.87-6.4,1.4-1.73,3.46-2.93,5.86-3.19l81.27-8.72c4.78-.51,9.08,2.94,9.59,7.73Z"/>
          <path class="cls-10" d="M365.63,411.9c.26,2.39-.48,4.66-1.89,6.4-1.38,1.71-3.42,2.92-5.78,3.18l-14.69,1.58c-4.77.47-9.02-2.99-9.53-7.74-.26-2.39.47-4.66,1.87-6.4,1.4-1.73,3.46-2.93,5.86-3.19l14.56-1.56c4.78-.51,9.08,2.94,9.59,7.73Z"/>
          <path class="cls-21" d="M416.05,406.49c.26,2.39-.48,4.66-1.89,6.4-1.38,1.71-3.42,2.92-5.78,3.18l-81.4,8.74c-4.77.47-9.02-2.99-9.53-7.74-.26-2.39.47-4.66,1.87-6.4,1.4-1.73,3.46-2.93,5.86-3.19l81.27-8.72c4.78-.51,9.08,2.94,9.59,7.73Z"/>
        </g>
        <g>
          <path class="cls-6" d="M438.62,457.85c3.68,27.1-9.76,34.74-27.61,37.38-19.5,4.61-21.84-1.59-20.57-10.08-16.71-1.14-19.2-7.08-15.37-15.14-4.98-4.48-5.04-9.26-1.57-14.26,8.99-8.2,30.07-7.98,36.3-16.6l1.72-6.43-2.51-11.01s4.92-10.35,25.06,9.22c0,0,38.91-15.78,43.95-21.93,5.04-6.15-24.07-54.86-24.07-54.86l18.47-23.51s34.29,60.32,35.14,79.21c.77,17.45-59.67,44.06-68.94,48.03Z"/>
          <path class="cls-21" d="M472.43,330.61s34.29,60.32,35.13,79.21c.84,18.89-70.12,48.54-70.12,48.54"/>
          <path class="cls-6" d="M436.99,449.1c7.97,34.27-6.34,43.23-25.98,46.12-19.51,4.62-21.85-1.59-20.57-10.07-16.71-1.15-19.2-7.08-15.38-15.15-4.98-4.48-5.04-9.26-1.56-14.26,8.99-8.21,30.06-7.98,36.3-16.6l1.72-6.44-2.5-11s7.02-8.96,25.06,9.21"/>
          <path class="cls-1" d="M433.31,432.16s-12.18-8.4-14.8-6.82.94,18.89.94,18.89c9.08,27.46,2,41.64-16.7,46.29,0,0,13.45-.84,25.94-8.08,12.49-7.24,7.77-36,8.29-37.37.52-1.36-3.67-12.91-3.67-12.91Z"/>
          <path class="cls-17" d="M438.32,448.79c4.25,15.48,5.56,35.68-11.3,44.13-4.73,2.5-11.23,3.91-15.5,4.49-11.29,2.77-26.04,3.79-23.3-12.59,0,0,2.06,2.56,2.06,2.56-11.09-.56-23.81-4.67-17.24-18.33,0,0,.52,2.62.52,2.62-3.67-3.05-5.93-8.47-4.03-13.12.53-1.52,1.29-2.86,2.14-4.09,2.8-2.84,6.46-4.4,9.81-5.72,6.34-2.39,13.04-3.66,19.22-6.08,2.95-1.17,5.73-2.71,7.29-4.82l-.35.73,1.72-6.44s-.02,1.07-.02,1.07l-2.5-11c-.14-.49-.08-1.03.16-1.45,2.02-3.6,5.88-4.3,8.79-3.92,8.12,1.42,14.17,7.27,19.85,12.49,0,0-2.4-.47-2.4-.47,12.57-5.25,25.28-10.57,37.18-17.16,2.11-1.25,4.22-2.44,5.77-3.99.18-.21.05-.04.09-.09.04-.06.11-.42.11-.81-.42-5.26-2.93-10.32-5.05-15.34-5.68-12.41-12.39-24.42-19.3-36.2-.63-1.06-.28-2.43.79-3.06s2.43-.28,3.06.79c7.01,11.96,13.75,24.02,19.52,36.63,1.88,4.26,3.74,8.51,4.93,13.29.68,2.75,1.13,6.56-1.61,8.57-5.7,4.56-12.11,7.28-18.48,10.45-8.36,3.94-16.79,7.58-25.32,11.08-.85.35-1.78.13-2.4-.47-5.05-4.66-10.55-9.97-17.28-11.26-1.65-.26-3.44.24-4.2,1.4,0,0,.16-1.45.16-1.45l2.5,11c.08.36.07.74-.02,1.07l-1.72,6.44c-1.95,3.69-6.03,5.56-9.6,7.09-9,3.75-19.75,4.39-27.35,10.58,0,0,.33-.37.33-.37-1.35,1.95-2.21,4.06-1.98,5.97.19,1.92,1.45,3.77,3.2,5.35.75.68.93,1.75.52,2.62-1.17,2.63-2.08,5.2-.55,7.47,3.3,3.73,9.26,3.97,14.06,4.48,1.3.08,2.26,1.28,2.06,2.56-.34,2.24-.42,4.51.23,6.06,2.32,5.16,13.12,2.42,17.62,1.5,5.07-.78,10.08-1.97,14.45-4.18,14.87-7.1,13.46-25.69,10.72-39.48-.31-1.72,2.22-2.27,2.67-.59h0Z"/>
          <path class="cls-17" d="M375.16,467.77c6.15.3,12.31-.75,18.37-1.81.51-.1,1.01.24,1.11.76.09.47-.19.93-.63,1.08-3.03,1-6.1,1.93-9.23,2.71-3.27.79-6.51,1.56-9.91,1.73-3.21-.05-2.91-4.83.29-4.47h0Z"/>
          <path class="cls-17" d="M389.98,482.96l10.51-.69c1.14-.08,1.42,1.6.32,1.89,0,0-9.92,3.18-9.92,3.18l-.08.03c-3.23.87-4.17-4.02-.84-4.4h0Z"/>
        </g>
        <g>
          <path class="cls-11" d="M487.71,175.98s-2.38,16.14-4.37,20.24c-1.98,4.08-27.01-17.58-33.6-15.3-6.56,2.28-3.96,1.77-18.2,29.67-7.99,15.68-21.94,22.94-39.84,24.04-10.08.63-21.43-.71-33.68-3.61-4.2-.98-8.5-2.15-12.9-3.48-5.38-1.64-9.72-4.18-13.22-7.34-17.08-15.47-13.67-45.92-11.24-58.91.63-3.38-1.61-6.62-4.99-7.21h0c-3.09-.54-6.09,1.33-6.96,4.34-3.84,13.25-14.65,47.15-25.95,52.11-1.56.68-6.97,1.15-9.06,1.44-5.58.8-12.76.31-20.05-1.07-14.43-2.71-29.28-8.85-32.95-15.05-6.22-10.48.07-66.98.07-66.98l6.14.71,20.47,2.37,81.14,9.37,33.77,3.91,63.69,7.36,2.88.33,58.84,23.07Z"/>
          <path class="cls-12" d="M273.71,211.96c-5.58.8-12.76.31-20.05-1.07l-26.74-81.32,20.47,2.37,26.31,80.02Z"/>
          <path class="cls-12" d="M391.71,234.62c-10.08.63-21.43-.71-33.68-3.61l-29.5-89.69,33.77,3.91,29.41,89.4Z"/>
          <path class="cls-3" d="M487.71,175.98s-2.38,16.14-4.37,20.24c-1.98,4.08-27.01-17.58-33.6-15.3-6.56,2.28-3.96,1.77-18.2,29.67-14.05,27.57-46.47,29.09-86.41,16.95-5.38-1.64-9.72-4.18-13.22-7.34l.09-1.11s58.18,17.81,74.12-.33c11.68-13.26,17.55-48.32,19.86-66.16l2.88.33,58.84,23.07Z"/>
          <path class="cls-21" d="M220.78,128.87l208.09,24.05,58.83,23.06s-2.38,16.15-4.37,20.24c-1.98,4.09-27.01-17.58-33.59-15.3-6.56,2.27-3.97,1.76-18.2,29.66-14.06,27.57-46.47,29.09-86.41,16.95-31.73-9.65-27.38-50.58-24.46-66.24.63-3.38-1.61-6.63-5-7.22h0c-3.09-.54-6.09,1.33-6.96,4.34-3.84,13.25-14.65,47.14-25.95,52.11-13.99,6.16-55.83-4.19-62.05-14.67-6.22-10.49.07-66.98.07-66.98Z"/>
          <path class="cls-17" d="M427.67,152.87c-2.59,16.07-5.4,32.09-9.36,47.89-.75,2.83-1.51,5.69-2.77,8.37-1.71,3.43-4.08,6.55-6.97,9.05-2.51,2.24-5.29,4.08-8.37,5.46-.33.15-.71,0-.86-.33-.14-.31-.01-.67.28-.84,2.63-1.71,5.1-3.78,7.23-6.06,2.12-2.3,3.98-4.81,5.25-7.58,2.44-5.65,3.31-12.28,4.53-18.4,1.99-11.07,4.46-27.04,6.23-38.31.54-3.14,5.23-2.48,4.81.74h0Z"/>
        </g>
        <g>
          <path class="cls-13" d="M187.29,487.2c8.53,1.49,14.49,4.86,14.49,8.76,0,5.29-10.91,9.59-24.35,9.59s-24.36-4.3-24.36-9.59c0-2.04,1.62-3.92,4.36-5.46-.61.01-1.23.01-1.84.01-30.76,0-55.7-8.35-55.7-18.65s24.94-18.65,55.7-18.65,55.71,8.35,55.71,18.65c0,6.36-9.5,11.98-24.01,15.33Z"/>
          <path class="cls-20" d="M187.29,487.2c8.53,1.49,14.49,4.86,14.49,8.76,0,5.29-10.91,9.59-24.35,9.59s-24.36-4.3-24.36-9.59c0-2.04,1.62-3.92,4.36-5.46-.61.01-1.23.01-1.84.01-30.76,0-55.7-8.35-55.7-18.65s24.94-18.65,55.7-18.65,55.71,8.35,55.71,18.65c0,6.36-9.5,11.98-24.01,15.33Z"/>
          <ellipse class="cls-10" cx="151.79" cy="463.46" rx="21.36" ry="4.72"/>
          <ellipse class="cls-10" cx="170.37" cy="493.06" rx="8.03" ry="3.25"/>
        </g>
      </g>
    </g>
  </g>
</svg>