<?xml version="1.0" encoding="UTF-8"?>
<svg id="Layer_2" data-name="Layer 2" xmlns="http://www.w3.org/2000/svg" viewBox="0 0 398.25 351.95">
  <defs>
    <style>
      .cls-1 {
        fill: #ffa799;
      }

      .cls-1, .cls-2, .cls-3, .cls-4, .cls-5, .cls-6, .cls-7, .cls-8, .cls-9, .cls-10, .cls-11 {
        stroke-width: 0px;
      }

      .cls-2 {
        fill: #ef8eb3;
      }

      .cls-3 {
        opacity: .6;
      }

      .cls-3, .cls-5, .cls-8, .cls-11 {
        fill: #fff;
      }

      .cls-4 {
        fill: #ffd1b8;
      }

      .cls-5 {
        opacity: .3;
      }

      .cls-6 {
        fill: #f9a7ce;
      }

      .cls-12 {
        fill: #ffb012;
      }

      .cls-12, .cls-13 {
        stroke-width: 5px;
      }

      .cls-12, .cls-13, .cls-14, .cls-15 {
        stroke: #720000;
        stroke-linecap: round;
        stroke-linejoin: round;
      }

      .cls-7 {
        fill: #ffaec9;
      }

      .cls-8 {
        opacity: .4;
      }

      .cls-13, .cls-14, .cls-15 {
        fill: none;
      }

      .cls-9 {
        fill: #ffc4d6;
      }

      .cls-10 {
        fill: #720000;
      }

      .cls-14 {
        stroke-width: 2.86px;
      }

      .cls-15 {
        stroke-width: 2.96px;
      }
    </style>
  </defs>
  <g id="Layer_1-2" data-name="Layer 1">
    <g>
      <g>
        <path class="cls-11" d="M120.98,37.67h145.38c20.18,0,36.57,16.39,36.57,36.57v261.21c0,20.18-16.39,36.57-36.57,36.57H120.98c-20.18,0-36.57-16.39-36.57-36.57V74.24c0-20.18,16.39-36.57,36.57-36.57Z" transform="translate(398.52 11.18) rotate(90)"/>
        <g>
          <rect class="cls-12" x="13.41" y="82.94" width="382.34" height="266.51" rx="75.34" ry="75.34"/>
          <rect class="cls-11" x="2.5" y="71.59" width="382.34" height="266.51" rx="65.57" ry="65.57"/>
          <path class="cls-7" d="M360.85,132.15v64.98c0,9.72-3.78,18.54-9.96,25.09-6.67,7.07-16.13,11.48-26.61,11.48H63.06c-8.57,0-16.47-2.95-22.71-7.9-8.44-6.7-13.86-17.05-13.86-28.67v-64.98c0-20.19,16.38-36.57,36.58-36.57h261.21c20.2,0,36.57,16.38,36.57,36.57Z"/>
          <path class="cls-2" d="M350.89,222.22c-6.67,7.07-16.13,11.48-26.61,11.48H63.06c-8.57,0-16.47-2.95-22.71-7.9,29.81-26.45,89.11-44.47,157.41-44.47s122.16,16.41,153.13,40.89Z"/>
          <rect class="cls-13" x="2.5" y="71.59" width="382.34" height="266.51" rx="65.57" ry="65.57"/>
        </g>
        <rect class="cls-13" x="2.5" y="71.59" width="382.34" height="266.51" rx="65.57" ry="65.57"/>
        <path class="cls-13" d="M161.18-2.53h64.98c20.18,0,36.57,16.39,36.57,36.57v261.21c0,20.18-16.39,36.57-36.57,36.57h-64.98c-20.18,0-36.57-16.39-36.57-36.57V34.04c0-20.18,16.39-36.57,36.57-36.57Z" transform="translate(358.32 -29.02) rotate(90)"/>
      </g>
      <g>
        <g>
          <g>
            <g>
              <path class="cls-10" d="M220.31,24.34s3.29,2.79,6.78,3.43c5.81,1.06,9.09-5.36,5.19-9.23-4.89-4.85-10.01-1.98-10.01-1.98-2.06-3.62.3-9.82,8.31-11.3,8.51-1.57,16.53,6.39,16.53,6.39-6.27-14.44-23.62-14.16-30.03-6.18-6.42,7.97-1.17,14.61-1.17,14.61-11.65,10.64-9.11,21.27-9.11,21.27l7.68-.29c-2.49-9.2,5.84-16.72,5.84-16.72ZM228.11,20.53c2.11.82,1.06,2.75-.47,2.28-1.68-.51-2.76-2.08-2.76-2.08,0,0,1.2-.99,3.23-.2Z"/>
              <path class="cls-11" d="M229.34,1.73c-2.25-.36-4.61.04-6.61,1.12-2,1.08-3.62,2.84-4.54,4.92,1.6-2.27,4.29-3.85,7.05-4.12-2.16,1.19-3.74,3.31-4.51,5.66,2.21-3.33,6.32-5.39,10.31-5.31-1.27-.72-2.77-1.14-4.23-1.11.8-.79,1.4-1.12,2.53-1.16Z"/>
              <path class="cls-11" d="M216.16,23.4c-1.51.66-2.9,1.89-3.87,3.46s-1.53,3.45-1.56,5.28c.4-2.23,1.68-4.42,3.35-5.73-1.04,1.71-1.48,3.83-1.34,5.77.51-3.22,2.56-6.32,5.1-7.88-1,.02-2.05.33-2.97.94.3-.88.59-1.35,1.29-1.83Z"/>
            </g>
            <path class="cls-10" d="M242.27,23.44c-.84.13-1.41-.81-.9-1.49,1.73-2.28,5.34-5.9,10.97-6.12,7.11-.28,11.22,3.28,12.59,6.12.33.68-.28,1.45-1.02,1.31-3.06-.59-10.63-1.57-21.64.18Z"/>
            <path class="cls-10" d="M185.07,23.03c.65.19,1.2-.5.87-1.09-1.13-2-3.62-5.25-8.07-6.03-5.62-.98-9.27,1.42-10.66,3.54-.33.51.07,1.18.68,1.15,2.5-.14,8.61-.12,17.19,2.44Z"/>
            <path class="cls-4" d="M256.47,222.31c-47.52,9.51-72.98-17.54-72.98-17.54-20.46,17.26-88.51,7.24-92.47-49.68-2.76-39.7,20.93-59.87,37.54-69.05,0,0,0,0,.01,0,8.7-4.8,15.46-6.59,15.46-6.59l3.99-7.27c.12-1.43.3-2.79.54-4.08,3.4-18.38,18.15-23.62,18.15-23.62h0c.07-.11,1.03-1.48,2.74-3.35h0s.04-.05.09-.11c.15-.16.31-.33.47-.5.07-.08.15-.16.24-.25,4.05-4.2,11.28-10.07,20.25-10.38,13.49-.47,21.5,12.07,21.5,12.07,0,0,10.28-12.9,27.54-10.1,18.99,3.08,27.22,23.15,30.7,37.31,0,0,0,.01,0,.02.72,2.92,1.23,5.6,1.59,7.81.64,3.89.82,6.38.82,6.38,6.75,4.09,13.28,9.17,19.1,15.43,3.36,3.62,6.49,7.63,9.27,12.08,1.42,2.26,2.75,4.63,3.98,7.13.66,1.34,1.3,2.71,1.89,4.12.72,1.69,1.4,3.42,2.02,5.2.82,2.33,1.56,4.76,2.21,7.27.48,1.84.91,3.73,1.28,5.67,5.85,30.12-8.51,72.54-55.97,82.04Z"/>
            <path class="cls-3" d="M311.16,134.61c-11.5-32.24-38.18-45.1-38.18-45.1l-1.12-12.51c.64,3.89.82,6.38.82,6.38,6.75,4.09,13.28,9.17,19.1,15.43,8.55,9.2,15.55,20.94,19.39,35.79Z"/>
            <path class="cls-8" d="M269.81,144.05c-3.96,1.83-8.76,1.9-11.99-.19-2.2-1.43-3.55-3.67-4.83-5.86-4.21-7.15-8.42-14.3-12.63-21.45-1.93-3.28-3.91-6.97-2.73-10.88,1.25-4.13,5.9-7.24,10.46-7.98s8.98.5,12.78,2.34c12.37,6,30.92,33.84,8.94,44.01Z"/>
            <path class="cls-8" d="M116.99,129.18c3.04,2.29,7.31,3,10.78,1.45,2.37-1.06,4.19-3.02,5.95-4.92,5.75-6.24,11.49-12.48,17.24-18.73,2.63-2.86,5.43-6.11,5.45-10,.03-4.1-3.27-7.7-7.15-9.02s-8.18-.75-12.08.49c-12.73,4.04-37.03,28.05-20.18,40.73Z"/>
            <path class="cls-1" d="M199.71,77.48s-24.64-11.17-51.14-9.39c3.4-18.38,18.15-23.62,18.15-23.62h0c8.07-8.28,18.08-8.72,25.49-5.77,7.41,2.95,15.11,9.77,15.11,9.77,0,0-6.95,8.49-7.61,29Z"/>
            <path class="cls-1" d="M201.81,65.93c3.02-10.94,13.38-25.87,31.37-24.5,17.99,1.37,25.93,23.14,23.9,38.64,0,0-28.51-11.2-57.41-4.51,0,0-.49-.08,2.14-9.63Z"/>
            <path class="cls-3" d="M270.25,69.17c-5.47-16.1-16.04-29.86-30.88-33.21-14.85-3.35-28.95,7.89-28.95,7.89-20.4-20.65-36.45-7.24-40.15-3.57,4.05-4.2,11.28-10.07,20.25-10.38,13.49-.47,21.5,12.07,21.5,12.07,0,0,10.28-12.9,27.54-10.1,18.99,3.08,27.22,23.15,30.7,37.31Z"/>
            <path class="cls-1" d="M152.51,71.59s11.29,22.2,50.02,12.24c0,0,33.76,13.88,52.28-.55,0,0-32.48,6.02-55.1-5.79,0,0-23.27,9.24-47.2-5.9Z"/>
            <path class="cls-1" d="M300.55,186.83c-6.42,11.36-19.44,25.98-44.95,31.09-8.44,1.69-16.72,2.28-24.63,1.75-28.58-1.89-50.2-18.9-50.2-18.9,0,0-9.68,8.01-28.32,7.04-13.66-.71-27.15-5.97-37.08-13.9-12.05-9.63-18.74-22.8-19.88-39.12-1.15-16.56,2.46-31.08,10.73-43.13.74-1.07-11.76,30.28,1.53,55.07,15.63,29.14,52.45,31.23,69.57,21.3,0,0,41.88,30.37,84.13,13.83,21.71-8.5,30.4-22.68,33.78-34.28,2.88-9.89,8.82-32.3,6.93-46.74,2.67,5.26,5.24,16.99,5.88,20.28,2.93,15.11.13,32.2-7.5,45.7Z"/>
            <path class="cls-14" d="M256.47,222.31c-47.52,9.51-72.98-17.54-72.98-17.54-20.46,17.26-88.51,7.24-92.47-49.68-4.2-60.51,53.01-75.64,53.01-75.64l3.99-7.27c.12-1.43.3-2.79.54-4.08,3.4-18.38,18.15-23.62,18.15-23.62h0c.22-.36,9.94-14.1,23.79-14.59,13.49-.47,21.5,12.07,21.5,12.07,0,0,10.28-12.9,27.54-10.1,29.8,4.84,33.11,51.52,33.11,51.52,17.89,10.84,34.3,28.69,39.77,56.9,5.85,30.12-8.51,72.54-55.97,82.04Z"/>
            <path class="cls-10" d="M213.03,42.97c-8.28,9.79-11.65,23.09-11.86,35.74-.03.72.28,1.38.73,1.97,5.8,6.7,18.1,9.67,26.71,10.69,7.91.77,16.16.07,23.4-3.43.23-.12.51-.02.63.21.11.22.02.49-.2.61-11.02,5.9-24.36,5.64-36.19,2.49-5.57-1.64-16.17-5.25-17.85-11.53-.04-.28-.11-.73-.1-1.01,0-9.33,1.67-18.76,5.73-27.22,1.85-3.85,4-7.35,6.96-10.53.54-.57,1.45-.6,2.02-.05.6.56.59,1.51,0,2.08h0Z"/>
            <g>
              <g>
                <path class="cls-11" d="M257.13,79.36c-5.92-1.84-11.85-3.09-17.53-3.9-3.97-.57-7.83-.93-11.47-1.14-2.62-.15-5.13-.22-7.5-.23-.44,0-.87,0-1.31,0-11.7.05-19.65,1.46-19.65,1.46.48-5.35,6.74-29.4,32.19-26.55,25.08,2.82,25.26,30.35,25.26,30.35Z"/>
                <path class="cls-14" d="M257.13,79.36c-5.92-1.84-11.85-3.09-17.53-3.9-3.97-.57-7.83-.93-11.47-1.14-2.62-.15-5.13-.22-7.5-.23-.44,0-.87,0-1.31,0-11.7.05-19.65,1.46-19.65,1.46.48-5.35,6.74-29.4,32.19-26.55,25.08,2.82,25.26,30.35,25.26,30.35Z"/>
                <g>
                  <path class="cls-10" d="M240.3,72.32c-.07,1.11-.31,2.16-.69,3.14-3.97-.57-7.83-.93-11.47-1.14-2.62-.15-5.13-.22-7.5-.23-.44,0-.87,0-1.31,0-.25-1.02-.34-2.08-.27-3.18.39-5.86,5.46-10.3,11.32-9.92,5.87.39,10.3,5.46,9.92,11.32Z"/>
                  <circle class="cls-11" cx="232.85" cy="68.67" r="4.33"/>
                  <path class="cls-5" d="M228.15,74.15c0,.06,0,.12-.02.18-2.62-.15-5.13-.22-7.5-.23,0-.14,0-.3,0-.44.14-2.07,1.93-3.65,4.01-3.51,2.07.14,3.65,1.93,3.51,4.01Z"/>
                </g>
              </g>
              <g>
                <path class="cls-11" d="M199.71,77.48c-.1-.05-2.83-1.52-7.86-3.29-2.89-1.01-6.53-2.12-10.87-3.12-1.87-.43-3.87-.84-5.99-1.2-.82-.14-1.66-.28-2.53-.41-6.85-1.04-14.86-1.66-23.89-1.36,2.44-16.14,16.26-22.88,18.15-23.62,10.58-4.12,26.45-3.42,37.82,8.96-2.61,5.81-4.89,13.82-4.83,24.04Z"/>
                <g>
                  <path class="cls-10" d="M193.53,69.14c-.12,1.87-.72,3.59-1.68,5.05-2.89-1.01-6.53-2.12-10.87-3.12-1.87-.43-3.87-.84-5.99-1.2-.82-.14-1.66-.28-2.53-.41-.06-.56-.06-1.13-.03-1.71.39-5.82,5.42-10.23,11.25-9.84,5.82.39,10.23,5.42,9.85,11.24Z"/>
                  <circle class="cls-11" cx="186.22" cy="66.98" r="4.33"/>
                  <path class="cls-5" d="M181.23,70.04c-.02.37-.11.72-.25,1.04-1.87-.43-3.87-.84-5.99-1.2,0-.08,0-.16,0-.25.11-1.72,1.61-3.03,3.33-2.91s3.03,1.61,2.91,3.33Z"/>
                </g>
                <path class="cls-14" d="M199.71,77.48c-.1-.05-2.83-1.52-7.86-3.29-2.89-1.01-6.53-2.12-10.87-3.12-1.87-.43-3.87-.84-5.99-1.2-.82-.14-1.66-.28-2.53-.41-6.85-1.04-14.86-1.66-23.89-1.36,2.44-16.14,16.26-22.88,18.15-23.62,10.58-4.12,26.45-3.42,37.82,8.96-2.61,5.81-4.89,13.82-4.83,24.04Z"/>
              </g>
            </g>
            <path class="cls-10" d="M161.49,84.09c8.65,3.38,18.03,5.4,27.32,4.13.92-.17,1.94-.38,2.87-.52.15-.04.31.06.33.22.02.13-.05.25-.17.29-7.41,3.21-16.01,2.54-23.48-.15-.63-.11-9.1-3.8-6.87-3.98h0Z"/>
            <path class="cls-10" d="M149.37,71.7c.94,3.22,2.64,6.51,5.39,8.58.2.14.24.41.1.6-.12.17-.35.22-.53.13-1.71-.83-3.2-2.09-4.45-3.53-1.28-1.49-2.32-3.01-3.2-4.81-.34-.72-.04-1.57.68-1.92.8-.4,1.8.08,2.01.95h0Z"/>
            <path class="cls-10" d="M274.09,83.27c.06,4.14-.03,8.24-.33,12.37-.07.92-1.45.89-1.48-.03-.17-4.05-.53-8.13-1.04-12.13-.21-1.97,2.77-2.19,2.85-.21h0Z"/>
            <path class="cls-10" d="M182.5,205.81c-5.52-6.81-6.04-16.16-4.96-24.5.03-.3.52-.27.49.05,0,0-.05,3.08-.05,3.08.15,5.99,1.33,12.19,4.74,17.19.5.74,1.18,1.59,1.79,2.14,1.47,1.34-.64,3.5-2.01,2.04h0Z"/>
          </g>
          <g>
            <path class="cls-11" d="M179.42,241.44c-26.36-2.15-53.65-1.79-81.46,0l-39.18-94.89s51.05-1.09,81.23-.47l39.41,95.36Z"/>
            <path class="cls-14" d="M179.42,241.44c-26.36-2.15-53.65-1.79-81.46,0l-39.18-94.89s51.05-1.09,81.23-.47l39.41,95.36Z"/>
            <g>
              <path class="cls-11" d="M134.16,174.03l31.21,75.56c-26.37-2.15-53.64-1.8-81.46,0l-39.19-94.89s38.7-.82,68.11,0l21.33,19.33Z"/>
              <path class="cls-14" d="M134.16,174.03l31.21,75.56c-26.37-2.15-53.64-1.8-81.46,0l-39.19-94.89s38.7-.82,68.11,0l21.33,19.33Z"/>
              <path class="cls-10" d="M134.16,175.46h-22.92c-.87,0-1.5-.77-1.42-1.62.77-5.22,1.09-10.57,1.28-15.86.05-1.15,1.75-1.15,1.81,0,.15,5.42.19,10.81-.25,16.24,0,0-1.42-1.62-1.42-1.62h22.92c1.87.03,1.89,2.83,0,2.86h0Z"/>
              <g>
                <path class="cls-10" d="M75.03,176.01l-7.09-11.63h-4.15l-1.44-2.37h11.12l1.44,2.37h-4.14l7.09,11.63h-2.83Z"/>
                <path class="cls-10" d="M94.99,176.01h-3.07l-3.16-3.18h-5.59l.78,3.18h-3l-3.08-13.99h2.99l14.13,13.99ZM86.41,170.47l-5.09-5.19,1.28,5.19h3.82Z"/>
                <path class="cls-10" d="M95.06,176.01l.33-7.3-8.41-6.69h3.3l5.55,4.5v-4.5h3.28l-.21,6.8,9.17,7.2h-3.41l-6.05-4.84-.16,4.84h-3.39Z"/>
              </g>
              <line class="cls-14" x1="87.61" y1="187.8" x2="111.24" y2="187.8"/>
              <line class="cls-14" x1="93.22" y1="229.01" x2="116.86" y2="229.01"/>
              <line class="cls-14" x1="91.39" y1="194.79" x2="123.67" y2="194.79"/>
              <line class="cls-14" x1="90.8" y1="221.49" x2="123.09" y2="221.49"/>
            </g>
            <g>
              <path class="cls-4" d="M67.09,215.54c8.5-1.36,8.84-9.76,1.1-11.26,8.81-3.19,8.05-12.56-2.82-10.67,7.36-.6,6.2-11.08-8.86-10.04l-2.68-6.5c-12.05,9.86-.99,40.01,13.26,38.47Z"/>
              <path class="cls-15" d="M67.09,215.54c8.5-1.36,8.84-9.76,1.1-11.26,8.81-3.19,8.05-12.56-2.82-10.67,7.36-.6,6.2-11.08-8.86-10.04l-2.68-6.5c-12.05,9.86-.99,40.01,13.26,38.47Z"/>
              <path class="cls-10" d="M65.46,195.08c-2.26-.23-4.48-.5-6.71-.98-.25-.05-.4-.3-.35-.54.04-.2.21-.34.4-.36,2.17-.2,4.37-.63,6.51-1.08,2.26-.36,2.44,3.09.15,2.96h0Z"/>
              <path class="cls-10" d="M68.43,205.74c-1.8.13-3.52.14-5.31.04-.59-.04-1.04-.55-1-1.14.03-.54.46-.96.98-1,1.62-.16,3.3-.45,4.87-.83,2.08-.43,2.58,2.69.47,2.93h0Z"/>
            </g>
          </g>
          <g>
            <path class="cls-4" d="M282.24,137.48v28.53l-26.29,27.05c-9.18-13.46-18.95-8.57-23.73-21.97-.85-2.37-3.07-4.1-5.59-4.02-5.8.19-8.72,10.58-.99,21.03-14.42,4.96-18.36,10.35-12.69,16.68-2.14,4.88-.79,8.84,3.94,11.91-.62,4.68,1.68,8.55,6.1,8.57,6.16.83,29.52-.91,31.86-9.55l3.79-7.76s36.92-28.1,39.71-39.11c2.79-11.01-2.8-28.82-2.8-28.82"/>
            <path class="cls-14" d="M282.24,137.48v28.53l-26.29,27.05c-9.18-13.46-18.95-8.57-23.73-21.97-.85-2.37-3.07-4.1-5.59-4.02-5.8.19-8.72,10.58-.99,21.03-14.42,4.96-18.36,10.35-12.69,16.68-2.14,4.88-.79,8.84,3.94,11.91-.62,4.68,1.68,8.55,6.1,8.57,6.16.83,29.52-.91,31.86-9.55l3.79-7.76s36.92-28.1,39.71-39.11c2.79-11.01-2.8-28.82-2.8-28.82"/>
            <path class="cls-1" d="M238.12,183.29s12.73,3.62,16.1,12.82c0,0-3.37,2.22,1.31,9.61l-2.71,7.56s-2.38,6.03-9.69,6.59c-7.31.56,13.39-16.78-5.01-36.58Z"/>
          </g>
        </g>
        <g>
          <path class="cls-9" d="M160.97,137.92s-1.37-15.86,6.87-21.37c8.24-5.51,23.35,1.77,23.35,1.77,0,0,19-5.81,27.31-1.89s1.71,27.14.56,30.69c-1.15,3.55-10.15,19.49-23.71,21.21-13.56,1.72-21.49-1.95-26.18-6.82s-7.85-18.13-8.03-20.86"/>
          <path class="cls-6" d="M206.43,140.43c2.27-3.41,12.28-5.48,12.28-5.48,0,0-5.55.52-8.91-2.44-3.37-2.97,2.26-10.67,2.26-10.67,0,0-6.03,3.82-10.89,5.37-4.85,1.55-10.92-3.52-10.92-3.52,0,0-4.62,5.32-7.83,4.32-3.11-.98-7.05-5.48-7.29-5.76.12.4,2.32,7.66.63,7.36,0,0-8.47-3.89-8.97-9.89l-.14-1.78c-1.1.98-2.04,2.18-2.81,3.61,0,0,0,0,0,.02-.66,1.45,4.17,4.58,4.33,4.72.16.12,5.05,4.18,3.87,7.21-1.06,2.77-8.83,2.78-11.07,3.28,0,.58.02,1.46.09,2.55h0c.06.92.16,1.99.31,3.16,1.23,9.31,5.99,25.41,24.37,26.75-1.06-.41-2.2-.79-3.4-1.12-4.72-1.31-6.07-4.04-6.3-6.35.46.87,3.79-5.81,5.8-6.27,2.25-.52,1.76,9.58,5.08,12.72.4.37.77.75,1.12,1.11.62,0,1.26,0,1.91-.03,1.04-.05,2.05-.13,3.03-.27,1.05-5,1.83-12.33,5.71-13.39,3.97-1.1,4.3,6.63,4.3,6.63,0,0,2.12-10.24-1.35-14.18,0,0,8.16,3.74,8.96,10.74,0,0,1.09-6.47-3.42-10.7,0,0-3-4.27-.73-7.69ZM163.55,144.6c-.04-2.53,3.99-3.48,4.45-3.58,1.74-.13,3.39.02,4.53.74,2.63,1.66-.3,2.61-2.61,3.27l-.51-.12s-5.81,2.36-5.86-.31ZM166.91,150.13c.35-3.72,5.35-4.49,5.44-4.51.32.02.6.06.76.14.51.26.16,1.66-.4,3.17h0c-1.55,2.58-6.17,4.96-5.8,1.2ZM175.98,161.1c-.02-1.8.57-3.21.57-3.21,0,0-6.16,3.45-6.31-.51-.13-3.96,4.86-5.48,4.86-5.48h0c.71-.18,1.37-.29,1.85-.23,1.91.24-.67,6.26-.98,9.43Z"/>
          <path class="cls-10" d="M189.44,131.66s-11.01-7.61-13.84.93c-2.83,8.54,4.4,27.01,16.66,21.58,12.26-5.42,23.18-32.6-2.82-22.51Z"/>
          <path class="cls-10" d="M164.21,152.85c4.98,11.06,14.37,16.35,26.37,15.73,3.69-.13,7.34-.86,10.8-2.18.12-.04.25.02.29.13.04.11,0,.23-.1.28-1.66.9-3.45,1.57-5.28,2.11-9.12,2.45-20.11,1.15-26.77-6.11-2.62-2.79-4.53-6.19-5.73-9.8-.08-.26.3-.42.42-.17h0Z"/>
          <path class="cls-10" d="M220.72,120.03c-3.86-7.99-22.78-2.49-29.7-1.28-1.09-.49-2.18-.97-3.27-1.49-.24-.11-.1-.5.16-.42,1.16.33,2.3.7,3.45,1.06h-.31c2.53-.92,5.1-1.67,7.72-2.26,6.42-1.24,14-2.73,19.94.88,1.14.82,2.08,2,2.44,3.35.07.26-.31.4-.43.15h0Z"/>
          <path class="cls-10" d="M161.88,127.89c-.04,2.43-.15,8.62-.19,10.96-.01,1.22-.02,2.44-.1,3.69,0,.25-.38.3-.45.06-.79-2.38-1.02-4.93-.98-7.41.06-2.49.36-5.02,1.27-7.38.08-.23.46-.16.44.09h0Z"/>
          <path class="cls-10" d="M189.01,133.96c-.7-4.42-.58-9.43,2.34-13.05.1-.12.27-.14.39-.04.11.09.13.24.06.36-.54.91-.93,1.89-1.16,2.91-.62,3.03-.18,6.31.76,9.2.52,1.66-2.02,2.34-2.39.63h0Z"/>
          <path class="cls-10" d="M202.17,132c2.41-4.66,5.99-8.92,10.88-11.01.14-.06.3,0,.36.14.06.13,0,.29-.13.36-2.16,1.24-3.97,2.98-5.42,4.99-1.42,1.95-2.64,4.23-3.43,6.47-.6,1.61-3,.62-2.28-.95h0Z"/>
          <path class="cls-10" d="M178.7,130.65c-.69-3.63-2.44-7.48-5.73-9.47-.28-.17-.05-.63.25-.49,1.94.77,3.59,2.18,4.87,3.82,1.3,1.71,2.29,3.5,3.01,5.57.22.65-.13,1.35-.78,1.57-.72.25-1.52-.24-1.62-1h0Z"/>
          <path class="cls-10" d="M189.25,154.15c-1.63,3.71-2.15,8.12-.98,12.05.09.32-.39.49-.52.18-1.42-3.02-1.79-6.46-1.44-9.76.3-1.25.13-4.68,2.18-4.22.74.21,1.11,1.06.76,1.74h0Z"/>
          <path class="cls-10" d="M179.29,148.51c-3.54.37-6.89,2.62-8.78,5.66-.18.28-.63.03-.48-.27,1.17-2.78,3.28-5.15,5.94-6.61,1.15-.49,3.75-2.31,4.46-.33.2.75-.37,1.52-1.14,1.55h0Z"/>
          <path class="cls-10" d="M175.37,139.37c-2.73-.91-5.8-1.03-8.67-.56-.15.03-.3-.07-.32-.22-.02-.13.05-.26.17-.31,2.98-1.15,6.2-1.68,9.43-1.29,1.79.31,1.11,2.98-.61,2.39h0Z"/>
          <path class="cls-10" d="M212.76,157.28c-1.48-3.64-3.67-6.91-6.47-9.66-.06-.06-.06-.15,0-.21,3.64,1.64,6.18,5.87,6.75,9.81.02.16-.23.22-.28.06h0Z"/>
          <path class="cls-10" d="M198.68,147.02c2.51,2.14,4.06,5.34,3.77,8.63,0,.15-.14.27-.29.26-.14,0-.25-.12-.26-.26-.32-2.75-2.18-5.29-4.57-6.58-1.6-.87-.09-3.18,1.35-2.06h0Z"/>
          <path class="cls-10" d="M203.24,136.62c3.34-2.42,7.43-3.12,11.43-2.86.33.02.58.3.56.63-.02.3-.26.54-.56.56-.92.05-1.84.12-2.73.29-2.52.45-5.23,1.52-7.08,3.24-1.26,1.17-2.96-.78-1.62-1.86h0Z"/>
          <path class="cls-10" d="M162.5,124.48c2.98-.46,6.49.66,8.09,3.35.04.07.02.16-.05.2-.06.03-.12.02-.17-.01-2.28-1.86-5-2.67-7.86-3.24-.16-.02-.16-.26,0-.28h0Z"/>
          <path class="cls-10" d="M164.36,148.23c1.6-2.35,4.31-3.97,7.14-4.21.15-.01.21.21.07.27-2.51,1.22-4.74,2.53-7.01,4.14-.12.09-.29-.07-.2-.2h0Z"/>
          <path class="cls-10" d="M179.12,155.6c-1.87,1.93-2.56,4.7-3.15,7.25-.02.08-.1.13-.17.11-.77-2.64.55-6.37,3.19-7.61.15-.07.27.15.14.25h0Z"/>
          <path class="cls-8" d="M182,125.02c-.63.54-1.71-1.6-3.45-3.62-1.74-2.02-3.46-3.15-2.84-3.68.63-.54,3.65.88,5.39,2.9s1.52,3.87.9,4.41Z"/>
          <path class="cls-8" d="M188.2,122.46c-.33.07-.79-.62-1.02-1.69-.22-1.07-.13-2.11.21-2.18s1.14,1.04,1.36,2.11c.22,1.07-.22,1.69-.55,1.76Z"/>
          <path class="cls-8" d="M210.19,120.74c.45.7-2.5,2.03-4.74,3.46-2.24,1.43-4.15,2.62-4.59,1.92s1.39-3.49,3.63-4.93,5.26-1.15,5.71-.46Z"/>
          <ellipse class="cls-8" cx="214.87" cy="128.56" rx="1.9" ry="3.5" transform="translate(84.67 342.45) rotate(-89.56)"/>
          <path class="cls-8" d="M217.11,144.71c-.64,1.27-2.46.37-4.81-.81-2.34-1.18-4.31-2.19-3.67-3.46.64-1.27,3.06-1.34,5.4-.16,2.34,1.18,3.72,3.17,3.08,4.44Z"/>
          <path class="cls-8" d="M199.76,162.27c-.01,1.73-.52,3-1.45,2.99s-1.67-1.42-1.65-3.15.78-3.13,1.7-3.12,1.41,1.55,1.4,3.28Z"/>
          <path class="cls-8" d="M207.43,155.71c.28,1.88-.08,3.5-.82,3.61s-.63-.61-.92-2.5c-.28-1.88-.85-4.21-.11-4.32s1.56,1.33,1.85,3.21Z"/>
          <path class="cls-8" d="M181.4,162.89c-.01,1.57,0,2.24-.68,2.24s-1.21-1.28-1.2-2.85c.01-1.57.57-2.83,1.24-2.83s.65,1.87.63,3.44Z"/>
          <path class="cls-8" d="M169.96,131.06c0,1.05-1.44,1.42-3.52,1.41s-4-.42-3.99-1.47c0-1.05,1.69-1.89,3.77-1.87s3.75.88,3.74,1.93Z"/>
          <path class="cls-10" d="M165,119.35c1.61-4.67,7.47-6.35,11.9-5.18.12.03.2.16.17.28-.02.1-.1.16-.19.17-4.18.56-8.62,1.51-11.46,4.92-.13.22-.49.06-.41-.19h0Z"/>
          <path class="cls-10" d="M222.22,127.2c1.24,8.9-.58,18.41-5.43,26.02-1.57,2.59-3.68,4.8-5.9,6.79-.09.08-.24.08-.32-.02-.08-.09-.07-.22,0-.31.66-.84,1.41-1.74,2.09-2.56,5.5-7.32,8.29-16.38,8.93-25.46.14-1.47.17-2.95.17-4.42,0-.26.42-.31.45-.04h0Z"/>
        </g>
      </g>
    </g>
  </g>
</svg>