<?xml version="1.0" encoding="UTF-8"?>
<svg id="Layer_2" data-name="Layer 2" xmlns="http://www.w3.org/2000/svg" viewBox="0 0 682 203.87">
  <defs>
    <style>
      .cls-1 {
        fill: #18d167;
      }

      .cls-1, .cls-2, .cls-3, .cls-4, .cls-5 {
        stroke-width: 0px;
      }

      .cls-6 {
        fill: none;
        stroke: #720000;
        stroke-linecap: round;
        stroke-linejoin: round;
        stroke-width: 8.27px;
      }

      .cls-2 {
        fill: #74f943;
      }

      .cls-3 {
        fill: #720000;
      }

      .cls-4 {
        fill: #fff;
      }

      .cls-5 {
        fill: #c4ff66;
      }
    </style>
  </defs>
  <g id="Layer_1-2" data-name="Layer 1">
    <g>
      <g>
        <g>
          <path class="cls-3" d="M62.05,169.52L104.51,40.76h42.97l42.46,128.76h-43.14l-7.87-23.99h-25.85l-7.87,23.99h-43.14ZM117.52,112.54h16.78l-8.39-24.59-8.39,24.59Z"/>
          <path class="cls-3" d="M200.04,169.52V40.76h52.39c11.64,0,21.74,2.17,30.3,6.5,8.56,4.33,15.18,11.27,19.86,20.79,4.68,9.53,7.02,22.16,7.02,37.89s-2.31,27.06-6.93,36.39c-4.62,9.33-11.19,16.19-19.69,20.59-8.5,4.4-18.69,6.6-30.56,6.6h-52.39ZM241.48,132.73h6.16c4.11,0,7.65-.67,10.62-2,2.97-1.33,5.25-3.93,6.85-7.8,1.6-3.86,2.4-9.53,2.4-16.99s-.74-13.03-2.23-16.69c-1.48-3.66-3.68-6.06-6.59-7.2-2.91-1.13-6.59-1.7-11.04-1.7h-6.16v52.38Z"/>
          <path class="cls-3" d="M374.5,171.52c-12.44,0-23.06-2.17-31.84-6.5-8.79-4.33-15.52-11.36-20.2-21.09-4.68-9.73-7.02-22.66-7.02-38.79s2.34-29.22,7.02-38.89c4.68-9.66,11.41-16.66,20.2-20.99,8.79-4.33,19.4-6.5,31.84-6.5s23.05,2.17,31.84,6.5c8.79,4.33,15.52,11.33,20.2,20.99,4.68,9.67,7.02,22.63,7.02,38.89s-2.34,29.06-7.02,38.79c-4.68,9.73-11.41,16.76-20.2,21.09-8.79,4.33-19.4,6.5-31.84,6.5ZM374.5,130.53c6.05,0,10.36-1.9,12.93-5.7,2.57-3.8,3.85-10.36,3.85-19.69s-1.28-15.9-3.85-19.69c-2.57-3.8-6.88-5.7-12.93-5.7s-10.36,1.9-12.93,5.7-3.85,10.37-3.85,19.69,1.28,15.89,3.85,19.69c2.57,3.8,6.88,5.7,12.93,5.7Z"/>
          <path class="cls-3" d="M443.67,169.52V40.76h41.43v91.97h45.03v36.79h-86.46Z"/>
          <path class="cls-3" d="M534.24,169.52l42.46-128.76h42.97l42.46,128.76h-43.14l-7.87-23.99h-25.85l-7.87,23.99h-43.14ZM589.71,112.54h16.78l-8.39-24.59-8.39,24.59Z"/>
        </g>
        <g>
          <path class="cls-6" d="M60.26,169.52L102.71,40.76h42.97l42.46,128.76h-43.14l-7.87-23.99h-25.85l-7.87,23.99h-43.14ZM115.73,112.54h16.78l-8.39-24.59-8.39,24.59Z"/>
          <path class="cls-6" d="M198.25,169.52V40.76h52.39c11.64,0,21.74,2.17,30.3,6.5,8.56,4.33,15.18,11.27,19.86,20.79,4.68,9.53,7.02,22.16,7.02,37.89s-2.31,27.06-6.93,36.39c-4.62,9.33-11.19,16.19-19.69,20.59-8.5,4.4-18.69,6.6-30.56,6.6h-52.39ZM239.68,132.73h6.16c4.11,0,7.65-.67,10.62-2,2.97-1.33,5.25-3.93,6.85-7.8,1.6-3.86,2.4-9.53,2.4-16.99s-.74-13.03-2.23-16.69c-1.48-3.66-3.68-6.06-6.59-7.2-2.91-1.13-6.59-1.7-11.04-1.7h-6.16v52.38Z"/>
          <path class="cls-6" d="M372.71,171.52c-12.44,0-23.06-2.17-31.84-6.5-8.79-4.33-15.52-11.36-20.2-21.09-4.68-9.73-7.02-22.66-7.02-38.79s2.34-29.22,7.02-38.89c4.68-9.66,11.41-16.66,20.2-20.99,8.79-4.33,19.4-6.5,31.84-6.5s23.05,2.17,31.84,6.5c8.79,4.33,15.52,11.33,20.2,20.99,4.68,9.67,7.02,22.63,7.02,38.89s-2.34,29.06-7.02,38.79c-4.68,9.73-11.41,16.76-20.2,21.09-8.79,4.33-19.4,6.5-31.84,6.5ZM372.71,130.53c6.05,0,10.36-1.9,12.93-5.7,2.57-3.8,3.85-10.36,3.85-19.69s-1.28-15.9-3.85-19.69c-2.57-3.8-6.88-5.7-12.93-5.7s-10.36,1.9-12.93,5.7-3.85,10.37-3.85,19.69,1.28,15.89,3.85,19.69c2.57,3.8,6.88,5.7,12.93,5.7Z"/>
          <path class="cls-6" d="M441.87,169.52V40.76h41.43v91.97h45.03v36.79h-86.46Z"/>
          <path class="cls-6" d="M532.44,169.52l42.46-128.76h42.97l42.46,128.76h-43.14l-7.87-23.99h-25.85l-7.87,23.99h-43.14ZM587.91,112.54h16.78l-8.39-24.59-8.39,24.59Z"/>
        </g>
        <g>
          <path class="cls-2" d="M153.58,124.64l-27.67-83.88h-42.97l-26.65,80.82-15.8,47.93h43.14l7.89-23.99h25.85l7.87,23.99h43.14l-14.79-44.87ZM95.95,112.53l2.51-7.39,5.87-17.2,6.26,18.3,2.15,6.29h-16.79Z"/>
          <path class="cls-5" d="M144.09,122.46l-24.21-73.38h-30.93l-21.98,66.63-15.01,45.48h25.62l7.89-23.99h37.9l7.87,23.99h25.62l-12.78-38.73ZM84.34,120.85l5.09-14.96,1.16-3.44,8.64-25.32c1.66-4.86,8.53-4.86,10.19,0l11.07,32.42,3.86,11.3h-40.03Z"/>
          <path class="cls-1" d="M156.87,161.19h-25.62l-7.87-23.99h-37.9l-7.89,23.99h-25.62l15.01-45.48c6.31-4.03,12.41-8.19,22.44-9.82l-5.09,14.96h40.03l-3.86-11.3c8.42,3.96,14.14,9.63,23.59,12.91l12.78,38.73Z"/>
          <path class="cls-2" d="M281.03,68.05c-4.69-9.52-11.3-16.45-19.86-20.8-8.57-4.33-18.67-6.49-30.31-6.49h-52.39v128.75h52.39c11.88,0,22.06-2.2,30.56-6.59,8.5-4.41,15.07-11.26,19.7-20.6,2.46-4.96,4.26-10.71,5.41-17.24,1.01-5.77,1.53-12.16,1.53-19.15,0-15.74-2.35-28.37-7.02-37.9ZM243.53,122.93c-1.6,3.88-3.88,6.47-6.85,7.8-2.96,1.33-6.5,2-10.61,2h-6.16v-52.39h6.16c4.46,0,8.14.58,11.05,1.7,2.91,1.15,5.11,3.54,6.59,7.2,1.48,3.68,2.23,9.23,2.23,16.7,0,1.4-.03,2.73-.08,4.01v.02c-.25,5.51-1.01,9.83-2.31,12.96Z"/>
          <path class="cls-5" d="M273.58,71.72c-3.93-7.95-9.22-13.53-16.15-17.05-7.35-3.71-16.3-5.59-26.57-5.59h-44.07v112.11h44.07c10.48,0,19.46-1.9,26.73-5.66,6.97-3.61,12.23-9.15,16.07-16.9,1.96-3.96,3.48-8.65,4.49-13.97.07-.33.12-.68.18-1.01.93-5.29,1.4-11.25,1.4-17.7,0-14.37-2.08-25.89-6.16-34.22ZM251.22,126.09c-2.43,5.91-6.17,10.02-11.13,12.23-4.03,1.81-8.75,2.73-14.02,2.73h-14.47v-69.02h14.47c5.41,0,10.13.75,14.09,2.28,3.51,1.38,8.32,4.56,11.26,11.83,1.9,4.74,2.83,11.21,2.83,19.81,0,1.45-.03,2.83-.08,4.18v.23c-.07,1.51-.17,2.94-.32,4.29-.47,4.58-1.33,8.35-2.63,11.45Z"/>
          <path class="cls-1" d="M278.15,124.66c-1.01,5.32-2.53,10.02-4.49,13.97-3.84,7.75-9.1,13.29-16.07,16.9-7.27,3.76-16.25,5.66-26.73,5.66h-44.07v-42.62c7.72-4.43,13.82-9.9,24.8-12.24v34.72h14.47c5.27,0,10-.91,14.02-2.73,4.96-2.21,8.7-6.32,11.13-12.23,1.3-3.09,2.16-6.87,2.63-11.45,6.67,4.26,13.14,8.63,24.31,10.02Z"/>
          <path class="cls-2" d="M404.97,66.25c-4.67-9.67-11.41-16.65-20.2-21-8.78-4.33-19.4-6.49-31.84-6.49s-23.06,2.16-31.84,6.49c-8.8,4.34-15.52,11.33-20.21,21-4.67,9.67-7,22.63-7,38.9,0,7.02.45,13.43,1.31,19.25,1.16,7.52,3.04,14.04,5.69,19.53,4.69,9.73,11.41,16.77,20.21,21.09,8.78,4.33,19.4,6.5,31.84,6.5s23.06-2.18,31.84-6.5c8.78-4.33,15.52-11.36,20.2-21.09,2.56-5.32,4.43-11.6,5.59-18.82.95-6.01,1.43-12.66,1.43-19.96,0-16.27-2.33-29.23-7.02-38.9ZM365.86,124.83c-2.56,3.81-6.87,5.71-12.93,5.71s-10.36-1.9-12.93-5.71c-2.45-3.63-3.74-9.82-3.84-18.52-.02-.38-.02-.77-.02-1.16,0-9.33,1.3-15.9,3.86-19.7,2.56-3.81,6.87-5.71,12.93-5.71s10.36,1.9,12.93,5.71c2.56,3.79,3.84,10.36,3.84,19.7,0,1.56-.03,3.04-.12,4.46-.35,6.99-1.6,12.06-3.73,15.22Z"/>
          <path class="cls-5" d="M397.48,69.88c-3.88-8.02-9.23-13.63-16.39-17.15-7.59-3.74-17.07-5.64-28.17-5.64s-20.58,1.9-28.17,5.62c-7.14,3.53-12.51,9.15-16.4,17.17-4.09,8.47-6.17,20.33-6.17,35.27,0,6.17.38,11.96,1.1,17.17.03.28.08.55.12.82,1.05,6.74,2.71,12.51,4.96,17.19,3.91,8.1,9.27,13.74,16.4,17.24,7.6,3.76,17.09,5.66,28.17,5.66s20.56-1.9,28.17-5.66c7.14-3.51,12.49-9.15,16.39-17.24,2.1-4.38,3.69-9.67,4.71-15.7.07-.27.1-.53.15-.8.88-5.59,1.33-11.86,1.33-18.67,0-14.94-2.08-26.8-6.19-35.27ZM372.76,129.47c-2.88,4.28-8.65,9.38-19.83,9.38s-16.95-5.11-19.81-9.37c-3.14-4.66-4.86-11.41-5.21-20.56-.03-.78-.05-1.58-.07-2.4-.02-.45-.02-.91-.02-1.38,0-11.13,1.73-19.08,5.27-24.34,2.88-4.28,8.65-9.38,19.83-9.38s16.95,5.11,19.81,9.37c3.54,5.26,5.27,13.23,5.27,24.36,0,1.81-.05,3.44-.13,4.87-.07,1.45-.18,2.81-.32,4.13-.7,6.55-2.28,11.58-4.81,15.32Z"/>
          <path class="cls-1" d="M402.19,124.61c-1.01,6.04-2.61,11.33-4.71,15.7-3.89,8.09-9.25,13.73-16.39,17.24-7.6,3.76-17.09,5.66-28.17,5.66s-20.56-1.9-28.17-5.66c-7.14-3.49-12.49-9.13-16.4-17.24-2.25-4.67-3.91-10.45-4.96-17.19-.03-.27-.08-.53-.12-.82,9.75-3.48,15.54-9.5,24.62-13.39.35,9.15,2.06,15.9,5.21,20.56,2.86,4.26,8.63,9.37,19.81,9.37s16.95-5.11,19.83-9.38c2.53-3.74,4.11-8.77,4.81-15.32,6.85,4.36,13.31,8.97,24.62,10.46Z"/>
          <path class="cls-2" d="M463.53,132.73V40.76h-41.44v128.75h86.46v-36.78h-45.02Z"/>
          <polygon class="cls-5" points="500.23 141.05 500.23 161.19 430.41 161.19 430.41 49.08 455.21 49.08 455.21 141.05 500.23 141.05"/>
          <path class="cls-1" d="M500.23,141.05v20.15h-69.82v-39.91c9.12-3.94,14.92-10,24.8-13.46v33.22h45.02Z"/>
          <path class="cls-2" d="M621.26,111.02l-23.16-70.26h-42.99l-27.68,83.93-14.77,44.82h43.15l7.87-23.99h25.85l7.87,23.99h43.15l-19.3-58.49ZM568.14,112.53l8.38-24.59,6.44,18.87,1.95,5.72h-16.77Z"/>
          <path class="cls-5" d="M613.36,113.63l-2.23-6.75-19.05-57.8h-30.94l-25.07,76.01-.73,2.21-11.18,33.89h25.64l7.87-23.99h37.9l7.87,23.99h25.62l-15.69-47.56ZM556.51,120.85l.13-.38,15.43-45.25c1.45-4.24,7.45-4.24,8.9,0l9.86,28.91.43,1.25,5.26,15.47h-40.01Z"/>
          <path class="cls-1" d="M629.05,161.19h-25.62l-7.87-23.99h-37.9l-7.87,23.99h-25.64l11.18-33.89.73-2.21c8.98-.17,15.31-2.06,20.58-4.62l-.13.38h40.01l-5.26-15.47c1.78-.15,3.66-.23,5.67-.23,5.62,0,10.25.65,14.19,1.73l2.23,6.75,15.69,47.56Z"/>
        </g>
        <g>
          <path class="cls-6" d="M40.48,169.52L82.94,40.76h42.97l42.46,128.76h-43.14l-7.87-23.99h-25.85l-7.87,23.99h-43.14ZM95.95,112.54h16.78l-8.39-24.59-8.39,24.59Z"/>
          <path class="cls-6" d="M178.47,169.52V40.76h52.39c11.64,0,21.74,2.17,30.3,6.5,8.56,4.33,15.18,11.27,19.86,20.79,4.68,9.53,7.02,22.16,7.02,37.89s-2.31,27.06-6.93,36.39c-4.62,9.33-11.19,16.19-19.69,20.59-8.5,4.4-18.69,6.6-30.56,6.6h-52.39ZM219.9,132.73h6.16c4.11,0,7.65-.67,10.62-2,2.97-1.33,5.25-3.93,6.85-7.8,1.6-3.86,2.4-9.53,2.4-16.99s-.74-13.03-2.23-16.69c-1.48-3.66-3.68-6.06-6.59-7.2-2.91-1.13-6.59-1.7-11.04-1.7h-6.16v52.38Z"/>
          <path class="cls-6" d="M352.93,171.52c-12.44,0-23.06-2.17-31.84-6.5-8.79-4.33-15.52-11.36-20.2-21.09-4.68-9.73-7.02-22.66-7.02-38.79s2.34-29.22,7.02-38.89c4.68-9.66,11.41-16.66,20.2-20.99,8.79-4.33,19.4-6.5,31.84-6.5s23.05,2.17,31.84,6.5c8.79,4.33,15.52,11.33,20.2,20.99,4.68,9.67,7.02,22.63,7.02,38.89s-2.34,29.06-7.02,38.79c-4.68,9.73-11.41,16.76-20.2,21.09-8.79,4.33-19.4,6.5-31.84,6.5ZM352.93,130.53c6.05,0,10.36-1.9,12.93-5.7,2.57-3.8,3.85-10.36,3.85-19.69s-1.28-15.9-3.85-19.69c-2.57-3.8-6.88-5.7-12.93-5.7s-10.36,1.9-12.93,5.7-3.85,10.37-3.85,19.69,1.28,15.89,3.85,19.69c2.57,3.8,6.88,5.7,12.93,5.7Z"/>
          <path class="cls-6" d="M422.09,169.52V40.76h41.43v91.97h45.03v36.79h-86.46Z"/>
          <path class="cls-6" d="M512.66,169.52l42.46-128.76h42.97l42.46,128.76h-43.14l-7.87-23.99h-25.85l-7.87,23.99h-43.14ZM568.13,112.54h16.78l-8.39-24.59-8.39,24.59Z"/>
        </g>
      </g>
      <path class="cls-4" d="M669.7,58.29c0,3.82-5.56,7.19-14.04,9.2-4.51,1.07-8.04,4.6-9.11,9.11-2.01,8.48-5.37,14.04-9.2,14.04s-7.19-5.56-9.2-14.04c-1.07-4.51-4.6-8.04-9.11-9.11-8.48-2.01-14.04-5.38-14.04-9.2s5.56-7.2,14.04-9.21c4.51-1.07,8.04-4.6,9.11-9.11,2.01-8.48,5.37-14.04,9.2-14.04s7.19,5.56,9.2,14.04c1.07,4.51,4.6,8.04,9.11,9.11,8.48,2.01,14.04,5.38,14.04,9.21Z"/>
      <path class="cls-4" d="M64.7,171.52c0,3.82-5.56,7.19-14.04,9.2-4.51,1.07-8.04,4.6-9.11,9.11-2.01,8.48-5.37,14.04-9.2,14.04s-7.19-5.56-9.2-14.04c-1.07-4.51-4.6-8.04-9.11-9.11-8.48-2.01-14.04-5.38-14.04-9.2s5.56-7.2,14.04-9.21c4.51-1.07,8.04-4.6,9.11-9.11,2.01-8.48,5.37-14.04,9.2-14.04s7.19,5.56,9.2,14.04c1.07,4.51,4.6,8.04,9.11,9.11,8.48,2.01,14.04,5.38,14.04,9.21Z"/>
      <path class="cls-4" d="M682,15.78c0,1.86-2.71,3.5-6.85,4.48-2.2.52-3.92,2.24-4.44,4.44-.98,4.13-2.62,6.85-4.48,6.85s-3.51-2.71-4.48-6.85c-.52-2.2-2.24-3.92-4.44-4.44-4.14-.98-6.85-2.62-6.85-4.48s2.71-3.51,6.85-4.49c2.2-.52,3.92-2.24,4.44-4.44.98-4.14,2.62-6.85,4.48-6.85s3.51,2.71,4.48,6.85c.52,2.2,2.24,3.92,4.44,4.44,4.14.98,6.85,2.63,6.85,4.49Z"/>
      <path class="cls-4" d="M67.18,38.77c0,1.86-2.71,3.5-6.85,4.48-2.2.52-3.92,2.24-4.44,4.44-.98,4.13-2.62,6.85-4.48,6.85s-3.51-2.71-4.48-6.85c-.52-2.2-2.24-3.92-4.44-4.44-4.14-.98-6.85-2.62-6.85-4.48s2.71-3.51,6.85-4.49c2.2-.52,3.92-2.24,4.44-4.44.98-4.14,2.62-6.85,4.48-6.85s3.51,2.71,4.48,6.85c.52,2.2,2.24,3.92,4.44,4.44,4.14.98,6.85,2.63,6.85,4.49Z"/>
      <path class="cls-4" d="M666.23,171.52c0,1.86-2.71,3.5-6.85,4.48-2.2.52-3.92,2.24-4.44,4.44-.98,4.13-2.62,6.85-4.48,6.85s-3.51-2.71-4.48-6.85c-.52-2.2-2.24-3.92-4.44-4.44-4.14-.98-6.85-2.62-6.85-4.48s2.71-3.51,6.85-4.49c2.2-.52,3.92-2.24,4.44-4.44.98-4.14,2.62-6.85,4.48-6.85s3.51,2.71,4.48,6.85c.52,2.2,2.24,3.92,4.44,4.44,4.14.98,6.85,2.63,6.85,4.49Z"/>
    </g>
  </g>
</svg>