<?xml version="1.0" encoding="UTF-8"?>
<svg id="Layer_2" data-name="Layer 2" xmlns="http://www.w3.org/2000/svg" xmlns:xlink="http://www.w3.org/1999/xlink" viewBox="0 0 326.26 261.34">
  <defs>
    <style>
      .cls-1 {
        fill: url(#linear-gradient);
      }

      .cls-1, .cls-2, .cls-3, .cls-4, .cls-5, .cls-6, .cls-7, .cls-8, .cls-9, .cls-10 {
        stroke-width: 0px;
      }

      .cls-2 {
        opacity: .6;
      }

      .cls-2, .cls-4, .cls-6, .cls-10 {
        fill: #fff;
      }

      .cls-3 {
        fill: #ffd1b8;
      }

      .cls-4 {
        opacity: .3;
      }

      .cls-5 {
        fill: #f9a7ce;
      }

      .cls-11 {
        fill: none;
        stroke: #720000;
        stroke-linecap: round;
        stroke-linejoin: round;
        stroke-width: 3.16px;
      }

      .cls-12, .cls-6 {
        opacity: .4;
      }

      .cls-7 {
        fill: #ffc0a6;
      }

      .cls-8 {
        fill: #ffc4d6;
      }

      .cls-9 {
        fill: #720000;
      }
    </style>
    <linearGradient id="linear-gradient" x1="3459.28" y1="255.97" x2="3538.8" y2="29.89" gradientTransform="translate(3622.42) rotate(-180) scale(1 -1)" gradientUnits="userSpaceOnUse">
      <stop offset="0" stop-color="#ed7eb6"/>
      <stop offset="1" stop-color="#ffaec9"/>
    </linearGradient>
  </defs>
  <g id="Layer_1-2" data-name="Layer 1">
    <g>
      <ellipse class="cls-1" cx="161.12" cy="250.22" rx="139.67" ry="11.12"/>
      <g>
        <path class="cls-9" d="M148.74,50.07l5.71,6.3s10.38-6.2,9.79-23.64c0,0,9.3-.97,10.66-12.21,1.36-11.24-11.82-25.19-28.09-18.99,0,0,12.49.19,17.83,8.14,5.02,7.49,1.94,14.14-2.52,15.31,0,0-1.68-6.27-9.3-6.39-6.09-.1-8.63,7.46-3.3,11.24,3.2,2.27,7.95,2.71,7.95,2.71,0,0,.48,12.4-8.72,17.54ZM156.78,26.14s-2.08.35-3.78-.58c-1.55-.85-.84-3.17,1.44-2.13,2.2,1,2.34,2.71,2.34,2.71Z"/>
        <path class="cls-10" d="M168.37,7.92c2.02,1.5,3.53,3.68,4.22,6.1.69,2.42.55,5.07-.39,7.4.56-3.01-.27-6.37-2.18-8.76.72,2.63.27,5.52-.99,7.94.92-4.32-.62-9.16-3.77-12.26,1.55.45,3.04,1.31,4.15,2.49,0-1.25-.19-1.98-1.03-2.9Z"/>
        <path class="cls-10" d="M161.41,35.09c.65,1.71.74,3.76.26,5.74s-1.55,3.88-2.97,5.31c1.45-2.04,2.2-4.75,1.94-7.08-.54,2.14-1.88,4.13-3.53,5.52,2.15-2.89,3.02-6.9,2.3-10.13.76.8,1.33,1.87,1.55,3.07.46-.91.62-1.51.46-2.43Z"/>
      </g>
      <path class="cls-9" d="M122,32.95c.91.21,1.61-.79,1.1-1.58-1.74-2.65-5.46-6.9-11.66-7.56-7.83-.83-12.62,2.8-14.34,5.84-.41.73.2,1.62,1.03,1.52,3.42-.43,11.84-.95,23.87,1.78Z"/>
      <path class="cls-9" d="M185.15,36.68c-.73.17-1.29-.64-.88-1.26,1.4-2.12,4.38-5.53,9.35-6.06,6.28-.67,10.12,2.25,11.5,4.68.33.59-.16,1.3-.83,1.22-2.75-.34-9.5-.76-19.14,1.43Z"/>
      <g>
        <g>
          <path class="cls-3" d="M249.94,124.19l9.69,10.65c32.14-5.86,35.65-11.43,38.75-23.09.49-1.84.97-3.82,1.55-5.98,2.87-10.68,7.36-19.18,7.36-19.18,15.31-6.01,19.96-21.89,16.08-31-3.88-9.11-11.24-6.2-11.24-6.2-5.88-8.72-13.18-3.87-13.18-3.87,0,0,0-.02-.02-.07-.15-.51-.94-3.75,1.18-11.36,1.96-7.03.95-9.66-.98-11.11-.36-.27-.75-.51-1.15-.71-3.2-1.65-8.23,1.06-10.17,11.33-.47,2.5-.78,4.86-.97,7,0,.01,0,.02,0,.04-.03.34-.06.67-.08,1-.46,6.04-.02,10.08-.02,10.08-18.08,12.27,2.33,31.07,2.33,31.07,2.33,7.82-5.04,31.71-5.04,31.71-3.06-.47-14.95,3.2-23.84,6.16-5.76,1.92-10.27,3.54-10.27,3.54Z"/>
          <path class="cls-7" d="M249.94,124.19l9.69,10.65c32.14-5.86,35.65-11.43,38.75-23.09-1.83,5.52-25.63,20.16-38.17,8.89-5.76,1.92-10.27,3.54-10.27,3.54Z"/>
          <path class="cls-7" d="M284.05,114.49s3.56,4.01,6.66.91c2.28-2.28,5.96-17.61,7.74-25.53.6-2.66,2.58-4.76,5.17-5.58,2.89-.92,6.99-2.79,11.37-6.61-.28.08-8.31,2.51-11.24-1.68-.84-1.2-.9-2.45-.55-3.63.9-3.08,4.38-4.68,7.36-3.48,1.39.56,3.23.84,5.46.13,5.3-1.68,3.92-10.06,3.92-10.06,0,0-1.91,2.96-6.15,1.28-4.23-1.68-4.06-7.17-2.59-10.24,0,0-2.43-3.02-4.94.7-2.52,3.72-10.89,2.17-9.39-1.32.48-1.09,1.12-2.5,2.06-3.95-.15-.51-.94-3.75,1.18-11.36,1.96-7.03.95-9.66-.98-11.11,0,0,1.1,3.07-.77,6.28-1.87,3.21-4.17,5.67-4.31,10.96-.14,5.3-.66,8.53-3.5,8.53-2.6,0-3.96-3.39-3.8-7.11-.36,4.81-.16,8.36-.06,9.6,1.02,0,2.06.17,3.05.56,3.08,1.2,2.93,2.41,5.44,3.3,3.23,1.14,3.65.33,6.08,1.3,3.51,1.4,3.73,4.04,1.7,5.68-2.04,1.65-10.37.42-14.34-2.84-3.97-3.26-9.16,2.61-9.16,2.61,0,0,0,0,0,0-1.8,10.43,9.61,20.95,9.61,20.95,2.33,7.82-5.04,31.71-5.04,31.71Z"/>
          <path class="cls-11" d="M249.94,124.19s29.06-10.47,34.1-9.7c0,0,7.36-23.88,5.04-31.71,0,0-20.41-18.8-2.33-31.07,0,0-.86-7.92,1.07-18.12,1.94-10.27,6.98-12.98,10.17-11.34,2.6,1.34,4.46,3.49,2.13,11.82-2.33,8.33-1.16,11.43-1.16,11.43,0,0,7.3-4.84,13.18,3.88,0,0,7.36-2.91,11.24,6.2,3.88,9.11-.78,25-16.08,31,0,0-4.5,8.5-7.36,19.18-4.26,15.89-3.1,22.28-40.3,29.06l-9.69-10.65Z"/>
          <path class="cls-9" d="M286.38,50.18c1.62-.51,4.03-.2,5.35.92,1.33,1,2.15,1.75,3.26,2.22,1.13.53,2.52.7,3.76.89,3.08.55,6.95,1.47,8.47,4.67,2.61,6.49-3.13,9.7-8.84,9.53,0,0,1.51-2.05,1.51-2.05.45,2.64.8,5.21.82,7.89,0,.36-.29.66-.66.65-.31,0-.57-.21-.64-.5-.6-2.42-1.55-4.83-2.54-7.11-.47-1.04.41-2.12,1.51-2.05,2.45-.03,6.5-.51,6.29-3.56-.08-3.98-5.6-4.05-8.63-4.73-2.2-.33-4.72-2.06-6.14-3.28-.98-.71-1.64-.68-2.8-.42-2.02.45-2.75-2.57-.72-3.08h0Z"/>
          <path class="cls-9" d="M298.07,68.38c-3.2-1.12-6.3-2.61-8.64-5.1-.18-.2-.17-.51.03-.69.17-.16.42-.17.61-.04,1.26.87,2.69,1.45,4.16,1.88,1.43.41,3,.72,4.45.85.88.07,1.53.84,1.46,1.71-.07,1.01-1.12,1.71-2.08,1.39h0Z"/>
          <path class="cls-11" d="M298.38,45.9s-2.78,3.49-1.52,9.61"/>
          <path class="cls-9" d="M312.8,50.83c-3,1.96-4.72,8.55-2.79,11.73,1.26,1.83,4.19,2.53,6.12,1.44,1.41-.71,2.31-2.63,2.82-4.22.2-.65.33-1.35.55-2.04.09-.27.38-.43.65-.34.2.06.33.23.36.42.23,1.48.35,3-.03,4.49-1.09,5.96-8.29,7.28-12.27,3.05-4.23-4.31-1.84-14.66,3.28-17.42,1.95-.91,3.27,2,1.31,2.88h0Z"/>
          <path class="cls-9" d="M290.03,81.52c1.7,1.62,3.94,2.86,6.08,3.92.25.12.35.41.24.66-.1.2-.32.31-.53.28-1.28-.21-2.55-.49-3.82-.84-1.39-.42-2.58-.79-3.92-1.52-2.09-1.3.2-4.22,1.96-2.49h0Z"/>
        </g>
        <path class="cls-3" d="M91.78,251.36c51.74,13.97,81.82-14.01,81.82-14.01,21.31,20.54,97.14,14.47,105.67-48.05,5.95-43.61-18.71-67.6-36.38-78.94,0,0,0,0-.01,0-9.25-5.94-16.57-8.4-16.57-8.4l-3.87-8.32c-.02-1.58-.13-3.1-.3-4.55-2.41-20.54-18.3-27.39-18.3-27.39h0c-.07-.13-1.03-1.71-2.78-3.9h0s-.04-.06-.09-.12c-.16-.19-.32-.38-.48-.58-.07-.09-.16-.19-.25-.29-4.16-4.93-11.72-11.93-21.58-12.94-14.86-1.51-24.61,11.74-24.61,11.74,0,0-10.4-14.99-29.65-13.16-21.18,2.01-31.73,23.56-36.6,38.92,0,0,0,.01,0,.02-1.01,3.17-1.77,6.09-2.33,8.5-.99,4.24-1.37,6.98-1.37,6.98-7.74,4.02-15.33,9.15-22.2,15.63-3.98,3.75-7.72,7.95-11.12,12.65-1.73,2.39-3.38,4.91-4.92,7.57-.83,1.43-1.63,2.9-2.39,4.41-.92,1.81-1.79,3.67-2.61,5.59-1.08,2.52-2.07,5.14-2.98,7.86-.66,2-1.27,4.05-1.83,6.16-8.66,32.81,4.09,80.66,55.76,94.62Z"/>
        <path class="cls-2" d="M37.86,150.57c15.05-34.73,45.43-46.97,45.43-46.97l2.15-13.72c-.99,4.24-1.37,6.98-1.37,6.98-7.74,4.02-15.33,9.15-22.2,15.63-10.11,9.53-18.69,21.97-24.02,38.08Z"/>
        <path class="cls-7" d="M159.08,202.67c4.79,2.77,8.99,5.19,13.03,6.44,8.14,2.52,15.67.26,26.21-13.61,10.71-14.1,8.59-33.49,3.89-41.53-1.24-2.13-2.67-3.46-4.08-3.69l-2.73-4.08c-.21-.19-.41-.39-.61-.58-.18-.17-.36-.34-.54-.51-3.11-2.96-6.21-5.79-15.19-7.54-9.51-1.86-12.18,4.02-20.28,2.21-8.1-1.81-17.54-.94-25.08,13.21-7.53,14.15,10.98,41.35,25.4,49.68Z"/>
        <path class="cls-6" d="M82.8,164.01c4.24,2.31,9.52,2.74,13.25.67,2.54-1.41,4.18-3.79,5.76-6.11,5.17-7.58,10.34-15.16,15.51-22.74,2.37-3.48,4.83-7.4,3.81-11.8-1.07-4.64-5.98-8.42-10.96-9.57s-9.95-.11-14.28,1.65c-14.09,5.72-36.59,35.08-13.08,47.91Z"/>
        <path class="cls-6" d="M252.51,158.79c-3.52,2.3-8.29,2.78-12,.81-2.53-1.34-4.4-3.64-6.2-5.87-5.88-7.31-11.77-14.62-17.65-21.92-2.7-3.35-5.54-7.14-5.29-11.43.27-4.53,4.17-8.26,8.56-9.44s9.08-.23,13.3,1.43c13.75,5.39,38.81,33.66,19.29,46.42Z"/>
        <path class="cls-7" d="M165.01,95.69s28-10.53,57.12-6.62c-2.41-20.54-18.3-27.39-18.3-27.39h0c-8.3-9.73-19.32-10.94-27.71-8.23-8.39,2.71-17.39,9.68-17.39,9.68,0,0,7.05,9.88,6.28,32.56Z"/>
        <path class="cls-7" d="M163.54,82.79c-2.53-12.29-12.88-29.52-32.83-29.33s-30.3,23.64-29.2,40.88c0,0,32.28-10.27,63.68-.78,0,0,.55-.05-1.66-10.78Z"/>
        <path class="cls-2" d="M87.78,81.36c7.21-17.37,19.89-31.78,36.51-34.39,16.63-2.61,31.37,10.82,31.37,10.82,24.03-21.3,40.75-5.32,44.56-1-4.16-4.93-11.72-11.93-21.58-12.94-14.86-1.51-24.61,11.74-24.61,11.74,0,0-10.4-14.99-29.65-13.16-21.18,2.01-31.73,23.56-36.6,38.92Z"/>
        <path class="cls-7" d="M217.53,92.64s-14.09,23.67-56.09,9.84c0,0-38.27,12.84-57.65-4.43,0,0,35.39,9.02,61.22-2.36,0,0,25,11.9,52.52-3.06Z"/>
        <path class="cls-7" d="M40.81,158c1.3-4.94,2.95-9.66,4.92-14.15-1.6-.32-3.24-.69-4.9-1.14.82-1.92,1.69-3.78,2.61-5.59.76-1.51,1.56-2.98,2.39-4.41.56.2,1.14.4,1.75.58,6.63,2,13.26,3.92,17.07,5.9,2.09,1.08,3.34,2.17,3.27,3.31-.03.47-.41.9-1.1,1.27-15.15,8.11-17.31,28.57-13.82,44.36,2.88,13.05,11.43,29.34,34.76,40.3,45.41,21.33,93.85-9.11,93.85-9.11,18.17,12.21,58.95,12.59,78.33-18.42,16.48-26.38,4.98-61.89,5.71-60.65,8.24,13.9,11.17,30.18,8.69,48.37-2.45,17.93-10.79,31.96-24.79,41.71-11.53,8.02-26.81,12.84-41.93,12.63-20.63-.29-30.74-9.84-30.74-9.84,0,0-25.1,17.19-56.77,17.19-8.77,0-17.87-1.26-27.05-3.73-27.78-7.51-41.08-24.59-47.33-37.6-7.43-15.45-9.27-34.51-4.93-50.97Z"/>
        <path class="cls-11" d="M91.78,251.36c51.74,13.97,81.82-14.01,81.82-14.01,21.31,20.54,97.14,14.47,105.67-48.05,9.06-66.46-52.96-87.35-52.96-87.35l-3.87-8.32c-.02-1.58-.13-3.1-.3-4.55-2.41-20.54-18.3-27.39-18.3-27.39h0c-.22-.41-9.94-16.29-25.18-17.84-14.85-1.51-24.61,11.74-24.61,11.74,0,0-10.4-14.99-29.65-13.16-33.24,3.16-40.31,54.43-40.31,54.43-20.54,10.66-39.95,29.15-48.05,59.88-8.66,32.81,4.09,80.66,55.76,94.62Z"/>
        <path class="cls-9" d="M155.22,54.55c9.41,11.93,12.19,27.75,11.25,42.59,0,.31-.13.8-.18,1.11-.27,1.06-.86,1.98-1.56,2.79-9.8,9.81-33.24,11.83-46.15,8.47-4.44-1.06-8.72-2.81-12.58-5.23-.24-.15-.31-.47-.16-.71.15-.24.46-.31.7-.17,7.73,4.39,16.78,5.77,25.57,5.5,9.46-.47,23.48-2.93,30.26-9.85,0,0,.23-.27.23-.27.13-.26.4-.55.47-.8.05-.17.19-.35.18-.5.03-.17.08-.37.07-.55.52-9.82-.71-19.84-4.32-29.01-1.56-3.98-3.63-8.08-6.22-11.39-1.24-1.6,1.11-3.55,2.45-1.99h0Z"/>
        <g>
          <g>
            <path class="cls-10" d="M101.52,93.57c6.67-1.6,13.3-2.54,19.62-3.02,4.43-.34,8.71-.46,12.74-.42,2.9.02,5.68.13,8.29.29.49.03.97.06,1.44.09,12.91.91,21.58,3.05,21.58,3.05-.14-5.94-5.29-32.94-33.58-31.65-27.89,1.27-30.1,31.65-30.1,31.65Z"/>
            <path class="cls-11" d="M101.52,93.57c6.67-1.6,13.3-2.54,19.62-3.02,4.43-.34,8.71-.46,12.74-.42,2.9.02,5.68.13,8.29.29.49.03.97.06,1.44.09,12.91.91,21.58,3.05,21.58,3.05-.14-5.94-5.29-32.94-33.58-31.65-27.89,1.27-30.1,31.65-30.1,31.65Z"/>
            <g>
              <path class="cls-9" d="M120.61,87.03c0,1.23.19,2.41.53,3.52,4.43-.34,8.71-.46,12.74-.42,2.9.02,5.68.13,8.29.29.49.03.97.06,1.44.09.35-1.1.53-2.27.53-3.49,0-6.5-5.27-11.77-11.77-11.77-6.5,0-11.77,5.27-11.77,11.77Z"/>
              <circle class="cls-10" cx="129.08" cy="83.54" r="4.79"/>
              <path class="cls-4" d="M133.88,89.93c0,.06,0,.13,0,.2,2.9.02,5.68.13,8.29.29.02-.16.03-.33.03-.49,0-2.3-1.86-4.16-4.16-4.16-2.3,0-4.16,1.87-4.16,4.16Z"/>
            </g>
          </g>
          <g>
            <path class="cls-10" d="M165.01,95.69c.11-.05,3.23-1.47,8.92-3.06,3.26-.91,7.36-1.87,12.23-2.64,2.09-.34,4.33-.64,6.69-.89.92-.1,1.86-.19,2.82-.27,7.63-.65,16.52-.75,26.46.25-1.51-17.98-16.27-26.44-18.3-27.39-11.37-5.32-28.93-5.71-42.39,7.12,2.46,6.6,4.39,15.61,3.58,26.88Z"/>
            <g>
              <path class="cls-9" d="M172.44,86.94c0,2.07.53,4.01,1.49,5.69,3.26-.91,7.36-1.87,12.23-2.64,2.09-.34,4.33-.64,6.69-.89.92-.1,1.86-.19,2.82-.27.1-.61.15-1.24.15-1.89,0-6.45-5.23-11.69-11.69-11.69-6.45,0-11.69,5.23-11.69,11.69Z"/>
              <circle class="cls-10" cx="180.67" cy="85.09" r="4.79"/>
              <path class="cls-4" d="M185.95,88.83c0,.41.07.8.2,1.16,2.09-.34,4.33-.64,6.69-.89,0-.09.01-.18.01-.27,0-1.91-1.55-3.46-3.46-3.46-1.91,0-3.46,1.55-3.46,3.46Z"/>
            </g>
            <path class="cls-11" d="M165.01,95.69c.11-.05,3.23-1.47,8.92-3.06,3.26-.91,7.36-1.87,12.23-2.64,2.09-.34,4.33-.64,6.69-.89.92-.1,1.86-.19,2.82-.27,7.63-.65,16.52-.75,26.46.25-1.51-17.98-16.27-26.44-18.3-27.39-11.37-5.32-28.93-5.71-42.39,7.12,2.46,6.6,4.39,15.61,3.58,26.88Z"/>
          </g>
        </g>
        <path class="cls-9" d="M206.96,106.32c-10.23,5.5-23.44,7.12-34.05,1.8-.32-.15-.12-.67.22-.56,11.1,3.15,22.68,1.66,33.57-1.78.33-.13.58.37.26.54h0Z"/>
        <path class="cls-9" d="M223.88,94.25c-2.16,3.65-5.1,6.98-9.05,8.64-.24.1-.51-.02-.61-.26-.09-.22,0-.46.19-.58,3.19-2.09,5.3-5.59,6.58-9.09.81-2.14,3.94-.76,2.89,1.28h0Z"/>
        <path class="cls-9" d="M85.64,97.08c-.85,4.38-1.56,8.85-2.03,13.3-.1,1.01-1.63.94-1.64-.08-.02-4.57.18-9.1.54-13.67.07-.87.84-1.52,1.71-1.45.94.07,1.62.98,1.42,1.9h0Z"/>
        <g>
          <path class="cls-8" d="M151.52,193.16c5.04,2.92,9.45,5.48,13.88,6.79,8.93,2.65,17.96.27,32.39-14.35,14.68-14.87,15.51-35.31,11.46-43.78-1.07-2.24-2.48-3.65-4.07-3.89l-2.45-4.3c-.21-.2-.41-.41-.61-.61-.18-.18-.35-.36-.53-.54-3.07-3.12-6.16-6.1-16.18-7.95-10.62-1.96-14.67,4.23-23.67,2.33-9-1.91-20-.99-31.04,13.92-11.04,14.91,5.65,43.59,20.81,52.38Z"/>
          <path class="cls-5" d="M153.77,164.55c-5.68,5.88-5.86,12.99-5.04,16.33,0,0,3.6-10.32,9.94-14.13,6.34-3.81,12.34-1.86,12.34-1.86,0,0-7.17,5.22-9.59,10.06-2.43,4.84-4.63,14.73-.72,20.93,0,0,1.96,1.88,4.69,4.08,8.93,2.65,17.96.27,32.39-14.35,14.68-14.87,15.51-35.31,11.46-43.78-.1-.05-.15-.08-.15-.08,1.23,2.89-.3,13-14.26,14.03,0,0,7.89-5.76,9.86-11.51,1.56-4.57-1.33-9.44-2.58-11.24-.33-.47-.54-.73-.54-.73,0,0,0,.06,0,.19.08,2.23,1.84,22.31-16.18,20.29,0,0,5.2-7.32,5.1-20.48,0,0-5.33,23.66-12.12,18.33,0,0,1.28-8.34-1.3-13.04,0,0,1.12,9.1-1.8,9.08-2.92-.01-7.52-12.49-17.72-13.81,0,0,6.15,5.38,9.1,12.58.6,1.46-.9,2.89-2.34,2.25-3.93-1.75-10.54-3.81-16.9-1.74,0,0,7.87.31,15.26,5.36,3.24,2.22,2.32,7.26-1.51,8.12-.2.05-.42.09-.64.13-5.35,1.01-22.73,1.36-28.74,4.99,0,0,8.01,1.23,21.96,0ZM176.5,167.78l2.39-1.18.72-3.04s3.86-2.17,8.52-3.6c4.65-1.43,9.34-.26,11.26.96,3.39,2.14,2.23,9.5-8.88,6.85-8.68-2.07-8.07-1.78-11.61-1.18,0,0,5.1,2.28,7.56,6.54,2.46,4.26,1.42,12.01-1.94,12.27-3.35.26,0-12.66-8.01-17.63ZM175.3,166.6s4.3,7.41,3.6,14.28c-.7,6.86-4.11,8.02-7.31,7.25-3.21-.78-7.07-11.01,3.71-21.53Z"/>
          <g>
            <g class="cls-12">
              <path class="cls-10" d="M137.83,139.12c-.32,1.34,6.23.07,13.52,1.8s12.57,5.81,12.89,4.47c.32-1.34-4.44-7.59-11.74-9.32-7.29-1.73-14.36,1.72-14.67,3.06Z"/>
              <path class="cls-10" d="M180.76,128.53c-.84.09,1.25,3.61,1.76,8.17s-.75,8.45.09,8.36,3.46-4.13,2.95-8.7c-.51-4.57-3.96-7.93-4.8-7.83Z"/>
              <path class="cls-10" d="M166.63,131.42c-.43.29,1.72,1.62,3.32,3.98s2.02,4.86,2.45,4.57.71-3.27-.88-5.63c-1.59-2.36-4.45-3.22-4.89-2.92Z"/>
              <path class="cls-10" d="M198.27,136.87c-.75-.39-.96,3.69-3.08,7.77s-5.32,6.61-4.57,7,5.17-1.51,7.29-5.59,1.11-8.79.36-9.18Z"/>
              <path class="cls-10" d="M206.58,146.16c-.26-.23-.74,1.39-1.98,2.81-1.24,1.43-2.77,2.13-2.5,2.36s2.22-.11,3.46-1.54c1.24-1.43,1.29-3.41,1.03-3.64Z"/>
              <path class="cls-10" d="M133.68,160.58c1.15,1.24,5.59-1.2,12.49-2.41,6.9-1.2,12.79-.28,12.5-1.95-.29-1.67-5.04-6.28-13.83-5.52-10.97.95-12.26,8.68-11.16,9.87Z"/>
              <path class="cls-10" d="M155.66,179.42c.76-.11,1.54-2.66,3.53-5.85,1.99-3.19,4.26-5.35,3.67-5.72s-3.57.24-6.33,4.09c-3.44,4.79-1.6,7.59-.87,7.48Z"/>
              <path class="cls-10" d="M184.16,178.24c-.41-.16-.53-1.68-1.24-3.71-.71-2.03-1.7-3.53-1.33-3.66s1.96.58,3.02,3.08c1.32,3.11-.06,4.44-.46,4.29Z"/>
              <path class="cls-10" d="M186.29,164.47c.43.44,2.46-.24,5.48-.44,3.02-.2,5.5.27,5.46-.29s-1.83-2.22-5.64-2.21c-4.75,0-5.71,2.52-5.3,2.95Z"/>
              <path class="cls-10" d="M175.85,181.33c-.22.53-.53,1.04-.97,1.39s-1.06.54-1.61.36c-.52-.16-.91-.62-1.13-1.13s-.28-1.06-.33-1.61c-.14-1.26-.27-2.55.11-3.76.68-2.15,2.54-2.89,3.67-.73.87,1.66,1,3.74.26,5.48Z"/>
            </g>
            <g>
              <path class="cls-9" d="M210.5,147.06c-.4-2.61-1.54-5.25-3.5-7.06-.64-.6-1.37-1.06-2.14-1.45-.15-.08-.27-.21-.32-.36-4.08-9.94-18.71-14.59-28.6-12.34-2.15.47-4,1.25-6.13,1.99-3.72,1.03-7.67-.25-11.14-.66-2.81-.4-5.64-.41-8.4.14-2.77.53-5.4,1.7-7.89,3.13-.14.08-.33.04-.41-.11-.08-.13-.04-.31.08-.4,4.74-3.56,10.92-5.15,16.81-4.4,3.63.26,7.03,1.33,10.39.4,7.96-3.6,15.78-3.61,23.84-.3,5.57,2.13,10.64,6.25,12.77,12.1l-.34-.41c1.76.96,3.16,2.48,4.07,4.19.92,1.72,1.43,3.58,1.53,5.51,0,.16-.12.31-.28.31-.17,0-.3-.12-.31-.28h0Z"/>
              <path class="cls-9" d="M134.76,136.44c-3.83,4.69-5.81,10.3-7.64,15.96-.06.16-.24.23-.39.17-.11-.04-.18-.15-.19-.26-.05-.78-.04-1.57,0-2.35.18-2.36.79-4.67,1.75-6.85,1.37-2.85,3.28-5.59,6.12-7.15.3-.16.6.25.35.48h0Z"/>
              <path class="cls-9" d="M199.43,183.83c-3.3,5.91-10.33,12.72-15.73,14.19-3.11,2.21-6.68,3.35-10.43,3.59-3.71.24-7.37-.62-10.72-2.15-2.86-.08-8.85-3.6-11.95-6.31-.87-.72-2.57-2.25-3.36-3.05-.26-.25.09-.68.39-.46,1.2.91,2.39,1.8,3.62,2.66,3.65,2.4,7.65,4.84,12.02,5.41,6.12,2.7,13.68,2.51,19.27-1.29,6.74-2.24,12.07-7.37,16.38-12.9.19-.3.71,0,.5.32h0Z"/>
              <path class="cls-9" d="M182.45,196.4c2.57-1.98,4.16-5.23,4.98-8.34.05-.17.22-.27.4-.23.16.04.26.2.24.35-.11.87-.25,1.75-.47,2.62-.2,1.49-3.31,9.14-5.35,7.22-.46-.47-.36-1.28.2-1.62h0Z"/>
              <path class="cls-9" d="M162.32,199.21c-1.29-1.76-1.86-3.9-1.91-6.03,0-.08.06-.14.14-.14.06,0,.12.04.13.1.49,1.82,1.45,3.62,2.87,4.82,1.02.84-.4,2.26-1.24,1.24h0Z"/>
              <circle class="cls-9" cx="175.29" cy="163.56" r="8.77"/>
              <path class="cls-9" d="M205.83,137.82c.37,3.28-.26,6.66-2.07,9.43-.11.18-.35.23-.52.12-.17-.11-.23-.33-.13-.5.76-1.33,1.27-2.79,1.48-4.31.22-1.48.22-3.08-.06-4.53-.16-.87,1.19-1.09,1.31-.21h0Z"/>
              <path class="cls-9" d="M178.52,157.05c6.89-1.97,9.99-9.76,11.09-16.25.05-.41.71-.32.63.09-.98,7.02-4.04,15.18-11.48,17.46-.91.21-1.17-1.16-.24-1.3h0Z"/>
              <path class="cls-9" d="M175.08,156.71c4.28-6.13,4.66-15.62-.02-21.65-.31-.29.16-.77.45-.45,5.2,6.34,5.02,16.19.6,22.92-.54.73-1.63-.13-1.03-.82h0Z"/>
              <path class="cls-9" d="M171.99,151.86c-2.48-8.91-8.85-16.56-17.51-20-.1-.04-.15-.16-.11-.26.04-.08.13-.13.22-.1.57.16,1.13.33,1.7.52,6.3,1.96,11.43,6.98,14.1,12.96.97,2.18,1.69,4.46,1.97,6.83.03.23-.32.29-.37.06h0Z"/>
              <path class="cls-9" d="M169.08,159.05c-3.59-6.26-9.94-11.44-17.33-12.01-.42-.02-.39-.67.04-.64,3.8.22,7.53,1.52,10.65,3.73,3.15,2.2,5.79,4.99,7.81,8.29.19.31.09.72-.23.91-.33.2-.77.07-.94-.28h0Z"/>
              <path class="cls-9" d="M169.59,165.27c-6.39-.62-13.76,1.77-16.56,8-.16.39-.77.13-.58-.26,2.03-4.91,6.95-7.97,12.09-8.75,1.71-.28,3.41-.42,5.2-.3.36.02.64.34.62.7-.02.39-.38.67-.76.61h0Z"/>
              <path class="cls-9" d="M182.34,161.79c3.82-2.67,8.68-3.04,13.14-2.27.17.03.29.19.26.37-.03.17-.19.29-.36.26-4.15-.52-8.81.04-12.18,2.64-.67.63-1.59-.44-.86-1.01h0Z"/>
              <path class="cls-9" d="M181.13,167.16c4.31,2.03,6.74,6.54,7.32,11.1.03.17-.08.34-.26.37-.17.03-.33-.08-.37-.24-.13-.54-.23-1.09-.38-1.62-.96-3.52-3.35-6.95-6.78-8.37-.88-.28-.39-1.61.46-1.24h0Z"/>
              <path class="cls-9" d="M176.63,168.98c4,5.7,3.83,13.43.34,19.3-.08.16-.27.22-.42.14-.17-.08-.22-.29-.13-.45,3.1-5.6,3.08-12.97-.82-18.17-.6-.69.5-1.57,1.04-.82h0Z"/>
              <path class="cls-9" d="M166.64,173.14c-2.97,4.76-5.01,10.04-5.94,15.58-.02.17-.3.16-.3-.02-.12-5.73,2.13-11.53,6.01-15.75.12-.13.34.04.23.19h0Z"/>
              <path class="cls-9" d="M141.81,146.13c-4.55.37-9.1,1.1-13.01,3.55-.14.09-.31-.11-.19-.23,3.35-3.41,8.65-4.32,13.22-3.62.17.03.16.3-.02.3h0Z"/>
              <path class="cls-9" d="M208.05,168.77c.85-2.58.97-5.37-.47-7.76-.08-.13.1-.3.22-.2,2.51,1.87,2.46,5.84.51,8.1-.1.13-.32.01-.26-.14h0Z"/>
            </g>
          </g>
        </g>
        <path class="cls-9" d="M172.59,236.13c5.7-5.23,7.85-13.33,8.57-20.82,0,0,.18-3.4.18-3.4-.01-.34.53-.37.54-.02.47,6.95-.17,14.14-3.15,20.53-1.08,2.25-2.3,4.34-4.11,6.14-1.64,1.48-3.78-1.07-2.02-2.43h0Z"/>
        <g>
          <path class="cls-3" d="M5.92,61.87c3.61,13.38-.77,26.91,13.95,36.76,0,0,1.63,22.38,9.56,31.49,2.21,2.54,7.89,4.97,14.01,6.99,9.63,3.19,20.35,5.38,20.35,5.38l.87-3.31,1.98-7.51s-8.05-3.57-15.89-6.54c-4.65-1.76-9.23-3.31-12.02-3.8,0,0-2.58-11.76-4.13-24.48,0,0,13.69-4.34,18.86-13.96,3.13-5.84,2.27-13.36-.39-17.4h0c-1.72-2.61-4.2-3.76-6.84-2.04,0,0,1.29-9.04-7.23-9.82-8.53-.77-12.14,5.94-12.14,5.94,0,0-.34-5.22-2-10.77,0-.01,0-.02,0-.04-.12-.41-.25-.82-.4-1.23,0-.01,0-.03-.01-.05-.8-2.4-1.86-4.78-3.26-6.77-4.91-6.98-11.88-2.07-8.26,6.46,0,0-4.68-8.24-9.2-5.41-4.67,2.94-.45,10.21,2.22,20.09ZM33.53,75.25c-1.15-1.6-1.6-3.34-1.53-4.98.05-1.14.36-2.22.87-3.17,1.26-2.34,3.74-3.84,6.59-3.19.23.05.47.12.7.2.44.15.86.27,1.25.35,3.15.65,4.66-.82,4.81-.98-2.56,3.73,2.3,6.35,0,11.77-1.73,4.1-8.47,5.91-12.7,0Z"/>
          <path class="cls-7" d="M19.88,98.63s1.63,22.38,9.56,31.49c2.21,2.54,7.89,4.97,14.01,6.99,9.63,3.19,20.35,5.38,20.35,5.38l.87-3.31c-3.81-1.98-10.44-3.9-17.07-5.9-.61-.18-1.19-.38-1.75-.58-8.95-3.21-12.32-8.52-12.32-8.52-4.12-3.63-5.08-10.66-5.11-16.23-.02-4.19-2.87-7.8-6.93-8.82-1.07-.27-1.61-.51-1.61-.51Z"/>
          <path class="cls-7" d="M7.48,49.78c1.36,3.88,3.48,10.56,5.42,24.41,1.94,13.86,5.61,24.8,21.7,22.67,0,0,13.69-4.34,18.86-13.96,3.13-5.84,2.27-13.36-.39-17.4h0c2.39,8.88.39,17.4-12.07,17.4-8.72,0-10.11-9-9-12.62.32-1.05.51-2.14.86-3.15,0,0,0-.01,0-.02,1.76-5.04,4.39-4.03,6.59-3.19.7.27,1.37.52,1.94.55h.01c2.36.09,2.52-4.22-2.91-5.38-5.44-1.16-10.87,2.52-11.45,6.78,0,0,.25-8.29-2.2-17.03,0-.01,0-.02,0-.04-.12-.44-.25-.85-.4-1.23,0-.01,0-.03-.01-.05-2.63-7.31-6.8-6.65-7.17-3.35-.39,3.49,4.26,12.98,4.07,22.48,0,0-1.94,5.72-6.74-14.43-2.76-11.58-8.47-6.3-7.12-2.42Z"/>
          <g>
            <path class="cls-9" d="M66,133.12c-8.97-3.76-18.11-8.01-27.57-10.23-.64-.12-1.11-.61-1.24-1.21-.88-4.09-1.64-8.17-2.34-12.27-.7-4.1-1.31-8.22-1.82-12.36-.09-.76.37-1.46,1.08-1.69,10.93-3.82,22.72-12.33,19.2-25.37-.73-2.82-2.95-7.29-6.21-5.2-.73.48-1.71.27-2.19-.46-.21-.32-.29-.69-.25-1.04,1.21-10.67-12.15-10.08-16.42-2.94-.74,1.36-2.87.85-2.96-.66-.26-3.02-.79-6.16-1.58-9.13-.9-3.46-4.41-13.74-8.99-11.08-1.83,1.62-1.3,4.9-.35,7.09.74,1.82-1.83,3.06-2.82,1.42-1.34-2.09-4.17-6.22-6.86-4.94-1.62.91-1.63,2.46-1.35,4.47.79,4.25,2.74,8.81,3.9,13.16.43,1.52.8,3.11,1.08,4.67,1.99,11.91.55,25.18,12.38,31.93.45.28.72.74.76,1.24.5,5.68,1.46,11.45,2.93,16.97,1.43,4.98,3.09,10.12,6.61,13.97,2.22,2.01,5.15,3.18,8.08,4.41,8.07,3.11,16.58,5.25,25.04,7.08,2.01.41,1.47,3.5-.63,3.1-8.68-1.88-17.26-4.04-25.57-7.24-4.12-1.66-8.97-3.75-11.37-7.92-5.51-9.06-7.13-19.77-8.24-30.14,0,0,.76,1.24.76,1.24-5.71-3.26-9.89-9.21-11.27-15.6-1.52-6.3-1.51-12.56-2.59-18.48-1.02-6.17-3.76-11.59-4.99-17.89-.95-4.13,1.36-8.79,6.13-8.36,3.73.64,6.04,3.79,7.94,6.76,0,0-2.83,1.4-2.83,1.4-1.46-3.34-1.91-8.13,1.26-10.78,1.68-1.47,4.38-1.5,6.23-.45,6.68,4.02,8.75,15.74,9.49,22.91,0,0-2.97-.65-2.97-.65,5.98-10.22,23.95-9.36,22.33,4.85,0,0-2.43-1.55-2.43-1.55,2.3-1.69,5.75-1.27,7.67.82,4.74,5.24,4.99,13.28,2.37,19.55-4,8.24-12.12,12.82-20.33,15.85,0,0,1.09-1.7,1.09-1.7.51,4.08,1.11,8.15,1.8,12.21.69,4.06,1.45,8.12,2.31,12.12l-1.28-1.22c9.9,2.31,18.97,6.55,28.27,10.45,1.86.84.69,3.72-1.28,2.89h0Z"/>
            <path class="cls-9" d="M40.68,62.62c1.38.48,3.25.72,4.41-.24,1.35-1.36,3.5.42,2.44,2-.9,1.36-.37,2.38.13,3.96.73,1.9,1.07,4.4.41,6.45-2.37,7.67-12.3,7.4-16.06,1.01-4.33-6.14.86-15.78,8.67-13.17h0ZM39.64,65.61c-4.89-1.59-7.68,4.77-4.99,8.46,1.9,3.32,6.7,4.72,9.4,1.68,1.51-1.78,1.45-4.24.6-6.4-.28-.87-.67-1.85-.77-3.11-.11-1.27.34-2.68,1.03-3.65l2.44,2c-2.14,2-5.16,1.89-7.71,1.02h0Z"/>
          </g>
          <path class="cls-9" d="M14.38,46.62c1.72,5.71,2.91,11.51,3.82,17.39.09.59-.8.79-.96.2-.79-2.82-1.67-5.61-2.63-8.36-.96-2.72-2.01-5.5-3.18-8.11-.84-2.05,2.23-3.22,2.96-1.12h0Z"/>
        </g>
      </g>
    </g>
  </g>
</svg>