<?xml version="1.0" encoding="UTF-8"?>
<svg id="Layer_2" data-name="Layer 2" xmlns="http://www.w3.org/2000/svg" xmlns:xlink="http://www.w3.org/1999/xlink" viewBox="0 0 398.25 376.95">
  <defs>
    <style>
      .cls-1 {
        fill: url(#linear-gradient);
      }

      .cls-1, .cls-2, .cls-3, .cls-4, .cls-5, .cls-6, .cls-7, .cls-8 {
        stroke-width: 0px;
      }

      .cls-2 {
        fill: #193650;
        fill-rule: evenodd;
      }

      .cls-3 {
        fill: url(#Adsız_degrade_5-3);
      }

      .cls-4 {
        fill: #ffc033;
      }

      .cls-9 {
        fill: #ff9810;
      }

      .cls-9, .cls-10 {
        stroke: #720000;
        stroke-linecap: round;
        stroke-linejoin: round;
        stroke-width: 5px;
      }

      .cls-5 {
        fill: url(#Adsız_degrade_5-4);
      }

      .cls-6 {
        fill: url(#Adsız_degrade_5);
      }

      .cls-10 {
        fill: none;
      }

      .cls-7 {
        fill: #fff;
      }

      .cls-8 {
        fill: url(#Adsız_degrade_5-2);
      }
    </style>
    <linearGradient id="Adsız_degrade_5" data-name="Adsız degrade 5" x1="-123.08" y1="1218.88" x2="-194.6" y2="1190.43" gradientTransform="translate(242.34 1337.75) scale(1 -1)" gradientUnits="userSpaceOnUse">
      <stop offset="0" stop-color="#c200fb"/>
      <stop offset=".49" stop-color="#3772ff"/>
      <stop offset=".49" stop-color="#3773fe"/>
      <stop offset="1" stop-color="#5ac4be"/>
    </linearGradient>
    <linearGradient id="Adsız_degrade_5-2" data-name="Adsız degrade 5" x1="-124.44" y1="1222.31" x2="-195.97" y2="1193.86" xlink:href="#Adsız_degrade_5"/>
    <linearGradient id="Adsız_degrade_5-3" data-name="Adsız degrade 5" x1="-117.32" y1="1204.41" x2="-188.85" y2="1175.95" xlink:href="#Adsız_degrade_5"/>
    <linearGradient id="Adsız_degrade_5-4" data-name="Adsız degrade 5" x1="-124.98" y1="1223.65" x2="-196.51" y2="1195.2" xlink:href="#Adsız_degrade_5"/>
    <linearGradient id="linear-gradient" x1="199.1" y1="362.2" x2="297.46" y2="82.55" gradientUnits="userSpaceOnUse">
      <stop offset="0" stop-color="#ed7eb6"/>
      <stop offset="1" stop-color="#ffaec9"/>
    </linearGradient>
  </defs>
  <g id="Layer_1-2" data-name="Layer 1">
    <g>
      <rect class="cls-9" x="13.41" y="13.85" width="382.34" height="266.51" rx="75.34" ry="75.34"/>
      <rect class="cls-4" x="2.5" y="2.5" width="382.34" height="266.51" rx="65.57" ry="65.57"/>
      <path class="cls-7" d="M120.98-31.42h145.38c20.18,0,36.57,16.39,36.57,36.57v261.21c0,20.18-16.39,36.57-36.57,36.57H120.98c-20.18,0-36.57-16.39-36.57-36.57V5.15c0-20.18,16.39-36.57,36.57-36.57Z" transform="translate(329.43 -57.92) rotate(90)"/>
      <rect class="cls-10" x="2.5" y="2.5" width="382.34" height="266.51" rx="65.57" ry="65.57"/>
    </g>
    <g>
      <path class="cls-2" d="M147.88,142.24l-3.52-6.11h-5.15v6.11h-3.03v-18.33h9.12c1.11,0,2.2.29,3.16.86.95.57,1.73,1.4,2.26,2.38.52.99.76,2.1.7,3.22-.06,1.12-.43,2.19-1.06,3.11-.66.98-1.59,1.73-2.67,2.18l3.75,6.58h-3.55ZM145.31,127.01h-6.09v6.09h6.09c.4,0,.79-.08,1.16-.24.36-.16.69-.39.96-.69.42-.43.7-.97.82-1.56.11-.59.05-1.2-.17-1.76-.23-.56-.61-1.03-1.11-1.37-.49-.34-1.08-.52-1.67-.53l.02.05ZM177.73,123.9l-9.14,18.33h3.4l5.74-11.48,5.72,11.48h3.4l-9.12-18.33ZM216.22,123.9h-3.87l-5.2,6.77-5.18-6.77h-3.89l7.62,9.78v8.56h3.03v-8.71l7.49-9.62ZM231.73,123.9h6.07c2.41.02,4.72.99,6.43,2.7,1.71,1.72,2.67,4.04,2.69,6.46-.01,2.43-.98,4.75-2.69,6.47-1.71,1.72-4.02,2.69-6.43,2.7h-6.07v-18.33ZM237.8,139.13c1.61,0,3.15-.65,4.29-1.79,1.14-1.14,1.78-2.69,1.78-4.31-.02-1.61-.66-3.16-1.8-4.3-1.14-1.14-2.67-1.79-4.27-1.81h-3.06v12.21h3.06ZM267.16,123.9h-3.03v18.33h3.03v-18.33ZM299.56,134.58c.02,1.01-.17,2.01-.56,2.94-.38.93-.95,1.77-1.68,2.47-1.06,1.07-2.42,1.8-3.89,2.09-1.48.29-3,.14-4.39-.44-1.39-.58-2.57-1.56-3.4-2.82-.83-1.26-1.28-2.74-1.27-4.25v-10.67h3.03v10.67c0,1.22.48,2.38,1.34,3.24.85.86,2.01,1.34,3.22,1.34s2.37-.48,3.22-1.34c.85-.86,1.33-2.03,1.33-3.24v-10.67h3.05v10.67ZM319.8,142.24v-10.96l6.11,6.12,6.08-6.12v10.96h3.08v-18.33l-9.15,9.17-9.12-9.17v18.33h3.01Z"/>
      <path class="cls-6" d="M113.7,123.33v27.26l-30.17,17.51-30.18-17.51v-35.03l30.18-17.52,23.18,13.46,3.5-2.03-26.68-15.49-33.68,19.55v39.09l33.68,19.55,33.68-19.55v-31.32l-3.52,2.03Z"/>
      <path class="cls-8" d="M75.08,150.61h-5.05v-17.02h16.82c1.59-.02,3.11-.66,4.23-1.8,1.12-1.14,1.75-2.67,1.76-4.27,0-.79-.14-1.58-.45-2.31-.3-.73-.75-1.39-1.32-1.94-.55-.57-1.21-1.02-1.93-1.32-.73-.31-1.51-.46-2.29-.45h-16.82v-5.18h16.84c2.95.02,5.77,1.2,7.86,3.3,2.08,2.1,3.26,4.93,3.28,7.9.02,2.27-.67,4.49-1.97,6.34-1.19,1.78-2.88,3.16-4.85,3.99-1.95.62-3.98.93-6.02.91h-10.09v11.84Z"/>
      <path class="cls-3" d="M97.9,150.19h-5.89l-4.54-7.97c1.8-.11,3.57-.48,5.27-1.08l5.17,9.05Z"/>
      <path class="cls-5" d="M110.18,117.66l3.48,1.95,3.48-1.95v-4.11l-3.48-2.03-3.48,2.03v4.11Z"/>
    </g>
    <g>
      <rect class="cls-10" x="2.5" y="2.5" width="382.34" height="266.51" rx="65.57" ry="65.57"/>
      <ellipse class="cls-1" cx="201.6" cy="355.09" rx="165.86" ry="21.86"/>
    </g>
  </g>
</svg>