<?xml version="1.0" encoding="UTF-8"?>
<svg id="Layer_2" data-name="Layer 2" xmlns="http://www.w3.org/2000/svg" viewBox="0 0 92 92">
  <defs>
    <style>
      .cls-1 {
        fill: none;
        stroke: #720000;
        stroke-linecap: round;
        stroke-linejoin: round;
        stroke-width: 6px;
      }

      .cls-2 {
        fill: #ffd1b8;
      }

      .cls-2, .cls-3, .cls-4, .cls-5 {
        stroke-width: 0px;
      }

      .cls-3 {
        fill: #fff;
        opacity: .4;
      }

      .cls-4 {
        fill: #ffc0a6;
      }

      .cls-5 {
        fill: #720000;
      }
    </style>
  </defs>
  <g id="Layer_1-2" data-name="Layer 1">
    <g>
      <rect class="cls-2" x="3" y="3" width="86" height="86" rx="20.59" ry="20.59"/>
      <path class="cls-4" d="M81,67v1.41c0,6.94-5.65,12.59-12.59,12.59H23.59c-6.94,0-12.59-5.65-12.59-12.59v-1.41h70Z"/>
      <rect class="cls-1" x="3" y="3" width="86" height="86" rx="20.59" ry="20.59"/>
      <path class="cls-5" d="M62.83,33.52c-.42,2.88-.93,6.42-1.47,9.95-.8,5.27-1.61,10.54-2.43,15.81-.13.86-.4,1.68-.87,2.43-.61.96-1.59,1.4-2.71,1.21-1.35-.23-2.49-.9-3.57-1.68-3.18-2.3-6.51-4.38-9.77-6.57-.38-.26-.77-.5-1.08-.85-.66-.76-.76-1.67-.26-2.55.38-.67.97-1.16,1.53-1.67,3.3-2.97,6.49-6.06,9.7-9.12.29-.28.54-.6.81-.91.27-.3.48-.63.18-1.01-.33-.42-.74-.25-1.09-.02-1.23.78-2.46,1.57-3.67,2.4-3.64,2.49-7.26,5.01-10.9,7.5-.96.66-1.98,1.21-3.14,1.49-.64.16-1.31.26-1.93.08-2.45-.68-4.96-1.15-7.36-2.01-.74-.27-1.62-.52-1.63-1.47-.01-.93.78-1.38,1.53-1.71,2.82-1.26,5.65-2.49,8.47-3.72,8.26-3.61,16.55-7.14,24.93-10.44.48-.19.96-.37,1.46-.49,2.24-.56,3.41.41,3.27,3.37Z"/>
      <path class="cls-3" d="M13,33v-10.07c0-.42.03-.84.1-1.25,1.08-5.91,4.36-9.5,10.9-9.68h6.9c5.82,0,9.25,6.64,5.77,11.31-7.55,10.13-22.37,18.35-23.67,9.69Z"/>
    </g>
  </g>
</svg>