<?xml version="1.0" encoding="UTF-8"?>
<svg id="Layer_2" data-name="Layer 2" xmlns="http://www.w3.org/2000/svg" viewBox="0 0 1080 424.18">
  <defs>
    <style>
      .cls-1 {
        fill: #99f3ff;
        stroke-width: 0px;
      }
    </style>
  </defs>
  <g id="Layer_1-2" data-name="Layer 1">
    <path class="cls-1" d="M1080,0v424.18l-71.86-31.94c-11.55-5.13-24.73-5.13-36.28,0l-53.72,23.88c-11.55,5.13-24.73,5.13-36.28,0l-53.73-23.88c-11.55-5.13-24.73-5.13-36.27,0l-53.73,23.88c-11.55,5.13-24.73,5.13-36.28,0l-53.71-23.88c-11.55-5.13-24.73-5.13-36.28,0l-53.73,23.88c-11.55,5.13-24.73,5.13-36.27,0l-53.73-23.88c-11.55-5.13-24.73-5.13-36.27,0l-53.73,23.88c-11.55,5.13-24.73,5.13-36.27,0l-53.73-23.88c-11.55-5.13-24.73-5.13-36.27,0l-53.74,23.88c-11.55,5.13-24.73,5.13-36.27,0l-53.73-23.88c-11.55-5.13-24.73-5.13-36.27,0L0,424.18V0h1080Z"/>
  </g>
</svg>