<?xml version="1.0" encoding="UTF-8"?>
<svg id="Layer_2" data-name="Layer 2" xmlns="http://www.w3.org/2000/svg" xmlns:xlink="http://www.w3.org/1999/xlink" viewBox="0 0 326.23 261.34">
  <defs>
    <style>
      .cls-1 {
        fill: url(#linear-gradient);
      }

      .cls-1, .cls-2, .cls-3, .cls-4, .cls-5, .cls-6, .cls-7, .cls-8, .cls-9, .cls-10 {
        stroke-width: 0px;
      }

      .cls-2 {
        opacity: .6;
      }

      .cls-2, .cls-5, .cls-7, .cls-10 {
        fill: #fff;
      }

      .cls-3 {
        fill: #ffd1b8;
      }

      .cls-4 {
        fill: #d38576;
      }

      .cls-5 {
        opacity: .3;
      }

      .cls-11 {
        fill: none;
        stroke: #720000;
        stroke-linecap: round;
        stroke-linejoin: round;
        stroke-width: 3.16px;
      }

      .cls-6 {
        fill: #bc5c50;
      }

      .cls-12, .cls-7 {
        opacity: .4;
      }

      .cls-8 {
        fill: #ffc0a6;
      }

      .cls-9 {
        fill: #720000;
      }
    </style>
    <linearGradient id="linear-gradient" x1="-549.01" y1="255.97" x2="-469.5" y2="29.89" gradientTransform="translate(712.13)" gradientUnits="userSpaceOnUse">
      <stop offset="0" stop-color="#ed7eb6"/>
      <stop offset="1" stop-color="#ffaec9"/>
    </linearGradient>
  </defs>
  <g id="Layer_1-2" data-name="Layer 1">
    <g>
      <ellipse class="cls-1" cx="165.14" cy="250.22" rx="139.67" ry="11.12"/>
      <g>
        <path class="cls-9" d="M168.8,32.53s4.75-.45,7.95-2.71c5.33-3.78,2.79-11.33-3.3-11.24-7.62.12-9.3,6.39-9.3,6.39-4.46-1.16-7.54-7.82-2.52-15.31,5.33-7.95,17.83-8.14,17.83-8.14-16.27-6.2-29.45,7.75-28.09,18.99,1.35,11.24,10.66,12.21,10.66,12.21-.58,17.44,9.79,23.64,9.79,23.64l5.71-6.3c-9.2-5.13-8.72-17.54-8.72-17.54ZM171.81,23.42c2.28-1.03,2.99,1.29,1.44,2.13-1.7.93-3.78.58-3.78.58,0,0,.14-1.72,2.34-2.71Z"/>
        <path class="cls-10" d="M157.88,7.92c-2.02,1.5-3.53,3.68-4.22,6.1-.69,2.42-.55,5.07.39,7.4-.56-3.01.27-6.37,2.18-8.76-.72,2.63-.27,5.52.99,7.94-.92-4.32.62-9.16,3.77-12.26-1.55.45-3.04,1.31-4.15,2.49,0-1.25.19-1.98,1.03-2.9Z"/>
        <path class="cls-10" d="M164.85,35.09c-.65,1.71-.74,3.76-.26,5.74s1.55,3.88,2.97,5.31c-1.45-2.04-2.2-4.75-1.94-7.08.54,2.14,1.88,4.13,3.53,5.52-2.15-2.89-3.02-6.9-2.3-10.13-.76.8-1.33,1.87-1.55,3.07-.46-.91-.62-1.51-.46-2.43Z"/>
      </g>
      <path class="cls-9" d="M204.26,32.95c-.91.21-1.61-.79-1.1-1.58,1.74-2.65,5.46-6.9,11.66-7.56,7.83-.83,12.62,2.8,14.34,5.84.41.73-.2,1.62-1.03,1.52-3.42-.43-11.84-.95-23.87,1.78Z"/>
      <path class="cls-9" d="M141.11,36.68c.73.17,1.29-.64.88-1.26-1.4-2.12-4.38-5.53-9.35-6.06-6.28-.67-10.12,2.25-11.5,4.68-.33.59.16,1.3.83,1.22,2.75-.34,9.5-.76,19.14,1.43Z"/>
      <g>
        <g>
          <path class="cls-3" d="M76.31,124.19l-9.69,10.65c-32.14-5.86-35.65-11.43-38.75-23.09-.49-1.84-.97-3.82-1.55-5.98-2.87-10.68-7.36-19.18-7.36-19.18C3.65,80.58-1,64.7,2.88,55.59c3.88-9.11,11.24-6.2,11.24-6.2,5.88-8.72,13.18-3.87,13.18-3.87,0,0,0-.02.02-.07.15-.51.94-3.75-1.18-11.36-1.96-7.03-.95-9.66.98-11.11.36-.27.75-.51,1.15-.71,3.2-1.65,8.23,1.06,10.17,11.33.47,2.5.78,4.86.97,7,0,.01,0,.02,0,.04.03.34.06.67.08,1,.46,6.04.02,10.08.02,10.08,18.08,12.27-2.33,31.07-2.33,31.07-2.33,7.82,5.04,31.71,5.04,31.71,3.06-.47,14.95,3.2,23.84,6.16,5.76,1.92,10.27,3.54,10.27,3.54Z"/>
          <path class="cls-8" d="M76.31,124.19l-9.69,10.65c-32.14-5.86-35.65-11.43-38.75-23.09,1.83,5.52,25.63,20.16,38.17,8.89,5.76,1.92,10.27,3.54,10.27,3.54Z"/>
          <path class="cls-8" d="M42.21,114.49s-3.56,4.01-6.66.91c-2.28-2.28-5.96-17.61-7.74-25.53-.6-2.66-2.58-4.76-5.17-5.58-2.89-.92-6.99-2.79-11.37-6.61.28.08,8.31,2.51,11.24-1.68.84-1.2.9-2.45.55-3.63-.9-3.08-4.38-4.68-7.36-3.48-1.39.56-3.23.84-5.46.13-5.3-1.68-3.92-10.06-3.92-10.06,0,0,1.91,2.96,6.15,1.28,4.23-1.68,4.06-7.17,2.59-10.24,0,0,2.43-3.02,4.94.7,2.52,3.72,10.89,2.17,9.39-1.32-.48-1.09-1.12-2.5-2.06-3.95.15-.51.94-3.75-1.18-11.36-1.96-7.03-.95-9.66.98-11.11,0,0-1.1,3.07.77,6.28s4.17,5.67,4.31,10.96c.14,5.3.66,8.53,3.5,8.53,2.6,0,3.96-3.39,3.8-7.11.36,4.81.16,8.36.06,9.6-1.02,0-2.06.17-3.05.56-3.08,1.2-2.93,2.41-5.44,3.3-3.23,1.14-3.65.33-6.08,1.3-3.51,1.4-3.73,4.04-1.7,5.68,2.04,1.65,10.37.42,14.34-2.84,3.97-3.26,9.16,2.61,9.16,2.61,0,0,0,0,0,0,1.8,10.43-9.61,20.95-9.61,20.95-2.33,7.82,5.04,31.71,5.04,31.71Z"/>
          <path class="cls-11" d="M76.32,124.19s-29.06-10.47-34.1-9.7c0,0-7.36-23.88-5.04-31.71,0,0,20.41-18.8,2.33-31.07,0,0,.86-7.92-1.07-18.12-1.94-10.27-6.98-12.98-10.17-11.34-2.6,1.34-4.46,3.49-2.13,11.82,2.33,8.33,1.16,11.43,1.16,11.43,0,0-7.3-4.84-13.18,3.88,0,0-7.36-2.91-11.24,6.2-3.88,9.11.78,25,16.08,31,0,0,4.5,8.5,7.36,19.18,4.26,15.89,3.1,22.28,40.3,29.06l9.69-10.65Z"/>
          <path class="cls-9" d="M39.12,53.25c-1.15-.25-1.79-.27-2.77.43-1.71,1.54-4.7,3.3-7.3,3.49-2.43.43-5.95.82-7.15,3.05-1.69,4.19,3.01,5.06,6.27,5.05.98.05,1.62,1.14,1.21,2.03-1,2.28-1.94,4.69-2.54,7.11-.09.35-.44.57-.79.48-.3-.07-.5-.34-.5-.64,0-1.33.1-2.65.25-3.96.15-1.31.33-2.6.57-3.93l1.51,2.05c-5.71.18-11.46-3.04-8.84-9.53,1.51-3.2,5.39-4.12,8.47-4.67,1.25-.19,2.63-.37,3.76-.89,1.84-.7,3.5-3.06,5.9-3.33,1.63-.17,4.24-.05,3.9,2.09-.2.86-1.08,1.39-1.93,1.17h0Z"/>
          <path class="cls-9" d="M27.56,65.28c2.96-.32,6.1-1.04,8.61-2.72.45-.35,1.05.31.65.72-2.34,2.49-5.44,3.99-8.64,5.1-.84.27-1.74-.19-2.01-1.03-.32-.96.38-2.01,1.39-2.07h0Z"/>
          <path class="cls-11" d="M27.87,45.9s2.78,3.49,1.52,9.61"/>
          <path class="cls-9" d="M14.77,47.95c4.63,2.57,6.6,10.39,4.75,15.16-1.66,4.14-7.41,6.29-11.14,3.46-2.8-2.16-3.16-5.62-2.63-8.75.04-.28.3-.48.59-.44.2.03.36.17.42.36.39,1.3.64,2.65,1.26,3.81,1.25,3.3,5.38,3.86,7.75,1.56,2.75-2.79.73-10.4-2.32-12.29-1.96-.89-.65-3.78,1.31-2.88h0Z"/>
          <path class="cls-9" d="M38.12,84.05c-2.45,1.27-5.02,1.86-7.68,2.33-.27.04-.53-.14-.57-.41-.04-.22.08-.44.28-.53,1.69-.82,3.3-1.73,4.79-2.83,1.17-.82,2.1-2.39,3.56-1.17.82.73.61,2.14-.37,2.62h0Z"/>
        </g>
        <path class="cls-3" d="M234.47,251.36c-51.74,13.97-81.82-14.01-81.82-14.01-21.31,20.54-97.14,14.47-105.67-48.05-5.95-43.61,18.71-67.6,36.38-78.94,0,0,0,0,.01,0,9.25-5.94,16.57-8.4,16.57-8.4l3.87-8.32c.02-1.58.13-3.1.3-4.55,2.41-20.54,18.3-27.39,18.3-27.39h0c.07-.13,1.03-1.71,2.78-3.9h0s.04-.06.09-.12c.16-.19.32-.38.48-.58.07-.09.16-.19.25-.29,4.16-4.93,11.72-11.93,21.58-12.94,14.86-1.51,24.61,11.74,24.61,11.74,0,0,10.4-14.99,29.65-13.16,21.18,2.01,31.73,23.56,36.6,38.92,0,0,0,.01,0,.02,1.01,3.17,1.77,6.09,2.33,8.5.99,4.24,1.37,6.98,1.37,6.98,7.74,4.02,15.33,9.15,22.2,15.63,3.98,3.75,7.72,7.95,11.12,12.65,1.73,2.39,3.38,4.91,4.92,7.57.83,1.43,1.63,2.9,2.39,4.41.92,1.81,1.79,3.67,2.61,5.59,1.08,2.52,2.07,5.14,2.98,7.86.66,2,1.27,4.05,1.83,6.16,8.66,32.81-4.09,80.66-55.76,94.62Z"/>
        <path class="cls-2" d="M288.4,150.57c-15.05-34.73-45.43-46.97-45.43-46.97l-2.15-13.72c.99,4.24,1.37,6.98,1.37,6.98,7.74,4.02,15.33,9.15,22.2,15.63,10.11,9.53,18.69,21.97,24.02,38.08Z"/>
        <path class="cls-8" d="M167.18,202.67c-4.79,2.77-8.99,5.19-13.03,6.44-8.14,2.52-15.67.26-26.21-13.61-10.71-14.1-8.59-33.49-3.89-41.53,1.24-2.13,2.67-3.46,4.08-3.69l2.73-4.08c.21-.19.41-.39.61-.58.18-.17.36-.34.54-.51,3.11-2.96,6.21-5.79,15.19-7.54,9.51-1.86,12.18,4.02,20.28,2.21,8.1-1.81,17.54-.94,25.08,13.21,7.53,14.15-10.98,41.35-25.4,49.68Z"/>
        <path class="cls-7" d="M243.46,164.01c-4.24,2.31-9.52,2.74-13.25.67-2.54-1.41-4.18-3.79-5.76-6.11-5.17-7.58-10.34-15.16-15.51-22.74-2.37-3.48-4.83-7.4-3.81-11.8,1.07-4.64,5.98-8.42,10.96-9.57,4.99-1.15,9.95-.11,14.28,1.65,14.09,5.72,36.59,35.08,13.08,47.91Z"/>
        <path class="cls-7" d="M73.75,158.79c3.52,2.3,8.29,2.78,12,.81,2.53-1.34,4.4-3.64,6.2-5.87,5.88-7.31,11.77-14.62,17.65-21.92,2.7-3.35,5.54-7.14,5.29-11.43-.27-4.53-4.17-8.26-8.56-9.44-4.38-1.18-9.08-.23-13.3,1.43-13.75,5.39-38.81,33.66-19.29,46.42Z"/>
        <path class="cls-8" d="M161.25,95.69s-28-10.53-57.12-6.62c2.41-20.54,18.3-27.39,18.3-27.39h0c8.3-9.73,19.32-10.94,27.71-8.23,8.39,2.71,17.39,9.68,17.39,9.68,0,0-7.05,9.88-6.28,32.56Z"/>
        <path class="cls-8" d="M162.72,82.79c2.53-12.29,12.88-29.52,32.83-29.33s30.3,23.64,29.2,40.88c0,0-32.28-10.27-63.68-.78,0,0-.55-.05,1.66-10.78Z"/>
        <path class="cls-2" d="M238.48,81.36c-7.21-17.37-19.89-31.78-36.51-34.39-16.63-2.61-31.37,10.82-31.37,10.82-24.03-21.3-40.75-5.32-44.56-1,4.16-4.93,11.72-11.93,21.58-12.94,14.86-1.51,24.61,11.74,24.61,11.74,0,0,10.4-14.99,29.65-13.16,21.18,2.01,31.73,23.56,36.6,38.92Z"/>
        <path class="cls-8" d="M108.73,92.64s14.09,23.67,56.09,9.84c0,0,38.27,12.84,57.65-4.43,0,0-35.39,9.02-61.22-2.36,0,0-25,11.9-52.52-3.06Z"/>
        <path class="cls-8" d="M285.44,158c-1.3-4.94-2.95-9.66-4.92-14.15,1.6-.32,3.24-.69,4.9-1.14-.82-1.92-1.69-3.78-2.61-5.59-.76-1.51-1.56-2.98-2.39-4.41-.56.2-1.14.4-1.75.58-6.63,2-13.26,3.92-17.07,5.9-2.09,1.08-3.34,2.17-3.27,3.31.03.47.41.9,1.1,1.27,15.15,8.11,17.31,28.57,13.82,44.36-2.88,13.05-11.43,29.34-34.76,40.3-45.41,21.33-93.85-9.11-93.85-9.11-18.17,12.21-58.95,12.59-78.33-18.42-16.48-26.38-4.98-61.89-5.71-60.65-8.24,13.9-11.17,30.18-8.69,48.37,2.45,17.93,10.79,31.96,24.79,41.71,11.53,8.02,26.81,12.84,41.93,12.63,20.63-.29,30.74-9.84,30.74-9.84,0,0,25.1,17.19,56.77,17.19,8.77,0,17.87-1.26,27.05-3.73,27.78-7.51,41.08-24.59,47.33-37.6,7.43-15.45,9.27-34.51,4.93-50.97Z"/>
        <path class="cls-11" d="M234.48,251.36c-51.74,13.97-81.82-14.01-81.82-14.01-21.31,20.54-97.14,14.47-105.67-48.05-9.06-66.46,52.96-87.35,52.96-87.35l3.87-8.32c.02-1.58.13-3.1.3-4.55,2.41-20.54,18.3-27.39,18.3-27.39h0c.22-.41,9.94-16.29,25.18-17.84,14.85-1.51,24.61,11.74,24.61,11.74,0,0,10.4-14.99,29.65-13.16,33.24,3.16,40.31,54.43,40.31,54.43,20.54,10.66,39.95,29.15,48.05,59.88,8.66,32.81-4.09,80.66-55.76,94.62Z"/>
        <path class="cls-9" d="M173.42,56.63c-8.41,11.42-11.17,26.33-10.47,40.3,0,.17.05.38.07.55-.01.15.13.33.18.5.07.25.34.55.47.8,0,0,.23.26.23.26,4.33,4.56,11.11,6.53,17.17,8.09,12.77,2.87,26.99,2.77,38.66-3.74.5-.33,1.13.49.53.88-3.86,2.42-8.14,4.17-12.58,5.23-13.36,3.02-27.81,1.67-40.26-4.21-2.96-1.57-6.91-3.88-7.57-7.65-.82-10.45.37-21.18,4.28-30.97,1.77-4.38,3.85-8.41,6.91-12.13.56-.67,1.56-.75,2.22-.19.69.58.75,1.61.15,2.28h0Z"/>
        <g>
          <g>
            <path class="cls-10" d="M224.74,93.57c-6.67-1.6-13.3-2.54-19.62-3.02-4.43-.34-8.71-.46-12.74-.42-2.9.02-5.68.13-8.29.29-.49.03-.97.06-1.44.09-12.91.91-21.58,3.05-21.58,3.05.14-5.94,5.29-32.94,33.58-31.65,27.89,1.27,30.1,31.65,30.1,31.65Z"/>
            <path class="cls-11" d="M224.74,93.57c-6.67-1.6-13.3-2.54-19.62-3.02-4.43-.34-8.71-.46-12.74-.42-2.9.02-5.68.13-8.29.29-.49.03-.97.06-1.44.09-12.91.91-21.58,3.05-21.58,3.05.14-5.94,5.29-32.94,33.58-31.65,27.89,1.27,30.1,31.65,30.1,31.65Z"/>
            <g>
              <path class="cls-9" d="M205.65,87.03c0,1.23-.19,2.41-.53,3.52-4.43-.34-8.71-.46-12.74-.42-2.9.02-5.68.13-8.29.29-.49.03-.97.06-1.44.09-.35-1.1-.53-2.27-.53-3.49,0-6.5,5.27-11.77,11.77-11.77s11.77,5.27,11.77,11.77Z"/>
              <path class="cls-10" d="M201.97,83.54c0,2.65-2.15,4.79-4.79,4.79-2.65,0-4.79-2.15-4.79-4.79s2.15-4.79,4.79-4.79,4.79,2.15,4.79,4.79Z"/>
              <path class="cls-5" d="M192.38,89.93c0,.06,0,.13,0,.2-2.9.02-5.68.13-8.29.29-.02-.16-.03-.33-.03-.49,0-2.3,1.86-4.16,4.16-4.16,2.3,0,4.16,1.87,4.16,4.16Z"/>
            </g>
          </g>
          <g>
            <path class="cls-10" d="M161.25,95.69c-.11-.05-3.23-1.47-8.92-3.06-3.26-.91-7.36-1.87-12.23-2.64-2.09-.34-4.33-.64-6.69-.89-.92-.1-1.86-.19-2.82-.27-7.63-.65-16.52-.75-26.46.25,1.51-17.98,16.27-26.44,18.3-27.39,11.37-5.32,28.93-5.71,42.39,7.12-2.46,6.6-4.39,15.61-3.58,26.88Z"/>
            <g>
              <path class="cls-9" d="M153.82,86.94c0,2.07-.53,4.01-1.49,5.69-3.26-.91-7.36-1.87-12.23-2.64-2.09-.34-4.33-.64-6.69-.89-.92-.1-1.86-.19-2.82-.27-.1-.61-.15-1.24-.15-1.89,0-6.45,5.23-11.69,11.69-11.69s11.69,5.23,11.69,11.69Z"/>
              <circle class="cls-10" cx="145.59" cy="85.09" r="4.79"/>
              <path class="cls-5" d="M140.31,88.83c0,.41-.07.8-.2,1.16-2.09-.34-4.33-.64-6.69-.89,0-.09-.01-.18-.01-.27,0-1.91,1.55-3.46,3.46-3.46s3.46,1.55,3.46,3.46Z"/>
            </g>
            <path class="cls-11" d="M161.25,95.69c-.11-.05-3.23-1.47-8.92-3.06-3.26-.91-7.36-1.87-12.23-2.64-2.09-.34-4.33-.64-6.69-.89-.92-.1-1.86-.19-2.82-.27-7.63-.65-16.52-.75-26.46.25,1.51-17.98,16.27-26.44,18.3-27.39,11.37-5.32,28.93-5.71,42.39,7.12-2.46,6.6-4.39,15.61-3.58,26.88Z"/>
          </g>
        </g>
        <path class="cls-9" d="M119.56,105.78c10.89,3.44,22.47,4.93,33.57,1.78.34-.12.56.4.22.56-7.94,4.09-17.49,3.97-25.92,1.55-.66-.07-10.34-3.53-7.88-3.89h0Z"/>
        <path class="cls-9" d="M105.28,92.99c1.28,3.49,3.39,7,6.58,9.08.22.14.28.43.14.65-.12.19-.37.26-.57.18-1.95-.79-3.68-2.08-5.17-3.57-1.52-1.55-2.78-3.15-3.88-5.08-.43-.76-.16-1.73.61-2.16.86-.5,1.99-.05,2.29.9h0Z"/>
        <path class="cls-9" d="M243.75,96.63c.37,4.57.57,9.1.54,13.67,0,1.02-1.54,1.09-1.64.08-.24-2.23-.53-4.46-.88-6.68-.34-2.22-.73-4.45-1.16-6.63-.36-2.17,2.88-2.63,3.13-.44h0Z"/>
        <g>
          <path class="cls-4" d="M174.74,193.16c-5.04,2.92-9.45,5.48-13.88,6.79-8.93,2.65-17.96.27-32.39-14.35-14.68-14.87-15.51-35.31-11.46-43.78,1.07-2.24,2.48-3.65,4.07-3.89l2.45-4.3c.21-.2.41-.41.61-.61.18-.18.35-.36.53-.54,3.07-3.12,6.16-6.1,16.18-7.95,10.62-1.96,14.67,4.23,23.67,2.33,9-1.91,20-.99,31.04,13.92,11.04,14.91-5.65,43.59-20.81,52.38Z"/>
          <path class="cls-6" d="M194.44,164.55c-6.01-3.62-23.38-3.98-28.74-4.99-.22-.04-.43-.09-.64-.13-3.83-.86-4.75-5.9-1.51-8.12,7.38-5.05,15.26-5.36,15.26-5.36-6.36-2.07-12.97,0-16.9,1.74-1.44.64-2.93-.79-2.34-2.25,2.95-7.2,9.1-12.58,9.1-12.58-10.2,1.32-14.8,13.8-17.72,13.81-2.92.01-1.8-9.08-1.8-9.08-2.58,4.69-1.3,13.04-1.3,13.04-6.79,5.33-12.12-18.33-12.12-18.33-.11,13.15,5.1,20.48,5.1,20.48-18.02,2.02-16.26-18.05-16.18-20.29,0-.12,0-.19,0-.19,0,0-.21.26-.54.73-1.25,1.8-4.14,6.67-2.58,11.24,1.97,5.75,9.86,11.51,9.86,11.51-13.96-1.03-15.49-11.14-14.26-14.03,0,0-.05.02-.15.08-4.05,8.47-3.22,28.91,11.46,43.78,14.44,14.62,23.47,17,32.39,14.35,2.73-2.2,4.69-4.08,4.69-4.08,3.91-6.2,1.7-16.08-.72-20.93-2.42-4.84-9.59-10.06-9.59-10.06,0,0,6.01-1.95,12.34,1.86,6.33,3.81,9.94,14.13,9.94,14.13.82-3.33.65-10.45-5.04-16.33,13.95,1.23,21.96,0,21.96,0ZM141.74,185.41c-3.35-.26-4.4-8.01-1.94-12.27,2.46-4.26,7.56-6.54,7.56-6.54-3.55-.6-2.94-.89-11.61,1.18-11.1,2.65-12.27-4.71-8.88-6.85,1.92-1.21,6.6-2.38,11.26-.96,4.65,1.43,8.52,3.6,8.52,3.6l.72,3.04,2.39,1.18c-8,4.97-4.66,17.89-8.01,17.63ZM154.68,188.13c-3.21.77-6.61-.39-7.31-7.25-.7-6.86,3.6-14.28,3.6-14.28,10.78,10.51,6.92,20.75,3.71,21.53Z"/>
          <g>
            <g class="cls-12">
              <path class="cls-10" d="M188.43,139.12c.32,1.34-6.23.07-13.52,1.8-7.29,1.73-12.57,5.81-12.89,4.47s4.44-7.59,11.74-9.32,14.36,1.72,14.67,3.06Z"/>
              <path class="cls-10" d="M145.5,128.53c.84.09-1.25,3.61-1.76,8.17-.51,4.57.75,8.45-.09,8.36-.84-.09-3.46-4.13-2.95-8.7.51-4.57,3.96-7.93,4.8-7.83Z"/>
              <path class="cls-10" d="M159.63,131.42c.43.29-1.72,1.62-3.32,3.98-1.59,2.36-2.02,4.86-2.45,4.57s-.71-3.27.88-5.63,4.45-3.22,4.89-2.92Z"/>
              <path class="cls-10" d="M127.99,136.87c.75-.39.96,3.69,3.08,7.77,2.11,4.08,5.32,6.61,4.57,7-.75.39-5.17-1.51-7.29-5.59-2.11-4.08-1.11-8.79-.36-9.18Z"/>
              <path class="cls-10" d="M119.68,146.16c.26-.23.74,1.39,1.98,2.81s2.77,2.13,2.5,2.36-2.22-.11-3.46-1.54-1.29-3.41-1.03-3.64Z"/>
              <path class="cls-10" d="M192.58,160.58c-1.15,1.24-5.59-1.2-12.49-2.41-6.9-1.2-12.79-.28-12.5-1.95s5.04-6.28,13.83-5.52c10.97.95,12.26,8.68,11.16,9.87Z"/>
              <path class="cls-10" d="M170.6,179.42c-.76-.11-1.54-2.66-3.53-5.85-1.99-3.19-4.26-5.35-3.67-5.72s3.57.24,6.33,4.09c3.44,4.79,1.6,7.59.87,7.48Z"/>
              <path class="cls-10" d="M142.09,178.24c.41-.16.53-1.68,1.24-3.71s1.7-3.53,1.33-3.66-1.96.58-3.02,3.08c-1.32,3.11.06,4.44.46,4.29Z"/>
              <path class="cls-10" d="M139.97,164.47c-.43.44-2.46-.24-5.48-.44s-5.5.27-5.46-.29,1.83-2.22,5.64-2.21c4.75,0,5.71,2.52,5.3,2.95Z"/>
              <path class="cls-10" d="M150.41,181.33c.22.53.53,1.04.97,1.39s1.06.54,1.61.36c.52-.16.91-.62,1.13-1.13s.28-1.06.33-1.61c.14-1.26.27-2.55-.11-3.76-.68-2.15-2.54-2.89-3.67-.73-.87,1.66-1,3.74-.26,5.48Z"/>
            </g>
            <g>
              <path class="cls-9" d="M115.16,147.03c.21-3.85,2.1-7.78,5.6-9.7,0,0-.34.41-.34.41,3.28-8.91,12.6-13.14,21.38-14.38,2.98-.39,6.07-.23,8.99.48,2.83.49,5.33,2.18,8.14,2.44,2.67.16,5.55-.49,8.48-.74,5.88-.75,12.07.84,16.81,4.4.13.1.17.28.07.42-.09.13-.26.16-.4.08-2.49-1.43-5.12-2.6-7.89-3.13-5.86-1.38-11.19.89-17.18.9-3-.13-5.61-1.85-8.49-2.36-2.71-.64-5.5-.75-8.27-.43-8,1.11-17.06,4.81-20.33,12.77-.06.16-.18.29-.32.36-.77.39-1.5.86-2.14,1.45-1.96,1.81-3.1,4.45-3.5,7.06,0,.37-.63.36-.6-.04h0Z"/>
              <path class="cls-9" d="M191.85,135.95c5.49,3.28,8.17,10.15,7.87,16.35-.01.33-.5.39-.59.07-1.82-5.66-3.81-11.26-7.63-15.94-.24-.23.06-.65.35-.48h0Z"/>
              <path class="cls-9" d="M127.33,183.51c4.3,5.53,9.64,10.66,16.38,12.9,2.69,1.82,6.12,2.92,9.4,3.1,3.38.24,6.75-.52,9.87-1.81,4.38-.57,8.38-3,12.03-5.41,1.22-.85,2.42-1.75,3.62-2.66.28-.23.67.21.39.46-.81.81-2.48,2.33-3.36,3.05-3.09,2.7-9.08,6.23-11.95,6.31-5.01,2.34-10.89,2.94-16.15,1.09-1.77-.6-3.4-1.36-4.99-2.53l.31.16c-5.27-1.81-9.56-5.61-12.96-9.89-1.12-1.42-2.17-2.88-3.08-4.45-.18-.31.29-.63.5-.32h0Z"/>
              <path class="cls-9" d="M142.52,198.06c-2.66-2.67-3.87-6.25-4.32-9.88-.02-.18.1-.34.28-.36.16-.02.31.08.35.23.43,1.65,1.05,3.24,1.89,4.71.8,1.34,1.9,2.8,3.13,3.67,1.2.89-.22,2.64-1.33,1.64h0Z"/>
              <path class="cls-9" d="M162.7,197.97c1.43-1.2,2.39-3,2.87-4.82.03-.15.28-.12.27.03.16,1.22-1.25,7.48-3.15,6.19-.46-.34-.45-1.06,0-1.4h0Z"/>
              <circle class="cls-9" cx="150.96" cy="163.56" r="8.77"/>
              <path class="cls-9" d="M121.73,138.06c-.51,2.95-.09,6.19,1.43,8.81.1.18.03.42-.15.52-.18.1-.4.04-.5-.13-.89-1.37-1.53-2.91-1.85-4.51-.33-1.64-.43-3.24-.23-4.92.05-.36.38-.62.74-.57.39.05.65.43.56.81h0Z"/>
              <path class="cls-9" d="M147.5,158.35c-7.44-2.29-10.5-10.44-11.48-17.46-.07-.41.57-.52.63-.09.62,3.4,1.6,6.97,3.43,9.91,1.72,2.87,4.48,5.59,7.74,6.36.85.2.53,1.51-.32,1.28h0Z"/>
              <path class="cls-9" d="M150.14,157.53c-4.43-6.73-4.6-16.58.6-22.92.29-.31.77.15.45.45-4.68,6.03-4.3,15.52-.02,21.65.6.68-.49,1.57-1.03.82h0Z"/>
              <path class="cls-9" d="M153.89,151.8c1.15-8.84,7.46-17.1,16.06-19.79.56-.18,1.13-.35,1.7-.52.1-.03.2.03.23.13.03.1-.03.19-.12.23-6.98,2.83-12.59,8.28-15.69,15.14-.7,1.58-1.36,3.21-1.82,4.88-.05.21-.4.15-.37-.07h0Z"/>
              <path class="cls-9" d="M156.02,158.42c3.97-6.46,10.7-11.64,18.45-12.02.42-.03.47.61.04.64-7.39.57-13.74,5.75-17.33,12.01-.4.8-1.62.15-1.16-.63h0Z"/>
              <path class="cls-9" d="M156.53,163.96c6.84-.44,14.52,2.35,17.28,9.05.18.39-.41.66-.58.26-2.81-6.24-10.19-8.63-16.6-7.99-.87.08-.99-1.26-.11-1.32h0Z"/>
              <path class="cls-9" d="M143.06,162.79c-3.38-2.6-8.04-3.16-12.19-2.64-.4.05-.49-.57-.09-.63,3.33-.59,6.82-.51,10.03.65.71.34,4.04,1.41,3.25,2.54-.24.32-.71.36-1,.08h0Z"/>
              <path class="cls-9" d="M145.59,168.4c-3.97,1.65-6.42,5.84-7.15,9.96-.06.42-.7.32-.63-.1.45-3.39,1.84-6.73,4.39-9.09.61-.5,3.19-2.93,3.8-1.67.17.36-.04.79-.42.91h0Z"/>
              <path class="cls-9" d="M150.66,169.8c-3.9,5.19-3.92,12.57-.82,18.17.22.37-.36.7-.56.31-2.54-4.39-3.46-9.76-1.89-14.65.51-1.64,1.2-3.17,2.23-4.64.21-.3.62-.37.92-.16.33.23.37.69.11.98h0Z"/>
              <path class="cls-9" d="M159.85,172.95c3.87,4.22,6.13,10.01,6.01,15.75,0,.18-.28.2-.3.02-.93-5.54-2.97-10.82-5.94-15.58-.1-.14.11-.33.23-.19h0Z"/>
              <path class="cls-9" d="M184.43,145.83c4.57-.7,9.87.21,13.22,3.62.12.12-.05.33-.19.23-3.91-2.45-8.46-3.18-13-3.55-.17,0-.2-.27-.02-.3h0Z"/>
              <path class="cls-9" d="M117.94,168.92c-1.95-2.26-2-6.23.51-8.1.07-.05.16-.03.21.03.04.06.04.13,0,.18-1.43,2.39-1.31,5.17-.46,7.74.06.15-.17.27-.26.14h0Z"/>
            </g>
          </g>
        </g>
        <path class="cls-9" d="M151.65,238.56c-6.57-7.07-7.85-17.42-7.27-26.67.01-.34.55-.34.54.02,0,0,.18,3.4.18,3.4.6,6.59,2.36,13.35,6.48,18.62.6.77,1.4,1.66,2.12,2.22,1.71,1.36-.42,3.88-2.05,2.41h0Z"/>
        <g>
          <path class="cls-3" d="M322.55,41.79c-4.52-2.84-9.2,5.41-9.2,5.41,3.62-8.53-3.36-13.43-8.26-6.46-1.4,1.99-2.46,4.37-3.26,6.77,0,.02,0,.03-.01.05-.14.41-.27.82-.4,1.23,0,.01,0,.02,0,.04-1.66,5.55-2,10.77-2,10.77,0,0-3.61-6.71-12.14-5.94-8.53.78-7.23,9.82-7.23,9.82-2.64-1.73-5.13-.58-6.84,2.04h0c-2.66,4.04-3.52,11.56-.39,17.4,5.17,9.62,18.86,13.96,18.86,13.96-1.55,12.72-4.13,24.48-4.13,24.48-2.79.49-7.36,2.04-12.02,3.8-7.84,2.97-15.89,6.54-15.89,6.54l1.98,7.51.87,3.31s10.72-2.18,20.35-5.38c6.12-2.03,11.8-4.46,14.01-6.99,7.93-9.11,9.56-31.49,9.56-31.49,14.73-9.84,10.34-23.38,13.95-36.76,2.67-9.88,6.89-17.15,2.22-20.09ZM280.03,75.25c-2.29-5.42,2.57-8.04,0-11.77.15.15,1.66,1.63,4.81.98.39-.08.81-.19,1.25-.35.24-.08.47-.15.7-.2,2.85-.64,5.33.85,6.59,3.19.51.95.82,2.04.87,3.17.07,1.63-.38,3.37-1.53,4.98-4.23,5.91-10.97,4.1-12.7,0Z"/>
          <path class="cls-8" d="M306.38,98.63s-1.63,22.38-9.56,31.49c-2.21,2.54-7.89,4.97-14.01,6.99-9.63,3.19-20.35,5.38-20.35,5.38l-.87-3.31c3.81-1.98,10.44-3.9,17.07-5.9.61-.18,1.19-.38,1.75-.58,8.95-3.21,12.32-8.52,12.32-8.52,4.12-3.63,5.08-10.66,5.11-16.23.02-4.19,2.87-7.8,6.93-8.82,1.07-.27,1.61-.51,1.61-.51Z"/>
          <path class="cls-8" d="M318.77,49.78c-1.36,3.88-3.48,10.56-5.42,24.41-1.94,13.86-5.61,24.8-21.7,22.67,0,0-13.69-4.34-18.86-13.96-3.13-5.84-2.27-13.36.39-17.4h0c-2.39,8.88-.39,17.4,12.07,17.4,8.72,0,10.11-9,9-12.62-.32-1.05-.51-2.14-.86-3.15,0,0,0-.01,0-.02-1.76-5.04-4.39-4.03-6.59-3.19-.7.27-1.37.52-1.94.55h-.01c-2.36.09-2.52-4.22,2.91-5.38,5.44-1.16,10.87,2.52,11.45,6.78,0,0-.25-8.29,2.2-17.03,0-.01,0-.02,0-.04.12-.44.25-.85.4-1.23,0-.01,0-.03.01-.05,2.63-7.31,6.8-6.65,7.17-3.35.39,3.49-4.26,12.98-4.07,22.48,0,0,1.94,5.72,6.74-14.43,2.76-11.58,8.47-6.3,7.12-2.42Z"/>
          <g>
            <path class="cls-9" d="M262.14,140.95c5.65-1.2,11.32-2.62,16.86-4.28,5.27-1.68,11.1-3.44,15.56-6.6,7.01-6.48,9.28-22.26,10.24-31.55.05-.53.34-.98.76-1.24,11.83-6.75,10.39-20.01,12.38-31.93.54-3.12,1.49-6.18,2.46-9.17.94-2.95,2.04-5.88,2.52-8.67.22-1.37.21-2.7-.28-3.47-2.59-3.6-6.45,1.49-7.93,3.94-.45.75-1.42,1-2.17.55-.68-.41-.95-1.25-.65-1.97.55-1.32.9-2.7.87-4-.28-5.25-4.7-4.06-6.74-.37-3.18,5.07-4.46,11.56-5.05,17.5-.07.87-.84,1.52-1.72,1.45-.54-.05-1-.36-1.25-.8-.44-.75-1.21-1.67-1.9-2.29-3.29-3.18-10.34-4.41-13.35-.43-1.06,1.53-1.37,3.84-1.17,5.66.19,1.3-1.38,2.24-2.43,1.51-3.27-2.09-5.47,2.38-6.21,5.2-3.52,13.06,8.29,21.56,19.23,25.38.72.25,1.14.96,1.05,1.68-.51,4.14-1.12,8.26-1.82,12.36-.7,4.11-1.46,8.18-2.34,12.27-.14.64-.64,1.1-1.24,1.21-2.26.43-4.63,1.19-6.95,1.98-6.98,2.43-13.84,5.29-20.62,8.25-.8.36-1.74,0-2.09-.81-.35-.8.01-1.73.81-2.08,9.31-3.9,18.37-8.14,28.27-10.45,0,0-1.28,1.22-1.28,1.22.86-4,1.62-8.07,2.31-12.12.69-4.06,1.29-8.13,1.8-12.21l1.09,1.7c-8.2-3.03-16.33-7.61-20.33-15.85-2.62-6.27-2.37-14.31,2.37-19.55,1.9-2.08,5.38-2.52,7.67-.82,0,0-2.43,1.55-2.43,1.55-1.36-12.26,11.94-14.93,19.79-7.97,1.02.97,1.8,1.85,2.55,3.12,0,0-2.97.65-2.97.65.68-6.67,1.95-13.19,5.55-19.01,3.64-6.45,12.09-6.43,12.55,2.03.04,1.91-.44,3.68-1.12,5.31,0,0-2.83-1.4-2.83-1.4.89-1.49,1.85-2.77,3.07-4.01,1.33-1.3,2.86-2.47,4.86-2.75,3.26-.47,6.28,2.54,6.29,5.7.11,4.18-1.7,8.11-2.8,11.81-.95,2.94-1.85,5.8-2.35,8.74-2.03,12.8-.71,26.37-13.86,34.07,0,0,.76-1.24.76-1.24-.53,5.97-1.49,11.79-3.03,17.57-1.42,5.07-3.23,10.3-6.61,14.48-2.56,3.04-6.58,4.58-9.97,6.01-2.78,1.09-5.59,2.03-8.42,2.88-5.67,1.7-11.36,3.13-17.15,4.35-2.04.37-2.7-2.63-.63-3.1h0Z"/>
            <path class="cls-9" d="M294.02,76.17c-3.96,6.04-13.48,6.13-15.82-1.36-.51-1.64-.47-3.56-.01-5.13.47-2.05,1.7-3.55.55-5.31-1.1-1.6,1.1-3.39,2.44-2,2.2,1.72,4.94-.48,7.46-.17,6.66.48,9.2,9.08,5.38,13.96h0ZM291.44,74.33c2.39-3.02,1.12-8.58-3.04-8.97-.9-.05-1.33.11-2.33.4-2.34.71-5.23.67-7.17-1.19,0,0,2.44-2,2.44-2,.9,1.27,1.24,3.01.92,4.49-.58,2.57-1.8,4.39-1.03,6.83.61,2.41,3.19,3.89,5.65,3.48,1.89-.27,3.43-1.52,4.57-3.05h0Z"/>
          </g>
          <path class="cls-9" d="M314.83,47.76c-2.34,5.3-4.22,10.86-5.81,16.46-.16.58-1.05.4-.96-.2.44-2.92.97-5.83,1.6-8.72.64-2.93,1.33-5.77,2.22-8.67.26-.84,1.15-1.3,1.98-1.05.91.27,1.38,1.32.97,2.18h0Z"/>
        </g>
      </g>
    </g>
  </g>
</svg>