<?xml version="1.0" encoding="UTF-8"?>
<svg id="Layer_2" data-name="Layer 2" xmlns="http://www.w3.org/2000/svg" viewBox="0 0 693.71 169.71">
  <defs>
    <style>
      .cls-1 {
        fill: none;
        stroke-linecap: round;
        stroke-linejoin: round;
        stroke-width: 4.97px;
      }

      .cls-1, .cls-2, .cls-3 {
        stroke: #720000;
      }

      .cls-1, .cls-4, .cls-5 {
        font-family: Kanit-Black, Kanit;
        font-size: 120.18px;
        font-weight: 800;
      }

      .cls-2 {
        stroke-width: 4px;
      }

      .cls-2, .cls-3 {
        fill: #99ffe2;
        stroke-miterlimit: 10;
      }

      .cls-3 {
        stroke-width: 3px;
      }

      .cls-6 {
        letter-spacing: -.03em;
      }

      .cls-7 {
        letter-spacing: -.02em;
      }

      .cls-4 {
        fill: #ffce00;
      }

      .cls-5 {
        fill: #720000;
      }
    </style>
  </defs>
  <g id="Layer_1-2" data-name="Layer 1">
    <g>
      <g>
        <text class="cls-5" transform="translate(48.79 120.24) scale(.86 1)"><tspan class="cls-6" x="0" y="0">T</tspan><tspan class="cls-7" x="65.14" y="0">OKENOMICS</tspan></text>
        <text class="cls-1" transform="translate(47.71 120.24) scale(.86 1)"><tspan class="cls-6" x="0" y="0">T</tspan><tspan class="cls-7" x="65.14" y="0">OKENOMICS</tspan></text>
        <text class="cls-4" transform="translate(35.82 120.24) scale(.86 1)"><tspan class="cls-6" x="0" y="0">T</tspan><tspan class="cls-7" x="65.14" y="0">OKENOMICS</tspan></text>
        <text class="cls-1" transform="translate(35.82 120.24) scale(.86 1)"><tspan class="cls-6" x="0" y="0">T</tspan><tspan class="cls-7" x="65.14" y="0">OKENOMICS</tspan></text>
      </g>
      <path class="cls-2" d="M683.8,36.54c0,2.29-3.34,4.32-8.44,5.53-2.71.64-4.83,2.77-5.48,5.48-1.21,5.1-3.23,8.44-5.53,8.44s-4.32-3.34-5.53-8.44c-.64-2.71-2.77-4.83-5.48-5.48-5.1-1.21-8.44-3.24-8.44-5.53s3.34-4.33,8.44-5.54c2.71-.64,4.83-2.77,5.47-5.48,1.21-5.1,3.23-8.44,5.53-8.44s4.32,3.34,5.53,8.44c.64,2.71,2.77,4.83,5.47,5.48,5.1,1.21,8.44,3.24,8.44,5.54Z"/>
      <path class="cls-2" d="M55.27,106.26c0,2.29-3.34,4.32-8.44,5.53-2.71.64-4.83,2.77-5.48,5.48-1.21,5.1-3.23,8.44-5.53,8.44s-4.32-3.34-5.53-8.44c-.64-2.71-2.77-4.83-5.48-5.48-5.1-1.21-8.44-3.24-8.44-5.53s3.34-4.33,8.44-5.54c2.71-.64,4.83-2.77,5.47-5.48,1.21-5.1,3.23-8.44,5.53-8.44s4.32,3.34,5.53,8.44c.64,2.71,2.77,4.83,5.47,5.48,5.1,1.21,8.44,3.24,8.44,5.54Z"/>
      <path class="cls-3" d="M691.19,10.98c0,1.12-1.63,2.11-4.12,2.7-1.32.31-2.36,1.35-2.67,2.67-.59,2.48-1.57,4.11-2.7,4.11s-2.11-1.63-2.7-4.11c-.31-1.32-1.35-2.36-2.67-2.67-2.49-.59-4.12-1.58-4.12-2.7s1.63-2.11,4.12-2.7c1.32-.31,2.36-1.35,2.67-2.67.59-2.49,1.57-4.11,2.7-4.11s2.11,1.63,2.7,4.11c.31,1.32,1.35,2.36,2.67,2.67,2.49.59,4.12,1.58,4.12,2.7Z"/>
      <path class="cls-3" d="M20.46,12.24c0,1.12-1.63,2.11-4.12,2.7-1.32.31-2.36,1.35-2.67,2.67-.59,2.48-1.57,4.11-2.7,4.11s-2.11-1.63-2.7-4.11c-.31-1.32-1.35-2.36-2.67-2.67-2.49-.59-4.12-1.58-4.12-2.7s1.63-2.11,4.12-2.7c1.32-.31,2.36-1.35,2.67-2.67.59-2.49,1.57-4.11,2.7-4.11s2.11,1.63,2.7,4.11c.31,1.32,1.35,2.36,2.67,2.67,2.49.59,4.12,1.58,4.12,2.7Z"/>
      <path class="cls-3" d="M692.21,125.71c0,1.12-1.63,2.11-4.12,2.7-1.32.31-2.36,1.35-2.67,2.67-.59,2.48-1.57,4.11-2.7,4.11s-2.11-1.63-2.7-4.11c-.31-1.32-1.35-2.36-2.67-2.67-2.49-.59-4.12-1.58-4.12-2.7s1.63-2.11,4.12-2.7c1.32-.31,2.36-1.35,2.67-2.67.59-2.49,1.57-4.11,2.7-4.11s2.11,1.63,2.7,4.11c.31,1.32,1.35,2.36,2.67,2.67,2.49.59,4.12,1.58,4.12,2.7Z"/>
    </g>
  </g>
</svg>