<?xml version="1.0" encoding="utf-8"?>
<!-- Generator: Adobe Illustrator 26.5.0, SVG Export Plug-In . SVG Version: 6.00 Build 0)  -->
<svg version="1.1" id="Layer_2_00000152982435002122631190000006249926932224095929_"
	 xmlns="http://www.w3.org/2000/svg" xmlns:xlink="http://www.w3.org/1999/xlink" x="0px" y="0px" viewBox="0 0 703.6 169.7"
	 style="enable-background:new 0 0 703.6 169.7;" xml:space="preserve">
<style type="text/css">
	.st0{fill:#720000;}
	.st1{font-family:'Arial-BoldMT';}
	.st2{font-size:114.3771px;}
	.st3{letter-spacing:-1.2;}
	.st4{fill:none;stroke:#720000;stroke-width:4.97;stroke-linecap:round;stroke-linejoin:round;}
	.st5{fill:#FFCE00;}
	.st6{fill:#99FFE2;stroke:#720000;stroke-width:4;stroke-miterlimit:10;}
	.st7{fill:#99FFE2;stroke:#720000;stroke-width:3;stroke-miterlimit:10;}
</style>
<g id="Layer_1-2">
	<g>
		<g>
			<text transform="matrix(0.86 0 0 1 48.1675 118.9229)" class="st0 st1 st2 st3">T</text>
			<text transform="matrix(0.86 0 0 1 101.4824 118.9229)" class="st0 st1 st2">OKENOMICS</text>
			<text transform="matrix(0.86 0 0 1 47.1392 118.9229)" class="st4 st1 st2 st3">T</text>
			<text transform="matrix(0.86 0 0 1 100.4546 118.9229)" class="st4 st1 st2">OKENOMICS</text>
			<text transform="matrix(0.86 0 0 1 35.8232 118.9229)" class="st5 st1 st2 st3">T</text>
			<text transform="matrix(0.86 0 0 1 89.1387 118.9229)" class="st5 st1 st2">OKENOMICS</text>
			<text transform="matrix(0.86 0 0 1 35.8232 118.9229)" class="st4 st1 st2 st3">T</text>
			<text transform="matrix(0.86 0 0 1 89.1387 118.9229)" class="st4 st1 st2">OKENOMICS</text>
		</g>
		<path class="st6" d="M652.5,39.3c0,2.2-3.2,4.1-8,5.3c-2.6,0.6-4.6,2.6-5.2,5.2c-1.2,4.9-3.1,8-5.3,8s-4.1-3.2-5.3-8
			c-0.6-2.6-2.6-4.6-5.2-5.2c-4.9-1.2-8-3.1-8-5.3s3.2-4.1,8-5.3c2.6-0.6,4.6-2.6,5.2-5.2c1.2-4.9,3.1-8,5.3-8s4.1,3.2,5.3,8
			c0.6,2.6,2.6,4.6,5.2,5.2C649.3,35.1,652.5,37.1,652.5,39.3L652.5,39.3z"/>
		<path class="st6" d="M54.3,105.6c0,2.2-3.2,4.1-8,5.3c-2.6,0.6-4.6,2.6-5.2,5.2c-1.2,4.9-3.1,8-5.3,8s-4.1-3.2-5.3-8
			c-0.6-2.6-2.6-4.6-5.2-5.2c-4.9-1.2-8-3.1-8-5.3s3.2-4.1,8-5.3c2.6-0.6,4.6-2.6,5.2-5.2c1.2-4.9,3.1-8,5.3-8s4.1,3.2,5.3,8
			c0.6,2.6,2.6,4.6,5.2,5.2C51.1,101.5,54.3,103.4,54.3,105.6L54.3,105.6z"/>
		<path class="st7" d="M659.5,14.9c0,1.1-1.6,2-3.9,2.6c-1.3,0.3-2.2,1.3-2.5,2.5c-0.6,2.4-1.5,3.9-2.6,3.9s-2-1.6-2.6-3.9
			c-0.3-1.3-1.3-2.2-2.5-2.5c-2.4-0.6-3.9-1.5-3.9-2.6s1.6-2,3.9-2.6c1.3-0.3,2.2-1.3,2.5-2.5c0.6-2.4,1.5-3.9,2.6-3.9
			s2,1.6,2.6,3.9c0.3,1.3,1.3,2.2,2.5,2.5C658,12.9,659.5,13.9,659.5,14.9z"/>
		<path class="st7" d="M21.2,16.1c0,1.1-1.6,2-3.9,2.6C16,19,15,20,14.7,21.2c-0.6,2.4-1.5,3.9-2.6,3.9s-2-1.6-2.6-3.9
			C9.3,20,8.3,19,7.1,18.7c-2.4-0.6-3.9-1.5-3.9-2.6s1.6-2,3.9-2.6c1.3-0.3,2.2-1.3,2.5-2.5c0.6-2.4,1.5-3.9,2.6-3.9s2,1.6,2.6,3.9
			c0.3,1.3,1.3,2.2,2.5,2.5C19.7,14.1,21.2,15.1,21.2,16.1z"/>
		<path class="st7" d="M660.5,124.1c0,1.1-1.6,2-3.9,2.6c-1.3,0.3-2.2,1.3-2.5,2.5c-0.6,2.4-1.5,3.9-2.6,3.9s-2-1.6-2.6-3.9
			c-0.3-1.3-1.3-2.2-2.5-2.5c-2.4-0.6-3.9-1.5-3.9-2.6s1.6-2,3.9-2.6c1.3-0.3,2.2-1.3,2.5-2.5c0.6-2.4,1.5-3.9,2.6-3.9
			s2,1.6,2.6,3.9c0.3,1.3,1.3,2.2,2.5,2.5C659,122.1,660.5,123.1,660.5,124.1z"/>
	</g>
</g>
</svg>
