<?xml version="1.0" encoding="UTF-8"?>
<svg id="Layer_2" data-name="Layer 2" xmlns="http://www.w3.org/2000/svg" viewBox="0 0 1080 424.18">
  <defs>
    <style>
      .cls-1 {
        fill: #fff;
        stroke-width: 0px;
      }
    </style>
  </defs>
  <g id="Layer_1-2" data-name="Layer 1">
    <path class="cls-1" d="M1080,0l-67.24,29.88c-14.5,6.44-31.04,6.44-45.54,0l-44.47-19.76c-14.5-6.44-31.04-6.44-45.54,0l-44.46,19.76c-14.5,6.44-31.04,6.44-45.54,0l-44.46-19.76c-14.5-6.44-31.04-6.44-45.54,0l-44.46,19.76c-14.5,6.44-31.04,6.44-45.54,0l-44.46-19.76c-14.5-6.44-31.04-6.44-45.54,0l-44.46,19.76c-14.5,6.44-31.05,6.44-45.54,0l-44.45-19.76c-14.5-6.44-31.05-6.44-45.54,0l-44.46,19.76c-14.5,6.44-31.05,6.44-45.54,0l-44.46-19.76c-14.5-6.44-31.05-6.44-45.54,0l-44.45,19.76c-14.5,6.44-31.05,6.44-45.54,0L0,0v424.18h1080V0Z"/>
  </g>
</svg>