<?xml version="1.0" encoding="UTF-8"?>
<svg id="Layer_2" data-name="Layer 2" xmlns="http://www.w3.org/2000/svg" viewBox="0 0 92 92">
  <defs>
    <style>
      .cls-1 {
        fill: none;
        stroke: #720000;
        stroke-linecap: round;
        stroke-linejoin: round;
        stroke-width: 6px;
      }

      .cls-2 {
        fill: #ffd1b8;
      }

      .cls-2, .cls-3, .cls-4, .cls-5 {
        stroke-width: 0px;
      }

      .cls-3 {
        fill: #fff;
        opacity: .4;
      }

      .cls-4 {
        fill: #ffc0a6;
      }

      .cls-5 {
        fill: #720000;
      }
    </style>
  </defs>
  <g id="Layer_1-2" data-name="Layer 1">
    <g>
      <rect class="cls-2" x="3" y="3" width="86" height="86" rx="20.59" ry="20.59"/>
      <path class="cls-4" d="M81,67v1.41c0,6.94-5.65,12.59-12.59,12.59H23.59c-6.94,0-12.59-5.65-12.59-12.59v-1.41h70Z"/>
      <rect class="cls-1" x="3" y="3" width="86" height="86" rx="20.59" ry="20.59"/>
      <path class="cls-3" d="M13,33v-10.07c0-.42.03-.84.1-1.25,1.08-5.91,4.36-9.5,10.9-9.68h6.9c5.82,0,9.25,6.64,5.77,11.31-7.55,10.13-22.37,18.35-23.67,9.69Z"/>
      <path class="cls-5" d="M66,63.29h-.18c-3.46,0-6.92,0-10.37,0-.09,0-.16-.02-.22-.1-2.11-2.83-4.23-5.66-6.34-8.49-1.12-1.49-2.24-2.99-3.35-4.48-.03-.03-.05-.07-.09-.11-.08.08-.16.16-.23.24-2.23,2.4-4.45,4.81-6.68,7.21-1.74,1.88-3.49,3.77-5.24,5.65-.04.04-.12.08-.18.08-.97,0-1.94,0-2.91,0-.03,0-.07,0-.13,0,4.66-5.03,9.3-10.05,13.95-15.07-4.62-6.18-9.24-12.35-13.87-18.54.07,0,.12,0,.16,0,3.46,0,6.93,0,10.39,0,.11,0,.17.03.23.12,2.96,3.96,5.92,7.92,8.88,11.88.04.05.07.1.12.16.1-.1.19-.19.27-.29,2.7-2.92,5.41-5.85,8.11-8.77.93-1,1.86-2,2.79-3,.04-.04.11-.08.16-.08.99,0,1.99,0,2.98,0,.01,0,.03,0,.07.01-4.33,4.68-8.65,9.35-12.98,14.03,4.88,6.52,9.75,13.04,14.65,19.59ZM34.8,31.99c.05.07.08.11.11.15,2.13,2.85,4.27,5.71,6.4,8.56,1.75,2.34,3.5,4.67,5.24,7.01,3.28,4.39,6.56,8.77,9.84,13.16.05.07.11.1.2.1,1.54,0,3.09,0,4.63,0,.04,0,.07,0,.13,0-.03-.04-.05-.07-.07-.1-1.61-2.16-3.22-4.31-4.84-6.47-1.95-2.61-3.91-5.23-5.86-7.84-3.6-4.82-7.21-9.64-10.81-14.46-.06-.08-.12-.11-.22-.11-1.53,0-3.06,0-4.59,0h-.17Z"/>
    </g>
  </g>
</svg>